<?xml version="1.0" encoding="utf-8"?><svg xmlns="http://www.w3.org/2000/svg" xmlns:xlink="http://www.w3.org/1999/xlink"><symbol viewBox="0 0 16 13" id="check" xmlns="http://www.w3.org/2000/svg"><path d="M5.418 11.778L1.163 7.031a1.047 1.047 0 01.043-1.434.947.947 0 011.38.045m2.832 6.136l-2.906-6.07m2.906 6.07a.958.958 0 00.712.322h.007a.956.956 0 00.715-.333l-.076-.066m-1.358.077l1.434-.011M2.587 5.642l-.075.067m.075-.067l-.075.067m.075-.067L6.12 9.583M2.512 5.709l3.542 3.95.067-.076m0 0l.067.075-.066.076 8.594-8.494c.356.341.38.921.055 1.294m-8.65 7.049l7.282-8.35a.948.948 0 011.382-.065c.395.378.422 1.02.061 1.432l-.075-.066m0 0l.075.066m-.075-.066l-7.995 9.167m8.07-9.1l-9.353 9.11A.857.857 0 006.13 12h.007a.856.856 0 00.64-.299m8.07-9.1l-7.995 9.166M14.846 2.6l-7.994 9.167m-.076-.066l.076.066"/></symbol><symbol viewBox="0 0 32 32" id="clock" xmlns="http://www.w3.org/2000/svg"><path fill-rule="evenodd" clip-rule="evenodd" d="M22 14.5h-4.5V10a1.5 1.5 0 10-3 0v6c0 .83.672 1.5 1.5 1.5h6c.83 0 1.5-.67 1.5-1.5s-.67-1.5-1.5-1.5zM16 28C9.384 28 4 22.616 4 16 4 9.383 9.384 4 16 4c6.617 0 12 5.383 12 12 0 6.616-5.383 12-12 12zm0-27C7.73 1 1 7.729 1 16s6.73 15 15 15c8.271 0 15-6.729 15-15S24.271 1 16 1z"/><path d="M17.5 14.5H17v.5h.5v-.5zM22 14h-4.5v1H22v-1zm-4 .5V10h-1v4.5h1zm0-4.5a2 2 0 00-2-2v1a1 1 0 011 1h1zm-2-2a2 2 0 00-2 2h1a1 1 0 011-1V8zm-2 2v6h1v-6h-1zm0 6a2 2 0 002 2v-1a1 1 0 01-1-1h-1zm2 2h6v-1h-6v1zm6 0c1.106 0 2-.894 2-2h-1c0 .553-.446 1-1 1v1zm2-2c0-1.106-.894-2-2-2v1c.554 0 1 .447 1 1h1zm-8 11.5C9.66 27.5 4.5 22.34 4.5 16h-1c0 6.893 5.608 12.5 12.5 12.5v-1zM4.5 16C4.5 9.66 9.66 4.5 16 4.5v-1C9.108 3.5 3.5 9.107 3.5 16h1zM16 4.5c6.34 0 11.5 5.16 11.5 11.5h1c0-6.893-5.607-12.5-12.5-12.5v1zM27.5 16c0 6.34-5.16 11.5-11.5 11.5v1c6.893 0 12.5-5.607 12.5-12.5h-1zM16 .5C7.453.5.5 7.453.5 16h1C1.5 8.005 8.006 1.5 16 1.5v-1zM.5 16c0 8.547 6.953 15.5 15.5 15.5v-1C8.006 30.5 1.5 23.995 1.5 16h-1zM16 31.5c8.548 0 15.5-6.953 15.5-15.5h-1c0 7.995-6.505 14.5-14.5 14.5v1zM31.5 16C31.5 7.453 24.548.5 16 .5v1c7.995 0 14.5 6.505 14.5 14.5h1z"/></symbol><symbol viewBox="0 0 14 27" id="fb" xmlns="http://www.w3.org/2000/svg"><path d="M11.036 4.483h2.465V.19C13.076.132 11.613 0 9.911 0 6.355 0 3.92 2.235 3.92 6.344v3.781H0v4.8h3.922V27H8.73V14.925h3.763l.598-4.799H8.729V6.82c.001-1.387.375-2.337 2.307-2.337z"/></symbol><symbol viewBox="0 0 24 24" id="in" xmlns="http://www.w3.org/2000/svg"><mask id="da" maskUnits="userSpaceOnUse" x=".118" y="0" width="24" height="24"><path d="M.118 0h24v24h-24z"/><path fill-rule="evenodd" clip-rule="evenodd" d="M12.319 1c-3.042 0-3.424.013-4.618.068-1.193.054-2.007.243-2.719.52A5.484 5.484 0 002.998 2.88a5.498 5.498 0 00-1.293 1.983c-.277.713-.466 1.527-.52 2.719-.053 1.194-.067 1.576-.067 4.618 0 3.042.013 3.423.067 4.617.055 1.192.244 2.006.52 2.718a5.488 5.488 0 001.292 1.985 5.482 5.482 0 001.984 1.292c.712.277 1.527.466 2.719.52 1.194.055 1.576.068 4.617.068 3.042 0 3.423-.013 4.618-.067 1.192-.055 2.007-.244 2.72-.52a5.478 5.478 0 001.982-1.293 5.498 5.498 0 001.293-1.984c.275-.713.464-1.527.52-2.719.054-1.194.068-1.575.068-4.617s-.014-3.423-.068-4.618c-.056-1.192-.245-2.006-.52-2.718a5.497 5.497 0 00-1.293-1.984 5.473 5.473 0 00-1.983-1.292c-.714-.277-1.529-.466-2.721-.52C15.738 1.013 15.358 1 12.315 1h.004zm-.374 2.018h.374c2.99 0 3.345.011 4.526.065 1.092.05 1.684.232 2.08.386.522.203.895.445 1.286.837.392.392.635.766.838 1.288.154.395.337.987.386 2.08.054 1.18.066 1.535.066 4.524s-.012 3.343-.066 4.524c-.05 1.092-.232 1.685-.386 2.079a3.462 3.462 0 01-.838 1.287 3.464 3.464 0 01-1.287.837c-.394.154-.987.336-2.08.386-1.18.054-1.535.066-4.525.066s-3.345-.012-4.526-.066c-1.092-.05-1.684-.233-2.08-.386a3.47 3.47 0 01-1.288-.838 3.471 3.471 0 01-.838-1.287c-.153-.394-.336-.987-.385-2.079-.054-1.18-.065-1.535-.065-4.526 0-2.991.01-3.344.065-4.525.05-1.092.232-1.684.385-2.079a3.47 3.47 0 01.838-1.288 3.476 3.476 0 011.288-.838c.395-.154.988-.336 2.08-.386 1.033-.047 1.434-.061 3.521-.063v.002h.631zm6.353 1.861a1.344 1.344 0 100 2.689 1.344 1.344 0 000-2.69v.001zM6.568 12.2a5.752 5.752 0 1111.503 0 5.752 5.752 0 01-11.504 0zm9.484-.002a3.733 3.733 0 10-7.467 0 3.733 3.733 0 007.467 0z"/></mask><path fill-rule="evenodd" clip-rule="evenodd" d="M12.319 1c-3.042 0-3.424.013-4.618.068-1.193.054-2.007.243-2.719.52A5.484 5.484 0 002.998 2.88a5.498 5.498 0 00-1.293 1.983c-.277.713-.466 1.527-.52 2.719-.053 1.194-.067 1.576-.067 4.618 0 3.042.013 3.423.067 4.617.055 1.192.244 2.006.52 2.718a5.488 5.488 0 001.292 1.985 5.482 5.482 0 001.984 1.292c.712.277 1.527.466 2.719.52 1.194.055 1.576.068 4.617.068 3.042 0 3.423-.013 4.618-.067 1.192-.055 2.007-.244 2.72-.52a5.478 5.478 0 001.982-1.293 5.498 5.498 0 001.293-1.984c.275-.713.464-1.527.52-2.719.054-1.194.068-1.575.068-4.617s-.014-3.423-.068-4.618c-.056-1.192-.245-2.006-.52-2.718a5.497 5.497 0 00-1.293-1.984 5.473 5.473 0 00-1.983-1.292c-.714-.277-1.529-.466-2.721-.52C15.738 1.013 15.358 1 12.315 1h.004zm-.374 2.018h.374c2.99 0 3.345.011 4.526.065 1.092.05 1.684.232 2.08.386.522.203.895.445 1.286.837.392.392.635.766.838 1.288.154.395.337.987.386 2.08.054 1.18.066 1.535.066 4.524s-.012 3.343-.066 4.524c-.05 1.092-.232 1.685-.386 2.079a3.462 3.462 0 01-.838 1.287 3.464 3.464 0 01-1.287.837c-.394.154-.987.336-2.08.386-1.18.054-1.535.066-4.525.066s-3.345-.012-4.526-.066c-1.092-.05-1.684-.233-2.08-.386a3.47 3.47 0 01-1.288-.838 3.471 3.471 0 01-.838-1.287c-.153-.394-.336-.987-.385-2.079-.054-1.18-.065-1.535-.065-4.526 0-2.991.01-3.344.065-4.525.05-1.092.232-1.684.385-2.079a3.47 3.47 0 01.838-1.288 3.476 3.476 0 011.288-.838c.395-.154.988-.336 2.08-.386 1.033-.047 1.434-.061 3.521-.063v.002h.631zm6.353 1.861a1.344 1.344 0 100 2.689 1.344 1.344 0 000-2.69v.001zM6.568 12.2a5.752 5.752 0 1111.503 0 5.752 5.752 0 01-11.504 0zm9.484-.002a3.733 3.733 0 10-7.467 0 3.733 3.733 0 007.467 0z"/><path d="M7.7 1.068l-.009-.2.01.2zm-2.718.52l.073.186-.073-.186zM2.998 2.88l.141.141L3 2.88zM1.705 4.863l.187.073-.187-.073zm-.52 2.719l-.2-.01.2.01zm0 9.235l-.2.01.2-.01zm.52 2.718l-.186.073.187-.073zm1.292 1.985l.142-.142-.142.142zm1.984 1.292l.072-.186-.072.186zm2.719.52l-.01.2.01-.2zm9.235 0l.009.2-.01-.2zm2.72-.52l-.073-.186.072.186zm1.982-1.293l-.141-.14.141.14zm1.293-1.983l.186.072-.186-.072zm.52-2.719l.2.01-.2-.01zm0-9.235l.2-.009-.2.009zm-.52-2.718l.186-.073-.186.073zM21.637 2.88l-.141.14v.001l.141-.141zm-1.983-1.292l-.073.186.073-.186zm-2.721-.52l.01-.2h-.001l-.01.2zm-4.988 1.95v.2-.2zm0 0v-.2.2zm.374 0v.2-.2zm4.526.065l.009-.2-.01.2zm2.08.386l.072-.187-.073.187zm1.286.837l-.141.142.141-.142zm.838 1.288l.187-.072-.187.072zm.386 2.08l.2-.01-.2.01zm0 9.048l.2.01-.2-.01zm-.386 2.079l-.186-.072.186.072zm-.838 1.287l-.141-.142.141.142zm-1.287.837l-.072-.186.072.186zm-2.08.386l.01.2-.01-.2zm-9.05 0l-.01.2.01-.2zm-2.08-.386l-.073.186.072-.186zm-1.289-.838l.142-.141-.142.141zM3.587 18.8l-.186.073.186-.073zm-.385-2.079l-.2.01.2-.01zm0-9.05l-.2-.01.2.01zm.385-2.08l-.186-.072.186.072zm.838-1.288l.142.141-.142-.141zm1.288-.838l.073.186-.073-.186zm2.08-.386l-.009-.2.01.2zm3.521-.063h.2v-.2h-.2v.2zm0 .002h-.2v.2h.2v-.2zm6.984 1.861v.2h.2v-.2h-.2zm0 0v-.2h-.2v.2h.2zm-5.98 1.57v-.2.2zM7.71 1.266C8.9 1.213 9.278 1.2 12.319 1.2V.8C9.276.8 8.89.813 7.69.868l.019.4zm-2.655.507c.69-.268 1.481-.453 2.655-.507l-.019-.4c-1.21.056-2.046.249-2.781.535l.145.372zM3.14 3.021a5.285 5.285 0 011.915-1.247l-.145-.372c-.76.295-1.41.692-2.053 1.336l.283.283zM1.892 4.936A5.298 5.298 0 013.14 3.021l-.283-.283a5.698 5.698 0 00-1.338 2.053l.373.145zm-.507 2.655c.053-1.173.238-1.965.507-2.655l-.373-.145c-.286.735-.48 1.57-.534 2.782l.4.018zm-.067 4.61c0-3.042.014-3.42.067-4.61l-.4-.018C.932 8.772.918 9.157.918 12.2h.4zm.067 4.607c-.054-1.19-.067-1.567-.067-4.608h-.4c0 3.043.013 3.427.068 4.626l.4-.018zm.507 2.655c-.268-.69-.453-1.482-.507-2.655l-.4.018c.056 1.212.249 2.047.534 2.782l.373-.145zm1.247 1.915a5.288 5.288 0 01-1.247-1.915l-.373.145c.296.76.693 1.41 1.337 2.053l.283-.283zm1.914 1.248a5.285 5.285 0 01-1.914-1.248l-.283.283a5.683 5.683 0 002.052 1.338l.145-.373zm2.656.507c-1.173-.054-1.966-.239-2.656-.507l-.145.373c.736.285 1.571.478 2.782.533l.019-.4zm4.608.067c-3.04 0-3.418-.013-4.608-.067l-.018.4c1.199.054 1.584.067 4.626.067v-.4zm4.608-.067c-1.19.054-1.567.067-4.608.067v.4c3.043 0 3.428-.013 4.627-.068l-.018-.4zm2.657-.507c-.69.268-1.483.453-2.657.507l.019.4c1.21-.056 2.047-.249 2.783-.534l-.145-.373zm1.913-1.248a5.28 5.28 0 01-1.913 1.248l.145.373a5.681 5.681 0 002.052-1.338l-.284-.283zm1.248-1.915a5.299 5.299 0 01-1.247 1.915l.282.283a5.699 5.699 0 001.338-2.053l-.373-.145zm.507-2.655c-.055 1.173-.24 1.966-.507 2.656l.373.144c.284-.735.477-1.57.534-2.781l-.4-.019zm.068-4.608c0 3.04-.014 3.418-.068 4.608l.4.018c.054-1.199.068-1.583.068-4.626h-.4zm-.068-4.61c.054 1.191.068 1.57.068 4.61h.4c0-3.043-.014-3.428-.068-4.627l-.4.018zm-.507-2.654c.267.69.452 1.482.507 2.655l.4-.018c-.057-1.212-.25-2.047-.534-2.782l-.373.145zM21.496 3.02c.602.601.97 1.202 1.247 1.915l.373-.145a5.698 5.698 0 00-1.338-2.053l-.282.283zM19.58 1.774a5.274 5.274 0 011.915 1.247l.282-.283a5.673 5.673 0 00-2.052-1.336l-.145.372zm-2.657-.507c1.173.054 1.966.24 2.657.507l.145-.372c-.737-.286-1.573-.479-2.784-.534l-.018.4zM12.315 1.2c3.042 0 3.419.013 4.609.067l.018-.4C15.742.814 15.359.8 12.315.8v.4zm.004-.4h-.004v.4h.004V.8zm-.373 2.018v.4-.4zm0 0v.4-.4zm.373 0h-.373v.4h.373v-.4zm4.535.065c-1.186-.054-1.544-.065-4.535-.065v.4c2.99 0 3.34.011 4.517.065l.018-.4zm2.143.4c-.415-.162-1.029-.349-2.143-.4l-.018.4c1.07.049 1.64.226 2.016.372l.145-.373zm1.356.882a3.662 3.662 0 00-1.356-.883l-.145.373c.497.193.846.42 1.218.793l.283-.283zm.883 1.357a3.674 3.674 0 00-.883-1.357l-.283.283c.372.372.6.722.793 1.219l.373-.145zm.399 2.142c-.05-1.114-.238-1.728-.4-2.142l-.372.145c.146.374.324.945.372 2.015l.4-.018zm.066 4.534c0-2.99-.012-3.349-.066-4.534l-.4.018c.054 1.176.066 1.527.066 4.516h.4zm-.066 4.533c.054-1.185.066-1.544.066-4.533h-.4c0 2.988-.012 3.339-.066 4.515l.4.018zm-.4 2.142c.162-.414.349-1.028.4-2.142l-.4-.018c-.049 1.07-.226 1.641-.372 2.016l.373.145zm-.882 1.356c.411-.411.67-.807.883-1.356l-.373-.144c-.193.497-.42.845-.793 1.217l.283.283zm-1.356.883a3.663 3.663 0 001.356-.883l-.283-.283c-.372.372-.72.6-1.218.793l.145.373zm-2.143.399c1.114-.05 1.728-.238 2.143-.4l-.145-.372c-.375.146-.946.323-2.016.372l.018.4zm-4.535.066c2.991 0 3.35-.012 4.535-.066l-.018-.4c-1.176.054-1.527.066-4.517.066v.4zm-4.535-.066c1.185.054 1.543.066 4.535.066v-.4c-2.99 0-3.34-.012-4.517-.066l-.018.4zm-2.143-.4c.415.162 1.029.349 2.143.4l.018-.4c-1.07-.049-1.64-.227-2.016-.372l-.145.372zm-1.357-.882c.412.412.809.67 1.357.883l.145-.373a3.269 3.269 0 01-1.22-.793l-.282.283zm-.883-1.356c.213.548.471.944.883 1.356l.283-.283a3.273 3.273 0 01-.793-1.218l-.373.145zM3 16.73c.052 1.114.239 1.728.4 2.143l.373-.145c-.146-.375-.324-.946-.373-2.016l-.4.018zm-.064-4.535c0 2.992.01 3.35.065 4.535l.4-.018c-.054-1.176-.065-1.527-.065-4.517h-.4zm.065-4.534c-.054 1.186-.065 1.542-.065 4.534h.4c0-2.99.01-3.34.064-4.515L3 7.661zM3.4 5.52c-.161.414-.348 1.028-.4 2.142l.4.019c.05-1.07.227-1.642.373-2.017L3.4 5.52zm.883-1.357A3.67 3.67 0 003.4 5.52l.373.144c.193-.497.42-.846.793-1.219l-.283-.282zm1.357-.884a3.675 3.675 0 00-1.357.884l.283.282c.372-.372.722-.6 1.219-.793l-.145-.373zm2.143-.4c-1.114.052-1.728.239-2.143.4l.145.373c.375-.146.946-.323 2.016-.373l-.018-.4zm3.53-.062c-2.09.002-2.493.016-3.53.063l.018.4c1.03-.047 1.427-.061 3.513-.063l-.001-.4zm.2.202v-.002h-.4v.002h.4zm.432-.2h-.632v.4h.631v-.4zm5.208 3.405c0-.632.512-1.144 1.144-1.144v-.4c-.853 0-1.544.691-1.544 1.544h.4zm1.144 1.144a1.144 1.144 0 01-1.144-1.144h-.4c0 .852.691 1.544 1.544 1.544v-.4zm1.144-1.144c0 .631-.513 1.144-1.144 1.144v.4c.852 0 1.544-.692 1.544-1.544h-.4zM18.297 5.08c.631 0 1.144.512 1.144 1.144h.4c0-.853-.692-1.544-1.544-1.544v.4zm.2-.2h-.4.4zm-6.18 1.37a5.952 5.952 0 00-5.95 5.951h.4a5.552 5.552 0 015.55-5.552v-.4zm5.953 5.95a5.951 5.951 0 00-5.951-5.952v.4a5.551 5.551 0 015.55 5.552h.4zm-5.951 5.95a5.95 5.95 0 005.95-5.95h-.4a5.55 5.55 0 01-5.55 5.55v.4zM6.367 12.2a5.95 5.95 0 005.952 5.95v-.4a5.55 5.55 0 01-5.552-5.55h-.4zm5.952-3.535a3.533 3.533 0 013.533 3.533h.4a3.933 3.933 0 00-3.933-3.933v.4zm-3.534 3.533a3.533 3.533 0 013.534-3.533v-.4a3.933 3.933 0 00-3.934 3.933h.4zm3.534 3.534a3.533 3.533 0 01-3.534-3.534h-.4a3.933 3.933 0 003.934 3.934v-.4zm3.533-3.534a3.534 3.534 0 01-3.533 3.534v.4a3.934 3.934 0 003.933-3.934h-.4z" mask="url(#da)"/></symbol><symbol viewBox="0 0 18 18" id="lk" xmlns="http://www.w3.org/2000/svg"><path fill-rule="evenodd" clip-rule="evenodd" d="M4.335 2C4.31.863 3.498 0 2.18 0 .862 0 0 .864 0 2c0 1.11.837 2 2.13 2h.025c1.343 0 2.18-.89 2.18-2zM4.08 5.581H.23v11.575h3.85V5.582zm9.458-.274c2.535 0 4.436 1.655 4.436 5.21v6.637h-3.853v-6.192c0-1.556-.557-2.617-1.952-2.617-1.064 0-1.698.715-1.977 1.406-.102.248-.127.593-.127.94v6.464H6.213s.051-10.49 0-11.576h3.853v1.64c.512-.788 1.427-1.912 3.473-1.912z"/></symbol><symbol viewBox="0 0 26 32" id="marker" xmlns="http://www.w3.org/2000/svg"><path fill-rule="evenodd" clip-rule="evenodd" d="M13 14.5c-1.24 0-2.25-1.01-2.25-2.25 0-1.241 1.01-2.25 2.25-2.25a2.252 2.252 0 012.25 2.25c0 1.24-1.009 2.25-2.25 2.25zM13 7a5.256 5.256 0 00-5.25 5.25A5.256 5.256 0 0013 17.5a5.256 5.256 0 005.25-5.25A5.256 5.256 0 0013 7zm0 20.469c-2.512-2.376-9-9.047-9-14.586C4 7.986 8.037 4 13 4c4.964 0 9 3.986 9 8.883 0 5.54-6.487 12.21-9 14.586zM13 1C6.385 1 1 6.33 1 12.883c0 8.213 10.574 17.369 11.024 17.754a1.497 1.497 0 001.953 0C14.427 30.251 25 21.096 25 12.883 25 6.33 19.617 1 13 1z"/><path d="M12.024 30.637l-.325.38.325-.38zm1.953 0l.325.38-.325-.38zm-.976-16.638c-.965 0-1.75-.785-1.75-1.75h-1A2.753 2.753 0 0013 15v-1zm-1.75-1.75c0-.964.785-1.75 1.75-1.75v-1a2.753 2.753 0 00-2.75 2.75h1zM13 10.5c.964 0 1.75.786 1.75 1.75h1A2.753 2.753 0 0013 9.5v1zm1.75 1.75c0 .965-.786 1.75-1.75 1.75v1a2.753 2.753 0 002.75-2.75h-1zM13 6.5a5.756 5.756 0 00-5.75 5.75h1A4.756 4.756 0 0113 7.5v-1zm-5.75 5.75A5.756 5.756 0 0013 18v-1a4.756 4.756 0 01-4.75-4.75h-1zM13 18a5.756 5.756 0 005.75-5.75h-1A4.756 4.756 0 0113 17v1zm5.75-5.75A5.756 5.756 0 0013 6.5v1a4.756 4.756 0 014.75 4.75h1zm-5.407 14.857c-1.246-1.179-3.471-3.416-5.382-6.038C6.037 18.426 4.5 15.484 4.5 12.883h-1c0 2.938 1.707 6.102 3.654 8.774 1.962 2.692 4.236 4.977 5.503 6.175l.687-.726zM4.5 12.883C4.5 8.268 8.307 4.5 13 4.5v-1c-5.233 0-9.5 4.203-9.5 9.383h1zM13 4.5c4.694 0 8.5 3.768 8.5 8.383h1c0-5.18-4.266-9.383-9.5-9.383v1zm8.5 8.383c0 2.601-1.536 5.543-3.461 8.185-1.91 2.622-4.136 4.86-5.382 6.038l.687.726c1.267-1.198 3.541-3.483 5.503-6.175 1.947-2.672 3.653-5.836 3.653-8.774h-1zM13 .5C6.114.5.5 6.049.5 12.883h1C1.5 6.61 6.655 1.5 13 1.5v-1zM.5 12.883c0 4.29 2.745 8.75 5.454 12.125 2.727 3.398 5.509 5.807 5.745 6.009l.65-.76c-.214-.183-2.944-2.546-5.616-5.875C4.043 21.03 1.5 16.805 1.5 12.883h-1zm11.2 18.134c.374.32.836.483 1.302.483v-1a.997.997 0 01-.652-.243l-.65.76zm1.3.483c.465 0 .927-.163 1.301-.483l-.65-.76A.997.997 0 0113 30.5v1zm1.301-.483c.236-.202 3.018-2.61 5.745-6.009 2.709-3.374 5.453-7.834 5.453-12.125h-1c0 3.922-2.541 8.146-5.233 11.5-2.671 3.328-5.401 5.69-5.615 5.874l.65.76zM25.5 12.883C25.5 6.049 19.89.5 13 .5v1c6.346 0 11.5 5.11 11.5 11.383h1z"/></symbol><symbol viewBox="0 0 31 30" id="monitor" xmlns="http://www.w3.org/2000/svg"><path d="M29.416 19.302H1.482A.482.482 0 011 18.82V2.927A1.93 1.93 0 012.927 1h25.044a1.93 1.93 0 011.927 1.927V18.82a.482.482 0 01-.482.482zm-27.452-.963h26.97V2.927a.964.964 0 00-.963-.964H2.927a.964.964 0 00-.963.964v15.412z"/><path d="M27.971 23.152H2.927A1.93 1.93 0 011 21.225v-2.407c0-.266.216-.482.482-.482h27.934c.266 0 .482.216.482.482v2.407a1.93 1.93 0 01-1.927 1.927zM1.964 19.3v1.926c0 .532.432.964.963.964h25.044a.964.964 0 00.964-.964V19.3H1.964z"/><path d="M16.894 21.225h-2.89a.482.482 0 010-.963h2.89a.482.482 0 010 .963zM22.207 28.935H8.603a.615.615 0 01-.619-.611c0-.337.277-.611.619-.611 2.052 0 3.091-1.44 3.091-4.278 0-.337.278-.61.619-.61h6.184c.34 0 .618.273.618.61 0 2.839 1.04 4.278 3.092 4.278.341 0 .618.274.618.611a.615.615 0 01-.618.611zm-10.592-1.222h7.58c-.762-.834-1.21-2.075-1.3-3.667h-4.98c-.09 1.592-.538 2.833-1.3 3.667z"/></symbol><symbol viewBox="0 0 24 14" id="vk" xmlns="http://www.w3.org/2000/svg"><path fill-rule="evenodd" clip-rule="evenodd" d="M22.585.936c.168-.528 0-.912-.744-.912h-2.472c-.623 0-.911.336-1.08.696 0 0-1.271 3.071-3.047 5.063-.575.575-.84.767-1.151.767-.168 0-.384-.191-.384-.72V.913c0-.624-.192-.912-.72-.912H9.1c-.384 0-.624.288-.624.576 0 .6.888.744.984 2.423v3.647c0 .792-.144.936-.456.936-.84 0-2.88-3.095-4.103-6.622C4.66.264 4.42 0 3.797 0H1.302c-.72 0-.84.336-.84.696 0 .648.84 3.91 3.911 8.23 2.04 2.951 4.943 4.535 7.558 4.535 1.584 0 1.776-.36 1.776-.96V10.27c0-.72.144-.84.648-.84.36 0 1.007.192 2.471 1.607 1.68 1.68 1.968 2.448 2.903 2.448h2.472c.72 0 1.056-.36.864-1.056-.216-.696-1.032-1.704-2.088-2.903-.576-.672-1.44-1.416-1.704-1.776-.36-.48-.263-.672 0-1.104-.023 0 3-4.27 3.312-5.71z"/></symbol></svg>