<?xml version="1.0" standalone="no"?>
<!DOCTYPE svg PUBLIC "-//W3C//DTD SVG 20010904//EN"
 "http://www.w3.org/TR/2001/REC-SVG-20010904/DTD/svg10.dtd">
<svg version="1.0" xmlns="http://www.w3.org/2000/svg"
 width="928.000000pt" height="928.000000pt" viewBox="0 0 928.000000 928.000000"
 preserveAspectRatio="xMidYMid meet">
<metadata>
Created by potrace 1.14, written by Peter Selinger 2001-2017
</metadata>
<g transform="translate(0.000000,928.000000) scale(0.100000,-0.100000)"
fill="#000000" stroke="none">
<path d="M3539 8945 c-3 -2 -22 -7 -42 -9 -72 -10 -182 -70 -240 -131 -24 -26
-91 -131 -92 -145 -1 -8 -65 -172 -81 -207 -8 -17 -14 -36 -14 -42 0 -6 -5
-19 -10 -29 -6 -9 -35 -82 -65 -161 -57 -147 -96 -250 -110 -286 -5 -11 -9
-22 -10 -25 -1 -3 -7 -18 -14 -35 -6 -16 -19 -50 -28 -75 -9 -25 -20 -49 -25
-55 -4 -5 -8 -14 -8 -21 0 -6 -7 -28 -15 -48 -8 -20 -15 -38 -15 -41 0 -3 -12
-31 -26 -62 -14 -32 -27 -62 -28 -68 -2 -5 -9 -23 -15 -40 -7 -16 -14 -37 -16
-45 -5 -21 -54 -141 -65 -162 -6 -10 -10 -23 -10 -29 0 -6 -7 -25 -15 -42 -13
-30 -188 -477 -225 -577 -9 -25 -20 -54 -24 -65 -4 -11 -12 -29 -17 -40 -14
-32 -32 -79 -33 -87 -1 -3 -4 -10 -8 -14 -5 -4 -8 -13 -8 -19 0 -7 -8 -30 -17
-51 -9 -22 -17 -41 -18 -44 -1 -3 -7 -18 -13 -33 -7 -16 -12 -34 -12 -41 0 -6
-4 -16 -9 -22 -5 -5 -11 -18 -13 -29 -1 -11 -6 -22 -9 -25 -3 -3 -20 -45 -38
-95 -18 -49 -37 -95 -43 -102 -6 -7 -8 -13 -5 -13 3 0 -5 -25 -18 -55 -14 -30
-25 -57 -25 -60 0 -3 -7 -21 -15 -41 -8 -20 -15 -40 -15 -43 0 -4 -9 -26 -20
-49 -11 -22 -20 -45 -20 -50 0 -6 -7 -23 -15 -38 -8 -16 -15 -36 -15 -44 0 -9
-4 -20 -8 -25 -5 -6 -21 -44 -37 -85 -15 -41 -33 -88 -40 -105 -7 -16 -34 -86
-60 -155 -53 -140 -72 -187 -86 -212 -5 -10 -9 -27 -9 -37 0 -11 -5 -23 -10
-26 -6 -4 -8 -11 -5 -16 4 -5 2 -9 -4 -9 -5 0 -13 -14 -16 -32 -4 -18 -11 -39
-16 -48 -5 -8 -25 -58 -45 -110 -121 -318 -195 -507 -204 -522 -5 -10 -10 -23
-10 -29 0 -6 -6 -25 -14 -42 -8 -18 -30 -75 -50 -127 -20 -52 -41 -103 -46
-112 -6 -10 -10 -22 -10 -27 0 -5 -8 -26 -17 -47 -9 -22 -18 -43 -19 -49 -4
-21 -65 -171 -80 -197 -8 -16 -13 -28 -10 -28 4 0 -26 -81 -53 -145 -12 -28
-75 -189 -77 -195 -1 -7 -14 -42 -25 -65 -14 -33 -113 -290 -114 -295 0 -3
-12 -34 -27 -70 -14 -36 -49 -126 -78 -200 -28 -74 -58 -149 -66 -167 -7 -17
-14 -34 -14 -37 0 -5 -76 -205 -100 -261 -31 -74 -53 -131 -54 -140 -2 -5 -10
-27 -19 -49 -9 -21 -17 -40 -17 -42 0 -1 -5 -15 -12 -31 -6 -15 -12 -30 -13
-33 -5 -15 -18 -48 -26 -65 -18 -41 -108 -281 -111 -295 -2 -8 -5 -17 -9 -20
-3 -3 -20 -45 -39 -95 -18 -49 -40 -106 -48 -125 -9 -19 -17 -39 -18 -45 -1
-5 -8 -23 -15 -40 -7 -16 -13 -32 -13 -35 -5 -20 -41 -107 -49 -118 -5 -6 -6
-12 -2 -12 4 0 2 -7 -5 -15 -7 -8 -9 -15 -5 -15 4 0 3 -6 -2 -13 -5 -6 -20
-39 -33 -72 -12 -33 -28 -74 -36 -90 -46 -105 -40 -165 17 -199 28 -17 63 -18
417 -18 213 0 407 3 432 7 100 15 188 79 238 173 18 33 32 64 32 70 0 5 7 27
16 48 9 22 16 40 16 41 -1 2 11 33 27 70 36 87 43 106 47 118 1 6 8 24 15 40
7 17 13 32 14 35 1 3 5 14 10 25 4 11 23 61 42 110 18 50 38 99 43 110 10 24
84 218 85 225 1 3 9 22 18 44 9 21 17 40 17 42 0 1 5 15 12 31 6 15 12 30 13
33 1 3 5 14 10 25 45 111 85 220 85 231 0 8 5 14 11 14 5 0 8 4 4 9 -3 5 -1
12 5 16 5 3 10 16 10 29 0 12 4 26 8 32 5 5 17 32 27 59 10 28 25 66 34 85 8
19 15 37 15 40 1 6 53 143 67 175 5 11 40 103 79 205 39 102 75 194 80 205 9
19 44 111 76 200 8 22 19 49 23 60 5 11 26 65 47 120 21 55 41 104 46 110 4 5
8 14 8 21 0 6 8 29 17 50 9 22 18 44 19 49 1 6 32 87 69 180 37 94 68 175 69
180 2 6 8 21 13 35 25 60 101 257 108 280 4 14 11 30 15 35 3 6 17 39 29 75
13 36 29 79 36 95 15 36 28 68 29 75 1 3 7 19 13 35 25 62 36 90 37 95 1 3 21
55 45 115 23 61 53 137 66 170 13 33 38 98 56 145 18 47 32 88 31 93 -1 4 2 7
6 7 5 0 9 6 9 13 0 6 14 46 30 87 17 41 49 122 71 180 23 58 46 119 53 135 7
17 13 32 13 35 1 3 5 11 9 18 5 6 6 12 2 12 -3 0 0 10 7 23 7 12 13 24 14 27
0 3 4 14 9 25 45 113 65 169 65 181 0 8 5 14 10 14 6 0 10 8 10 18 0 10 3 22
8 26 4 4 7 11 7 14 1 13 28 87 35 97 4 6 13 28 20 50 7 22 15 45 19 50 3 6 6
12 6 15 0 3 18 50 40 105 22 55 40 102 41 105 0 3 4 14 9 25 4 11 17 43 27 70
10 28 23 59 27 70 5 11 34 85 65 165 30 80 60 159 67 175 7 17 13 35 15 40 2
8 82 214 109 280 5 11 9 23 10 28 2 4 4 9 5 12 1 3 3 8 5 13 2 10 14 38 35 89
10 23 16 44 12 47 -3 3 0 6 6 6 7 0 11 3 10 8 -1 4 4 23 11 42 8 19 15 37 16
40 33 89 45 108 83 126 40 19 103 14 127 -10 18 -17 65 -115 65 -134 0 -7 4
-20 10 -30 9 -16 114 -282 115 -292 0 -3 15 -41 32 -85 17 -44 52 -134 78
-200 25 -66 52 -136 60 -155 21 -51 38 -94 39 -100 1 -6 25 -67 36 -95 27 -63
100 -253 100 -259 0 -4 8 -26 18 -49 24 -54 41 -97 92 -232 45 -117 101 -260
121 -310 7 -16 13 -32 14 -35 2 -10 46 -125 54 -145 5 -11 32 -81 61 -155 28
-74 55 -144 60 -155 4 -11 18 -47 30 -80 12 -33 28 -73 35 -90 8 -16 25 -61
39 -100 15 -38 30 -79 35 -90 12 -25 125 -318 126 -325 1 -5 76 -202 94 -245
5 -11 13 -32 19 -47 l11 -28 -1122 -2 -1122 -3 -55 -28 c-96 -48 -139 -99
-184 -217 -16 -41 -35 -89 -42 -107 -8 -17 -14 -33 -14 -36 0 -2 -8 -22 -17
-43 -9 -22 -17 -42 -17 -46 -1 -3 -4 -10 -9 -14 -4 -4 -7 -14 -7 -23 0 -9 -6
-28 -14 -43 -8 -14 -19 -43 -26 -65 -7 -21 -21 -56 -30 -78 -10 -22 -28 -67
-40 -100 -11 -33 -28 -75 -36 -92 -8 -18 -13 -45 -12 -60 3 -33 47 -80 81 -88
13 -4 711 -7 1552 -8 l1529 -2 63 -160 c34 -88 67 -169 72 -180 5 -11 13 -32
20 -47 l11 -28 -1663 -1 c-914 0 -1677 -2 -1695 -4 -38 -4 -147 -55 -177 -82
-50 -46 -59 -65 -204 -443 -40 -102 -77 -196 -84 -210 -6 -14 -12 -29 -12 -35
-1 -5 -6 -20 -13 -33 -7 -12 -11 -22 -8 -22 3 0 -5 -24 -17 -52 -12 -29 -22
-60 -22 -69 1 -28 25 -65 57 -84 29 -17 131 -18 2140 -19 l2110 -1 35 -90 c19
-49 38 -99 43 -110 4 -11 15 -38 25 -60 9 -22 19 -47 20 -55 2 -8 11 -33 21
-55 10 -22 19 -44 20 -50 2 -10 77 -209 95 -252 5 -13 14 -35 20 -50 6 -16 15
-36 20 -45 5 -10 9 -23 9 -28 0 -44 108 -200 138 -200 4 0 13 -5 20 -12 28
-28 174 -53 292 -49 87 3 192 1 200 -4 6 -3 10 -1 10 5 0 6 10 8 27 4 15 -4
34 -7 43 -6 8 1 53 2 100 2 47 -1 91 -1 98 -1 6 0 41 0 77 0 91 0 90 0 188 1
48 1 92 -2 97 -5 6 -3 10 -1 10 5 0 6 10 8 27 4 15 -4 34 -7 43 -6 12 2 120 2
195 1 133 -1 192 5 221 24 55 36 57 69 12 188 -21 57 -43 113 -48 124 -5 11
-20 50 -34 87 -15 38 -37 96 -50 130 -49 127 -118 305 -152 391 -18 49 -34 94
-34 100 0 9 99 12 393 11 394 -1 409 0 446 35 26 24 33 79 16 117 -7 16 -32
79 -55 139 -53 139 -55 145 -68 175 -15 36 -78 199 -119 310 -36 96 -103 200
-129 200 -8 0 -14 4 -14 8 0 12 -88 50 -135 58 -22 4 -199 7 -393 7 l-353 0
-18 41 c-10 23 -27 64 -37 91 -10 28 -24 61 -31 75 -7 14 -13 29 -13 33 0 5
-7 25 -16 45 -9 21 -20 46 -24 57 -4 11 -12 32 -19 47 -6 16 -7 28 -3 29 40 5
82 3 82 -4 0 -6 5 -6 13 0 6 5 37 7 67 6 30 -2 61 -3 68 -3 86 0 88 0 192 3
47 2 90 -1 97 -6 6 -4 14 -4 16 0 3 5 41 7 84 6 164 -7 201 3 230 56 21 38 19
70 -12 136 -7 17 -23 57 -35 90 -12 33 -37 98 -55 145 -18 47 -49 126 -69 175
-19 50 -40 104 -47 120 -7 17 -13 32 -13 35 -1 3 -13 34 -26 70 -34 88 -112
168 -195 200 -58 22 -70 22 -430 24 -203 0 -375 4 -381 8 -6 4 -17 26 -24 50
-8 24 -21 54 -29 68 -9 13 -15 26 -13 27 2 2 -9 36 -24 76 -16 40 -29 74 -30
77 0 3 -5 16 -11 30 -6 14 -19 45 -28 70 -22 58 -29 77 -49 122 -9 20 -16 40
-16 44 0 9 -67 179 -81 206 -5 10 -9 22 -9 28 0 5 -11 34 -25 64 -14 30 -25
61 -25 69 0 7 -3 17 -7 21 -5 4 -8 11 -9 14 -1 7 -13 38 -39 102 -26 63 -119
305 -120 310 -1 11 -98 256 -105 265 -4 6 -10 24 -14 40 -4 17 -14 46 -23 65
-25 58 -29 69 -98 250 -37 96 -70 180 -73 185 -4 6 -7 17 -9 25 -1 8 -7 23
-12 35 -11 21 -101 252 -105 270 -1 6 -12 32 -24 59 -13 28 -25 61 -29 75 -3
14 -9 31 -13 36 -3 6 -15 33 -25 60 -10 28 -47 124 -82 215 -36 91 -83 212
-105 270 -22 58 -45 116 -50 130 -24 56 -28 68 -60 150 -18 47 -32 87 -33 90
0 6 -54 139 -64 160 -4 8 -14 36 -22 63 -7 26 -17 47 -21 47 -4 0 -8 6 -8 13
0 11 -47 139 -72 197 -29 67 -118 304 -118 313 1 4 -6 20 -14 35 -8 15 -29 65
-47 111 -37 97 -89 167 -162 219 -28 20 -54 37 -57 38 -3 0 -23 8 -45 18 -22
10 -49 20 -60 24 -24 7 -1509 15 -1516 7z"/>
</g>
</svg>
