<?xml version="1.0" encoding="utf-8"?><svg xmlns="http://www.w3.org/2000/svg" xmlns:xlink="http://www.w3.org/1999/xlink"><symbol viewBox="0 0 24 26" id="arrow" xmlns="http://www.w3.org/2000/svg"><path d="M7 1l12 12L7 25"/></symbol><symbol fill="none" class="bdont-remove" viewBox="0 0 34 32" id="check" xmlns="http://www.w3.org/2000/svg"><path d="M10 13.263L16.518 20 32 4" stroke="#0297D4" stroke-width="3" stroke-linecap="round" class="bdont-remove"/><path d="M25.32 5.081c.59-.69.512-1.736-.235-2.252a16 16 0 106.682 10.451c-.154-.895-1.07-1.404-1.945-1.159-.874.245-1.373 1.153-1.242 2.052a12.712 12.712 0 11-5.643-8.825c.761.496 1.794.424 2.384-.267z" fill="#0297D4" class="bdont-remove"/></symbol><symbol viewBox="0 0 16 11" id="checked" xmlns="http://www.w3.org/2000/svg"><path d="M1 4.111L6.31 9 15 1"/></symbol><symbol viewBox="0 0 24 25" id="map" xmlns="http://www.w3.org/2000/svg"><path fill-rule="evenodd" clip-rule="evenodd" d="M11.262 22.634S4 16.518 4 10.5a8 8 0 1116 0c0 6.018-7.262 12.134-7.262 12.134-.404.372-1.069.368-1.476 0zM12 14a3.5 3.5 0 100-7 3.5 3.5 0 000 7z"/></symbol><symbol viewBox="0 0 50 50" id="menuClose" xmlns="http://www.w3.org/2000/svg"><path d="M7.719 6.281L6.28 7.72 23.563 25 6.28 42.281l1.44 1.439L25 26.437 42.281 43.72l1.438-1.438L26.437 25 43.72 7.719 42.28 6.28 25 23.563z"/></symbol><symbol viewBox="0 0 50 50" id="menuOpen" xmlns="http://www.w3.org/2000/svg"><path d="M0 9v2h50V9zm0 15v2h50v-2zm0 15v2h50v-2z"/></symbol><symbol viewBox="0 0 24 24" id="oldPhone" xmlns="http://www.w3.org/2000/svg"><path d="M20.707 14.704c-.115-.8-.733-1.425-1.529-1.61-3.092-.726-3.867-2.506-3.998-4.482C14.632 8.51 13.656 8.4 12 8.4c-1.656 0-2.632.11-3.18.212-.13 1.976-.906 3.756-3.998 4.481-.796.187-1.414.81-1.53 1.61l-.596 4.131c-.21 1.454.858 2.766 2.344 2.766h13.92c1.484 0 2.554-1.312 2.344-2.766l-.597-4.13zM12 18.59c-1.674 0-3.031-1.344-3.031-3s1.357-3 3.031-3c1.674 0 3.031 1.344 3.031 3s-1.358 3-3.031 3zM23.94 7.2C23.911 5.4 19.33 2.401 12 2.4 4.67 2.401.088 5.4.06 7.2c-.028 1.8.025 4.142 3.042 3.752 3.53-.457 3.312-1.69 3.312-3.45 0-1.23 2.87-1.526 5.586-1.526s5.585.296 5.586 1.525c0 1.762-.217 2.994 3.312 3.451 3.016.39 3.07-1.952 3.042-3.752z"/></symbol><symbol viewBox="0 0 24 24" id="phone" xmlns="http://www.w3.org/2000/svg"><path d="M7.772 2.439l1.077-.344c1.008-.322 2.086.199 2.518 1.217l.86 2.028c.375.883.167 1.922-.514 2.568L9.82 9.706c.117 1.076.478 2.135 1.084 3.177a8.702 8.702 0 002.271 2.595l2.276-.76c.862-.287 1.801.044 2.33.821l1.232 1.81c.616.904.505 2.15-.258 2.916l-.818.821c-.814.817-1.976 1.114-3.052.778-2.539-.792-4.873-3.143-7.003-7.053-2.133-3.917-2.885-7.24-2.258-9.968.264-1.148 1.082-2.063 2.15-2.404"/></symbol></svg>