<?xml version="1.0" encoding="utf-8"?><svg xmlns="http://www.w3.org/2000/svg" xmlns:xlink="http://www.w3.org/1999/xlink"><symbol viewBox="0 0 28 16" id="arrow-down" xmlns="http://www.w3.org/2000/svg"><path d="M26 2L14 14 2 2"/></symbol><symbol viewBox="0 0 9 9" id="arrow-left" xmlns="http://www.w3.org/2000/svg"><path d="M2 4.149L6.005.144A.489.489 0 016.353 0c.132 0 .256.051.348.144l.295.295a.493.493 0 010 .696L3.633 4.498 7 7.865a.49.49 0 010 .696l-.295.295A.489.489 0 016.357 9a.489.489 0 01-.348-.144l-4.01-4.008a.49.49 0 01-.143-.35.49.49 0 01.144-.35z"/></symbol><symbol viewBox="0 0 9 9" id="arrow-right" xmlns="http://www.w3.org/2000/svg"><path d="M7 4.149L2.995.144A.489.489 0 002.647 0a.489.489 0 00-.348.144l-.295.295a.493.493 0 000 .696l3.363 3.363L2 7.865a.49.49 0 000 .696l.295.295A.489.489 0 002.643 9a.489.489 0 00.348-.144l4.01-4.008a.49.49 0 00.143-.35.49.49 0 00-.144-.35z"/></symbol><symbol viewBox="0 0 64 60" id="clock" xmlns="http://www.w3.org/2000/svg"><path d="M29.998 60a29.996 29.996 0 01-27.72-18.52A30.007 30.007 0 018.78 8.782a29.997 29.997 0 0151.21 21.221v5.05h-2.256v-5.05A27.743 27.743 0 0040.612 4.374 27.732 27.732 0 002.795 24.59a27.744 27.744 0 0011.793 28.477 27.734 27.734 0 0015.41 4.675V60z"/><path d="M58.863 36.401l-5.066-5.072 1.6-1.6 3.466 3.473 3.472-3.472 1.6 1.6-5.072 5.072zM59.997 60h-2.262v-5.02h-7.41a1.134 1.134 0 01-.86-1.861l8.537-10.075a1.163 1.163 0 011.995.733V60zm-7.23-7.283h4.968v-5.816l-4.967 5.816z"/><path d="M61.503 52.717h-3.768v2.263h3.768v-2.263zM41.787 60h-3.832a1.128 1.128 0 01-1.129-1.128v-3.764a4.898 4.898 0 014.892-4.903h2.512a2.64 2.64 0 002.551-3.677 2.642 2.642 0 00-2.55-1.6h-2.513a2.626 2.626 0 00-2.635 2.642h-2.257a4.887 4.887 0 014.892-4.898h2.512a4.897 4.897 0 010 9.795h-2.512a2.63 2.63 0 00-2.635 2.641v2.635h2.704V60z"/><path d="M49.127 57.743H40.66v2.263h8.468v-2.263zM29.998 34.144a4.146 4.146 0 01-2.938-7.08A4.147 4.147 0 1130 34.145zm0-6.026a1.884 1.884 0 100 3.768 1.884 1.884 0 000-3.768z"/><path d="M22.27 20.671l-1.6 1.6 6.395 6.396 1.6-1.6-6.395-6.396zm19.78 8.198h-9.04v2.262h9.038V28.87zM31.127 8.9h-2.263v3.426h2.263V8.9zM12.33 28.869H8.904v2.262h3.426V28.87z"/><path d="M31.127 52.229h-1.128A22.226 22.226 0 019.462 38.504 22.235 22.235 0 0125.666 8.192a22.225 22.225 0 0122.818 9.458 22.233 22.233 0 013.743 12.353v1.128H47.69V28.87h2.262a19.97 19.97 0 00-12.815-17.524 19.963 19.963 0 00-26.641 14.47 19.972 19.972 0 0018.367 24.122v-2.24h2.263v4.532z"/></symbol><symbol viewBox="0 0 68 71" id="design" xmlns="http://www.w3.org/2000/svg"><path d="M54.76 59.849L33.992 20.904 13.232 59.85l-2.916-.75 23.676-44.406L57.668 59.1l-2.908.75z"/><path d="M33.992 44.079c-4.158 0-8.24-.779-11.817-2.253-3.577-1.473-6.516-3.589-8.511-6.123l2.717-1.038c1.728 2.195 4.275 4.027 7.374 5.304 3.099 1.276 6.635 1.95 10.237 1.95 3.602 0 7.138-.674 10.237-1.95 3.099-1.277 5.646-3.109 7.374-5.304l2.733 1.038c-2 2.534-4.943 4.648-8.522 6.122-3.579 1.473-7.662 2.252-11.822 2.254zM35.55 7.255h-3.108v5.417h3.108V7.255z"/><path d="M37.963 8.326H30.03V0h7.934v8.326zm-4.794-2.16h1.726V2.16h-1.766l.04 4.008zm2.381 34.049h-3.108v5.557h3.108v-5.557zM33.992 22.12c-1.846 0-3.65-.38-5.185-1.093-1.535-.712-2.731-1.725-3.438-2.91-.706-1.184-.89-2.488-.53-3.745.36-1.258 1.248-2.413 2.554-3.32 1.305-.907 2.968-1.524 4.778-1.774a13.19 13.19 0 015.393.369c1.705.49 3.163 1.321 4.188 2.388 1.026 1.066 1.573 2.32 1.573 3.601-.002 1.72-.986 3.368-2.736 4.583-1.75 1.216-4.122 1.9-6.597 1.9zm0-10.802c-1.231 0-2.435.254-3.46.73-1.023.475-1.82 1.15-2.292 1.94-.47.791-.593 1.66-.352 2.5.24.839.834 1.61 1.705 2.214.872.604 1.982 1.015 3.19 1.182 1.207.166 2.46.08 3.597-.249 1.137-.328 2.108-.883 2.791-1.595.684-.711 1.047-1.548 1.046-2.403-.005-1.146-.662-2.243-1.829-3.053-1.166-.81-2.747-1.264-4.396-1.266zM32.442 71a57.421 57.421 0 01-3.196-.194l.423-2.143a40.86 40.86 0 002.869.183L32.442 71zm3.196 0l-.176-2.17a48.836 48.836 0 002.869-.183l.423 2.131c-1.043.11-2.094.185-3.148.222h.032zm-9.437-.594a45.871 45.871 0 01-3.044-.6l.983-2.048c.902.211 1.837.395 2.772.556l-.71 2.092zm15.702 0l-.743-2.131c.934-.156 1.87-.339 2.772-.556l.991 2.043c-.975.261-2.022.466-3.052.633l.032.011zM20.2 69.024a44.032 44.032 0 01-2.836-.977l1.51-1.887c.839.322 1.71.621 2.58.888L20.2 69.024zm27.704 0l-1.255-1.97c.871-.273 1.742-.556 2.573-.894l1.518 1.882c-.95.327-1.91.66-2.868.954l.032.028zm-33.233-2.12a34.347 34.347 0 01-2.533-1.322l1.981-1.665c.738.428 1.506.83 2.302 1.205l-1.75 1.782zm38.762 0l-1.758-1.777c.8-.377 1.598-.782 2.294-1.21l1.99 1.665c-.824.411-1.695.86-2.558 1.272l.032.05zM9.796 64.128a28.766 28.766 0 01-2.141-1.62l2.397-1.383a26.64 26.64 0 001.942 1.477l-2.198 1.526zM58.3 64.1l-2.197-1.526c.68-.466 1.326-.966 1.942-1.477l2.397 1.377c-.711.51-1.43 1.055-2.174 1.57l.032.056zM5.737 60.77a25.551 25.551 0 01-1.67-1.865l2.709-1.055c.463.555.975 1.15 1.518 1.699l-2.557 1.22zm56.59-.106l-2.557-1.22a20.275 20.275 0 001.518-1.7l2.709 1.055a30.92 30.92 0 01-1.67 1.865zM2.613 56.868a22.46 22.46 0 01-1.15-2.054l2.94-.688a17.86 17.86 0 001.047 1.865l-2.837.877zm62.79-.04l-2.845-.87c.392-.611.743-1.238 1.047-1.866l2.94.683a21.02 21.02 0 01-1.142 2.054zM.583 52.7c-.24-.71-.44-1.438-.583-2.16l3.076-.304c.136.66.312 1.32.536 1.965l-3.029.5zm66.834-.039l-3.029-.483c.224-.644.4-1.304.536-1.965l3.076.3c-.152.71-.344 1.438-.583 2.148z"/></symbol><symbol viewBox="0 0 28 28" id="instagram" xmlns="http://www.w3.org/2000/svg"><path d="M20.5 1h-13A6.5 6.5 0 001 7.5v13A6.5 6.5 0 007.5 27h13a6.5 6.5 0 006.5-6.5v-13A6.5 6.5 0 0020.5 1z"/></symbol><symbol viewBox="0 0 80 65" id="language" xmlns="http://www.w3.org/2000/svg"><path d="M2.606 14.97H.14V1.392h5.809A3.96 3.96 0 018.762 2.57a4.036 4.036 0 011.165 2.84c0 1.066-.42 2.087-1.165 2.84a3.96 3.96 0 01-2.813 1.177H2.606v5.543zm0-8.033h3.343a1.494 1.494 0 001.067-.448 1.522 1.522 0 00.439-1.08 1.547 1.547 0 00-.464-1.077 1.499 1.499 0 00-1.068-.443H2.606v3.048zm25.618 8.033H25.75V1.392h5.81a3.96 3.96 0 012.812 1.176 4.036 4.036 0 011.166 2.84c0 1.066-.42 2.087-1.166 2.84a3.96 3.96 0 01-2.813 1.177h-3.336v5.543zm0-8.033h3.336a1.499 1.499 0 001.133-.41 1.527 1.527 0 00.478-1.114 1.54 1.54 0 00-.478-1.114 1.51 1.51 0 00-1.133-.41h-3.336v3.048zM15.418 1.393h-2.472V14.97h2.472V1.393zm7.315 0H20.26V14.97h2.472V1.393z"/><path d="M22.733 6.936h-9.787v2.496h9.787V6.936zm46.539 31.863L68.09 36.61a18.078 18.078 0 007.477-7.712 18.308 18.308 0 001.821-10.632 18.236 18.236 0 00-4.475-9.799 17.953 17.953 0 00-9.193-5.504 17.825 17.825 0 00-10.664.733 18.016 18.016 0 00-8.368 6.713 18.281 18.281 0 00-3.117 10.321 18.277 18.277 0 003.234 10.285l-2.028 1.424a20.777 20.777 0 01-3.67-11.689 20.78 20.78 0 013.546-11.728 20.48 20.48 0 019.51-7.628A20.262 20.262 0 0164.28.56a20.408 20.408 0 0110.449 6.25 20.729 20.729 0 015.092 11.133 20.812 20.812 0 01-2.061 12.084 20.55 20.55 0 01-8.488 8.772z"/><path d="M52.234 27.436h-1.83a3.938 3.938 0 01-2.815-1.175 4.042 4.042 0 01-1.163-2.842v-5.543a4.042 4.042 0 011.166-2.838 3.965 3.965 0 012.812-1.179h1.83a3.966 3.966 0 012.811 1.179 4.042 4.042 0 011.167 2.838v1.251H53.74v-1.251a1.528 1.528 0 00-.44-1.077 1.5 1.5 0 00-1.066-.444h-1.83a1.487 1.487 0 00-1.067.444 1.515 1.515 0 00-.44 1.077v5.543a1.526 1.526 0 00.44 1.077 1.498 1.498 0 001.067.444h1.83a1.487 1.487 0 001.067-.444 1.515 1.515 0 00.44-1.077v-1.244h2.471v1.244a4.042 4.042 0 01-1.163 2.842 3.968 3.968 0 01-2.815 1.175zM64.449 13.86h-2.472v13.576h2.472V13.859zm5.491 0h-2.473v13.576h2.473V13.859z"/><path d="M72.679 22.175H59.23v2.495h13.448v-2.495zm0-5.544H59.23v2.49h13.448v-2.49zm-2.771 47.376H.14V30.483h69.768v33.524zM2.606 61.511h64.861V32.98H2.606v28.532z"/><path d="M60.057 54.037h-5.809a3.966 3.966 0 01-2.813-1.18 4.042 4.042 0 01-1.165-2.843V40.46h2.479v9.554c.001.404.161.792.444 1.078.284.286.668.447 1.068.449h5.796v2.496zm-12.806 0H44.78V45.15l-2.39 2.893a1.273 1.273 0 01-.953.434 1.261 1.261 0 01-.953-.434l-2.351-2.893v8.886h-2.504V41.712a1.26 1.26 0 01.225-.715 1.227 1.227 0 011.96-.087l3.63 4.395 3.622-4.395a1.237 1.237 0 011.37-.37 1.26 1.26 0 01.816 1.17v12.327zM28.955 40.46h-2.473v13.577h2.473V40.46z"/><path d="M32.609 40.46h-9.787v2.496h9.787V40.46zm-20.121 0h-2.472v13.577h2.472V40.46zm7.322 0h-2.473v13.577h2.472V40.46z"/><path d="M19.803 45.997h-9.787v2.496h9.787v-2.496zm-6.082-24.515h-2.745v2.495h2.745v-2.495zm-5.485 0H5.491v2.495h2.745v-2.495zm-5.491 0H0v2.495h2.745v-2.495z"/></symbol><symbol viewBox="0 0 66 60" id="pc" xmlns="http://www.w3.org/2000/svg"><g clip-path="url(#hclip0)"><path d="M45.803 60H27.067v-6.223h2.193v4.024h14.35v-4.024h2.193V60z"/><path d="M49.425 57.801H23.444V60h25.981v-2.199zm16.227-12.824H14.435V34.98a.735.735 0 00-.74-.74H7.216V7.77a3.08 3.08 0 013.086-3.086h27.802v2.199H10.303a.876.876 0 00-.887.887v24.27h4.278a2.939 2.939 0 012.94 2.938v7.806h46.82V7.77a.876.876 0 00-.882-.887H59.87V4.685h2.702a3.086 3.086 0 013.08 3.086v37.206z"/><path d="M62.572 51.596H14.435v-8.812h51.217v5.726a3.086 3.086 0 01-3.08 3.086zm-45.939-2.199h45.939a.87.87 0 00.815-.545.888.888 0 00.066-.342v-3.533h-46.82v4.42zm44.334-9.105h-45.43v-2.199h43.23V28.022h2.2v12.27zm-46.866-7.155h-2.198V9.37h26.202v2.198H14.1v21.568zm-4.617 2.656h-2.34v2.199h2.34v-2.199zm1.407 18.261H5.737v2.199h5.154v-2.199z"/><path d="M13.694 60H2.94A2.939 2.939 0 010 57.084V34.979a2.939 2.939 0 012.939-2.939h10.739a2.939 2.939 0 012.938 2.94v22.104A2.939 2.939 0 0113.694 60zM2.94 34.239a.752.752 0 00-.74.74v22.105a.74.74 0 00.74.74h10.739a.74.74 0 00.757-.74V34.979a.735.735 0 00-.74-.74H2.938zM50.16 4.685h-2.345v2.199h2.345V4.685zM52.5 25.01h-7.03v2.198h7.03v-2.199z"/><path d="M57.084 31.888h-16.21a3.865 3.865 0 01-3.866-3.866V3.872A3.872 3.872 0 0140.874 0h16.21a3.871 3.871 0 013.871 3.872v24.15a3.872 3.872 0 01-3.871 3.866zm-16.21-29.69a1.696 1.696 0 00-1.695 1.696v24.128a1.696 1.696 0 001.695 1.695h16.21a1.696 1.696 0 001.695-1.695V3.872a1.695 1.695 0 00-1.695-1.696l-16.21.023z"/></g><defs><clipPath id="hclip0"><path d="M0 0h65.652v60H0z"/></clipPath></defs></symbol><symbol viewBox="0 0 44 66" id="pen" xmlns="http://www.w3.org/2000/svg"><path d="M30.19 53.638H13.81v-1.064c-.003-2.982-1.266-5.842-3.511-7.95-2.246-2.109-5.29-3.294-8.466-3.295H0L22 0l22 41.329h-1.833c-3.175.001-6.22 1.186-8.466 3.295-2.245 2.108-3.509 4.968-3.512 7.95v1.064zm-14.155-2.1h11.93c.26-3.07 1.637-5.96 3.899-8.188 2.262-2.228 5.271-3.656 8.523-4.044L22 4.764 3.613 39.306c3.252.387 6.262 1.815 8.525 4.043 2.262 2.228 3.638 5.12 3.897 8.189z"/><path d="M35.104 51.51H8.896v2.133h26.208V51.51z"/><path d="M32.21 65.003H11.78V51.538h20.43v13.465zM14.061 62.87h15.876v-9.232H14.062v9.233zm11.505-15.625h-7.138v2.133h7.138v-2.133zM22 37.485a5.406 5.406 0 01-2.87-.817 4.932 4.932 0 01-1.903-2.178 4.58 4.58 0 01-.294-2.803 4.77 4.77 0 011.414-2.485 5.278 5.278 0 012.645-1.328 5.477 5.477 0 012.985.276 5.11 5.11 0 012.318 1.788 4.64 4.64 0 01.87 2.695c0 1.287-.546 2.52-1.514 3.43-.968.91-2.281 1.421-3.651 1.422zm0-7.571a3.05 3.05 0 00-1.622.462c-.48.301-.854.73-1.074 1.23a2.577 2.577 0 00-.166 1.584c.112.532.39 1.02.798 1.404a2.98 2.98 0 001.495.75 3.094 3.094 0 001.686-.156 2.894 2.894 0 001.31-1.01c.32-.45.492-.98.492-1.523a2.66 2.66 0 00-.855-1.938A3.017 3.017 0 0022 29.914z"/><path d="M23.138 2.38h-2.27v26.465h2.27V2.379z"/></symbol><symbol viewBox="0 0 10 10" id="phone" xmlns="http://www.w3.org/2000/svg"><path d="M9.717 7.339L8.322 5.943c-.499-.498-1.346-.299-1.545.35-.15.448-.648.697-1.097.597-.997-.249-2.342-1.545-2.59-2.59-.15-.449.15-.947.598-1.097.648-.2.847-1.046.349-1.545L2.64.262c-.399-.35-.997-.35-1.346 0l-.947.947c-.947.996.1 3.638 2.443 5.98 2.342 2.343 4.984 3.44 5.98 2.443l.947-.947c.35-.399.35-.997 0-1.346z"/></symbol><symbol viewBox="0 0 60 60" id="process" xmlns="http://www.w3.org/2000/svg"><g clip-path="url(#kclip0)"><path d="M29.997 38.315l-.558-.313a20.487 20.487 0 01-9.995-15.01l-.095-.72.636-.363a20.394 20.394 0 0120.03 0l.636.362-.095.72a20.49 20.49 0 01-10.012 15.011l-.547.313zm-8.293-14.877a18.332 18.332 0 008.293 12.36 18.344 18.344 0 008.299-12.36 18.223 18.223 0 00-16.592 0z"/><path d="M29.997 60A20.388 20.388 0 019.633 39.62c0-.641.033-1.283.089-1.913A20.363 20.363 0 0129.997 2.422a20.366 20.366 0 0127.336 7.773 20.361 20.361 0 01-7.055 27.528A20.384 20.384 0 0129.998 60zM20.36 2.17A18.2 18.2 0 003.621 27.455a18.198 18.198 0 007.809 8.757l.636.357-.095.726a18.196 18.196 0 0016.86 20.657A18.202 18.202 0 0046.75 46.906a18.195 18.195 0 001.447-7.285c0-.786-.048-1.57-.145-2.35l-.095-.725.637-.357a18.197 18.197 0 10-18.05-31.585l-.558.312-.558-.312a18.145 18.145 0 00-9.069-2.433z"/><path d="M19.41 40.703a20.093 20.093 0 01-2.081-.206l.323-2.143a17.28 17.28 0 001.859.184l-.1 2.165zm2.093 0l-.123-2.199a17.07 17.07 0 001.859-.2l.346 2.142c-.69.119-1.384.2-2.082.246v.011zm-6.223-.62a21.195 21.195 0 01-1.997-.624l.758-2.037c.583.22 1.177.406 1.78.558l-.54 2.104zm10.347-.05l-.558-2.092c.6-.156 1.193-.342 1.775-.558l.776 2.025a19.33 19.33 0 01-1.993.625zM12.63 34.219l-2.071-.642c.237-.76.517-1.504.837-2.232l1.998.898a19.15 19.15 0 00-.764 1.976zm1.718-3.856l-1.864-1.116a20.19 20.19 0 011.329-1.965l1.724 1.317c-.43.565-.826 1.154-1.189 1.764zm2.568-3.348l-1.563-1.502a19.74 19.74 0 011.741-1.607l1.379 1.674a18.25 18.25 0 00-1.557 1.423v.012zm30.454 7.209a16.97 16.97 0 00-.747-1.98l1.98-.882c.324.726.603 1.472.838 2.232l-2.07.63zm-1.718-3.856a17.633 17.633 0 00-1.184-1.758l1.725-1.31c.477.627.919 1.28 1.323 1.958l-1.864 1.11zM43.09 27.02a18.859 18.859 0 00-1.557-1.434l1.373-1.674c.61.496 1.191 1.027 1.741 1.59L43.09 27.02zm-2.506 13.683l-.1-2.165c.622-.028 1.242-.09 1.858-.184l.324 2.148c-.687.1-1.367.168-2.082.201zm-2.093 0a19.943 19.943 0 01-2.081-.223l.346-2.143c.615.101 1.235.168 1.858.201l-.123 2.165zm6.223-.608l-.558-2.098a19.49 19.49 0 001.786-.558l.753 2.03c-.65.239-1.31.443-1.981.615v.01zm-10.347-.05c-.67-.184-1.34-.397-1.992-.648l.775-2.009c.583.22 1.177.406 1.78.559l-.563 2.098zm4.169-20.514a19.49 19.49 0 00-.218-2.143l2.138-.346c.13.79.211 1.588.245 2.389l-2.165.1zm-.692-4.235c-.2-.689-.441-1.365-.72-2.026l1.998-.848c.315.74.583 1.498.804 2.271l-2.082.603zm-1.674-3.951a18.14 18.14 0 00-1.172-1.803l1.74-1.289a20.82 20.82 0 011.318 2.015l-1.886 1.077zM33.62 7.89a18.552 18.552 0 00-1.563-1.474l1.395-1.674a21.21 21.21 0 011.747 1.674l-1.58 1.474zM21.464 19.531l-2.165-.1c.03-.797.109-1.59.234-2.377l2.143.346a18.224 18.224 0 00-.212 2.131zm.692-4.235l-2.065-.592c.223-.77.491-1.527.804-2.265l1.987.842a18.645 18.645 0 00-.726 2.026v-.011zm1.674-3.951l-1.88-1.077c.399-.696.837-1.368 1.311-2.015l1.747 1.295a18.099 18.099 0 00-1.178 1.808v-.011zm2.556-3.449l-1.579-1.484a19.533 19.533 0 011.747-1.674l1.395 1.674c-.55.468-1.071.967-1.563 1.495v-.01z"/></g><defs><clipPath id="kclip0"><path d="M0 0h60v60H0z"/></clipPath></defs></symbol><symbol viewBox="0 0 75 60" id="product" xmlns="http://www.w3.org/2000/svg"><g clip-path="url(#lclip0)"><path d="M49.484 60H25.516v-6.71h2.707v4.422h18.554v-4.421h2.707V60z"/><path d="M54.2 57.707H20.8V60h33.4v-2.293zM75 43.68H0V3.303a2.852 2.852 0 01.294-1.266c.195-.401.483-.766.846-1.072.363-.307.794-.55 1.27-.716A4.52 4.52 0 013.905 0h67.188c1.036 0 2.03.348 2.762.967.733.62 1.144 1.459 1.144 2.335V43.68zM2.713 41.394h69.58V3.302a.875.875 0 00-.092-.39 1.019 1.019 0 00-.263-.33 1.216 1.216 0 00-.388-.216 1.37 1.37 0 00-.456-.073H3.906a1.37 1.37 0 00-.458.074 1.22 1.22 0 00-.39.218 1.002 1.002 0 00-.258.329.863.863 0 00-.087.388v38.091z"/><path d="M71.094 50.868H3.906a4.521 4.521 0 01-1.497-.248 4.004 4.004 0 01-1.269-.716 3.31 3.31 0 01-.846-1.073A2.852 2.852 0 010 47.566v-6.173h75v6.173c.002.434-.098.864-.294 1.265a3.31 3.31 0 01-.846 1.073c-.363.307-.794.55-1.27.715a4.52 4.52 0 01-1.496.249zM2.734 43.68v3.885c0 .264.123.518.342.707.22.188.518.297.83.301h67.188c.156.002.311-.023.456-.072.145-.05.277-.124.388-.217a.997.997 0 00.263-.329.875.875 0 00.093-.39V43.68H2.733zm58.741-20.722a7.101 7.101 0 01-2.662-.512 6.1 6.1 0 01-2.138-1.434 6.082 6.082 0 01-2.133 1.434 7.086 7.086 0 01-2.659.512c-.92 0-1.828-.175-2.658-.512a6.082 6.082 0 01-2.134-1.434 6.09 6.09 0 01-2.136 1.434 7.09 7.09 0 01-2.66.512c-.92 0-1.83-.175-2.66-.512a6.09 6.09 0 01-2.135-1.434 6.082 6.082 0 01-2.134 1.434 7.086 7.086 0 01-2.658.512 7.08 7.08 0 01-2.658-.512 6.082 6.082 0 01-2.134-1.434 6.09 6.09 0 01-2.136 1.434c-.83.337-1.74.512-2.66.512-.92 0-1.83-.175-2.66-.512a6.09 6.09 0 01-2.136-1.434c-.796.841-1.881 1.453-3.107 1.75a7.22 7.22 0 01-3.731-.095c-1.202-.357-2.243-1.022-2.979-1.901-.736-.88-1.13-1.931-1.127-3.008V6.368h60.24v11.39c-.002 1.377-.65 2.698-1.802 3.673-1.151.974-2.713 1.523-4.343 1.527zm-3.44-5.2c0 .77.363 1.51 1.008 2.055.645.545 1.52.851 2.432.851.912 0 1.786-.306 2.431-.851.645-.545 1.008-1.284 1.008-2.055V8.655h-54.82v9.103c0 .77.362 1.51 1.007 2.055.645.545 1.52.851 2.431.851.912 0 1.787-.306 2.432-.851.645-.545 1.007-1.284 1.007-2.055h2.707c0 .77.362 1.51 1.007 2.055.645.545 1.52.851 2.432.851.912 0 1.786-.306 2.431-.851.645-.545 1.008-1.284 1.008-2.055h2.74c0 .77.363 1.51 1.008 2.055.645.545 1.52.851 2.432.851.912 0 1.787-.306 2.431-.851.645-.545 1.008-1.284 1.008-2.055h2.713c-.02.392.053.784.216 1.152.163.367.413.703.734.987.32.284.707.51 1.134.664.427.154.887.234 1.352.234.464 0 .924-.08 1.351-.234a3.51 3.51 0 001.134-.664c.321-.284.571-.62.734-.987.163-.368.237-.76.216-1.152h2.713c0 .77.363 1.51 1.008 2.055.645.545 1.52.851 2.431.851.912 0 1.787-.306 2.432-.851.645-.545 1.007-1.284 1.007-2.055h2.686zM20.48 37.32H7.526V26.37H20.48v10.95zm-10.24-2.294h7.533v-6.361H10.24v6.361zm57.387 0H27.462v2.293h40.165v-2.293zm-20.082-8.655H27.462v2.294h20.083V26.37zm20.082 4.328H27.462v2.293h40.165v-2.293z"/></g><defs><clipPath id="lclip0"><path d="M0 0h75v60H0z"/></clipPath></defs></symbol><symbol viewBox="0 0 64 64" id="settings" xmlns="http://www.w3.org/2000/svg"><path d="M36.22 64h-8.44l-2.84-7.452a25.374 25.374 0 01-5.297-2.197l-7.286 3.256-5.952-5.952 3.262-7.28a25.213 25.213 0 01-2.209-5.304L0 36.221V27.78l7.44-2.84a25.08 25.08 0 012.209-5.297l-3.262-7.286 5.952-5.952 7.304 3.238a25.695 25.695 0 015.31-2.203L27.78 0h8.44l2.834 7.44a25.261 25.261 0 015.31 2.209l7.279-3.262 5.952 5.952-3.244 7.304a25.473 25.473 0 012.197 5.297l7.44 2.84v8.44l-7.44 2.84a25.16 25.16 0 01-2.209 5.303l3.262 7.28-5.952 5.952-7.286-3.244a25.458 25.458 0 01-5.303 2.197L36.22 64zm-6.85-2.316h5.255l2.69-7.059.596-.149a23.285 23.285 0 005.827-2.416l.512-.304 6.881 3.09 3.714-3.715-3.06-6.899.304-.512a23.486 23.486 0 002.423-5.827l.149-.595 7.053-2.69v-5.233l-7.083-2.696-.149-.596c-.538-2.042-1.353-4-2.422-5.821l-.274-.5 3.089-6.893-3.744-3.72-6.899 3.09-.512-.299a22.835 22.835 0 00-5.833-2.416l-.595-.155-2.667-7.054h-5.256L26.685 9.37l-.596.155a22.887 22.887 0 00-5.827 2.417l-.512.297-6.881-3.09-3.72 3.721 3.095 6.893-.303.518a23.212 23.212 0 00-2.417 5.827l-.149.595-7.06 2.667v5.256l7.054 2.69.149.596a22.986 22.986 0 002.422 5.821l.304.518-3.095 6.881 3.72 3.714 6.899-3.06.512.304a23.103 23.103 0 005.827 2.417l.595.149 2.667 7.03z"/><path d="M32.018 43.452a11.808 11.808 0 01-2.566-.285l.518-2.256c.666.15 1.347.225 2.03.226l.03 1.72v.595h-.012zm2.571-.297l-.523-2.256a8.794 8.794 0 001.922-.679L37 42.262a11.18 11.18 0 01-2.41.88v.013zm-7.553-.834a11.855 11.855 0 01-2.167-1.363l1.44-1.785a9.212 9.212 0 001.733 1.089l-1.006 2.06zM39.16 40.93l-1.447-1.786a9.233 9.233 0 001.44-1.453l1.786 1.44a11.555 11.555 0 01-1.78 1.787v.011zm-16.102-1.786a11.238 11.238 0 01-1.363-2.167l2.113-1.012a8.929 8.929 0 001.084 1.726l-1.834 1.453zm19.262-2.238l-2.083-.994a9.302 9.302 0 00.667-1.935l2.256.506a11.4 11.4 0 01-.84 2.423zm-21.488-2.352a11.357 11.357 0 01-.285-2.541h2.315c0 .683.076 1.364.226 2.03l-2.256.511zm20.28-2.583a9.647 9.647 0 00-.232-2.03l2.25-.517c.203.832.31 1.685.321 2.541l-2.339.006zM23.1 29.977l-2.268-.512c.192-.834.476-1.644.846-2.416l2.083 1a9.363 9.363 0 00-.66 1.928zm17.107-1.958a8.971 8.971 0 00-1.089-1.726l1.786-1.447c.535.667.994 1.392 1.369 2.16l-2.066 1.013zm-15.35-1.697l-1.787-1.44a11.312 11.312 0 011.786-1.786l1.447 1.786a9.23 9.23 0 00-1.447 1.44zm12.815-1.47a8.885 8.885 0 00-1.733-1.083l1-2.09c.77.371 1.498.826 2.167 1.358l-1.434 1.815zm-9.65-1.041l-1.005-2.084c.77-.387 1.58-.686 2.416-.893l.518 2.25a9.153 9.153 0 00-1.928.727zm5.989-.715a9.096 9.096 0 00-2.012-.22V20.56a11.53 11.53 0 012.524.274l-.512 2.262z"/><path d="M32 49.607A17.607 17.607 0 1149.607 32 17.625 17.625 0 0132 49.607zm0-32.905A15.297 15.297 0 1047.292 32 15.316 15.316 0 0032 16.702z"/></symbol><symbol viewBox="0 0 44 60" id="time" xmlns="http://www.w3.org/2000/svg"><g clip-path="url(#nclip0)"><path d="M31.508 54.881H12.304a1.002 1.002 0 01-1.002-1.002 10.6 10.6 0 1121.177 0 1.002 1.002 0 01-.97 1.002zm-18.125-2.004H30.43a8.59 8.59 0 00-17.046 0zm8.513-14.261a2.79 2.79 0 110-5.579 2.79 2.79 0 010 5.579zm0-3.57a.78.78 0 10.01 1.56.78.78 0 00-.01-1.56zm0-7.954A12.738 12.738 0 019.168 14.365a1.002 1.002 0 01.295-.713 9.298 9.298 0 0113.145 0 7.278 7.278 0 0010.305 0 1.008 1.008 0 011.694.713 12.743 12.743 0 01-12.711 12.727zM11.183 14.788a10.723 10.723 0 0021.209 1.777 9.298 9.298 0 01-11.214-1.493 7.288 7.288 0 00-10.006-.284h.01z"/><path d="M37.815 54.881H5.976a1.002 1.002 0 01-1.002-1.002v-7.96A16.932 16.932 0 0116.157 30 16.943 16.943 0 014.974 14.08V6.12a1.002 1.002 0 011.002-1h31.839a1.002 1.002 0 011.033 1.002v7.96A16.932 16.932 0 0127.64 30a16.932 16.932 0 0111.183 15.92v7.96a1.002 1.002 0 01-1.007 1.001zM6.983 52.877h29.83v-6.958a14.907 14.907 0 00-12.149-14.653 1.034 1.034 0 01-.81-.79 1.244 1.244 0 01-.094-.481c.001-.157.03-.313.083-.46a.976.976 0 01.785-.795 14.923 14.923 0 0012.185-14.66V7.124H6.983v6.958a14.912 14.912 0 0012.128 14.654h.047a1.001 1.001 0 01.8.836c.044.136.066.277.068.419.002.177-.032.352-.098.516a.966.966 0 01-.77.76h-.047A14.912 14.912 0 006.983 45.919v6.958z"/><path d="M40.232 7.123H3.564a3.559 3.559 0 01-2.531-6.09A3.538 3.538 0 013.564 0h36.674a3.559 3.559 0 012.52 6.08 3.533 3.533 0 01-2.526 1.043zM3.56 2.009a1.55 1.55 0 100 3.1h36.673a1.55 1.55 0 001.09-.46 1.55 1.55 0 00-1.1-2.65l-36.663.01zM40.232 60H3.564a3.562 3.562 0 01-3.415-4.957 3.564 3.564 0 013.415-2.166h36.674a3.564 3.564 0 110 7.123h-.006zM3.56 54.881a1.55 1.55 0 000 3.1h36.673a1.55 1.55 0 00-.01-3.1H3.56z"/></g><defs><clipPath id="nclip0"><path d="M0 0h43.797v60H0z"/></clipPath></defs></symbol><symbol viewBox="0 0 9 10" id="user" xmlns="http://www.w3.org/2000/svg"><path d="M4.395 0a2.64 2.64 0 00-2.637 2.637 2.64 2.64 0 002.637 2.636A2.64 2.64 0 007.03 2.637 2.64 2.64 0 004.395 0zm3.28 6.996A3.759 3.759 0 004.98 5.859H3.81a3.759 3.759 0 00-2.695 1.137A3.843 3.843 0 000 9.707c0 .162.131.293.293.293h8.203a.293.293 0 00.293-.293 3.843 3.843 0 00-1.114-2.711z"/></symbol></svg>