<?xml version="1.0" encoding="utf-8"?><svg xmlns="http://www.w3.org/2000/svg" xmlns:xlink="http://www.w3.org/1999/xlink"><symbol viewBox="0 0 20 20" id="arrowDown" xmlns="http://www.w3.org/2000/svg"><defs><style/></defs><path d="M6.747 7.3a1.024 1.024 0 10-1.448 1.447l4.477 4.477a1.023 1.023 0 001.448 0l4.477-4.477A1.024 1.024 0 1014.253 7.3L10.5 11.053z"/></symbol><symbol viewBox="0 0 20 20" id="check" xmlns="http://www.w3.org/2000/svg"><defs><style/></defs><path d="M6.917 16.837a.749.749 0 01-.533-.221L.221 10.452a.755.755 0 011.068-1.067l5.63 5.63L18.711 3.221a.755.755 0 011.068 1.064L7.453 16.615a.757.757 0 01-.535.221zm0 0"/></symbol><symbol viewBox="0 0 30 25" id="gobbler" xmlns="http://www.w3.org/2000/svg"><path d="M24.31 10.833l-7.988-7.988A1.667 1.667 0 1118.679.488l10.833 10.834a1.667 1.667 0 010 2.357L18.678 24.512a1.667 1.667 0 11-2.357-2.357l7.989-7.988H1.667a1.667 1.667 0 010-3.333z"/></symbol><symbol viewBox="0 0 50 50" id="hamburger" xmlns="http://www.w3.org/2000/svg"><path d="M3 8a2 2 0 100 4h44a2 2 0 100-4H3zm0 15a2 2 0 100 4h44a2 2 0 100-4H3zm0 15a2 2 0 100 4h44a2 2 0 100-4H3z"/></symbol><symbol viewBox="0 0 20 20" id="search" xmlns="http://www.w3.org/2000/svg"><defs><style/></defs><path d="M3 8.126a6.126 6.126 0 1110.847 3.9l3.575 3.575a.817.817 0 11-1.155 1.155l-3.621-3.619A6.126 6.126 0 013 8.126zm6.126 4.493a4.493 4.493 0 10-4.492-4.493 4.493 4.493 0 004.492 4.493z"/></symbol></svg>