<svg xmlns="http://www.w3.org/2000/svg" width="44" height="49" viewBox="0 0 44 49"><defs><mask id="f3ynb" width="2" height="2" x="-1" y="-1"><path fill="#a99561" d="M5 3h34v38H5z"/><path d="M4.97 40.106l18.417-18.328L4.97 3.45h15.622l18.419 18.328-18.419 18.328z"/></mask><filter id="f3yna" width="68" height="75" x="-12" y="-14" filterUnits="userSpaceOnUse"><feOffset dy="3" in="SourceGraphic" result="FeOffset1046Out"/><feGaussianBlur in="FeOffset1046Out" result="FeGaussianBlur1047Out" stdDeviation="2.8 2.8"/></filter><clipPath id="f3ync"><path fill="#a99561" d="M4.97 40.106l18.417-18.328L4.97 3.45h15.622l18.419 18.328-18.419 18.328z"/></clipPath></defs><g><g><g filter="url(#f3yna)"><path fill="#a99561" d="M4.97 40.106l18.417-18.328L4.97 3.45h15.622l18.419 18.328-18.419 18.328z" mask="url(&quot;#f3ynb&quot;)"/><path fill-opacity="0" d="M4.97 40.106l18.417-18.328L4.97 3.45h15.622l18.419 18.328-18.419 18.328z"/></g><path fill="#a99561" d="M4.97 40.106l18.417-18.328L4.97 3.45h15.622l18.419 18.328-18.419 18.328z"/><path fill="none" stroke="#a99561" stroke-miterlimit="20" stroke-width="0" d="M4.97 40.106v0l18.417-18.328v0L4.97 3.45v0h15.622v0l18.419 18.328v0L20.592 40.106v0z" clip-path="url(&quot;#f3ync&quot;)"/></g></g></svg>

