<svg xmlns="http://www.w3.org/2000/svg" width="44" height="49" viewBox="0 0 44 49"><defs><mask id="ujtub" width="2" height="2" x="-1" y="-1"><path fill="#a99561" d="M5 3h34v38H5z"/><path d="M39.03 40.106L20.612 21.778 39.03 3.45H23.407L4.99 21.778l18.418 18.328z"/></mask><filter id="ujtua" width="68" height="75" x="-12" y="-14" filterUnits="userSpaceOnUse"><feOffset dy="3" in="SourceGraphic" result="FeOffset1023Out"/><feGaussianBlur in="FeOffset1023Out" result="FeGaussianBlur1024Out" stdDeviation="2.8 2.8"/></filter><clipPath id="ujtuc"><path fill="#a99561" d="M39.03 40.106L20.612 21.778 39.03 3.45H23.407L4.99 21.778l18.418 18.328z"/></clipPath></defs><g><g><g filter="url(#ujtua)"><path fill="#a99561" d="M39.03 40.106L20.612 21.778 39.03 3.45H23.407L4.99 21.778l18.418 18.328z" mask="url(&quot;#ujtub&quot;)"/><path fill-opacity="0" d="M39.03 40.106L20.612 21.778 39.03 3.45H23.407L4.99 21.778l18.418 18.328z"/></g><path fill="#fff" d="M39.03 40.106L20.612 21.778 39.03 3.45H23.407L4.99 21.778l18.418 18.328z"/><path fill="#a99561" stroke="#685aa7" stroke-miterlimit="20" stroke-width="0" d="M39.03 40.106v0L20.612 21.778v0L39.03 3.45v0H23.407v0L4.99 21.778v0l18.418 18.328v0z" clip-path="url(&quot;#ujtuc&quot;)"/></g></g></svg>