<svg width="60" height="60" fill="none" xmlns="http://www.w3.org/2000/svg"><path fill-rule="evenodd" clip-rule="evenodd" d="M27.5 12.5v29.663L16.6 33.08a2.501 2.501 0 00-3.2 3.843l15 12.5c.117.097.255.145.385.217.105.06.195.133.31.178.288.112.59.18.895.18L30 50l.01-.002c.305 0 .607-.068.895-.18.115-.045.205-.118.31-.178.13-.072.268-.12.385-.218l15-12.5c.593-.497.9-1.207.9-1.922a2.498 2.498 0 00-4.1-1.92l-10.9 9.083V12.5a2.5 2.5 0 00-5 0z" fill="#231F20"/><mask id="mask0" maskUnits="userSpaceOnUse" x="12" y="10" width="36" height="40"><path fill-rule="evenodd" clip-rule="evenodd" d="M27.5 12.5v29.663L16.6 33.08a2.501 2.501 0 00-3.2 3.843l15 12.5c.117.097.255.145.385.217.105.06.195.133.31.178.288.112.59.18.895.18L30 50l.01-.002c.305 0 .607-.068.895-.18.115-.045.205-.118.31-.178.13-.072.268-.12.385-.218l15-12.5c.593-.497.9-1.207.9-1.922a2.498 2.498 0 00-4.1-1.92l-10.9 9.083V12.5a2.5 2.5 0 00-5 0z" fill="#fff"/></mask><g mask="url(#mask0)"><path fill="#607CFE" d="M60 0v60H0V0z"/></g></svg>