<svg width="60" height="60" fill="none" xmlns="http://www.w3.org/2000/svg"><path fill-rule="evenodd" clip-rule="evenodd" d="M12.5 32.5h29.663L33.08 43.4a2.501 2.501 0 003.843 3.2l12.5-15c.097-.117.145-.255.217-.385.06-.105.133-.195.178-.31.112-.288.18-.59.18-.895L50 30l-.002-.01c0-.305-.068-.607-.18-.895-.045-.115-.118-.205-.178-.31-.072-.13-.12-.268-.218-.385l-12.5-15A2.506 2.506 0 0035 12.5a2.498 2.498 0 00-1.92 4.1l9.083 10.9H12.5a2.5 2.5 0 000 5z" fill="#231F20"/><mask id="mask0" maskUnits="userSpaceOnUse" x="10" y="12" width="40" height="36"><path fill-rule="evenodd" clip-rule="evenodd" d="M12.5 32.5h29.663L33.08 43.4a2.501 2.501 0 003.843 3.2l12.5-15c.097-.117.145-.255.217-.385.06-.105.133-.195.178-.31.112-.288.18-.59.18-.895L50 30l-.002-.01c0-.305-.068-.607-.18-.895-.045-.115-.118-.205-.178-.31-.072-.13-.12-.268-.218-.385l-12.5-15A2.506 2.506 0 0035 12.5a2.498 2.498 0 00-1.92 4.1l9.083 10.9H12.5a2.5 2.5 0 000 5z" fill="#fff"/></mask><g mask="url(#mask0)"><path fill="#607CFE" d="M0 0h60v60H0z"/></g></svg>