<svg width="129" height="94" fill="none" xmlns="http://www.w3.org/2000/svg"><defs><style>.line-color{fill:#2f5ed1;transition:all linear .2s}</style></defs><path d="M29.2 48.302v18.3c0 .6-.5 1-1 1-.6 0-1-.5-1-1v-18.3c0-.6.5-1 1-1 .5-.1 1 .4 1 1z" fill="#FFA200"/><path d="M34.6 19.4c-.8-.8-1.8-1.5-2.8-1.9-1-.4-2.2-.7-3.3-.7H28c-2.3 0-4.6 1-6.2 2.6-1.5 1.6-2.3 3.7-2.2 5.9l.2 4.1c.3 4.5 4 7.9 8.4 7.8h.1c4.4.1 8.2-3.3 8.4-7.8l.2-4.1c0-2.2-.8-4.4-2.3-5.9zm0 9.9c-.2 3.4-3.1 5.9-6.4 5.8h-.3c-3.3 0-6-2.5-6.2-5.8l-.1-1.8h.5c2.8-.1 5.5-1.1 7.7-2.9l.4-.3.3.5c.9 1.3 2.2 2.2 3.7 2.6l.4.1v1.8zM34 25c-1.2-.5-2.1-1.6-2.4-2.9-.1-.4-.4-.8-.8-.9-.4-.1-.9.1-1.1.5-.2.4-2.3 3.3-7.6 3.7h-.5v-.5c0-1.6.6-3 1.7-4.1 1.2-1.3 2.9-2 4.7-2h.5c1.8 0 3.5.7 4.7 2 1 1 1.5 2.3 1.6 3.7v.8L34 25z" class="line-color"/><path d="M34.8 25.3l-.7-.3c-1.2-.5-2.1-1.6-2.4-2.9-.1-.4-.4-.8-.8-.9-.4-.1-.9.1-1.1.5-.2.4-2.3 3.3-7.6 3.7h-.5v-.5c0-1.6.6-3 1.7-4.1 1.2-1.3 2.9-2 4.7-2h.5c1.8 0 3.5.7 4.7 2 1 1 1.5 2.3 1.6 3.7l-.1.8z" fill="#FFA200"/><path d="M94.1 55.998c-1.6-1.7-3.9-2.6-6.2-2.6h-.5c-2.3 0-4.6 1-6.2 2.6-1.5 1.6-2.3 3.7-2.2 5.9l.2 4.1c.3 4.4 4 7.9 8.4 7.8h.1c4.5.1 8.2-3.3 8.4-7.8l.2-4.1c.2-2.2-.6-4.3-2.2-5.9zm0 9.9c-.2 3.3-3 5.9-6.4 5.8h-.3c-3.3 0-6-2.5-6.2-5.8l-.2-4.1c-.1-1.6.5-3.2 1.7-4.4 1.2-1.3 3-2 4.7-2h.5c1.7 0 3.5.7 4.7 2 1.1 1.2 1.7 2.8 1.7 4.4l-.2 4.1zM58.2 22c-.7-.7-1.7-1-2.6-1-.9 0-1.9.3-2.6 1L36 39c-.4.4-.9.6-1.4.6H19.1c-3.9 0-7.1 3.2-7.1 7.1v21.4c0 2.3 1.8 4.1 4.1 4.1.5 0 .9-.1 1.4-.2l.7-.2v2.5c0 .6.5 1 1 1h18.3c.6 0 1-.5 1-1V49.5c0-.5.2-1 .5-1.4l19.4-20.8c.7-.7 1.1-1.7 1.1-2.7-.2-1-.6-1.9-1.3-2.6zM57 25.7l-.1.2-19.4 20.9c-.7.8-1.1 1.7-1.1 2.8v23.7H20.1V49.8c0-.6-.5-1-1-1-.6 0-1 .5-1 1v18.3c0 1.1-.9 2-2 2s-2-.9-2-2V46.8c0-2.8 2.3-5.1 5.1-5.1h15.5c1.1 0 2.1-.4 2.9-1.2l17.1-17c.7-.6 1.7-.6 2.3 0 .4.6.5 1.5 0 2.2z" class="line-color"/><path d="M56.8 23.5c-.7-.6-1.7-.6-2.3 0l-17.1 17c-.7.8-1.8 1.2-2.9 1.2H19c-2.8 0-5.1 2.3-5.1 5.1v21.4c0 1.1.9 2 2 2s2-.9 2-2V49.8c0-.6.5-1 1-1 .6 0 1 .5 1 1v23.4h16.3V49.5c0-1 .4-2 1.1-2.8l19.4-20.9.1-.2c.7-.6.6-1.5 0-2.1zM29.2 66.6c0 .6-.5 1-1 1-.6 0-1-.5-1-1V48.3c0-.6.5-1 1-1 .6 0 1 .5 1 1v18.3z" fill="#FFA200"/><path d="M29.2 48.302v18.3c0 .6-.5 1-1 1-.6 0-1-.5-1-1v-18.3c0-.6.5-1 1-1 .5-.1 1 .4 1 1zm31.3 7.696c-.8-.8-1.8-1.5-2.8-1.9-1.1-.4-2.2-.7-3.4-.7h-.5c-2.3 0-4.6 1-6.2 2.6-1.5 1.5-2.3 3.7-2.2 5.9l.2 4.1c.3 4.4 3.9 7.9 8.4 7.8h.1c4.4.1 8.2-3.3 8.4-7.8l.2-4.1c.2-2.2-.6-4.3-2.2-5.9zm0 9.9c-.2 3.3-3 5.9-6.4 5.8h-.3c-3.3 0-6-2.5-6.2-5.8l-.2-4.1c-.1-1.6.5-3.2 1.7-4.4 1.2-1.3 3-2 4.7-2h.5c1.8 0 3.5.7 4.7 2 1.1 1.2 1.7 2.7 1.7 4.4l-.2 4.1zM68.9 83.2v6.4c0 .6-.5 1-1 1s-1-.5-1-1v-6.4c0-2.7-2.2-4.8-4.8-4.8H46.3c-2.7 0-4.8 2.2-4.8 4.8v6.4c0 .6-.5 1-1 1-.6 0-1-.5-1-1v-6.4c0-3.8 3.1-6.9 6.9-6.9h15.8c3.6 0 6.7 3.1 6.7 6.9zm33.6 0v6.4c0 .6-.5 1-1 1-.6 0-1-.5-1-1v-6.4c0-2.7-2.2-4.8-4.8-4.8H79.9c-2.7 0-4.8 2.2-4.8 4.8v6.4c0 .6-.5 1-1 1-.6 0-1-.5-1-1v-6.4c0-3.8 3.1-6.9 6.9-6.9h15.8c3.6 0 6.7 3.1 6.7 6.9zM98.5 0H44.9c-2.2 0-4 1.9-4 4.1V27c0 .6.5 1 1 1 .6 0 1-.5 1-1V8.1h57.5v37.1c0 1.1-.8 2-1.9 2H46.4c-.6 0-1 .5-1 1 0 .6.5 1 1 1h52.1c2.2 0 4-1.9 4-4.1V4c0-2.2-1.8-4-4-4zm1.9 6.1H42.9v-2c0-1.1.8-2 1.9-2h53.6c1.1 0 2 1 2 2v2z" class="line-color"/><path d="M100.4 4v2H42.9V4c0-1.1.8-2 1.9-2h53.6c1.2 0 2.1 1 2 2z" fill="#FFA200"/><path d="M96.4 20.398v21.8c0 .6-.5 1-1 1-.6 0-1-.5-1-1v-21.8c0-.6.5-1 1-1s1 .5 1 1zM90.3 30v12.2c0 .6-.5 1-1 1-.6 0-1-.5-1-1V30c0-.6.5-1 1-1s1 .4 1 1zm-6.1-3.102v15.3c0 .6-.5 1-1 1-.6 0-1-.5-1-1v-15.3c0-.6.5-1 1-1s1 .5 1 1zm-6.1 9.204v6.1c0 .6-.5 1-1 1s-1-.5-1-1v-6.1c0-.6.5-1 1-1s1 .4 1 1z" class="line-color"/><path d="M96.2 13.802l-6.1 9.2c-.2.2-.4.4-.7.4-.3 0-.5 0-.8-.2l-5.1-3.8-5.6 11.1c-.1.1-.2.3-.3.4l-6.1 4.6c-.5.3-1.1.3-1.4-.2-.2-.2-.2-.5-.2-.8 0-.3.2-.5.4-.7l5.9-4.4 6-12c0-.1.1-.1.1-.2.2-.2.4-.4.7-.4h.1c.2 0 .4.1.6.2l5.2 3.9 5.5-8.3c.2-.3.5-.5.9-.5.2 0 .4.1.6.2.5.4.6 1 .3 1.5zM67.4 13.2c0 .6-.5 1-1 1H48.1c-.6 0-1-.5-1-1s.5-1 1-1h18.3c.5 0 1 .4 1 1zm9.1 0c0 .6-.5 1-1 1h-3.1c-.6 0-1-.5-1-1s.5-1 1-1h3.1c.6 0 1 .4 1 1z" class="line-color"/><path d="M125.953 71.299c0-1.336-2.521-2.505-6.218-3.006-.337-3.675-1.513-6.18-2.858-6.18-1.344 0-2.521 2.505-3.025 6.18-3.698.334-6.219 1.503-6.219 2.839s2.521 2.505 6.219 3.006c.336 3.674 1.512 6.18 2.857 6.18 1.345 0 2.521-2.506 3.026-6.18 3.529-.5 6.218-1.503 6.218-2.839z" fill="#FFE48F"/><path d="M12.214 33.163c0-.896-1.681-1.68-4.146-2.017C7.844 28.68 7.059 27 6.163 27c-.897 0-1.68 1.68-2.017 4.146C1.681 31.37 0 32.154 0 33.05c0 .896 1.68 1.68 4.146 2.017.224 2.465 1.008 4.146 1.905 4.146.896 0 1.68-1.681 2.017-4.146 2.353-.336 4.146-1.009 4.146-1.905z" fill="#9FADF0"/><circle cx="25.324" cy="87.059" r="5" stroke="#E02287" stroke-opacity=".6" stroke-width="3"/><path fill="#E02287" fill-opacity=".6" d="M116.711 7.977l5.944-5.944 5.944 5.944-5.944 5.944z"/></svg>