<svg width="116" height="105" fill="none" xmlns="http://www.w3.org/2000/svg"><path d="M72 23.5c-.2-.2-.5-.3-.7-.3h-5.7c-.3 0-.5.1-.7.3-.2.2-.3.5-.3.7v3.3h-4.7c-.3 0-.5.1-.7.3-.2.2-.3.5-.3.7v4.7h-4.7c-.3 0-.5.1-.7.3-.2.2-.3.5-.3.7v3.3h-4.7c-.3 0-.5.1-.7.3-.2.2-.3.5-.3.7v7.2c0 .3.1.5.3.7.2.2.5.3.7.3h22.9c.3 0 .5-.1.7-.3.2-.2.3-.5.3-.7V24.2c-.1-.2-.2-.5-.4-.7zM53 44.7h-3.7v-5.1H53v5.1zm5.8 0h-3.7v-9.4h3.7v9.4zm5.7 0h-3.7V29.6h3.7v15.1zm5.7 0h-3.7V25.3h3.7v19.4zM57.7 49h-2.1v2.1h2.1V49zm-5.3 0h-2.1v2.1h2.1V49zm11.4 0h-2.1v2.1h2.1V49zm5.4 0h-2.1v2.1h2.1V49z" fill="#2F5ED1"/><path d="M94.5 43.4c-.5-.7-1.2-1.2-2-1.4l-.3-.1v-.3c.1-1 .1-2 .1-3 0-.3-.1-.6-.3-.8-.2-.2-.5-.3-.8-.3H79.7c-.3 0-.6.1-.8.3-.2.2-.3.5-.3.8 0 3.8-1.1 7.4-3.2 10.5-2.1 3.1-5 5.5-8.5 7s-7.3 1.8-11 1.1-7-2.5-9.7-5.2c-2.7-2.7-4.5-6-5.2-9.7-.7-3.7-.4-7.5 1.1-10.9 1.4-3.5 3.9-6.4 7-8.5 3.1-2.1 6.8-3.2 10.5-3.2.3 0 .6-.1.8-.3.2-.2.3-.5.3-.8V7.1c0-.3-.1-.6-.3-.8-.2-.2-.5-.3-.8-.3C41.6 6 27 20.6 27 38.6c0 1 0 2 .1 3v.3l-.3.1c-.8.3-1.5.8-2 1.4-.5.7-.8 1.5-.8 2.3v14.5c0 2.8.7 5.5 2 7.9 1.3 2.4 3.2 4.5 5.5 6.1l1.1.7v13.7c0 .3.1.6.3.8.2.2.5.3.8.3h17.2c.3 0 .6-.1.8-.3.2-.2.3-.5.3-.8V70.2l.4.1c4.6 1 9.5 1 14.2 0l.4-.1v18.4c0 .3.1.6.3.8.2.2.5.3.8.3h17.2c.3 0 .6-.1.8-.3.2-.2.3-.5.3-.8V74.9l1.1-.7c2.3-1.5 4.2-3.6 5.5-6.1 1.3-2.4 2-5.2 2-7.9V45.7c.2-.8 0-1.6-.5-2.3zM50.1 87.6h-15V75.5h15v12.1zm0-14.3H34.3l-1.3-.9c-2-1.3-3.7-3.1-4.8-5.3-1.1-2.1-1.7-4.5-1.7-6.9V45.7c0-.2 0-.5.1-.7.1-.2.2-.4.4-.6.2-.2.4-.3.6-.4.4-.2.9-.2 1.4 0 .2.1.4.2.6.4.2.2.3.4.4.6.1.2.1.4.1.7v15.4h2.2v-6.8c0-.2 0-.5.1-.7.1-.2.2-.4.4-.6.2-.2.4-.3.6-.4.4-.2.9-.2 1.4 0 .2.1.4.2.6.4.2.2.3.3.4.6.1.2.1.4.1.7V60c0 .2 0 .3.1.5s.2.3.3.4c1.2.8 2.1 1.8 2.8 3.1.7 1.2 1 2.6 1 4.1v1.6h2.2v-1.6c0-.5 0-1-.1-1.4l-.1-.7.6.4c2.2 1.4 4.7 2.5 7.2 3.3l.2.1v3.5zm9.7-4.3c-7.1 0-14-2.5-19.4-7l-.1-.1c-.6-.9-1.4-1.7-2.2-2.3l-.1-.1v-5.2c0-.6-.1-1.3-.4-1.8-.3-.6-.7-1-1.2-1.4-.5-.4-1.1-.6-1.7-.7-.6-.1-1.3 0-1.9.2l-.5.2v-5c0-.8-.2-1.6-.7-2.2-.5-.7-1.1-1.2-1.8-1.4l-.2-.1v-.2c-.1-1.1-.2-2.1-.2-3.2 0-16.3 12.7-29.6 29-30.4h.4v9.3h-.3c-4.1.3-7.9 1.7-11.2 4.1-3.3 2.4-5.7 5.7-7.2 9.5-1.4 3.8-1.7 7.9-.9 11.9.9 4 2.8 7.6 5.7 10.5 2.9 2.9 6.5 4.8 10.5 5.7 4 .9 8.1.6 11.9-.9 3.8-1.4 7.1-3.9 9.5-7.2 2.4-3.3 3.8-7.1 4.1-11.2v-.3h9.3v.4c0 .6-.1 1.2-.1 1.8v.2l-.2.1c-.7.3-1.4.8-1.8 1.4-.4.7-.7 1.4-.7 2.2v5l-.5-.2c-.6-.2-1.2-.3-1.9-.2-.6.1-1.2.3-1.7.7-.5.4-.9.8-1.2 1.4-.3.6-.4 1.2-.4 1.8v5.2l-.1.1c-.9.7-1.6 1.5-2.2 2.3l-.1.1c-5.6 4.5-12.4 7-19.5 7zm24.7 18.6h-15V75.5h15v12.1zm8.6-27.4c0 2.4-.6 4.8-1.7 6.9-1.1 2.1-2.8 4-4.8 5.3l-1.3.9H69.5v-3.6l.2-.1c2.5-.8 4.9-1.9 7.2-3.3l.6-.4-.1.7c-.1.5-.1.9-.1 1.4v1.6h2.2V68c0-1.4.3-2.8 1-4.1.7-1.2 1.6-2.3 2.8-3.1.2-.1.3-.2.3-.4.1-.2.1-.3.1-.5v-5.7c0-.5.2-.9.5-1.3.7-.7 1.9-.7 2.5 0 .3.3.5.8.5 1.3V61h2.2V45.6c0-.2 0-.5.1-.7.1-.2.2-.4.4-.6.2-.2.4-.3.6-.4.4-.2.9-.2 1.4 0 .2.1.4.2.6.4.2.2.3.4.4.6.1.2.1.4.1.7v14.6h.1z" fill="#2F5ED1"/><path d="M94.5 43.4c-.5-.7-1.2-1.2-2-1.4l-.3-.1v-.3c.1-1 .1-2 .1-3 0-.3-.1-.6-.3-.8-.2-.2-.5-.3-.8-.3H79.7c-.3 0-.6.1-.8.3-.2.2-.3.5-.3.8 0 3.8-1.1 7.4-3.2 10.5-2.1 3.1-5 5.5-8.5 7s-7.3 1.8-11 1.1-7-2.5-9.7-5.2c-2.7-2.7-4.5-6-5.2-9.7-.7-3.7-.4-7.5 1.1-10.9 1.4-3.5 3.9-6.4 7-8.5 3.1-2.1 6.8-3.2 10.5-3.2.3 0 .6-.1.8-.3.2-.2.3-.5.3-.8V7.1c0-.3-.1-.6-.3-.8-.2-.2-.5-.3-.8-.3C41.6 6 27 20.6 27 38.6c0 1 0 2 .1 3v.3l-.3.1c-.8.3-1.5.8-2 1.4-.5.7-.8 1.5-.8 2.3v14.5c0 2.8.7 5.5 2 7.9 1.3 2.4 3.2 4.5 5.5 6.1l1.1.7v13.7c0 .3.1.6.3.8.2.2.5.3.8.3h17.2c.3 0 .6-.1.8-.3.2-.2.3-.5.3-.8V70.2l.4.1c4.6 1 9.5 1 14.2 0l.4-.1v18.4c0 .3.1.6.3.8.2.2.5.3.8.3h17.2c.3 0 .6-.1.8-.3.2-.2.3-.5.3-.8V74.9l1.1-.7c2.3-1.5 4.2-3.6 5.5-6.1 1.3-2.4 2-5.2 2-7.9V45.7c.2-.8 0-1.6-.5-2.3zM50.1 87.6h-15V75.5h15v12.1zm0-14.3H34.3l-1.3-.9c-2-1.3-3.7-3.1-4.8-5.3-1.1-2.1-1.7-4.5-1.7-6.9V45.7c0-.2 0-.5.1-.7.1-.2.2-.4.4-.6.2-.2.4-.3.6-.4.4-.2.9-.2 1.4 0 .2.1.4.2.6.4.2.2.3.4.4.6.1.2.1.4.1.7v15.4h2.2v-6.8c0-.2 0-.5.1-.7.1-.2.2-.4.4-.6.2-.2.4-.3.6-.4.4-.2.9-.2 1.4 0 .2.1.4.2.6.4.2.2.3.3.4.6.1.2.1.4.1.7V60c0 .2 0 .3.1.5s.2.3.3.4c1.2.8 2.1 1.8 2.8 3.1.7 1.2 1 2.6 1 4.1v1.6h2.2v-1.6c0-.5 0-1-.1-1.4l-.1-.7.6.4c2.2 1.4 4.7 2.5 7.2 3.3l.2.1v3.5zm9.7-4.3c-7.1 0-14-2.5-19.4-7l-.1-.1c-.6-.9-1.4-1.7-2.2-2.3l-.1-.1v-5.2c0-.6-.1-1.3-.4-1.8-.3-.6-.7-1-1.2-1.4-.5-.4-1.1-.6-1.7-.7-.6-.1-1.3 0-1.9.2l-.5.2v-5c0-.8-.2-1.6-.7-2.2-.5-.7-1.1-1.2-1.8-1.4l-.2-.1v-.2c-.1-1.1-.2-2.1-.2-3.2 0-16.3 12.7-29.6 29-30.4h.4v9.3h-.3c-4.1.3-7.9 1.7-11.2 4.1-3.3 2.4-5.7 5.7-7.2 9.5-1.4 3.8-1.7 7.9-.9 11.9.9 4 2.8 7.6 5.7 10.5 2.9 2.9 6.5 4.8 10.5 5.7 4 .9 8.1.6 11.9-.9 3.8-1.4 7.1-3.9 9.5-7.2 2.4-3.3 3.8-7.1 4.1-11.2v-.3h9.3v.4c0 .6-.1 1.2-.1 1.8v.2l-.2.1c-.7.3-1.4.8-1.8 1.4-.4.7-.7 1.4-.7 2.2v5l-.5-.2c-.6-.2-1.2-.3-1.9-.2-.6.1-1.2.3-1.7.7-.5.4-.9.8-1.2 1.4-.3.6-.4 1.2-.4 1.8v5.2l-.1.1c-.9.7-1.6 1.5-2.2 2.3l-.1.1c-5.6 4.5-12.4 7-19.5 7zm24.7 18.6h-15V75.5h15v12.1zm8.6-27.4c0 2.4-.6 4.8-1.7 6.9-1.1 2.1-2.8 4-4.8 5.3l-1.3.9H69.5v-3.6l.2-.1c2.5-.8 4.9-1.9 7.2-3.3l.6-.4-.1.7c-.1.5-.1.9-.1 1.4v1.6h2.2V68c0-1.4.3-2.8 1-4.1.7-1.2 1.6-2.3 2.8-3.1.2-.1.3-.2.3-.4.1-.2.1-.3.1-.5v-5.7c0-.5.2-.9.5-1.3.7-.7 1.9-.7 2.5 0 .3.3.5.8.5 1.3V61h2.2V45.6c0-.2 0-.5.1-.7.1-.2.2-.4.4-.6.2-.2.4-.3.6-.4.4-.2.9-.2 1.4 0 .2.1.4.2.6.4.2.2.3.4.4.6.1.2.1.4.1.7v14.6h.1z" fill="#2F5ED1"/><path d="M90.2 39.6v.4c0 .6-.1 1.2-.1 1.8v.2l-.2.1c-.7.3-1.4.8-1.8 1.4-.4.7-.7 1.4-.7 2.2v5l-.5-.2c-.6-.2-1.2-.3-1.9-.2-.6.1-1.2.3-1.7.7-.5.4-.9.8-1.2 1.4-.3.6-.4 1.2-.4 1.8v5.2l-.1.1c-.9.7-1.6 1.5-2.2 2.3l-.1.1c-5.4 4.5-12.3 7-19.4 7-7.1 0-14-2.5-19.4-7l-.1-.1c-.6-.9-1.4-1.7-2.2-2.3l-.1-.1v-5.2c0-.6-.1-1.3-.4-1.8-.3-.6-.7-1-1.2-1.4-.5-.4-1.1-.6-1.7-.7-.6-.1-1.3 0-1.9.2l-.5.2v-5c0-.8-.2-1.6-.7-2.2-.5-.7-1.1-1.2-1.8-1.4l-.2-.1v-.2c-.1-1.1-.2-2.1-.2-3.2 0-16.3 12.7-29.6 29-30.4h.4v9.3h-.3c-4.1.3-7.9 1.7-11.2 4.1-3.3 2.4-5.7 5.7-7.2 9.5-1.4 3.8-1.7 7.9-.9 11.9.9 4 2.8 7.6 5.7 10.5 2.9 2.9 6.5 4.8 10.5 5.7 4 .9 8.1.6 11.9-.9 3.8-1.4 7.1-3.9 9.5-7.2 2.4-3.3 3.8-7.1 4.1-11.2v-.3h9.2z" fill="#FFA200"/><path d="M88 30.398h-4.9v2.1H88v-2.1zm-14.3-18.6v2h-2.9v2.9h-2v-2.9h-2.9v-2h2.9v-2.9h2v2.9h2.9z" fill="#2F5ED1"/><path d="M18.32 77.885c0-1.336-2.52-2.505-6.218-3.006-.337-3.675-1.513-6.18-2.858-6.18-1.344 0-2.52 2.505-3.025 6.18C2.52 75.213 0 76.382 0 77.718s2.521 2.505 6.219 3.006c.336 3.674 1.513 6.18 2.857 6.18 1.345 0 2.521-2.506 3.026-6.18 3.53-.5 6.219-1.503 6.219-2.84z" fill="#FFE48F"/><path d="M107.634 13.76c0-1.336-2.521-2.505-6.219-3.006-.336-3.675-1.513-6.18-2.857-6.18-1.345 0-2.521 2.505-3.026 6.18-3.697.334-6.218 1.503-6.218 2.839s2.52 2.505 6.218 3.006c.337 3.674 1.513 6.18 2.858 6.18 1.344 0 2.521-2.506 3.025-6.18 3.53-.5 6.219-1.503 6.219-2.84zM91.681 98.526c0-.896-1.691-1.68-4.172-2.017-.226-2.465-1.015-4.146-1.917-4.146-.902 0-1.692 1.681-2.03 4.146-2.48.224-4.172 1.009-4.172 1.905 0 .897 1.691 1.681 4.172 2.017.226 2.465 1.015 4.146 1.917 4.146.902 0 1.692-1.681 2.03-4.146 2.368-.336 4.172-1.008 4.172-1.905z" fill="#9FADF0"/><path fill="#E02287" fill-opacity=".6" d="M12.977 4.88l4.88-4.881 4.881 4.88-4.88 4.88z"/><circle cx="108.638" cy="59.719" r="5" stroke="#E02287" stroke-opacity=".6" stroke-width="3"/></svg>