<svg width="109" height="107" fill="none" xmlns="http://www.w3.org/2000/svg"><path d="M64.1 65.4c7.3-5.6 11.5-14 11.5-23.1 0-6.8-2.4-13.3-6.7-18.5-.2-.2-.4-.3-.7-.3-.2 0-.4.1-.6.2-.2.2-.3.4-.3.6 0 .2 0 .5.2.6 4.1 4.9 6.3 11.1 6.3 17.4 0 8.5-3.9 16.4-10.8 21.7-1.7 1.3-2.7 3.3-2.7 5.4v3.2H32.1v-3.2c0-2.1-1-4.1-2.7-5.4-6.9-5.3-10.9-13.3-10.8-22 .1-7.4 3.1-14.4 8.5-19.5 5.1-4.9 11.9-7.5 19-7.5h1c6.1.2 11.8 2.3 16.5 6.1.2.1.4.2.6.2.3 0 .5-.1.7-.3.2-.2.2-.4.2-.6 0-.2-.1-.5-.3-.6-5-4.1-11.1-6.3-17.5-6.5h-1c-7.6 0-14.9 2.9-20.3 8.1-5.8 5.4-9 12.8-9.1 20.7 0 4.7 1 9.1 3 13.3 2 4 4.9 7.5 8.4 10.1 1.3 1 2 2.5 2 4v3.3l-.2.1H30c-1.6.5-2.7 2-2.7 3.7 0 1.7 1.1 3.1 2.7 3.7h.1l.2.1v11.3c0 3.3 2.5 6.1 5.7 6.6h.3v.3c.6 3.301 3.4 5.601 6.8 5.601h6c3.4 0 6.2-2.4 6.8-5.6v-.4h.4c3.3-.5 5.7-3.3 5.7-6.6V80.2l.2-.1h.1c1.6-.5 2.7-2 2.7-3.7 0-1.7-1.1-3.2-2.7-3.7h-.1l-.2-.1v-3.3c.1-1.5.8-3 2.1-3.9zM53.8 98.6c-.6 1.901-2.4 3.301-4.6 3.301h-6c-2.2 0-4-1.4-4.6-3.3l-.1-.2h15.3v.2zm6-5.9c-.5 1.9-2.3 3.4-4.4 3.4H37c-2.1 0-3.9-1.4-4.4-3.4l-.1-.2h27.4l-.1.2zm.2-2.6H32.4v-3.5H60v3.5zm3-13.7c0 1-.8 1.8-1.8 1.8H41.1c-.7 0-1.2.5-1.2 1.2s.5 1.2 1.2 1.2H60v3.5H32.4v-3.5h3.3c.7 0 1.2-.5 1.2-1.2s-.5-1.2-1.2-1.2h-4.5c-1 0-1.8-.8-1.8-1.8s.8-1.8 1.8-1.8h30c1 .1 1.8.9 1.8 1.8z" fill="#2F5ED1"/><path d="M11.2 42.302c0 .6-.5 1-1.1 1h-6c-.6 0-1.1-.5-1.1-1 0-.6.5-1 1.1-1h6c.7-.1 1.1.4 1.1 1zm4.7 17.3c-.2-.3-.6-.5-.9-.5-.2 0-.4 0-.5.1l-5.2 3c-.3.1-.4.4-.5.6-.1.3 0 .5.1.8.2.3.5.5.9.5.2 0 .4 0 .5-.1l5.2-3c.2-.1.4-.4.5-.6.1-.2.1-.6-.1-.8zm67.6 4c-.3.5-1 .7-1.5.4l-5.2-3c-.3-.1-.4-.4-.5-.6-.1-.3 0-.5.1-.8.2-.3.5-.5.9-.5.2 0 .4 0 .5.1l5.2 3c.3.1.4.4.5.6.2.3.1.5 0 .8zM67.4 6.6c0 .2 0 .4-.1.5l-3 5.1c-.3.5-.9.7-1.4.4-.3-.1-.4-.4-.5-.6-.1-.3 0-.5.1-.8l3-5.1c.3-.5.9-.7 1.5-.4.2.2.4.5.4.9zm21.8 35.702c0 .6-.5 1-1.1 1h-6c-.6 0-1.1-.5-1.1-1 0-.6.5-1 1.1-1h6c.7-.1 1.1.4 1.1 1zM46.4 1v6c0 .6-.5 1-1.1 1-.6 0-1.1-.5-1.1-1V1c0-.6.5-1 1.1-1 .6 0 1.1.5 1.1 1zm37.2 20.698c-.1.3-.3.5-.5.6l-5.2 3c-.2.1-.3.1-.5.1-.4 0-.7-.2-.9-.5-.1-.2-.2-.5-.1-.8.1-.3.3-.5.5-.6l5.2-3c.2-.1.3-.1.5-.1.4 0 .7.2.9.5.1.3.2.6.1.8zM28.4 11.8c0 .4-.2.7-.5.9-.5.3-1.1.1-1.4-.4l-3-5.1c-.1-.2-.2-.5-.1-.8.1-.3.3-.5.5-.6.2-.1.3-.1.5-.1.4 0 .7.2.9.5l3 5.1c.1.1.1.3.1.5zM16 24.2c-.1-.3-.3-.5-.5-.6l-5.2-3c-.2-.1-.3-.1-.5-.1-.4 0-.7.2-.9.5-.1.2-.2.5-.1.8.1.3.2.5.5.6l5.2 3c.2.1.3.1.5.1.4 0 .7-.2.9-.5.2-.3.2-.6.1-.8z" fill="#FFA200"/><path d="M37.1 33.11c4.061-3.984 5.503-9.1 3.221-11.426-2.281-2.326-7.423-.982-11.484 3.001-4.061 3.984-5.504 9.1-3.222 11.425 2.282 2.327 7.424.983 11.485-3z" fill="#FFE2B0"/><path d="M25.32 97.158c0-1.336-2.52-2.505-6.218-3.006-.337-3.674-1.513-6.18-2.858-6.18-1.344 0-2.52 2.506-3.025 6.18C9.52 94.486 7 95.655 7 96.992c0 1.335 2.521 2.504 6.219 3.005.336 3.675 1.513 6.18 2.857 6.18 1.345 0 2.521-2.505 3.026-6.18 3.53-.5 6.219-1.503 6.219-2.839z" fill="#9FADF0"/><path fill="#E02287" fill-opacity=".6" d="M74.939 79.879l4.88-4.88 4.88 4.88-4.88 4.88z"/><path d="M108.352 29.62c0-1.337-2.521-2.506-6.219-3.007-.336-3.674-1.513-6.18-2.857-6.18-1.345 0-2.522 2.506-3.026 6.18-3.698.334-6.219 1.503-6.219 2.84 0 1.335 2.521 2.504 6.22 3.006.335 3.674 1.512 6.179 2.856 6.179 1.345 0 2.522-2.505 3.026-6.18 3.53-.5 6.219-1.503 6.219-2.839z" fill="#FFE48F"/><circle cx="6.5" cy="6.5" r="5" stroke="#E02287" stroke-opacity=".6" stroke-width="3"/></svg>