<svg width="144" height="116" fill="none" xmlns="http://www.w3.org/2000/svg"><path d="M139.695 106.135c0-1.336-2.522-2.505-6.219-3.006-.336-3.675-1.513-6.18-2.858-6.18-1.344 0-2.521 2.505-3.025 6.18-3.698.334-6.219 1.503-6.219 2.839s2.521 2.505 6.219 3.006c.336 3.674 1.513 6.18 2.857 6.18 1.345 0 2.521-2.506 3.026-6.18 3.529-.501 6.219-1.503 6.219-2.839z" fill="#FFE48F"/><path d="M18.32 37.432c0-1.336-2.52-2.505-6.218-3.007-.337-3.674-1.513-6.179-2.858-6.179-1.344 0-2.52 2.505-3.025 6.18C2.52 34.76 0 35.928 0 37.264s2.521 2.505 6.219 3.006c.336 3.674 1.513 6.18 2.857 6.18 1.345 0 2.521-2.506 3.026-6.18 3.53-.501 6.219-1.503 6.219-2.84zM124.506 6.163c0-.897-1.692-1.68-4.173-2.017C120.108 1.681 119.318 0 118.416 0c-.902 0-1.691 1.68-2.03 4.146-2.481.224-4.172 1.008-4.172 1.905 0 .896 1.691 1.68 4.172 2.017.226 2.465 1.015 4.146 1.917 4.146.903 0 1.692-1.681 2.03-4.146 2.368-.336 4.173-1.009 4.173-1.905z" fill="#9FADF0"/><path fill="#E02287" fill-opacity=".6" d="M21.374 104.883l4.88-4.88 4.88 4.88-4.88 4.88z"/><circle cx="137.454" cy="71.41" r="5" stroke="#E02287" stroke-opacity=".6" stroke-width="3"/><g clip-path="url(#clip0)"><path d="M118.5 42h-88v-9.4l1.1-6.4 3.8-3.4 12.2-.8v4.2l2.7 2.6 3.1 1 2.9-2.9-.2-4.9h37.2l1.9 6.8 3.3.9 3.1-2.4.3-5.1 9.3-.2c.6 0 3.6 1.3 5 1.9l2.3 4.9V42z" fill="#FFA200"/><path d="M51.7 52.8H40.3c-.5 0-.9.4-.9.9v11.5c0 .5.4.9.9.9h11.5c.5 0 .9-.4.9-.9V53.7c-.1-.5-.5-.9-1-.9zm-.9 11.5h-9.7v-9.7h9.7v9.7zm20.3-11.5H59.7c-.5 0-.9.4-.9.9v11.5c0 .5.4.9.9.9h11.5c.5 0 .9-.4.9-.9V53.7c-.1-.5-.5-.9-1-.9zm-.9 11.5h-9.7v-9.7h9.7v9.7zm20.3-11.5H79.1c-.5 0-.9.4-.9.9v11.5c0 .5.4.9.9.9h11.5c.5 0 .9-.4.9-.9V53.7c-.1-.5-.5-.9-1-.9zm-.9 11.5H80v-9.7h9.7v9.7h-.1zm20.3-11.5H98.5c-.5 0-.9.4-.9.9v11.5c0 .5.4.9.9.9H110c.5 0 .9-.4.9-.9V53.7c-.1-.5-.5-.9-1-.9zm-.8 11.5h-9.7v-9.7h9.7v9.7zm-57.4 7.9H40.3c-.5 0-.9.4-.9.9v11.5c0 .5.4.9.9.9h11.5c.5 0 .9-.4.9-.9V73.1c-.1-.5-.5-.9-1-.9zm-.9 11.4h-9.7V74h9.7v9.6zm20.3-11.4H59.7c-.5 0-.9.4-.9.9v11.5c0 .5.4.9.9.9h11.5c.5 0 .9-.4.9-.9V73.1c-.1-.5-.5-.9-1-.9zm-.9 11.4h-9.7V74h9.7v9.6zm20.3-11.4H79.1c-.5 0-.9.4-.9.9v11.5c0 .5.4.9.9.9h11.5c.5 0 .9-.4.9-.9V73.1c-.1-.5-.5-.9-1-.9zm-.9 11.4H80V74h9.7v9.6h-.1zm20.3-11.4H98.5c-.5 0-.9.4-.9.9v11.5c0 .5.4.9.9.9H110c.5 0 .9-.4.9-.9V73.1c-.1-.5-.5-.9-1-.9zm-.8 11.4h-9.7V74h9.7v9.6z" fill="#2F5ED1"/><path d="M112 21.198h-9v-2c0-2.6-1.9-5-4.5-5.2-3-.3-5.5 2.1-5.5 5v2.1H57.2v-1.9c0-2.6-1.9-5-4.5-5.2-3-.3-5.5 2.1-5.5 5v2.1h-9c-4.5.1-8.2 3.7-8.2 8.3v63c0 2 1.3 3.7 3.1 4.4l.5.2v2.6c0 2.6 2.1 4.7 4.7 4.7H112c2.6 0 4.7-2.1 4.7-4.7v-2.6l.5-.2c1.9-.7 3.1-2.4 3.1-4.4v-63c-.1-4.6-3.8-8.2-8.3-8.2zm-17.5-2.2c0-2 1.7-3.6 3.7-3.5 1.9.1 3.3 1.8 3.3 3.7v6.2c0 2.2-2 3.9-4.2 3.4-1.6-.3-2.8-1.8-2.8-3.5v-6.3zm-45.8 0c0-2 1.7-3.6 3.7-3.5 1.9.1 3.3 1.8 3.3 3.7v6.2c0 2.2-2 3.9-4.2 3.4-1.6-.3-2.8-1.8-2.8-3.5v-6.3zm65.7 80.5c0 1.4-1.1 2.5-2.5 2.5H38.2c-1.4 0-2.5-1.1-2.5-2.5v-2.5h78.7v2.5zm3.6-58.3h-17.4c-.6 0-1.1.5-1.1 1.1 0 .6.5 1.1 1.1 1.1H118v49c0 1.4-1.1 2.5-2.5 2.5H34.7c-1.4 0-2.5-1.1-2.5-2.5v-49h56.3c.6 0 1.1-.5 1.1-1.1 0-.6-.5-1.1-1.1-1.1H32.2v-11.8c0-3.4 2.7-6.1 6.1-6.1h8.9v1.9c0 2.6 1.9 5 4.5 5.2 3 .3 5.5-2.1 5.5-5v-2.1H93v1.9c0 2.6 1.9 5 4.5 5.2 3 .3 5.5-2.1 5.5-5v-2.1h9c3.4 0 6.1 2.7 6.1 6.1v11.8h-.1z" fill="#2F5ED1"/></g><defs><clipPath id="clip0"><path fill="#fff" transform="translate(30 14)" d="M0 0h90.2v90.2H0z"/></clipPath></defs></svg>