<svg width="112" height="106" fill="none" xmlns="http://www.w3.org/2000/svg"><path d="M33.8 79.112v.5h-9.5v-6.7c-.5-.5-1.1-1-1.6-1.5v8.1h-9.5v-21.2h.8c-.3-.7-.6-1.5-.8-2.3h-.8c-.3 0-.6.1-.9.4-.3.3-.4.6-.4 1v7.3H1.3c-.3 0-.7.1-.9.4-.3.2-.4.6-.4.9v14.4c0 .4.1.7.4 1 .2.3.5.4.9.4h41c-2.9-.5-5.8-1.5-8.5-2.7zm-22.2.5H2.1v-12.7h9.6v12.7h-.1zm33.3-3v2.2c.7.1 1.4.2 2.1.2v-2.2c-.7 0-1.4-.1-2.1-.2zm1.7-40.4c-.2-.3-.6-.4-.9-.4H34.6c-.3 0-.6.1-.9.4-.3.3-.4.6-.4 1v7.3h-9.8c-.3 0-.6.1-.9.4-.3.3-.4.6-.4 1v8.8c.6 1.5 1.3 2.9 2.1 4.3v-12.2h9.5v22.1c.5.3 1 .6 1.6.9v-31.7h9.5v35.1l2.1.3v-36.3c0-.4-.1-.7-.4-1zm-12.8 36.7v2.5c.5.3 1 .5 1.6.8v-2.4c-.5-.4-1.1-.7-1.6-.9zm-11.1-10.1v3.6c.5.6 1 1.2 1.6 1.8v-3.3c-.6-.7-1.1-1.4-1.6-2.1zm-3.6-6.8h-2.3c.3.8.6 1.5.9 2.3h2.4c-.4-.8-.7-1.5-1-2.3z" fill="#2F5ED1"/><path d="M44.9 38.113v35.1c-3.4-.6-6.6-1.7-9.5-3.3v-31.8h9.5zM35.4 73.71c3 1.5 6.2 2.5 9.5 3v2.2c-3.4-.5-6.6-1.4-9.5-2.8v-2.4zm-1.6-26.897v22.1c-3.9-2.5-7.2-5.9-9.5-10v-12.1h9.5zm0 26.101v2.5c-3.6-1.8-6.8-4.3-9.5-7.2v-3.3c2.6 3.2 5.9 5.9 9.5 8zm-9.5 0c2.8 2.5 6 4.6 9.5 6.2v.5h-9.5v-6.7zm-1.6-10.101v3.6c-2-2.4-3.7-5.2-5-8.1h2.4c.7 1.6 1.6 3.1 2.6 4.5zm-8.7-4.5c2 5 5 9.5 8.7 13.2v8.1h-9.5v-21.3h.8zm-2.4 8.601H2.1v12.7h9.5v-12.7z" fill="#FFA200"/><path d="M77 71.313c-.4.4-.4.9 0 1.2.3.3.9.3 1.2 0 .3-.3.3-.9 0-1.2-.4-.4-.9-.4-1.2 0zm25.9 16.8l-24.2-24.2.7-1.1c3.5-5.6 5.4-12 5.4-18.7 0-20.6-17.9-37.2-39-34.9-15.9 1.8-28.8 14.4-30.8 30.3-.7 5.8 0 11.4 1.8 16.5.3.8.6 1.5.9 2.3 1.3 2.9 3 5.7 5 8.1.5.6 1 1.2 1.6 1.8 2.7 2.9 6 5.3 9.5 7.2.5.3 1 .5 1.6.8 3 1.3 6.2 2.3 9.5 2.8.7.1 1.4.2 2.1.2.9.1 1.8.1 2.8.1 6.6 0 13.1-1.9 18.7-5.4l1.2-.7 24.1 24.1c1 1 2.2 1.7 3.5 1.9 2.2.4 4.2-.3 5.7-1.8s2.2-3.6 1.8-5.7c-.3-1.5-1-2.7-1.9-3.6zm-33.1-17.8l-.8.5c-.1 0-.1.1-.2.1l-.2.1c-5.5 3.9-12 6-18.8 6-.9 0-1.8 0-2.8-.1-.7 0-1.4-.1-2.1-.2-3.4-.5-6.6-1.5-9.5-3-.5-.3-1-.5-1.6-.8-3.7-2-6.9-4.8-9.5-8-.5-.7-1.1-1.4-1.6-2.1-1-1.4-1.9-2.9-2.6-4.5-.4-.7-.7-1.5-1-2.3-1.9-4.8-2.7-10.3-2-15.9 1.8-15.6 14.9-27.9 30.6-28.9 19.1-1.2 35 14 35 32.8 0 7-2.2 13.6-6.3 19.3-1.9 2.7-4.1 5-6.6 7zm7.7 7.5l-6.1-6.1 1.4-1.2c1.2-1.1 2.4-2.3 3.5-3.5l1.2-1.4 6.1 6.1-1.2 1.3c-1.2 1.4-2.5 2.6-3.8 3.8l-1.1 1zm24 18c-.8.8-1.9 1.3-3 1.3s-2.2-.4-3-1.3L79 79.413l1.3-1.2c1.2-1.1 2.4-2.3 3.5-3.5l1.2-1.3 16.4 16.4c.8.8 1.3 1.9 1.3 3s-.4 2.2-1.2 3z" fill="#2F5ED1"/><path d="M99.3 92.713c0 .2 0 .4-.3.6-.2.2-.5.3-.6.3-.2 0-.5-.1-.6-.3l-13.3-13.2c-.3-.3-.3-.9 0-1.2.3-.3.9-.3 1.2 0l13.3 13.3c.2.1.3.3.3.5z" fill="#2F5ED1"/><path d="M111.817 60.33c0-1.336-2.521-2.505-6.219-3.006-.336-3.674-1.513-6.18-2.858-6.18-1.344 0-2.521 2.506-3.025 6.18-3.698.334-6.219 1.503-6.219 2.84 0 1.335 2.521 2.504 6.219 3.005.336 3.675 1.513 6.18 2.857 6.18 1.345 0 2.522-2.505 3.026-6.18 3.529-.5 6.219-1.503 6.219-2.839z" fill="#FFE48F"/><path d="M26.32 96.967c0-1.336-2.52-2.505-6.218-3.006-.337-3.675-1.513-6.18-2.858-6.18-1.344 0-2.52 2.505-3.025 6.18C10.52 94.295 8 95.464 8 96.8s2.521 2.505 6.219 3.006c.336 3.674 1.513 6.18 2.857 6.18 1.345 0 2.521-2.506 3.026-6.18 3.53-.5 6.219-1.503 6.219-2.84z" fill="#9FADF0"/><path fill="#E02287" fill-opacity=".6" d="M20.977 4.879l4.88-4.88 4.88 4.88-4.88 4.88z"/></svg>