<svg width="131" height="92" fill="none" xmlns="http://www.w3.org/2000/svg"><path d="M41.802 54.2c-2.2 0-4 1.8-4 4s1.8 4 4 4 4-1.8 4-4c.1-2.2-1.8-4-4-4zm0 5.9c-1 0-1.9-.8-1.9-1.9 0-1 .8-1.9 1.9-1.9 1 0 1.9.8 1.9 1.9 0 1.1-.8 1.9-1.9 1.9zm11.8 5.9c-2.2 0-4 1.8-4 4s1.8 4 4 4 4-1.8 4-4c.1-2.2-1.7-4-4-4zm0 5.9c-1 0-1.9-.8-1.9-1.9 0-1 .8-1.9 1.9-1.9 1 0 1.9.8 1.9 1.9 0 1.1-.8 1.9-1.9 1.9zm1.993-17.09L38.408 71.989l1.555 1.556L57.15 56.367l-1.555-1.556z" fill="#2F5ED1"/><path d="M107.902 62.6c2-5.2 3-10.6 3-16.2 0-25-20.4-45.4-45.4-45.4-7.8 0-15.5 2-22.3 5.9-.1 0-.1 0-.2.1h-5.6c-.2 0-.4-.2-.4-.4V1.1h-8.1v18.3c0 .1 0 .1-.1.2-5.9 8-8.9 17.5-8.8 27.4.3 25 21.4 45.3 46.4 44.8 5.2-.1 10.3-1.1 15.2-3h.1c.1 0 .1 0 .2.1 3 1.9 6.5 2.9 10 2.9 4 0 7.8-1.3 11-3.6.5-.4.6-1.1.2-1.6-.4-.4-1-.5-1.4-.1-2.8 2.1-6.3 3.2-9.8 3.2-9.2 0-16.6-7.5-16.6-16.6 0-9.2 7.5-16.7 16.6-16.7 9.1 0 16.7 7.5 16.7 16.7 0 3.4-1 6.5-2.8 9.3-.3.5-.2 1.1.2 1.5.5.4 1.2.3 1.6-.3 2.1-3.1 3.2-6.8 3.2-10.5 0-3.6-1-7-2.9-10.1 0-.1-.1-.3 0-.4zm-65-47.2c0-.2.2-.4.4-.4h3c.2 0 .4.2.4.4v20.7c0 .2-.2.4-.4.4h-3c-.2 0-.4-.2-.4-.4V15.4zm-5.9-5.9c0-.2.2-.4.4-.4h3c.2 0 .4.2.4.4v26.6c0 .2-.2.4-.4.4h-3c-.2 0-.4-.2-.4-.4V9.5zm-5.9-5.9c0-.2.2-.4.4-.4h3c.2 0 .4.2.4.4v32.5c0 .2-.2.4-.4.4h-3c-.2 0-.4-.2-.4-.4V3.6zm33.3 85.6c0 .1 0 .2-.1.3-.1.1-.2.1-.3.1-22.6-.8-40.9-19.1-41.7-41.7 0-.1 0-.2.1-.3.1-.1.2-.1.3-.1h41.3c.2 0 .4.2.4.4v41.3zm0-44.3c0 .2-.2.4-.4.4h-41.3c-.1 0-.2 0-.3-.1-.1-.1-.1-.2-.1-.3.2-7.3 2.2-14.2 5.9-20.4.1-.2.3-.2.5-.2s.3.2.3.4v13.9h31.6v-14h-5.5c-.2 0-.4-.2-.4-.4v-5.5h-5.5c-.2 0-.4-.2-.4-.4v-5.5h-5.5c-.2 0-.4-.2-.4-.4V9.7c0-.1.1-.3.2-.3 6.3-3.8 13.5-6 20.9-6.2.1 0 .2 0 .3.1.1.1.1.2.1.3v41.3zm-15.6-8.8V21.3c0-.2.2-.4.4-.4h3c.2 0 .4.2.4.4v14.8c0 .2-.2.4-.4.4h-3c-.2 0-.4-.2-.4-.4zm5.9 0v-8.9c0-.2.2-.4.4-.4h3c.2 0 .4.2.4.4v8.9c0 .2-.2.4-.4.4h-3c-.2 0-.4-.2-.4-.4zm51.9-2.4c.1 0 .3.1.3.3 1.1 3.5 1.7 7.2 1.8 11 0 .1 0 .2-.1.3-.1.1-.2.1-.3.1h-12.7c-.2 0-.3-.1-.4-.2-.1-.1 0-.3.1-.4l10.9-10.9c.1-.2.3-.2.4-.2zm-9.8-16.9c.1 0 .2 0 .3.1 1.5 1.6 2.9 3.3 4.1 5.1.1.2.1.4 0 .5L85.702 38c-.4.4-.4 1.1 0 1.5.4.4 1.1.4 1.5 0l15-15c.1-.1.2-.1.3-.1.1 0 .2.1.3.2 1.2 2 2.2 4.1 3 6.2.1.1 0 .3-.1.4l-14 14c-.1.1-.2.1-.3.1h-9.1c-.2 0-.3-.1-.4-.2-.1-.1 0-.3.1-.4l.9-.9c.4-.4.4-1.1 0-1.5-.4-.4-1.1-.4-1.5 0l-3 3c-.1.1-.2.1-.3.1h-9.1c-.2 0-.3-.1-.4-.2-.1-.1 0-.3.1-.4l27.7-27.7c.2-.2.3-.3.4-.3zm-30.3-13.2c0-.1.1-.2.1-.3.1-.1.2-.1.3-.1 3.7.1 7.4.7 11 1.8.1 0 .2.1.3.3 0 .1 0 .3-.1.4l-10.9 10.8c-.1.1-.2.1-.3.1h-.2c-.1-.1-.3-.2-.3-.4V3.6h.1zm0 30.1c0-.1.1-.2.1-.3l17-16.9c.4-.4.4-1.1 0-1.5-.4-.4-1.1-.4-1.5 0l-14.8 14.8c-.1.1-.3.2-.4.1-.1-.1-.3-.2-.3-.4v-9.1c0-.1.1-.2.1-.3l14-14c.1-.1.3-.2.4-.1 2.1.8 4.2 1.8 6.2 3 .1.1.2.2.2.3 0 .1 0 .3-.1.3l-1.3 1.3c-.4.4-.4 1.1 0 1.5.4.4 1.1.4 1.5 0l1.8-1.8c.1-.1.4-.2.5 0 1.8 1.2 3.5 2.6 5.1 4.1.1.1.1.2.1.3 0 .1 0 .2-.1.3L67.302 43c-.1.1-.2.1-.3.1h-.2c-.1-.1-.3-.2-.3-.4v-9zm39.7 26.7c-.1 0-.3 0-.4-.1-3.6-3.8-8.6-6-13.8-6-10.4 0-18.8 8.4-18.8 18.8 0 5.2 2.2 10.2 6 13.8.1.1.2.2.1.4 0 .1-.1.3-.3.3-3.9 1.3-8 2-12.2 2.2-.1 0-.2 0-.3-.1-.1-.1-.1-.2-.1-.3V47.9c0-.2.2-.4.4-.4h41.3c.1 0 .2 0 .3.1.1.1.1.2.1.3-.1 4.2-.9 8.3-2.2 12.2.1.1 0 .2-.1.3z" fill="#2F5ED1"/><path d="M58.503 27.2v8.9c0 .2-.2.4-.4.4h-3c-.2 0-.4-.2-.4-.4v-8.9c0-.2.2-.4.4-.4h3c.2 0 .4.2.4.4zm-5.901-5.902v14.8c0 .2-.2.4-.4.4h-3c-.2 0-.4-.2-.4-.4v-14.8c0-.2.2-.4.4-.4h3c.2 0 .4.2.4.4zm-5.9-5.898v20.7c0 .2-.2.4-.4.4h-3c-.2 0-.4-.2-.4-.4V15.4c0-.2.2-.4.4-.4h3c.2 0 .4.2.4.4zm-6-5.898v26.6c0 .2-.2.4-.4.4h-3c-.2 0-.4-.2-.4-.4v-26.6c0-.2.2-.4.4-.4h3c.3 0 .4.2.4.4zM34.803 3.6v32.5c0 .2-.2.4-.4.4h-3c-.2 0-.4-.2-.4-.4V3.6c0-.2.2-.4.4-.4h3c.3 0 .4.2.4.4z" fill="#FFA200"/><path d="M41.802 54.2c-2.2 0-4 1.8-4 4s1.8 4 4 4 4-1.8 4-4c.1-2.2-1.8-4-4-4zm0 5.9c-1 0-1.9-.8-1.9-1.9 0-1 .8-1.9 1.9-1.9 1 0 1.9.8 1.9 1.9 0 1.1-.8 1.9-1.9 1.9zm11.8 5.9c-2.2 0-4 1.8-4 4s1.8 4 4 4 4-1.8 4-4c.1-2.2-1.7-4-4-4zm0 5.9c-1 0-1.9-.8-1.9-1.9 0-1 .8-1.9 1.9-1.9 1 0 1.9.8 1.9 1.9 0 1.1-.8 1.9-1.9 1.9zm1.993-17.09L38.408 71.989l1.555 1.556L57.15 56.367l-1.555-1.556z" fill="#2F5ED1"/><path d="M55.595 54.81L38.408 71.989l1.555 1.556L57.15 56.367l-1.555-1.556z" fill="#FFA200"/><path d="M53.602 66c-2.2 0-4 1.8-4 4s1.8 4 4 4 4-1.8 4-4c.1-2.2-1.7-4-4-4zm0 5.9c-1 0-1.9-.8-1.9-1.9 0-1 .8-1.9 1.9-1.9 1 0 1.9.8 1.9 1.9 0 1.1-.8 1.9-1.9 1.9zm-11.8-17.7c-2.2 0-4 1.8-4 4s1.8 4 4 4 4-1.8 4-4c.1-2.2-1.8-4-4-4zm0 5.9c-1 0-1.9-.8-1.9-1.9 0-1 .8-1.9 1.9-1.9 1 0 1.9.8 1.9 1.9 0 1.1-.8 1.9-1.9 1.9z" fill="#2F5ED1"/><path d="M97.603 77.4c0 2.5-1.7 4.7-4.1 5.3-.2 0-.3.2-.3.4v2.8h-2.2v-2.8c0-.2-.1-.3-.3-.4-2.3-.6-3.9-2.6-4.1-4.9h2.2c.2 1.7 1.6 3 3.3 3 1.9 0 3.4-1.5 3.4-3.4s-1.5-3.4-3.4-3.4c-3 0-5.5-2.5-5.5-5.5 0-2.5 1.7-4.7 4.1-5.3.2 0 .3-.2.3-.4V60h2.2v2.8c0 .2.1.3.3.4 2.3.6 3.9 2.6 4.1 4.9h-2.2c-.2-1.7-1.6-3-3.3-3-1.8 0-3.3 1.5-3.3 3.4 0 1.8 1.5 3.3 3.3 3.3 3 .1 5.5 2.6 5.5 5.6zm7.399-5.502h-2.2v2.2h2.2v-2.2zm-23.599 0h-2.2v2.2h2.2v-2.2z" fill="#FFA200"/><path d="M18.32 70.428c0-1.336-2.52-2.505-6.218-3.006-.337-3.675-1.513-6.18-2.858-6.18-1.344 0-2.52 2.505-3.025 6.18C2.52 67.756 0 68.925 0 70.26s2.521 2.505 6.219 3.006c.336 3.674 1.513 6.18 2.857 6.18 1.345 0 2.521-2.506 3.026-6.18 3.53-.501 6.219-1.503 6.219-2.84z" fill="#FFE48F"/><circle cx="124.332" cy="50.5" r="5" stroke="#E02287" stroke-opacity=".6" stroke-width="3"/><path d="M124.364 9.186c0-1.336-2.522-2.506-6.219-3.007C117.808 2.505 116.632 0 115.287 0c-1.344 0-2.521 2.505-3.025 6.18-3.698.333-6.219 1.503-6.219 2.839s2.521 2.505 6.219 3.006c.336 3.674 1.513 6.18 2.857 6.18 1.345 0 2.521-2.506 3.026-6.18 3.529-.501 6.219-1.503 6.219-2.84z" fill="#9FADF0"/><path fill="#E02287" fill-opacity=".6" d="M8 20.879l4.88-4.88 4.881 4.88-4.88 4.88z"/></svg>