<svg width="14" height="11" fill="none" xmlns="http://www.w3.org/2000/svg"><path d="M2.37 4.97a.826.826 0 00-1.204-.04h0a.912.912 0 00-.036 1.25s0 0 0 0l3.647 4.069h0l-2.48-5.212m.075-.067l-.075.067m.075-.067h0l-.075.067m.075-.067L5.39 8.336m-3.094-3.3l3.027 3.375.066-.076m0 0l.067.075-.066.076 6.306-7.23a.727.727 0 011.06-.05c.306.292.327.79.048 1.11m-7.415 6.02l6.232-7.146h0a.827.827 0 011.205-.057h0c.344.33.367.888.053 1.248l-.075-.066m0 0l.075.066m-.075-.066L5.95 10.172m6.928-7.791l-8.028 7.8c.142.158.34.248.547.248h.005a.734.734 0 00.548-.257m6.928-7.791l-6.852 7.857m6.852-7.857l-6.852 7.857m-.076-.066l.076.066m-.076-.066l.075.066h0s0 0 0 0" fill="#fff" stroke="#fff"/></svg>