<svg width="487" height="526" fill="none" xmlns="http://www.w3.org/2000/svg"><path d="M373.701 331.118s31.943-5.907 37.631-4.157c5.689 1.531 75.919 49.883 75.482 52.727-.438 2.845-1.751 5.251-5.032 6.564-3.282 1.094-58.198-10.721-58.198-10.721l-46.82-20.128-3.063-24.285z" fill="url(#paint0_linear)"/><path d="M308.065 460.857s13.565 29.537 18.159 33.256c4.595 3.719 84.233 33.912 86.421 31.724 2.188-2.188 3.5-4.376 2.406-7.876-.875-3.501-42.225-41.789-42.225-41.789l-43.32-26.692-21.441 11.377z" fill="url(#paint1_linear)"/><path d="M404.768 387.562l-34.13 67.386c-1.969 4.157-.875 8.97 2.844 11.815l28.005 20.566 47.476-94.079-33.255-10.282c-4.157-1.313-8.752.656-10.94 4.594z" fill="url(#paint2_linear)"/><path d="M423.584 375.531l-4.157 8.314-41.35 82.044-.438.876-4.813 9.407s-1.532 0-4.814-.437c-7.219-.875-22.753-3.063-46.163-9.408-3.501-.875-7.22-1.969-11.159-3.063-1.75-.438-3.281-.875-5.032-1.532-9.189-2.625-19.253-6.126-30.192-9.845-2.844-.875-5.689-1.969-8.752-3.063-4.813-1.75-10.064-3.719-15.315-5.688-3.719-1.532-7.657-3.063-11.595-4.595-22.535-9.189-47.915-20.566-76.138-34.787-41.569-21.003-73.075-45.726-96.922-69.793-3.5-3.5-6.783-7.001-9.846-10.283-4.594-5.032-8.751-9.845-12.47-14.877-26.912-33.693-38.946-63.448-43.54-77.013-.656-2.188-.438-4.376.438-6.126.875-1.75 2.625-3.282 4.594-3.938 13.565-4.157 44.633-12.033 87.733-10.502 6.345.219 12.69.656 19.472 1.313 4.595.437 9.408 1.094 14.221 1.75 33.694 4.813 72.2 15.534 113.769 36.537 137.836 69.356 182.468 124.709 182.468 124.709z" fill="#F1EDF9"/><path d="M302.376 378.155s20.348-12.252 35.881-4.594c10.283 5.032 69.793 45.07 109.175 71.543 4.594 3.063.437 11.596-4.814 9.626-44.851-15.971-112.237-40.037-122.52-45.288-15.534-7.439-17.722-31.287-17.722-31.287z" fill="url(#paint3_linear)"/><path d="M62.15 256.293c7.438-14.44 11.157-30.193 11.157-45.289-32.599 1.094-56.447 7.001-67.605 10.502C1.545 222.818-.86 227.413.67 231.57c3.938 11.158 13.127 33.912 31.724 60.604 12.034-8.971 22.317-21.223 29.755-35.881z" fill="url(#paint4_linear)"/><path d="M44.209 308.583c15.096-9.408 28.66-23.848 37.85-42.007 9.189-18.378 12.908-37.632 11.377-55.353-4.595-.219-8.752-.219-13.127-.219 0 16.409-4.157 33.037-12.034 48.57-7.876 15.534-18.815 28.88-31.943 38.726 2.407 3.281 5.033 6.782 7.877 10.283z" fill="url(#paint5_linear)"/><path opacity=".4" d="M423.584 375.531l-4.157 8.314C193.202 202.908.889 225.443.889 225.443c.875-1.75 2.626-3.282 4.595-3.938 13.564-4.157 44.632-12.033 87.733-10.502 6.345.219 12.69.657 19.472 1.313 4.594.438 9.408 1.094 14.221 1.75 33.693 4.814 72.2 15.534 113.769 36.538 138.273 69.574 182.905 124.927 182.905 124.927z" fill="#F0EEF4"/><path d="M377.858 466.107l-.438.875-4.813 9.408s-1.532 0-4.813-.437c-7.22-.876-22.754-3.063-46.164-9.408-3.501-.875-7.22-1.969-11.158-3.063-1.751-.438-3.282-.875-5.032-1.532-9.189-2.625-19.254-6.126-30.193-9.845-2.844-.875-5.688-1.969-8.751-3.063-4.814-1.75-10.065-3.72-15.315-5.689-3.72-1.531-7.658-3.063-11.596-4.594-22.535-9.189-47.914-20.566-76.138-34.787-41.569-21.004-73.074-45.727-96.922-69.793-3.5-3.501-6.783-7.001-9.846-10.283-4.594-5.032-8.75-9.845-12.47-14.877C17.298 275.325 5.265 245.571.67 232.006c-.656-2.188-.437-4.376.438-6.126 0-.438 79.2 163.871 376.75 240.227z" fill="#D4D1DB" fill-opacity=".2"/><path d="M130.192 349.277c25.816 13.127 57.322 2.626 70.23-23.191 11.815-23.629 4.376-51.853-16.628-66.511-1.969-1.532-4.157-2.626-6.344-3.938-25.817-12.909-57.323-2.626-70.231 23.191-7.876 15.753-7.22 33.255.438 47.914a48.882 48.882 0 0022.535 22.535z" fill="url(#paint6_linear)"/><path d="M135.224 339.214c20.347 10.283 45.07 2.188 55.353-18.159 9.408-18.597 3.282-40.694-13.127-52.29-1.532-1.094-3.282-2.188-5.032-3.063-20.348-10.283-45.07-2.188-55.353 18.159-6.126 12.252-5.689 26.255.218 37.631a39.12 39.12 0 0017.941 17.722z" fill="#0064AB"/><path d="M122.316 324.555c20.347 10.283 45.069 1.969 55.352-18.159 6.126-12.252 5.689-26.254-.218-37.631-1.532-1.094-3.282-2.188-5.032-3.063-20.348-10.283-45.07-2.188-55.353 18.159-6.126 12.252-5.689 26.255.218 37.631 1.532 1.313 3.282 2.188 5.033 3.063z" fill="#0088BD"/><path d="M162.572 278.17c1.75 4.157.438 8.97-1.531 13.127-3.063 6.126-8.314 11.377-14.44 14.659-4.814 2.625-10.721 3.938-15.972 2.406-5.251-1.312-10.064-5.907-10.72-11.377-1.751-16.846 34.349-39.162 42.663-18.815z" fill="#00B0DA"/><path d="M271.747 412.508l-17.941-.875c-.218 1.531-1.312 6.782-3.063 8.97-1.969 2.625-10.283 8.314-12.689 9.845-1.532 1.094-.657 3.282-.657 3.282l38.726-8.97c.218 0-1.97-7.876-4.376-12.252z" fill="#390280"/><path d="M376.983 294.143c-5.251 11.158-13.127 22.097-25.817 23.629-29.974 3.5-67.824-3.282-67.824-3.282l-8.532 100.204-22.754-2.188h-.438s0-124.051 4.157-126.239c3.063-1.532 29.317-3.939 44.195-3.282h.219c6.563.219 10.501-2.844 10.501-2.844l69.575 3.281c-.438 3.72-1.751 7.439-3.282 10.721z" fill="#0088BD"/><path d="M253.806 411.632l-1.969.875h-.438s0-124.051 4.157-126.239c3.063-1.532 29.318-3.938 44.195-3.282-3.063.875-36.756 10.064-37.631 10.502-.656.656-8.314 118.144-8.314 118.144z" fill="#00B0DA"/><path d="M376.983 294.143c-25.598.219-64.104-8.314-77.013-11.377 6.345-1.75 10.502-2.844 10.502-2.844l69.574 3.282c-.219 3.938-1.531 7.657-3.063 10.939z" fill="#0064AB"/><path d="M328.412 153.901l-6.345 24.723-1.75 6.782-.875 3.282s-48.571 10.72-58.854 7.22c-10.283-3.501-44.413-67.168-44.413-67.168l4.376-2.406 3.063-1.751 10.72-5.907 3.719-1.969 29.755 50.102 53.603-11.377 7.001-1.531z" fill="#0088BD"/><path d="M321.192 155.432s-52.946 16.409-54.696 15.972c-1.751-.438-32.381-52.728-32.381-52.728l3.72-1.969 29.755 50.102 53.602-11.377z" fill="#00B0DA"/><path d="M319.442 188.905s-48.571 10.721-58.854 7.22c-10.283-3.5-44.413-67.167-44.413-67.167l4.376-2.407 3.063-1.75c6.563 13.127 32.818 64.104 39.381 65.854 6.564 1.532 47.258-8.751 59.072-11.814l-1.75 6.782-.875 3.282z" fill="#0064AB"/><path d="M383.984 290.426l-48.57-4.376-2.188-.219-33.256-3.063s7.22-63.229 11.596-97.797c2.188-18.597 10.064-27.13 16.846-31.068a24.765 24.765 0 014.376-1.969c3.72-1.313 6.345-1.313 6.345-1.313l16.847 1.532c1.531.437 2.844.656 4.156 1.094 1.094.218 1.97.656 2.845.875 2.844 1.094 17.284 7.876 18.597 9.189 4.813 8.314 6.563 23.41 6.563 23.41l-1.313 32.38-.218 6.564-2.626 64.761z" fill="#0088BD"/><path d="M362.106 138.367l-7.877 16.847-17.284-1.969 3.72-10.94 21.441-3.938z" fill="#FF8A8C"/><path d="M338.258 104.02l-6.564 38.287 23.41 3.282 8.752-7.658 7.22-24.066-32.818-9.845z" fill="#FFABA7"/><path d="M357.511 130.93s8.095-12.908 13.127-4.813c3.501 5.47-6.782 11.815-6.782 11.815l-6.345-7.002zm-20.566-19.91c0 .437-7.876 16.627-7.876 16.627l7.876 2.407 1.75-14.878-1.75-4.156z" fill="#FFABA7"/><path d="M345.915 83.235c-2.407 1.531-3.938 3.281-4.595 5.032-1.093-3.063-.656-6.126-.656-6.126-11.377 5.47-7.22 18.159-7.22 18.159-.219 6.563 31.943 15.315 31.943 15.315l-3.063 9.845c3.719-3.938 8.314.657 8.314.657l7.876-11.596c-3.938-4.376-9.626-8.533-14.659-12.033-7.438-4.814-13.564-11.596-17.94-19.253z" fill="#28016A"/><path d="M341.54 216.695l-8.752-64.761c3.719-1.313 6.345-1.313 6.345-1.313l7.876.656 8.97.876c1.532.437 2.845.656 4.157 1.094l-18.596 63.448z" fill="#F1EDF9"/><path d="M321.63 187.377l7.439-7.22-9.627-3.063 9.189-23.191a24.733 24.733 0 014.376-1.969l8.751 64.76-20.128-29.317zm36.1-2.407l6.782 7.001-22.754 24.723 18.597-63.448c1.094.219 1.969.656 2.844.875l4.595 27.349-10.064 3.5z" fill="#0064AB"/><path d="M360.136 153.246l-1.312 4.376-6.345 9.408-5.47-12.252-7.439 11.596-6.344-10.94-.438-3.281c3.719-1.313 6.345-1.313 6.345-1.313l7.876.656 8.97.875c1.532 0 2.845.438 4.157.875z" fill="#D4D1DB"/><path d="M339.133 150.62l7.876.657-7.001 12.252-7.22-11.596c3.719-1.532 6.345-1.313 6.345-1.313zm21.003 2.626l-7.219 11.377-5.908-13.346 8.971.875c1.531.219 2.844.657 4.156 1.094z" fill="#F1EDF9"/><path d="M335.413 286.048l-2.187-.219 3.938-63.229 6.782-12.252 1.75 1.094-6.563 11.814-3.72 62.792z" fill="#0064AB"/><path d="M346.571 228.727c-.437 1.094-1.531 1.751-2.625 1.313-1.094-.438-1.75-1.531-1.313-2.625.438-1.094 1.532-1.751 2.626-1.313 1.094.437 1.75 1.531 1.312 2.625zm-1.093 12.254c-.438 1.094-1.532 1.751-2.626 1.313-1.094-.438-1.75-1.532-1.313-2.625.438-1.094 1.532-1.751 2.626-1.313 1.094.437 1.75 1.531 1.313 2.625zm-1.313 13.125c-.438 1.094-1.532 1.751-2.626 1.313-1.094-.438-1.75-1.532-1.313-2.625.438-1.094 1.532-1.751 2.626-1.313 1.094.437 1.531 1.75 1.313 2.625zm8.533 10.941l23.191 2.407-1.531 4.594-10.94 1.532-10.283-4.595-.437-3.938zm-45.289-3.281l20.128 1.969-1.313 4.157-9.407 1.312-8.971-4.157-.437-3.281z" fill="#0064AB"/><path d="M224.488 108.176l-9.845 10.72 5.907 8.095 9.408-4.594-1.313-13.127-4.157-1.094z" fill="#FF8A8C"/><path d="M192.108 54.79l-27.129-46.6c21.003-11.158 48.571-9.627 68.48 3.282 9.627 6.345 17.722 15.096 27.348 21.44 12.909 8.315 28.88 12.034 43.976 10.065-8.751 5.032-17.284 10.283-26.691 14.002-9.408 3.72-19.472 5.907-29.537 4.814-10.064-1.094-19.472-5.251-29.098-7.877-9.627-2.625-18.378-3.938-27.349.876z" fill="url(#paint7_linear)"/><path d="M160.384 11.032l191.657 329.492 4.376-3.063L164.979 8.187l-4.595 2.845z" fill="#F0EEF4"/><path d="M381.577 163.309l.438 15.096-4.157 21.878-5.032 15.534-50.321 28.224 1.75 5.688 3.72 13.346s58.197-19.472 66.511-26.473c4.375-3.719 6.126-27.348 8.532-45.508.875-8.095-11.158-22.753-21.441-27.785z" fill="#0088BD"/><path d="M234.553 115.392l-6.126-10.939-16.847.219s-1.094 2.407 1.751 3.5c2.625 1.094 8.532 1.751 8.532 1.751s5.251 12.033 10.064 10.72c4.814-1.312 2.626-5.251 2.626-5.251z" fill="#FFABA7"/><path d="M213.768 109.925s-1.969 2.626-1.313 4.376c.657 1.75 10.283 2.625 10.283 2.625l.875-2.188c0 .219-7.22-6.126-9.845-4.813z" fill="#FFABA7"/><path d="M214.425 105.766s-1.969 2.626-1.313 4.376c.656 1.75 10.283 2.626 10.283 2.626l.875-2.188s-7.22-6.126-9.845-4.814zm-.876 8.754s-1.75 2.406-1.312 3.938c.437 1.531 9.189 2.406 9.189 2.406l.875-1.969s-6.345-5.469-8.752-4.375z" fill="#FFABA7"/><path d="M213.987 119.331s-1.094 2.188-.437 3.501c.656 1.313 8.095.656 8.095.656l.437-1.75s-6.126-3.719-8.095-2.407zm110.05 130.181l-9.846.656s-12.033 8.314-12.033 10.064c-.219 1.532 2.188 4.376 2.625 4.376h2.188s1.094 2.188 1.751 2.407c.875.218 2.844.656 2.844.656s1.313 1.313 1.75 1.531c.438.219 3.063.219 3.501 0 .437-.218 5.688-5.688 5.907-6.563l3.938-3.282-2.625-9.845z" fill="#FFABA7"/><path d="M322.286 243.82l1.75 5.689 50.102-27.349s9.627-21.659 10.502-31.724c1.094-10.064-2.844-17.065-2.844-17.065s1.75 21.004-10.939 44.414l-48.571 26.035z" fill="#0064AB"/><path d="M394.267 236.385c-1.531 1.312-4.376 2.844-8.314 4.594-18.378 8.533-57.978 21.879-57.978 21.879l-1.313-4.376v-.219s64.323-23.847 64.761-24.285c2.188-2.625 10.283-45.507 8.314-48.789-1.969-3.282-4.595-8.095-13.784-16.19-.875-.876-16.409-11.377-22.972-14.878 2.844 1.094 17.503 7.439 18.815 8.752 10.283 5.032 22.098 20.128 21.004 28.004-2.407 18.159-4.157 41.788-8.533 45.508z" fill="#00B0DA"/><path d="M388.798 215.159c-5.908-7.876-13.346-14.659-21.879-19.91-5.47-3.5-11.377-6.344-15.534-11.376-5.251-6.345-6.782-15.534-3.719-23.192l2.406-2.625-3.063-6.783-3.5 6.345 1.531 3.063c-2.188 6.783-4.375 14.44-2.625 21.441 1.531 6.564 5.907 11.815 11.158 16.19 5.032 4.376 10.939 7.658 16.409 11.377 5.47 3.72 13.565 14.003 13.346 13.784l7.876.875-2.406-9.189z" fill="#FF6790"/><defs><linearGradient id="paint0_linear" x1="371.521" y1="343.456" x2="489.525" y2="364.714" gradientUnits="userSpaceOnUse"><stop stop-color="#FF9A7A"/><stop offset="1" stop-color="#FF4E83"/></linearGradient><linearGradient id="paint1_linear" x1="316.839" y1="452.061" x2="401.689" y2="536.779" gradientUnits="userSpaceOnUse"><stop stop-color="#FF9A7A"/><stop offset="1" stop-color="#FF4E83"/></linearGradient><linearGradient id="paint2_linear" x1="386.356" y1="420.141" x2="418.574" y2="436.781" gradientUnits="userSpaceOnUse"><stop stop-color="#F66987"/><stop offset="1" stop-color="#C74F86"/></linearGradient><linearGradient id="paint3_linear" x1="299.022" y1="397.44" x2="453.846" y2="425.331" gradientUnits="userSpaceOnUse"><stop stop-color="#FF9A7A"/><stop offset="1" stop-color="#FF4E83"/></linearGradient><linearGradient id="paint4_linear" x1="-2.252" y1="241.749" x2="66.951" y2="254.216" gradientUnits="userSpaceOnUse"><stop stop-color="#F66987"/><stop offset="1" stop-color="#C74F86"/></linearGradient><linearGradient id="paint5_linear" x1="44.078" y1="255.315" x2="87.409" y2="263.121" gradientUnits="userSpaceOnUse"><stop stop-color="#F66987"/><stop offset="1" stop-color="#C74F86"/></linearGradient><linearGradient id="paint6_linear" x1="102.171" y1="293.312" x2="205.241" y2="311.88" gradientUnits="userSpaceOnUse"><stop stop-color="#FF9A7A"/><stop offset="1" stop-color="#FF4E83"/></linearGradient><linearGradient id="paint7_linear" x1="162.638" y1="15.56" x2="299.1" y2="60.34" gradientUnits="userSpaceOnUse"><stop stop-color="#FF9A7A"/><stop offset="1" stop-color="#FF4E83"/></linearGradient></defs></svg>