<?xml version="1.0" encoding="utf-8"?><svg xmlns="http://www.w3.org/2000/svg" xmlns:xlink="http://www.w3.org/1999/xlink"><symbol viewBox="0 0 15 14" id="arrow" xmlns="http://www.w3.org/2000/svg"><path fill-rule="evenodd" clip-rule="evenodd" d="M12.238 4.838a.583.583 0 00-.825 0L7.159 9.092 2.905 4.838a.583.583 0 00-.825.824l4.666 4.667a.583.583 0 00.825 0l4.667-4.667a.583.583 0 000-.824z"/></symbol><symbol viewBox="0 0 24 28" id="decor" xmlns="http://www.w3.org/2000/svg"><path d="M9.278 2.066L1.57 11.262c-1.42 1.693-1.367 4.392.118 6.028l8.063 8.888c1.484 1.636 3.838 1.59 5.257-.103l7.708-9.197c1.42-1.693 1.367-4.392-.118-6.028l-8.063-8.887c-1.484-1.637-3.838-1.59-5.257.103z"/></symbol><symbol viewBox="0 0 20 15" id="hamburgerClose" xmlns="http://www.w3.org/2000/svg"><g clip-path="url(#clip0_306_1827)"><rect width="19.834" height="1.5" rx=".75" transform="matrix(-1 0 0 1 20 1.5)"/><rect width="19.834" height="1.5" rx=".75" transform="matrix(-1 0 0 1 20 6.75)"/><rect x=".166" y="12" width="19.834" height="1.5" rx=".75"/></g></symbol><symbol viewBox="0 0 15 15" id="hamburgerOpen" xmlns="http://www.w3.org/2000/svg"><g clip-path="url(#clip0_306_1681)"><rect x="1" width="20" height="2" rx="1" transform="rotate(45 1 0)"/><rect width="20" height="2" rx="1" transform="scale(-1 1) rotate(45 -7 -16.9)"/></g></symbol><symbol viewBox="0 0 24 24" id="map" xmlns="http://www.w3.org/2000/svg"><path fill-rule="evenodd" clip-rule="evenodd" d="M3.5 10.318C3.5 5.718 7.344 2 11.993 2c4.663 0 8.507 3.718 8.507 8.318 0 2.318-.843 4.47-2.23 6.294a22.063 22.063 0 01-5.541 5.14c-.486.318-.925.342-1.459 0a21.64 21.64 0 01-5.54-5.14c-1.388-1.824-2.23-3.976-2.23-6.294zm5.694.259c0 1.54 1.258 2.753 2.8 2.753 1.542 0 2.812-1.212 2.812-2.753 0-1.53-1.27-2.8-2.813-2.8a2.814 2.814 0 00-2.799 2.8z"/></symbol><symbol viewBox="0 0 24 24" id="message" xmlns="http://www.w3.org/2000/svg"><path fill-rule="evenodd" clip-rule="evenodd" d="M16.939 3A5.057 5.057 0 0122 8.05v7.9c0 2.79-2.27 5.05-5.061 5.05H7.06A5.057 5.057 0 012 15.95v-7.9A5.05 5.05 0 017.06 3h9.879zm1.591 6.54l.08-.08a.773.773 0 00-.011-1 .84.84 0 00-.529-.26.76.76 0 00-.561.2L13 12a1.566 1.566 0 01-2 0L6.5 8.4a.76.76 0 00-1 .07c-.27.27-.3.7-.071 1l.131.13 4.55 3.55a3.143 3.143 0 003.909 0l4.511-3.61z"/></symbol><symbol viewBox="0 0 24 24" id="phone" xmlns="http://www.w3.org/2000/svg"><path d="M18.167 14.38c-.672-.145-1.203.167-1.674.44-.482.28-1.398 1.023-1.923.833-2.689-1.107-5.218-3.46-6.313-6.16-.193-.537.547-1.459.826-1.946.27-.472.576-1.008.436-1.685-.126-.608-1.754-2.68-2.33-3.247-.38-.374-.768-.58-1.168-.613-1.5-.064-3.177 1.939-3.472 2.418-.736 1.022-.732 2.382.013 4.03 1.795 4.429 8.585 11.112 13.03 12.975.82.383 1.57.575 2.245.575.659 0 1.246-.183 1.75-.548.381-.22 2.467-1.98 2.412-3.521-.033-.393-.238-.786-.608-1.167-.562-.58-2.62-2.257-3.224-2.384z"/></symbol><symbol viewBox="0 0 14 12" id="telegram" xmlns="http://www.w3.org/2000/svg"><path d="M13.604 1.889l-1.98 9.34c-.15.659-.54.823-1.094.512L7.514 9.518l-1.456 1.4c-.161.161-.296.296-.607.296l.217-3.073 5.593-5.054c.243-.217-.053-.337-.378-.12L3.968 7.32.991 6.39c-.647-.202-.659-.648.135-.958L12.77.945c.539-.202 1.01.12.835.944z"/></symbol><symbol viewBox="0 0 24 24" id="time" xmlns="http://www.w3.org/2000/svg"><path d="M12 2.25A9.75 9.75 0 002.25 12c0 5.384 4.365 9.75 9.75 9.75 5.384 0 9.75-4.366 9.75-9.75 0-5.385-4.366-9.75-9.75-9.75zm4.5 11.25H12a.75.75 0 01-.75-.75V6a.75.75 0 111.5 0v6h3.75a.75.75 0 110 1.5z"/></symbol><symbol viewBox="0 0 15 8" id="vk" xmlns="http://www.w3.org/2000/svg"><path d="M14.26.542c.096-.312 0-.542-.462-.542h-1.531c-.39 0-.57.198-.665.417 0 0-.78 1.828-1.882 3.013-.356.342-.52.452-.715.452-.096 0-.244-.11-.244-.422V.543C8.76.166 8.65 0 8.329 0H5.923c-.244 0-.39.175-.39.338 0 .354.55.437.608 1.437v2.17c0 .475-.088.563-.283.563-.52 0-1.783-1.836-2.532-3.936C3.176.165 3.028 0 2.636 0H1.103C.668 0 .58.198.58.417c0 .39.52 2.328 2.42 4.888C4.265 7.053 6.048 8 7.669 8c.975 0 1.094-.21 1.094-.572 0-1.67-.088-1.828.4-1.828.227 0 .617.11 1.526.953C11.73 7.553 11.9 8 12.483 8h1.53c.437 0 .658-.21.53-.625-.29-.872-2.258-2.668-2.346-2.787-.226-.28-.161-.405 0-.655.002-.003 1.871-2.533 2.063-3.39z"/></symbol><symbol viewBox="0 0 17 16" id="whatsapp" xmlns="http://www.w3.org/2000/svg"><path d="M13.482 3.034A6.885 6.885 0 008.576 1a6.946 6.946 0 00-6.012 10.406L1.579 15l3.678-.966a6.917 6.917 0 003.316.844h.003c3.822 0 7.003-3.112 7.003-6.937 0-1.853-.787-3.594-2.097-4.907zM8.576 13.71a5.756 5.756 0 01-2.937-.803l-.21-.125-2.18.572.58-2.128-.137-.219a5.747 5.747 0 01-.881-3.069 5.774 5.774 0 015.768-5.765c1.541 0 2.988.6 4.075 1.69 1.088 1.091 1.757 2.538 1.754 4.079 0 3.18-2.654 5.768-5.832 5.768zm3.163-4.318c-.172-.088-1.025-.507-1.185-.563-.159-.06-.275-.087-.39.088a9.955 9.955 0 01-.55.68c-.1.117-.203.132-.375.045-1.019-.51-1.688-.91-2.36-2.063-.178-.306.178-.284.51-.947.056-.115.028-.215-.016-.303-.044-.087-.39-.94-.534-1.287-.14-.338-.285-.291-.39-.297-.1-.006-.217-.006-.332-.006a.642.642 0 00-.463.215c-.159.175-.606.594-.606 1.447 0 .853.622 1.678.706 1.794.088.115 1.222 1.865 2.963 2.618 1.1.476 1.531.516 2.081.435.335-.05 1.025-.419 1.169-.825.144-.406.144-.753.1-.825-.04-.078-.156-.122-.328-.206z"/></symbol></svg>