<svg xmlns="http://www.w3.org/2000/svg" xmlns:xlink="http://www.w3.org/1999/xlink"><symbol fill="none" viewBox="0 0 16 16" id="coinsHand" xmlns="http://www.w3.org/2000/svg"><g clip-path="url(#aclip0_5497_1266)"><path d="M9.02 5.568a2.333 2.333 0 11.627-3.136m0 0a2.33 2.33 0 00-.98 1.901m.98-1.901A2.323 2.323 0 0111 2M8.667 4.333A2.333 2.333 0 1011 2M8.667 4.333A2.333 2.333 0 0111 2M4 13.39h1.74c.227 0 .453.027.673.081l1.838.447a2.85 2.85 0 001.218.028l2.033-.395a2.803 2.803 0 001.418-.738l1.439-1.4c.41-.399.41-1.046 0-1.445-.37-.36-.956-.4-1.374-.096l-1.677 1.224a1.41 1.41 0 01-.832.27H8.857h1.03c.581 0 1.052-.458 1.052-1.023v-.205c0-.469-.329-.878-.796-.991l-1.59-.387a3.352 3.352 0 00-.79-.094c-.644 0-1.808.532-1.808.532L4 10.017m-2.667-.284V13.6c0 .373 0 .56.073.703a.667.667 0 00.291.29c.143.074.33.074.703.074h.533c.374 0 .56 0 .703-.073a.667.667 0 00.291-.291C4 14.16 4 13.973 4 13.6V9.733c0-.373 0-.56-.073-.702a.667.667 0 00-.291-.292c-.143-.072-.33-.072-.703-.072H2.4c-.373 0-.56 0-.703.072a.667.667 0 00-.291.292c-.073.142-.073.329-.073.702z" stroke="#BABABA" stroke-width="1.2" stroke-linecap="round" stroke-linejoin="round"/></g><defs><clipPath id="aclip0_5497_1266"><path fill="#fff" d="M0 0h16v16H0z"/></clipPath></defs></symbol><symbol fill="none" viewBox="0 0 25 24" id="dollar" xmlns="http://www.w3.org/2000/svg"><path d="M12.333 2.1v19.8m4.5-16.2h-6.75a3.15 3.15 0 000 6.3h4.5a3.15 3.15 0 110 6.3h-7.65" stroke="#fff" stroke-width="2" stroke-linecap="round" stroke-linejoin="round"/></symbol><symbol fill="none" viewBox="0 0 16 16" id="info" xmlns="http://www.w3.org/2000/svg"><path d="M8 10.4V8m0-2.4h.005M14 8A6 6 0 112 8a6 6 0 0112 0z" stroke="#585757" stroke-width="1.2" stroke-linecap="round" stroke-linejoin="round"/></symbol><symbol fill="none" viewBox="0 0 40 40" id="menuClose" xmlns="http://www.w3.org/2000/svg"><path d="M31.667 8.334L20 20m0 0L8.334 31.667M20 20L8.333 8.334M20 20l11.666 11.667" stroke="#000" stroke-width="3" stroke-linecap="round" stroke-linejoin="round"/></symbol><symbol fill="none" viewBox="0 0 40 40" id="menuOpen" xmlns="http://www.w3.org/2000/svg"><path d="M6.667 30h26.666M6.667 20h26.666M6.667 10h26.666" stroke="#1C1C1C" stroke-width="3" stroke-linecap="round" stroke-linejoin="round"/></symbol><symbol fill="none" viewBox="0 0 16 16" id="message" xmlns="http://www.w3.org/2000/svg"><path d="M13.4 7.7a5.03 5.03 0 01-.54 2.28A5.1 5.1 0 018.3 12.8a5.027 5.027 0 01-2.28-.54L2.6 13.4l1.14-3.42A5.028 5.028 0 013.2 7.7a5.1 5.1 0 012.82-4.56A5.028 5.028 0 018.3 2.6h.3a5.088 5.088 0 014.8 4.8v.3z" stroke="#585757" stroke-width="1.2" stroke-linecap="round" stroke-linejoin="round"/></symbol><symbol fill="none" viewBox="0 0 17 16" id="play" xmlns="http://www.w3.org/2000/svg"><path d="M4.3 4.432a1 1 0 011.54-.842l5.552 3.569a1 1 0 010 1.682L5.84 12.41a1 1 0 01-1.541-.84V4.431z" stroke="#585757" stroke-width="1.2" stroke-linecap="round" stroke-linejoin="round"/></symbol><symbol fill="none" viewBox="0 0 24 24" id="plus" xmlns="http://www.w3.org/2000/svg"><g stroke="#000" stroke-width="2" stroke-linecap="round" stroke-linejoin="round"><path d="M12 21a9 9 0 100-18 9 9 0 000 18zM12 8.4v7.2M8.4 12h7.2"/></g></symbol><symbol fill="none" viewBox="0 0 24 24" id="star" xmlns="http://www.w3.org/2000/svg"><path d="M12 3l2.781 5.634L21 9.543l-4.5 4.383 1.062 6.192L12 17.193l-5.562 2.925L7.5 13.926 3 9.543l6.219-.909L12 3z" stroke="#000" stroke-width="2" stroke-linecap="round" stroke-linejoin="round"/></symbol><symbol fill="none" viewBox="0 0 24 24" id="thumbsUp" xmlns="http://www.w3.org/2000/svg"><path fill-rule="evenodd" clip-rule="evenodd" d="M18.128 21H5.777c-.437 0-.874-.064-1.33-.277-.547-.255-.837-.657-1.04-.954A2.771 2.771 0 013 18.319c-.001-.47.11-.98.361-1.426l.007-.013 7.804-13.404a.957.957 0 011.658.006l7.66 13.375.006.011c.176.29.447.736.494 1.312a2.613 2.613 0 01-1.491 2.576c-.518.242-1.042.244-1.372.244zm-5.17-1.915h5.17c.34 0 .47-.02.56-.063a.698.698 0 00.394-.684c-.006-.082-.04-.175-.235-.498a.843.843 0 01-.012-.02L12.957 7.555v11.53zm-1.915 0V7.505l-6.014 10.33a1.046 1.046 0 00-.114.484c0 .148.03.276.099.408.072.103.115.158.152.195.031.032.056.05.09.066.142.066.287.097.52.097h5.267z" fill="#fff"/></symbol><symbol fill="none" viewBox="0 0 25 24" id="trendingUp" xmlns="http://www.w3.org/2000/svg"><path d="M22.567 6.6l-8.55 8.55-4.5-4.5-6.75 6.75" stroke="#fff" stroke-width="2" stroke-linecap="round" stroke-linejoin="round"/><path d="M17.167 6.6h5.4V12" stroke="#fff" stroke-width="2" stroke-linecap="round" stroke-linejoin="round"/></symbol><symbol fill="none" viewBox="0 0 24 24" id="user" xmlns="http://www.w3.org/2000/svg"><path d="M15.6 20.1v-1.8a3.6 3.6 0 00-3.6-3.6H5.7a3.6 3.6 0 00-3.6 3.6v1.8M16.5 11.1l1.8 1.8 3.6-3.6M8.85 11.1a3.6 3.6 0 100-7.2 3.6 3.6 0 000 7.2z" stroke="#000" stroke-width="2" stroke-linecap="round" stroke-linejoin="round"/></symbol><symbol fill="none" viewBox="0 0 24 24" id="users" xmlns="http://www.w3.org/2000/svg"><g stroke="#000" stroke-width="2" stroke-linecap="round" stroke-linejoin="round"><path d="M21.9 20.1v-1.8a3.6 3.6 0 00-2.7-3.483M16.5 20.1v-1.8a3.6 3.6 0 00-3.6-3.6H5.7a3.6 3.6 0 00-3.6 3.6v1.8M15.6 4.017a3.6 3.6 0 010 6.975M9.3 11.1a3.6 3.6 0 100-7.2 3.6 3.6 0 000 7.2z"/></g></symbol></svg>