<svg xmlns="http://www.w3.org/2000/svg" width="890" height="1189" viewBox="0 0 890 1189"><g><g opacity=".2"><path fill="#dfe6e7" d="M400.073 487.696l-2.842 2.748.493 3.922-2.747-2.842-3.922.493 2.841-2.748-.493-3.921 2.748 2.841zM7.366 221.233l-3.335-1.174-2.94 1.963 1.174-3.335-1.963-2.94 3.335 1.174 2.94-1.963-1.174 3.335zM151.3 199.945l-3.335-1.175-2.94 1.964 1.174-3.335-1.964-2.94 3.335 1.174 2.94-1.963-1.174 3.334zM324.014 9.62l-4.434-2.31-4.51 2.16 2.312-4.433-2.16-4.51 4.433 2.311 4.51-2.16-2.312 4.433zm-49.805 169.13l-4.434-2.311-4.509 2.16 2.311-4.434-2.16-4.509 4.434 2.311 4.509-2.16-2.311 4.434zM391.613 85.9l-7.238-1.8-5.782 4.712 1.8-7.238-4.712-5.782 7.238 1.799 5.782-4.711-1.799 7.237zm198.724 338.347l-3.335-1.174-2.94 1.964 1.174-3.335-1.964-2.94 3.335 1.173 2.94-1.963-1.174 3.335zM476.99 435.315l-5.021-.644-3.528 3.63.644-5.02-3.631-3.528 5.021.644 3.527-3.63-.643 5.02zm91.214-24.858l-2.841 2.748.493 3.922-2.748-2.842-3.922.494 2.842-2.748-.493-3.922 2.747 2.841zM449.994 577.99l-2.842 2.748.493 3.921-2.748-2.841-3.922.493 2.842-2.748-.494-3.922 2.748 2.842zm-53.986-257.63l-3.335-1.174-2.94 1.963 1.174-3.335-1.963-2.94 3.334 1.174 2.94-1.963-1.173 3.335zM815.655 137.75l-4.433-2.311-4.51 2.16 2.311-4.433-2.16-4.51 4.434 2.311 4.509-2.16-2.311 4.433zm-49.804 169.128l-4.434-2.31-4.51 2.16 2.312-4.433-2.16-4.51 4.433 2.311 4.51-2.16-2.312 4.434zm117.404-92.85l-7.238-1.8-5.782 4.712 1.799-7.238-4.711-5.782 7.238 1.799 5.782-4.711-1.8 7.238zm-9.281 810.4l-4.434-2.312-4.51 2.161 2.312-4.434-2.16-4.509 4.433 2.311 4.51-2.16-2.312 4.433zM427.837 166.123l-4.433-2.31-4.51 2.16 2.311-4.434-2.16-4.51 4.433 2.312 4.51-2.16-2.311 4.433zm-109.29 632.07l-4.472-.075-2.743 3.532.075-4.472-3.532-2.742 4.472.075 2.743-3.533-.075 4.472zm349.87 313.602l-2.84 2.748.492 3.922-2.748-2.841-3.922.493 2.842-2.748-.493-3.922 2.748 2.842zM275.711 845.332l-3.335-1.174-2.94 1.963 1.174-3.334-1.963-2.941 3.335 1.174 2.94-1.963-1.174 3.335zm266.843-42.482l-4.434-2.31-4.509 2.16 2.31-4.434-2.16-4.51 4.434 2.311 4.51-2.16-2.312 4.434zm-191.256 308.987l-7.238-1.799-5.782 4.711 1.799-7.238-4.711-5.782 7.238 1.8 5.781-4.712-1.798 7.238zm148.987 23.971l-2.766-1.723-3.039 1.179 1.724-2.766-1.18-3.04 2.768 1.723 3.038-1.178-1.723 2.766zm-144.853 49.452l-4.472-.076-2.742 3.533.074-4.472-3.532-2.743 4.472.076 2.743-3.533-.075 4.471zm223.444-852.276l-6.251 6.046 1.085 8.627-6.045-6.25-8.629 1.084 6.252-6.045-1.085-8.628 6.045 6.251zM708.782 436.97l-5.021-.644-3.528 3.631.644-5.02-3.631-3.528 5.021.643 3.527-3.63-.643 5.02zm-11.997 160.675l-2.841 2.747.493 3.923-2.748-2.842-3.922.493 2.842-2.747-.493-3.922 2.747 2.84zm49.015-228.63l-3.335-1.174-2.94 1.963 1.174-3.334-1.963-2.94 3.335 1.173 2.94-1.963-1.174 3.335zm143.933-21.288l-3.334-1.174-2.94 1.963 1.173-3.335-1.963-2.94 3.335 1.174 2.94-1.963-1.174 3.335zm-64.212 361.216l-4.471-.076-2.744 3.533.076-4.471-3.532-2.744 4.471.075 2.743-3.532-.075 4.472zm-75.45 124.865l-3.335-1.175-2.94 1.964 1.174-3.336-1.964-2.94 3.335 1.175 2.94-1.964-1.174 3.335zM534.816 627.576l-3.335-1.174-2.94 1.963 1.174-3.334-1.963-2.941 3.334 1.174 2.94-1.963-1.174 3.335zm62.924 328.016l-4.434-2.31-4.509 2.16 2.311-4.434-2.16-4.51 4.433 2.312 4.51-2.16-2.312 4.433z"/></g></g></svg>