<svg width="164" height="42" viewBox="0 0 164 42" fill="none" xmlns="http://www.w3.org/2000/svg">
<g clip-path="url(#clip0_306_1425)">
<path d="M38.4062 12.334H47.332V15.7096H38.4062V12.334Z" fill="#4E7DD9"/>
<path d="M63.9705 23.3693C61.6772 23.3693 59.5999 22.8716 57.739 21.8763C55.8998 20.8593 54.45 19.4636 53.3897 17.6893C52.3511 15.9149 51.8318 13.9134 51.8318 11.6847C51.8318 9.45591 52.3619 7.45437 53.4222 5.68004C54.4824 3.9057 55.9323 2.52085 57.7715 1.52549C59.6323 0.508499 61.7096 0 64.0032 0C65.8643 0 67.5626 0.324574 69.0992 0.973721C70.6352 1.62287 71.9336 2.56413 72.9943 3.79751L70.2674 6.36162C68.6232 4.58731 66.5999 3.70014 64.1981 3.70014C62.6401 3.70014 61.2444 4.04635 60.011 4.73878C58.7776 5.40956 57.8148 6.3508 57.1223 7.56258C56.4299 8.77429 56.0837 10.1483 56.0837 11.6847C56.0837 13.2209 56.4299 14.595 57.1223 15.8067C57.8148 17.0185 58.7776 17.9706 60.011 18.663C61.2444 19.3338 62.6401 19.6691 64.1981 19.6691C66.5999 19.6691 68.6232 18.7712 70.2674 16.9752L72.9943 19.5718C71.9336 20.8052 70.6245 21.7464 69.0665 22.3956C67.5305 23.0447 65.8316 23.3693 63.9705 23.3693Z" fill="#4E7DD9"/>
<path d="M88.3108 23.3693C85.9958 23.3693 83.9077 22.8716 82.0466 21.8763C80.1856 20.8593 78.725 19.4636 77.6649 17.6893C76.6043 15.8933 76.0742 13.8918 76.0742 11.6847C76.0742 9.47754 76.6043 7.48681 77.6649 5.7125C78.725 3.91653 80.1856 2.52085 82.0466 1.52549C83.9077 0.508499 85.9958 0 88.3108 0C90.6258 0 92.7145 0.508499 94.575 1.52549C96.436 2.52085 97.8966 3.9057 98.9567 5.68004C100.017 7.45437 100.547 9.45591 100.547 11.6847C100.547 13.9134 100.017 15.9149 98.9567 17.6893C97.8966 19.4636 96.436 20.8593 94.575 21.8763C92.7145 22.8716 90.6258 23.3693 88.3108 23.3693ZM88.3108 19.6691C89.8254 19.6691 91.1886 19.3338 92.4001 18.663C93.6124 17.9706 94.5643 17.0185 95.2565 15.8067C95.9494 14.5734 96.2952 13.1993 96.2952 11.6847C96.2952 10.17 95.9494 8.8068 95.2565 7.59502C94.5643 6.36162 93.6124 5.40956 92.4001 4.73878C91.1886 4.04635 89.8254 3.70014 88.3108 3.70014C86.7962 3.70014 85.4331 4.04635 84.2215 4.73878C83.0093 5.40956 82.0573 6.36162 81.3651 7.59502C80.6722 8.8068 80.3264 10.17 80.3264 11.6847C80.3264 13.1993 80.6722 14.5734 81.3651 15.8067C82.0573 17.0185 83.0093 17.9706 84.2215 18.663C85.4331 19.3338 86.7962 19.6691 88.3108 19.6691Z" fill="#4E7DD9"/>
<path d="M127.026 23.0444L126.994 7.98417L119.529 20.4478H117.646L110.181 8.17889V23.0444H106.156V0.324219H109.629L118.653 15.3844L127.513 0.324219H130.986L131.019 23.0444H127.026Z" fill="#4E7DD9"/>
<path d="M159.16 23.0444L159.127 7.98417L151.662 20.4478H149.779L142.314 8.17889V23.0444H138.289V0.324219H141.762L150.785 15.3844L159.646 0.324219H163.119L163.151 23.0444H159.16Z" fill="#4E7DD9"/>
<path d="M7.66505 39.5043L7.61708 41.9524H7.01437V40.0804H6.25165V39.5043H7.66505ZM1.19531 40.0804V32.3145H1.85136V39.5203H6.24632V32.3145H6.90239V40.0804H1.19531Z" fill="#4E7DD9"/>
<path d="M10.0779 38.9389L14.4995 32.3145H15.1556V40.0804H14.4995V33.4452L10.0779 40.0804H9.42188V32.3145H10.0779V38.9389Z" fill="#4E7DD9"/>
<path d="M20.1675 33.104H21.0956C21.5685 33.104 22.0006 33.1804 22.3917 33.3333C22.7829 33.4862 23.1206 33.7014 23.4051 33.9787C23.6896 34.2561 23.9083 34.5814 24.0612 34.9548C24.2141 35.3281 24.2905 35.7352 24.2905 36.1762C24.2905 36.6171 24.2141 37.0261 24.0612 37.4029C23.9083 37.7763 23.6896 38.1034 23.4051 38.3843C23.1206 38.6617 22.7829 38.8786 22.3917 39.0351C22.0006 39.1879 21.5685 39.2644 21.0956 39.2644H20.1675C19.6875 39.2644 19.252 39.1879 18.8608 39.0351C18.4732 38.8786 18.1372 38.6617 17.8527 38.3843C17.5718 38.107 17.3549 37.7816 17.202 37.4083C17.0491 37.0349 16.9727 36.6278 16.9727 36.1869C16.9727 35.7459 17.0491 35.3388 17.202 34.9654C17.3549 34.5921 17.5718 34.2668 17.8527 33.9894C18.1372 33.7085 18.4732 33.4916 18.8608 33.3387C19.252 33.1822 19.6875 33.104 20.1675 33.104ZM20.1675 33.648C19.6271 33.648 19.1648 33.7582 18.7808 33.9787C18.4003 34.1956 18.1087 34.4961 17.9061 34.8801C17.707 35.2605 17.6074 35.6961 17.6074 36.1869C17.6074 36.5566 17.6643 36.8962 17.7781 37.2056C17.8919 37.515 18.059 37.7834 18.2794 38.011C18.4999 38.235 18.7683 38.4092 19.0848 38.5337C19.4013 38.6581 19.7622 38.7204 20.1675 38.7204H21.1063C21.6397 38.7204 22.0966 38.6119 22.477 38.395C22.8575 38.1746 23.1491 37.8741 23.3518 37.4936C23.5545 37.1096 23.6558 36.6704 23.6558 36.1762C23.6558 35.8099 23.5972 35.4721 23.4798 35.1628C23.366 34.8534 23.1989 34.5867 22.9784 34.3628C22.7615 34.1352 22.4948 33.9592 22.1784 33.8347C21.8655 33.7103 21.5081 33.648 21.1063 33.648H20.1675ZM20.9463 31.9893V40.4004H20.3062V31.9893H20.9463Z" fill="#4E7DD9"/>
<path d="M28.6909 36.9175H26.4774V36.3574H28.6909C29.1532 36.3574 29.5284 36.2828 29.8164 36.1334C30.1079 35.9805 30.3195 35.7743 30.451 35.5147C30.5862 35.2551 30.6537 34.9635 30.6537 34.64C30.6537 34.3235 30.5862 34.0319 30.451 33.7652C30.3195 33.4986 30.1079 33.2852 29.8164 33.1252C29.5284 32.9616 29.1532 32.8799 28.6909 32.8799H26.7068V40.0804H26.0508V32.3145H28.6909C29.2599 32.3145 29.7381 32.4123 30.1257 32.6078C30.5169 32.8034 30.812 33.0754 31.0111 33.4239C31.2102 33.7724 31.3098 34.1741 31.3098 34.6293C31.3098 35.1058 31.2102 35.5165 31.0111 35.8614C30.812 36.2027 30.5186 36.4641 30.1311 36.6454C29.7434 36.8268 29.2634 36.9175 28.6909 36.9175Z" fill="#4E7DD9"/>
<path d="M38.8961 35.7816V36.6136C38.8961 37.1577 38.825 37.6502 38.6828 38.0911C38.5441 38.5284 38.3414 38.9036 38.0747 39.2165C37.8116 39.5294 37.4951 39.7694 37.1253 39.9365C36.7555 40.1036 36.3394 40.1872 35.8772 40.1872C35.4256 40.1872 35.0132 40.1036 34.6398 39.9365C34.27 39.7694 33.9517 39.5294 33.6851 39.2165C33.4184 38.9036 33.2121 38.5284 33.0663 38.0911C32.9206 37.6502 32.8477 37.1577 32.8477 36.6136V35.7816C32.8477 35.2375 32.9188 34.7468 33.0611 34.3095C33.2068 33.8686 33.413 33.4917 33.6797 33.1787C33.9464 32.8658 34.2647 32.6258 34.6345 32.4587C35.0042 32.2916 35.4149 32.208 35.8666 32.208C36.3288 32.208 36.7449 32.2916 37.1146 32.4587C37.4844 32.6258 37.8026 32.8658 38.0694 33.1787C38.3361 33.4917 38.5405 33.8686 38.6828 34.3095C38.825 34.7468 38.8961 35.2375 38.8961 35.7816ZM38.2453 36.6136V35.7709C38.2453 35.3122 38.192 34.8997 38.0853 34.5335C37.9822 34.1672 37.8275 33.8543 37.6213 33.5948C37.4187 33.3352 37.1698 33.136 36.8746 32.9974C36.5795 32.8587 36.2434 32.7893 35.8666 32.7893C35.5003 32.7893 35.1714 32.8587 34.8798 32.9974C34.5883 33.136 34.3393 33.3352 34.1331 33.5948C33.9304 33.8543 33.774 34.1672 33.6638 34.5335C33.5571 34.8997 33.5037 35.3122 33.5037 35.7709V36.6136C33.5037 37.0759 33.5571 37.4919 33.6638 37.8617C33.774 38.228 33.9322 38.5427 34.1384 38.8058C34.3447 39.0653 34.5935 39.2644 34.8852 39.4031C35.1803 39.5418 35.5109 39.6111 35.8772 39.6111C36.2577 39.6111 36.5937 39.5418 36.8853 39.4031C37.1769 39.2644 37.424 39.0653 37.6267 38.8058C37.8294 38.5427 37.9822 38.228 38.0853 37.8617C38.192 37.4919 38.2453 37.0759 38.2453 36.6136Z" fill="#4E7DD9"/>
<path d="M43.6097 36.3468H41.4229L41.4122 35.792H43.295C43.679 35.792 44.0061 35.737 44.2764 35.6267C44.5466 35.5165 44.7511 35.3529 44.8898 35.136C45.032 34.9156 45.1031 34.6453 45.1031 34.3253C45.1031 33.9982 45.0338 33.7279 44.8951 33.5145C44.7564 33.2977 44.5484 33.1377 44.271 33.0346C43.9937 32.9314 43.6452 32.8799 43.2257 32.8799H41.5935V40.0804H40.9375V32.3145H43.2257C43.6203 32.3145 43.9741 32.3536 44.2871 32.4318C44.6 32.5101 44.8666 32.6327 45.0871 32.7998C45.3076 32.967 45.4747 33.1785 45.5885 33.4346C45.7058 33.687 45.7645 33.9892 45.7645 34.3413C45.7645 34.6613 45.6934 34.9511 45.5512 35.2107C45.4089 35.4667 45.208 35.6765 44.9484 35.8401C44.6924 36.0001 44.3848 36.0996 44.0257 36.1387L43.6097 36.3468ZM43.5617 40.0804H41.2148L41.5509 39.5203H43.5617C43.9457 39.5203 44.2729 39.4563 44.5431 39.3283C44.8168 39.1967 45.0267 39.0101 45.1725 38.7682C45.3183 38.5264 45.3911 38.2385 45.3911 37.9042C45.3911 37.609 45.3271 37.3441 45.1991 37.1095C45.0711 36.8748 44.8756 36.6899 44.6124 36.5548C44.3493 36.4161 44.0151 36.3468 43.6097 36.3468H42.2496L42.2603 35.792H44.1857L44.303 35.9894C44.6515 36.025 44.9555 36.1334 45.2152 36.3148C45.4783 36.4925 45.6809 36.7184 45.8231 36.9921C45.969 37.2659 46.0418 37.5664 46.0418 37.8935C46.0418 38.3629 45.9369 38.7611 45.7271 39.0883C45.5209 39.4118 45.2311 39.659 44.8578 39.8296C44.4879 39.9968 44.0559 40.0804 43.5617 40.0804Z" fill="#4E7DD9"/>
<path d="M48.4448 35.6801H50.5996C51.1614 35.6801 51.6326 35.7725 52.0131 35.9574C52.3971 36.1387 52.6851 36.3947 52.8771 36.7255C53.0727 37.0526 53.1705 37.4348 53.1705 37.8722C53.1705 38.1958 53.1154 38.4927 53.0052 38.7629C52.8949 39.0331 52.7313 39.2678 52.5144 39.467C52.2976 39.6625 52.0291 39.8137 51.7091 39.9204C51.389 40.027 51.0192 40.0804 50.5996 40.0804H48.0234V32.3145H48.6795V39.5203H50.5996C51.0512 39.5203 51.4175 39.4438 51.6984 39.291C51.9793 39.1345 52.1855 38.93 52.3171 38.6776C52.4487 38.4251 52.5144 38.1531 52.5144 37.8615C52.5144 37.5735 52.4487 37.3068 52.3171 37.0615C52.1855 36.8161 51.9793 36.6188 51.6984 36.4694C51.4175 36.3165 51.0512 36.2401 50.5996 36.2401H48.4448V35.6801ZM55.1173 32.3145V40.0804H54.4613V32.3145H55.1173Z" fill="#4E7DD9"/>
<path d="M62.3504 39.5203V40.0804H57.9821V39.5203H62.3504ZM58.1795 32.3145V40.0804H57.5234V32.3145H58.1795ZM61.8064 35.7974V36.3574H57.9821V35.7974H61.8064ZM62.3238 32.3145V32.8799H57.9821V32.3145H62.3238Z" fill="#4E7DD9"/>
<path d="M67.8511 32.3145V40.0804H67.1953V32.3145H67.8511ZM72.7157 32.3145L69.2702 36.4374H67.5902L67.5311 35.8721H68.886L71.8945 32.3145H72.7157ZM72.1341 40.0804L68.8539 36.3627L69.2331 35.7867L72.9502 40.0804H72.1341Z" fill="#4E7DD9"/>
<path d="M80.0954 35.7816V36.6136C80.0954 37.1577 80.0243 37.6502 79.8822 38.0911C79.7433 38.5284 79.5408 38.9036 79.2742 39.2165C79.0108 39.5294 78.6945 39.7694 78.3248 39.9365C77.9545 40.1036 77.5389 40.1872 77.0762 40.1872C76.6247 40.1872 76.2123 40.1036 75.8388 39.9365C75.4691 39.7694 75.151 39.5294 74.8844 39.2165C74.6178 38.9036 74.4116 38.5284 74.2657 38.0911C74.1198 37.6502 74.0469 37.1577 74.0469 36.6136V35.7816C74.0469 35.2375 74.1179 34.7468 74.26 34.3095C74.4059 33.8686 74.6121 33.4917 74.8787 33.1787C75.1459 32.8658 75.4641 32.6258 75.8338 32.4587C76.2035 32.2916 76.614 32.208 77.0661 32.208C77.5282 32.208 77.9438 32.2916 78.3141 32.4587C78.6839 32.6258 79.002 32.8658 79.2686 33.1787C79.5352 33.4917 79.7395 33.8686 79.8822 34.3095C80.0243 34.7468 80.0954 35.2375 80.0954 35.7816ZM79.4446 36.6136V35.7709C79.4446 35.3122 79.3912 34.8997 79.2843 34.5335C79.1812 34.1672 79.0265 33.8543 78.8203 33.5948C78.6178 33.3352 78.3689 33.136 78.074 32.9974C77.7785 32.8587 77.4427 32.7893 77.0661 32.7893C76.6995 32.7893 76.3707 32.8587 76.079 32.9974C75.7872 33.136 75.5389 33.3352 75.3327 33.5948C75.1296 33.8543 74.973 34.1672 74.863 34.5335C74.7561 34.8997 74.7033 35.3122 74.7033 35.7709V36.6136C74.7033 37.0759 74.7561 37.4919 74.863 37.8617C74.973 38.228 75.1315 38.5427 75.3377 38.8058C75.5439 39.0653 75.7929 39.2644 76.0846 39.4031C76.3795 39.5418 76.7102 39.6111 77.0762 39.6111C77.4572 39.6111 77.7929 39.5418 78.0847 39.4031C78.3764 39.2644 78.6235 39.0653 78.8259 38.8058C79.0284 38.5427 79.1812 38.228 79.2843 37.8617C79.3912 37.4919 79.4446 37.0759 79.4446 36.6136Z" fill="#4E7DD9"/>
<path d="M82.3398 32.3145H83.0012L85.8702 39.1523L88.7454 32.3145H89.4012L86.1211 40.0804H85.62L82.3398 32.3145ZM82.1367 32.3145H82.7183L82.7875 36.6881V40.0804H82.1367V32.3145ZM89.0334 32.3145H89.615V40.0804H88.9586V36.6881L89.0334 32.3145Z" fill="#4E7DD9"/>
<path d="M92.1718 32.3145H92.8333L95.7029 39.1523L98.5775 32.3145H99.2332L95.9531 40.0804H95.452L92.1718 32.3145ZM91.9688 32.3145H92.5503L92.6195 36.6881V40.0804H91.9688V32.3145ZM98.8654 32.3145H99.447V40.0804H98.7906V36.6881L98.8654 32.3145Z" fill="#4E7DD9"/>
<path d="M104.315 37.4668L106.603 32.3145H107.371L104.4 38.7469C104.329 38.8963 104.246 39.0563 104.149 39.227C104.053 39.3941 103.934 39.5505 103.792 39.6963C103.65 39.8421 103.475 39.9612 103.269 40.0536C103.063 40.1461 102.811 40.1923 102.512 40.1923C102.437 40.1923 102.347 40.187 102.24 40.1764C102.134 40.1657 102.059 40.1515 102.016 40.1337L102.069 39.5896C102.115 39.6003 102.185 39.611 102.278 39.6216C102.373 39.6287 102.453 39.6323 102.517 39.6323C102.749 39.6323 102.94 39.5825 103.093 39.4829C103.246 39.3834 103.376 39.2554 103.483 39.099C103.589 38.9389 103.685 38.7718 103.771 38.5976L104.315 37.4668ZM101.861 32.3145L104.469 37.4402L104.672 38.0216L104.112 38.1335L101.109 32.3145H101.861Z" fill="#4E7DD9"/>
<path d="M114.265 35.7974V36.3574H109.544V35.7974H114.265ZM109.699 32.3145V40.0804H109.043V32.3145H109.699ZM114.793 32.3145V40.0804H114.136V32.3145H114.793Z" fill="#4E7DD9"/>
<path d="M117.84 38.9389L122.261 32.3145H122.918V40.0804H122.261V33.4452L117.84 40.0804H117.184V32.3145H117.84V38.9389Z" fill="#4E7DD9"/>
<path d="M125.984 32.3145V40.0804H125.328V32.3145H125.984ZM130.848 32.3145L127.403 36.4374H125.723L125.664 35.8721H127.019L130.027 32.3145H130.848ZM130.267 40.0804L126.987 36.3627L127.365 35.7867L131.083 40.0804H130.267Z" fill="#4E7DD9"/>
<path d="M135.218 32.7785L132.53 40.0804H131.848L134.781 32.3145H135.255L135.218 32.7785ZM137.661 40.0804L134.967 32.7785L134.93 32.3145H135.405L138.344 40.0804H137.661ZM137.181 37.3388V37.9042H133.058V37.3388H137.181Z" fill="#4E7DD9"/>
<path d="M146.321 39.5043L146.274 41.9524H145.671V40.0804H144.908V39.5043H146.321ZM139.852 40.0804V32.3145H140.507V39.5203H144.903V32.3145H145.559V40.0804H139.852Z" fill="#4E7DD9"/>
<path d="M148.734 38.9389L153.156 32.3145H153.812V40.0804H153.156V33.4452L148.734 40.0804H148.078V32.3145H148.734V38.9389Z" fill="#4E7DD9"/>
<path d="M156.883 38.9392L161.304 32.3147H161.961V40.0806H161.304V33.4455L156.883 40.0806H156.227V32.3147H156.883V38.9392Z" fill="#4E7DD9"/>
<path d="M9.02087 6.74927H6.125V9.64514H9.02087V6.74927Z" fill="#5DA9D5"/>
<path d="M17.5989 0.233398H12.7539V4.74427H17.5989V0.233398Z" fill="#5DA9D5"/>
<path d="M3.23001 2.46094H0V5.69094H3.23001V2.46094Z" fill="#2E34A6"/>
<path d="M5.68082 14.7686H3.23047V17.2189H5.68082V14.7686Z" fill="#5DA9D5"/>
<path d="M6.12706 21.3398H1.67188V25.795H6.12706V21.3398Z" fill="#5DA9D5"/>
<path fill-rule="evenodd" clip-rule="evenodd" d="M26.604 7.24288C25.0598 5.77628 22.8924 5.30002 20.1018 5.27443V0.233398H20.4239C24.8132 0.233398 28.3005 1.43815 30.8857 3.84766C33.4979 6.23284 34.8039 9.42116 34.8039 13.4127C34.8039 17.5989 33.3766 20.8603 30.5222 23.1968C27.9265 25.2898 24.453 26.3938 20.1018 26.5089V21.4234C22.9562 21.4234 25.1499 21.0428 26.6848 19.5825C28.2198 18.1222 29.3741 16.0899 29.3741 13.4857C29.3741 10.8328 28.1928 8.75186 26.604 7.24288ZM16.0364 26.5189V26.519H19.3332C19.3511 26.519 19.369 26.519 19.3869 26.5189H16.0364ZM12.4723 6.74913H17.5958V20.6716H12.4723V16.7733H9.01953V12.2624H12.4723V6.74913Z" fill="#4E7DD9"/>
<path d="M17.5971 23.0106H14.1443V26.4634H17.5971V23.0106Z" fill="#2E34A6"/>
</g>
<defs>
<clipPath id="clip0_306_1425">
<rect width="163.159" height="42" fill="white"/>
</clipPath>
</defs>
</svg>
