<?xml version="1.0" encoding="utf-8"?><svg xmlns="http://www.w3.org/2000/svg" xmlns:xlink="http://www.w3.org/1999/xlink"><symbol viewBox="0 0 24 24" id="arrowForward" xmlns="http://www.w3.org/2000/svg"><path d="M6.23 20.23L8 22l10-10L8 2 6.23 3.77 14.46 12z"/></symbol><symbol viewBox="0 0 24 24" id="arrowRight" xmlns="http://www.w3.org/2000/svg"><g clip-path="url(#bclip0_1_189)" stroke-width="1.5" stroke-linecap="round" stroke-linejoin="round"><path d="M5 12h14m-6 6l6-6m-6-6l6 6"/></g><defs><clipPath id="bclip0_1_189"><path d="M0 0h24v24H0z"/></clipPath></defs></symbol><symbol viewBox="0 0 24 24" id="email" xmlns="http://www.w3.org/2000/svg"><g clip-path="url(#cclip0_1_180)" stroke-width="2" stroke-linecap="round" stroke-linejoin="round"><path d="M3 9l9 6 9-6-9-6-9 6z"/><path d="M21 9v10a2 2 0 01-2 2H5a2 2 0 01-2-2V9m0 10l6-6m6 0l6 6"/></g><defs><clipPath id="cclip0_1_180"><path d="M0 0h24v24H0z"/></clipPath></defs></symbol><symbol fill="none" class="ddont-remove" viewBox="0 0 39 40" id="fireAlarm" xmlns="http://www.w3.org/2000/svg"><mask id="da" maskUnits="userSpaceOnUse" x="0" y="0" width="39" height="40"><path d="M.25 0h38v40h-38V0z" fill="#fff" class="ddont-remove"/></mask><g mask="url(#da)"><path d="M4.292 9.52v26.362a2.584 2.584 0 002.582 2.585h24.751a2.584 2.584 0 002.583-2.585V4.118a2.584 2.584 0 00-2.582-2.585H6.873a2.584 2.584 0 00-2.582 2.585V21.77" stroke="#2C4461" stroke-width="2" stroke-miterlimit="10" stroke-linecap="round" stroke-linejoin="round" class="ddont-remove"/><path d="M30.25 30.464V13.812c0-1-.682-1.812-1.524-1.812H9.774c-.842 0-1.524.811-1.524 1.812v18.376c0 1 .682 1.812 1.524 1.812h18.952c.842 0 1.524-.811 1.524-1.812V24.81" stroke="#51C0C4" stroke-width="2" stroke-miterlimit="10" stroke-linecap="round" stroke-linejoin="round" class="ddont-remove"/><path d="M29.25 17h-21v12h21" stroke="#51C0C4" stroke-width="2" stroke-miterlimit="10" stroke-linecap="round" stroke-linejoin="round" class="ddont-remove"/><path d="M20.956 23.006a2.005 2.005 0 11-4.007 0 2.005 2.005 0 114.008 0zm3.094.001h2.895m-1.982 1.385l-1.383-1.385 1.384-1.386m-11.107 1.386h-2.895m1.981-1.386l1.384 1.386-1.384 1.385" stroke="#2C4461" stroke-width="2" stroke-miterlimit="10" stroke-linecap="round" stroke-linejoin="round" class="ddont-remove"/></g></symbol><symbol viewBox="0 0 26 19" id="hamburgerClose" xmlns="http://www.w3.org/2000/svg"><path d="M0 0h26v3H0zm0 8h26v3H0zm0 8h26v3H0z"/></symbol><symbol viewBox="0 0 22 21" id="hamburgerOpen" xmlns="http://www.w3.org/2000/svg"><path d="M2.967.032l17.824 17.824-2.057 2.056L.911 2.089z"/><path d="M1.025 18.026L18.964.088l2.07 2.07L3.095 20.095z"/></symbol><symbol viewBox="0 0 24 24" id="phone" xmlns="http://www.w3.org/2000/svg"><g clip-path="url(#gclip0_1_173)"><path d="M5 4h4l2 5-2.5 1.5a11 11 0 005 5L15 13l5 2v4a2 2 0 01-2 2A16 16 0 013 6a2 2 0 012-2z"/></g><defs><clipPath id="gclip0_1_173"><path d="M0 0h24v24H0z"/></clipPath></defs></symbol><symbol fill="none" class="hdont-remove" viewBox="0 0 40 40" id="presentation" xmlns="http://www.w3.org/2000/svg"><path d="M39.14.86H.86v4.765h38.28V.859zm-2.382 4.765V29.45H3.242V5.625M20 29.451v9.69m-2.383-.001h4.765" stroke="#2C4461" stroke-width="2" stroke-miterlimit="10" stroke-linecap="round" stroke-linejoin="round" class="hdont-remove"/><path d="M12.852 10.39H8.087v4.765h4.765V10.39zm9.531 0h-4.766v4.765h4.765V10.39zm9.53 0h-4.765v4.765h4.765V10.39zm-4.765 9.53h4.765" stroke="#51C0C4" stroke-width="2" stroke-miterlimit="10" stroke-linecap="round" stroke-linejoin="round" class="hdont-remove"/><path d="M27.148 24.686h4.765" stroke="#2C4461" stroke-width="2" stroke-miterlimit="10" stroke-linecap="round" stroke-linejoin="round" class="hdont-remove"/><path d="M17.617 24.686h4.765" stroke="#51C0C4" stroke-width="2" stroke-miterlimit="10" stroke-linecap="round" stroke-linejoin="round" class="hdont-remove"/><path d="M17.617 19.92h4.765" stroke="#2C4461" stroke-width="2" stroke-miterlimit="10" stroke-linecap="round" stroke-linejoin="round" class="hdont-remove"/><path d="M8.087 19.92h4.765" stroke="#51C0C4" stroke-width="2" stroke-miterlimit="10" stroke-linecap="round" stroke-linejoin="round" class="hdont-remove"/><path d="M8.087 24.686h4.765" stroke="#2C4461" stroke-width="2" stroke-miterlimit="10" stroke-linecap="round" stroke-linejoin="round" class="hdont-remove"/></symbol><symbol fill="none" class="idont-remove" viewBox="0 0 41 40" id="spotlight" xmlns="http://www.w3.org/2000/svg"><path d="M39.89 34.355H1.61v4.786h38.28v-4.785z" stroke="#2C4461" stroke-width="2" stroke-miterlimit="10" stroke-linecap="round" stroke-linejoin="round" class="idont-remove"/><path d="M36.82 20.737L25.78 9.05m4.9 15.404l-9.802-10.39m-5.152-5.22L7.838.859h10.52l2.392 2.643" stroke="#51C0C4" stroke-width="2" stroke-miterlimit="10" stroke-linecap="round" stroke-linejoin="round" class="idont-remove"/><path d="M30.68 24.454l6.14-3.717 1.859 3.07a3.589 3.589 0 01-1.212 4.929h0a3.589 3.589 0 01-4.928-1.212l-1.859-3.07zm9.21-5.575l-12.28 7.434m9.888 2.423v5.62" stroke="#2C4461" stroke-width="2" stroke-miterlimit="10" stroke-linecap="round" stroke-linejoin="round" class="idont-remove"/><path d="M10.82 24.454L33.662.86h-10.52L4.68 20.737" stroke="#51C0C4" stroke-width="2" stroke-miterlimit="10" stroke-linecap="round" stroke-linejoin="round" class="idont-remove"/><path d="M10.82 24.454l-6.14-3.717-1.859 3.07a3.589 3.589 0 001.212 4.929h0a3.589 3.589 0 004.928-1.212l1.859-3.07zm-9.21-5.575l12.28 7.434m-9.888 2.423v5.62m9.57-3.589v3.588m14.356-3.588v3.588m-4.785-4.785h-4.786v4.785h4.786V29.57z" stroke="#2C4461" stroke-width="2" stroke-miterlimit="10" stroke-linecap="round" stroke-linejoin="round" class="idont-remove"/></symbol><symbol fill="none" class="jdont-remove" viewBox="0 0 37 40" id="success" xmlns="http://www.w3.org/2000/svg"><path d="M18.75.86l1.98 3.003 3.513.987-2.29 2.78.192 3.677-3.395-1.349-3.395 1.35.19-3.678-2.288-2.78 3.512-.987L18.75.86z" stroke="#51C0C4" stroke-width="2" stroke-miterlimit="10" stroke-linecap="round" stroke-linejoin="round" class="jdont-remove"/><path d="M32.157 18.447v3.549c0 5.015-3.625 6.8-5.837 7.453a2.09 2.09 0 00-1.484 2.216l.1 7.476H12.564l.1-7.467a2.094 2.094 0 00-1.495-2.22c-2.213-.643-5.826-2.414-5.826-7.458v-3.55c0-1.273 1.041-2.345 2.315-2.319a2.268 2.268 0 012.222 2.268v3.6a3.205 3.205 0 003.205 3.206h2.876a4.779 4.779 0 115.58 0h2.876a3.205 3.205 0 003.205-3.205v-3.601c0-1.237.991-2.244 2.222-2.268 1.274-.026 2.314 1.046 2.314 2.32z" stroke="#2C4461" stroke-width="2" stroke-miterlimit="10" stroke-linecap="round" stroke-linejoin="round" class="jdont-remove"/><path d="M5.787 3.308l1.516 2.3 2.69.755L8.24 8.492l.146 2.815-2.6-1.033-2.598 1.033.145-2.815-1.752-2.129 2.69-.755 1.516-2.3zm25.926 0l1.516 2.3 2.69.755-1.753 2.129.146 2.815-2.6-1.033-2.599 1.033.146-2.815-1.752-2.129 2.69-.755 1.516-2.3z" stroke="#51C0C4" stroke-width="2" stroke-miterlimit="10" stroke-linecap="round" stroke-linejoin="round" class="jdont-remove"/></symbol><symbol preserveAspectRatio="none" fill="none" class="kdont-remove" viewBox="0 0 42 42" id="tag" xmlns="http://www.w3.org/2000/svg"><path d="M15.533 9.62l1.685 1.684m3.369 3.37l1.685 1.685m3.37 3.369l1.684 1.685m3.37 3.369l1.685 1.685"/><path d="M13.967 28.033l1.23 3.957 2.394-3.383 4.144.052-2.479-3.321 1.331-3.925-3.925 1.33-3.321-2.478.053 4.144-3.384 2.393 3.957 1.23z" stroke="#51C0C4" stroke-width="2" stroke-miterlimit="10" stroke-linecap="round" stroke-linejoin="round" class="kdont-remove"/><path d="M38.064 12.15L29.85 3.936a2.438 2.438 0 00-2.495-.589l-8.369 2.79a2.44 2.44 0 00-.953.589L1.714 23.046a2.438 2.438 0 000 3.447l13.793 13.793a2.438 2.438 0 003.448 0l16.319-16.32a2.44 2.44 0 00.59-.952l2.789-8.37a2.438 2.438 0 00-.59-2.494z" stroke="#2C4461" stroke-width="2" stroke-miterlimit="10" stroke-linecap="round" stroke-linejoin="round" class="kdont-remove"/><path d="M30.696 14.674a2.383 2.383 0 11-3.37-3.37 2.383 2.383 0 013.37 3.37z" stroke="#2C4461" stroke-width="2" stroke-miterlimit="10" stroke-linecap="round" stroke-linejoin="round" class="kdont-remove"/><path d="M30.696 4.565c2.791-2.791 6.563-3.546 8.424-1.685 1.86 1.861 1.106 5.633-1.685 8.424-1.936 1.936-4.342 2.892-6.257 2.676" stroke="#2C4461" stroke-width="2" stroke-miterlimit="10" stroke-linecap="round" stroke-linejoin="round" class="kdont-remove"/></symbol><symbol fill="none" class="ldont-remove" viewBox="0 0 41 40" id="underConstruction" xmlns="http://www.w3.org/2000/svg"><path d="M14.365 22.032a6.081 6.081 0 018.489-8.487m2.62-6.72a13.1 13.1 0 00-1.932-.834V.947h-8.478v5.044a13.172 13.172 0 00-4.451 2.573L5.996 5.9l-4.239 7.342 4.612 2.662a13.25 13.25 0 00-.072 4.765l-4.54 2.621 1.97 3.413" stroke="#51C0C4" stroke-width="2" stroke-miterlimit="10" stroke-linecap="round" stroke-linejoin="round" class="ldont-remove"/><path d="M37.552 13.033a7.134 7.134 0 01-7.6 1.617l-7.378 7.377-4.101-4.102 7.377-7.377a7.134 7.134 0 019.691-9.014L30.647 6.43l3.424 3.425 4.895-4.895a7.134 7.134 0 01-1.414 8.074z" stroke="#2C4461" stroke-width="2" stroke-miterlimit="10" stroke-linecap="round" stroke-linejoin="round" class="ldont-remove"/><path d="M13.533 37.052a7.134 7.134 0 001.617-7.6l7.425-7.425-4.102-4.102-7.425 7.425a7.133 7.133 0 00-9.014 9.691l4.895-4.894 3.425 3.424-4.895 4.895a7.133 7.133 0 008.074-1.414z" stroke="#2C4461" stroke-width="2" stroke-miterlimit="10" stroke-linecap="round" stroke-linejoin="round" class="ldont-remove"/><path d="M25.822 18.78l-6.367 6.367 3.28 3.28 6.366-6.368-3.28-3.28zm.097 6.463l8.67 8.67m4.698 1.848l-2.85 2.85-3.442-3.104 3.188-3.188 3.104 3.442zm-18.263-5.598l9.789-9.84" stroke="#2C4461" stroke-width="2" stroke-miterlimit="10" stroke-linecap="round" stroke-linejoin="round" class="ldont-remove"/></symbol></svg>