<?xml version="1.0" encoding="utf-8"?><svg xmlns="http://www.w3.org/2000/svg" xmlns:xlink="http://www.w3.org/1999/xlink"><symbol viewBox="0 0 24 24" id="arrowForward" xmlns="http://www.w3.org/2000/svg"><path d="M6.23 20.23L8 22l10-10L8 2 6.23 3.77 14.46 12z"/></symbol><symbol viewBox="0 0 24 24" id="arrowRight" xmlns="http://www.w3.org/2000/svg"><g clip-path="url(#bclip0_1_189)" stroke-width="1.5" stroke-linecap="round" stroke-linejoin="round"><path d="M5 12h14m-6 6l6-6m-6-6l6 6"/></g><defs><clipPath id="bclip0_1_189"><path d="M0 0h24v24H0z"/></clipPath></defs></symbol><symbol viewBox="0 0 24 24" id="email" xmlns="http://www.w3.org/2000/svg"><g clip-path="url(#cclip0_1_180)" stroke-width="2" stroke-linecap="round" stroke-linejoin="round"><path d="M3 9l9 6 9-6-9-6-9 6z"/><path d="M21 9v10a2 2 0 01-2 2H5a2 2 0 01-2-2V9m0 10l6-6m6 0l6 6"/></g><defs><clipPath id="cclip0_1_180"><path d="M0 0h24v24H0z"/></clipPath></defs></symbol><symbol viewBox="0 0 26 19" id="hamburgerClose" xmlns="http://www.w3.org/2000/svg"><path d="M0 0h26v3H0zm0 8h26v3H0zm0 8h26v3H0z"/></symbol><symbol viewBox="0 0 22 21" id="hamburgerOpen" xmlns="http://www.w3.org/2000/svg"><path d="M2.967.032l17.824 17.824-2.057 2.056L.911 2.089z"/><path d="M1.025 18.026L18.964.088l2.07 2.07L3.095 20.095z"/></symbol><symbol viewBox="0 0 24 24" id="phone" xmlns="http://www.w3.org/2000/svg"><g clip-path="url(#fclip0_1_173)"><path d="M5 4h4l2 5-2.5 1.5a11 11 0 005 5L15 13l5 2v4a2 2 0 01-2 2A16 16 0 013 6a2 2 0 012-2z"/></g><defs><clipPath id="fclip0_1_173"><path d="M0 0h24v24H0z"/></clipPath></defs></symbol></svg>