<svg width="648" height="589" fill="none" xmlns="http://www.w3.org/2000/svg"><path fill-rule="evenodd" clip-rule="evenodd" d="M81.051 421.907c-14.282-25.031-19.775-54.453-17.358-82.997 1.319-14.93 4.834-30.081 10.767-43.694 5.712-12.954 13.402-25.031 12.743-39.742-.66-14.491-9.228-28.983-4.614-42.596 8.569-25.25 47.02-25.909 67.453-35.79 29.223-13.832 36.034-41.718 51.414-67.188 15.38-25.47 38.67-46.548 66.574-56.648 27.904-10.1 60.423-8.783 86.349 5.708 12.744 7.246 20.873 16.029 27.245 28.983 4.834 9.881 9.668 20.42 18.676 26.349 11.206 7.685 25.268 5.269 38.011 6.367 29.003 2.415 58.006 12.735 79.758 32.277 10.546 9.441 18.895 21.078 24.608 34.033 5.493 12.735 8.349 27.226 16.698 38.864 8.13 10.978 20.874 17.785 28.564 29.202 9.887 14.931 1.538 31.179 3.735 47.427 3.515 25.909 24.828 61.918 6.372 86.51-7.471 9.881-18.237 9.002-29.442 8.783-14.721 0-30.541-1.098-44.603-5.709-12.084-3.952-23.949-8.783-36.693-9.222-9.448-.439-18.895-1.098-28.343-1.317-6.152 0-12.305 1.756-18.457 2.195-12.743 1.318-25.707 2.635-38.45 3.953-28.563 3.074-56.907 5.928-85.47 9.002-54.27 5.709-108.54 11.417-163.03 17.126-17.578 1.757-35.155 3.733-52.732 5.489-1.538.659-19.116 3.733-19.775 2.635z" fill="#EDEEF7"/><path fill-rule="evenodd" clip-rule="evenodd" d="M499.612 505.124c-16.039 6.587-32.738 12.295-48.118 20.639-19.335 10.539-35.374 24.153-57.346 29.861-14.721 3.733-30.541 3.733-45.701 5.709-16.479 2.196-33.177 5.05-49.876 6.148-1.099 0-1.977.22-3.076.22-5.273.219-10.327.439-15.6.658h-9.448c-64.157.22-131.83-11.637-184.343-50.5-7.69-5.709-15.38-12.296-19.554-20.859-3.516-7.246-4.395-15.59-6.152-23.714-1.978-9.222-5.713-17.346-12.964-23.494-9.887-8.124-14.501-12.296-9.228-25.689 16.26-42.157 47.24-77.947 83.932-104.295 51.194-36.668 113.814-57.527 175.554-67.847 34.496-5.709 69.431-7.904 104.366-6.148a481.01 481.01 0 0125.048 1.976c7.91.878 15.819 2.855 23.729 2.635 19.775-.659 40.868 3.074 59.983 8.783 12.524 3.732 31.419 7.685 36.912 21.517 1.758 4.392 3.736 8.344 6.812 12.296 4.394 5.709 11.645 6.368 17.357 9.661 6.372 3.733 12.085 8.783 16.479 14.711 6.372 8.564 9.887 18.883 11.645 29.423 3.076 16.467 4.394 35.35.22 51.598-4.175 16.468-12.304 31.838-22.411 45.451-17.797 23.933-40.428 43.694-67.454 56.21-3.295 1.976-7.03 3.513-10.766 5.05z" fill="#D6D7F2"/><path fill-rule="evenodd" clip-rule="evenodd" d="M458.745 397.317c-1.538-1.537-5.933-.219-14.722-2.634-8.788-2.416-17.797-.879-19.115 1.317-1.538 2.196 9.668 10.32 13.842 10.978 4.175.659 6.811 6.587 12.524 6.368 5.713 0 8.569-4.611 8.569-4.611l-1.098-11.418zm-247.182 81.46s16.918 3.953 22.411 3.953c5.493 0 10.107 3.952 6.811 7.684-3.515 3.733-9.667 6.807-17.357 7.246-7.691.439-18.457 1.318-23.071.659-2.856-5.05-3.076-15.589-3.076-15.589l14.282-3.953zm201.261-60.601s-16.918 3.952-22.411 3.952c-5.493 0-10.107 3.952-6.811 7.685 3.515 3.733 9.667 6.807 17.357 7.246 7.69.439 18.456 1.317 23.07.658 2.857-5.05 3.077-15.589 3.077-15.589l-14.282-3.952zm-248.281 48.087c1.538-1.537 5.933-.22 14.721-2.635 8.789-2.415 17.798-.878 19.336 1.317 1.538 2.196-9.668 10.32-13.843 10.979-4.174.658-6.811 6.587-12.523 6.367-5.713 0-8.569-4.611-8.569-4.611l.878-11.417zm-3.295 31.837c0 .439-.22.879-.659 1.318-.66.658-1.319 1.098-2.417 1.317-1.319.439-3.076.439-4.614 0l-19.336-5.05c-3.295-.878-6.811.22-7.69 2.196l-4.174 11.857c-.44 1.536-2.857 2.415-5.273 2.415h-.879c-1.758-.22-3.076-.659-3.955-1.537-.44-.439-.659-.878-.659-1.318v-.658l1.538-8.344.659-3.733c.439-1.976-2.637-3.732-6.152-3.513l-21.313 1.318h-.659c-.879 0-1.758-.22-2.417-.439-1.538-.44-2.636-1.318-2.856-2.416-.44-1.756 1.318-3.293 4.174-3.513l20.874-2.415c.878 0 1.757-.439 2.416-.659 1.758-.878 2.637-2.415 1.538-3.732l-7.47-9.222-1.538-1.976c-.22-.44-.44-.659-.44-1.098v-.22c0-1.098 1.099-2.196 2.857-2.854 2.637-.659 5.713-.22 7.251 1.317L120.6 477.9c1.758 1.757 5.932 2.196 8.349.878l15.6-8.343c1.099-.659 2.417-.879 3.735-.879 1.319 0 2.857.22 3.955.879 1.099.658 1.758 1.537 1.538 2.415 0 .659-.439 1.317-1.318 1.976l-1.318.878-12.964 8.344c-2.416 1.537-1.757 3.733 1.319 4.83h.219l18.457 6.148c2.197 1.098 3.076 1.977 3.076 3.074z" fill="#3C3C6D"/><path fill-rule="evenodd" clip-rule="evenodd" d="M108.296 485.582l-7.471-9.222c-.22-.439-.439-.658-.439-1.097v-5.49c0 .44.219.659.439 1.098l1.538 1.976 7.471 9.222c1.098 1.098.219 2.635-1.538 3.513zm5.932 11.42l-.659 3.733c-1.099-1.098-3.076-1.756-5.273-1.537l-21.313 1.317h-.659c-2.637 0-5.053-1.097-5.493-2.634v-5.709c.22 1.098 1.318 1.756 2.856 2.415.66.22 1.538.439 2.417.439h.66l21.312-1.317c3.515-.439 6.592 1.317 6.152 3.293zm47.02 1.097v5.709c0 .439-.22.878-.659 1.318-1.319 1.537-4.395 2.195-7.031 1.537l-19.335-5.05c-3.296-.879-6.812.219-7.69 2.195l-4.175 11.857c-.44 1.537-2.856 2.415-5.273 2.415h-.879c-2.637-.219-4.394-1.317-4.614-2.854v-5.709c0 .439.439.878.659 1.317.879.879 2.197 1.318 3.955 1.537h.879c2.636 0 4.833-1.098 5.273-2.415l4.175-11.857c.659-1.976 4.394-3.074 7.69-2.195l19.335 5.05c1.538.439 3.296.439 4.614 0 1.098-.22 1.758-.659 2.417-1.318.659-.439.659-.878.659-1.537zm-6.811-24.591v5.489c0 .659-.44 1.537-1.319 2.196l-12.963 8.124c-2.856-1.098-3.516-3.294-1.318-4.831l12.963-8.343 1.318-.879c.659-.439 1.319-1.097 1.319-1.756z" fill="#3C3C6D"/><path fill-rule="evenodd" clip-rule="evenodd" d="M161.028 508.418c-.22 2.635-2.417 4.611-5.273 4.392-2.637-.22-4.614-2.416-4.614-5.05.219-2.635 2.417-4.611 5.273-4.392 2.636.22 4.834 2.415 4.614 5.05zm-38.89 12.078c-.22 2.635-2.417 4.611-5.273 4.392-2.637-.22-4.615-2.415-4.615-5.05.22-2.635 2.417-4.611 5.274-4.392 2.856.22 4.833 2.416 4.614 5.05zm-31.639-17.347c-.22 2.635-2.417 4.611-5.274 4.391-2.636-.219-4.614-2.415-4.614-5.05.22-2.635 2.417-4.611 5.273-4.391 2.857 0 4.834 2.415 4.615 5.05zm17.797-20.422c-.22 2.635-2.417 4.611-5.273 4.391-2.637-.219-4.614-2.415-4.614-5.05.22-2.635 2.417-4.611 5.273-4.391 2.856 0 4.834 2.415 4.614 5.05zm47.898 2.199c-.22 2.635-2.417 4.611-5.273 4.392-2.637-.22-4.614-2.416-4.614-5.051.219-2.634 2.417-4.611 5.273-4.391 2.636 0 4.614 2.415 4.614 5.05z" fill="#3C3C6D"/><path fill-rule="evenodd" clip-rule="evenodd" d="M128.949 492.17c0 6.368-13.622 5.05-13.622 0v-44.572h13.622v44.572z" fill="#56548C"/><path fill-rule="evenodd" clip-rule="evenodd" d="M112.251 407.199s39.109-13.394 55.808-11.418c16.479 1.976 12.963 73.555 12.963 73.555s-8.789 1.537-17.577 0c-3.735-19.98-9.668-41.718-9.668-41.718s-36.033 10.32-41.307 5.27c-5.493-5.27-.219-25.689-.219-25.689z" fill="#3C3C6D"/><path fill-rule="evenodd" clip-rule="evenodd" d="M112.251 407.199s39.109-13.394 55.808-11.418c16.479 1.976 12.963 73.555 12.963 73.555-1.318 2.635-12.084 8.344-17.577 0-3.735-19.98-9.668-41.718-9.668-41.718s-36.033 10.32-41.307 5.27c-5.493-5.27-.219-25.689-.219-25.689z" fill="#3C3C6D"/><path fill-rule="evenodd" clip-rule="evenodd" d="M176.189 447.379c-3.516 3.293-45.042 26.348-52.952 30.52-.879.439-2.197.659-3.076 0-4.395-2.854-6.592-12.515 1.757-18.663 2.417-1.757 46.8-31.618 53.831-29.642h.22c.22 0 .439.219.659.439 3.735 2.635 3.296 13.833-.439 17.346z" fill="#56548C"/><path fill-rule="evenodd" clip-rule="evenodd" d="M175.969 429.374c-7.031-1.977-51.414 27.885-53.831 29.641-8.349 6.148-6.152 16.029-1.758 18.664l-49.216-28.544-1.758-.878c-3.955-3.294-5.493-12.296 2.636-18.225 2.417-1.756 47.899-32.276 54.051-29.422l.439.22 49.437 28.544zm109.419-202.443c-1.318-10.539-6.152-73.995-15.6-81.24 0 0-6.372-6.807-9.228-3.953l-46.141 26.568 2.198 28.764 19.994 65.651 44.822-25.909c2.857-.44 4.614-4.392 3.955-9.881z" fill="#3C3C6D"/><path fill-rule="evenodd" clip-rule="evenodd" d="M223.208 172.698c9.228 7.246 14.282 70.701 15.6 81.241 1.318 10.539-6.152 14.711-12.963 3.952-6.812-10.759-12.964-71.14-12.964-83.875-.219-12.516 10.327-1.318 10.327-1.318z" fill="#46467C"/><path fill-rule="evenodd" clip-rule="evenodd" d="M298.132 138.005c-12.964-.659-34.935 14.711-44.823 27.226-9.887 12.516-3.735 26.129-.439 39.523 3.296 13.393-1.758 46.987-1.758 50.281 15.161 10.32 52.073 11.637 56.248-3.294 1.757-16.467-10.327-33.813-10.327-43.474.439-21.079 18.017-64.114 1.099-70.262z" fill="#F9FBFC"/><path fill-rule="evenodd" clip-rule="evenodd" d="M286.706 140.859c6.811 29.203 4.614 60.821 3.076 73.116-1.538 12.296-1.758 53.575-1.758 53.575 9.888-5.05 14.721-14.272 14.941-18.663.22-4.172-3.735-39.962-3.296-42.816.22-2.854 5.274-30.52 4.834-45.451-.439-14.93-6.152-17.126-6.152-17.126l-12.744-5.709 1.099 3.074z" fill="#FBD15B"/><path fill-rule="evenodd" clip-rule="evenodd" d="M287.805 148.324l1.757.659c-.219.878-.439 1.756-.439 2.854 0-.219 0-.439-.22-.439l-1.098-3.074zm-19.775-4.39c9.887 21.298 5.054 40.839 4.614 58.185-.439 17.566-9.448 66.53-9.448 66.53-17.357-4.392-19.554-16.029-22.85-21.957-8.13-40.84 2.197-73.995 9.667-86.291 5.933-9.661 18.017-16.467 18.017-16.467z" fill="#FBD15B"/><path fill-rule="evenodd" clip-rule="evenodd" d="M257.044 170.943c-16.039-3.952-7.91 34.033 0 48.964 3.955 7.685 7.251 12.076 12.085 14.491 1.538-10.32 3.076-20.859 3.515-28.105-4.174-13.613-7.25-31.178-15.6-35.35z" fill="#EABD4E"/><path d="M190.69 309.27l9.008-6.368h3.076l-1.318 1.976-9.667 6.588-1.099-2.196z" fill="#3C3C6D"/><path fill-rule="evenodd" clip-rule="evenodd" d="M176.408 279.408c-1.318-10.54-6.152-73.995-15.6-81.241 0 0-6.372-6.807-9.228-3.952l-46.141 26.787 2.198 28.764 19.994 65.651 44.822-25.909c2.857-.659 4.614-4.392 3.955-10.1z" fill="#3C3C6D"/><path fill-rule="evenodd" clip-rule="evenodd" d="M114.008 225.394c9.228 7.245 14.282 70.701 15.6 81.24 1.319 10.539-6.152 14.711-12.963 3.952-6.811-10.759-12.963-71.14-12.963-83.875-.22-12.515 10.326-1.317 10.326-1.317z" fill="#46467C"/><path fill-rule="evenodd" clip-rule="evenodd" d="M466.435 66.426c-10.766 5.27-30.541 48.744-27.245 59.064 3.296 10.1 12.524 4.611 18.896-4.392 8.569-12.295 17.357-39.083 16.259-45.89-1.099-6.806-7.91-8.782-7.91-8.782z" fill="#3C3C6D"/><path fill-rule="evenodd" clip-rule="evenodd" d="M469.071 291.922s-16.698 19.322-21.092 20.639c-4.395 1.318-.44 5.929 3.076 6.148 3.515.22 14.281-.219 17.357-3.293 3.076-3.074 12.085-6.368 12.085-6.368 0-10.1-2.417-16.467-2.417-16.467l-9.009-.659z" fill="#56548C"/><path fill-rule="evenodd" clip-rule="evenodd" d="M463.139 154.693s-2.197 43.036-1.318 57.088 4.174 84.095 4.174 84.095c9.009 1.976 14.941 0 14.941 0 3.076-53.575 2.856-69.164 3.735-77.069.879-7.904 1.978-31.179 1.978-31.179 6.372-13.174-.22-30.52-3.516-34.691-3.076-4.172-19.994 1.756-19.994 1.756z" fill="#3C3C6D"/><path fill-rule="evenodd" clip-rule="evenodd" d="M496.097 310.366c-.659 7.904-3.296 17.126-4.175 21.737-.879 4.611.879 7.465 1.978 9.002 1.098 1.537 14.281-2.854 16.259-7.904 1.757-5.05-1.978-9.661-2.197-19.103-4.175-7.904-11.865-3.732-11.865-3.732z" fill="#56548C"/><path fill-rule="evenodd" clip-rule="evenodd" d="M476.981 157.985s2.198 39.083 5.933 52.258c3.515 12.954 6.811 51.159 8.349 57.966 1.538 6.587 3.516 47.866 3.516 47.866 8.349 1.976 14.721 0 14.721 0-.22-38.645.659-69.823 0-80.363-.66-10.539.219-41.937.219-41.937 3.516-14.492 3.736-16.468 0-26.129-3.515-9.88-19.115-17.565-32.738-9.661z" fill="#3C3C6D"/><path fill-rule="evenodd" clip-rule="evenodd" d="M469.511 65.108c12.084-.44 39.769 5.709 48.997 17.346 9.228 11.637-4.175 32.276-7.251 44.792-3.076 12.515 1.538 43.694 1.538 46.548-14.282 9.442-48.557 10.54-52.293-3.513-1.538-15.37 1.978-33.374 2.198-42.376-.879-19.103-9.229-57.088 6.811-62.797z" fill="#F9FBFC"/><path fill-rule="evenodd" clip-rule="evenodd" d="M479.838 67.964c-7.691 27.007-9.448 57.527-8.789 68.944.659 11.418 1.098 48.745 1.098 48.745-9.008-4.831-12.963-13.394-12.963-17.346 0-3.953 3.296-37.547 3.296-40.401 0-2.635-4.614-33.594-3.296-47.427 1.318-13.833 10.327-15.37 10.327-15.37h11.645l-1.318 2.855zm-7.471-32.718c-5.273 1.757 0 13.613 0 13.613V35.246z" fill="#3C3C6D"/><path fill-rule="evenodd" clip-rule="evenodd" d="M471.928 36.784s-1.978 7.026-1.318 12.515c.659 5.49 1.318 16.248 6.152 19.761 4.833 3.513 11.864-.658 16.478-4.39 4.615-3.953 9.448-11.199 9.668-19.762 0-8.783-3.296-19.322-15.82-18.883-12.743.659-15.16 10.759-15.16 10.759z" fill="#FFC8AF"/><path fill-rule="evenodd" clip-rule="evenodd" d="M496.316 56.984s-.878 11.198 1.978 15.37c.22 2.855-7.69 14.492-15.6 12.516-4.614-1.098-3.955-6.588-3.955-6.588.44-4.171 0-13.832 0-13.832l17.577-7.466z" fill="#FFC8AF"/><path fill-rule="evenodd" clip-rule="evenodd" d="M468.852 27.562c-1.758 6.367.219 8.782 5.712 10.54 5.493 1.756 19.995-2.416 19.995-2.416-.879 6.806 1.098 10.54 1.098 10.54 2.417-6.807 4.614-3.294 4.834 2.195.22 5.489-2.856 5.27-2.856 5.27.219 4.61 1.757 6.147 1.757 6.147 5.933-3.952 13.843-30.959 3.296-31.617-.22-9.442-29.881-14.492-33.836-.66zm30.101 43.036c-9.448 19.76-14.281 37.546-13.842 53.794.22 16.248 3.735 63.455 3.735 63.455 16.259-3.952 27.245-8.563 30.321-14.052-7.031-18.224-9.448-30.52-8.129-35.79 1.318-5.269 13.622-44.792 7.25-56.648-6.152-6.368-19.335-10.76-19.335-10.76z" fill="#3C3C6D"/><path fill-rule="evenodd" clip-rule="evenodd" d="M496.756 67.96c0 .44 1.977 2.636 1.977 2.636s-3.955 8.782-5.493 12.735c-1.538 3.952-5.273 7.245-5.273 7.245l-5.273-5.708c7.251-3.953 14.062-16.907 14.062-16.907z" fill="#F9FBFC"/><path fill-rule="evenodd" clip-rule="evenodd" d="M479.398 70.816c.44-.659 1.538 10.978 3.296 14.052-3.296 3.074-5.273 3.953-5.273 3.953s-1.978-13.174 1.977-18.005z" fill="#F9FBFC"/><path fill-rule="evenodd" clip-rule="evenodd" d="M483.353 84.43l-4.394 2.854c1.099 3.513 1.099 5.928 1.099 5.928h4.174l3.076-4.39-3.955-4.392z" fill="#EC827D"/><path fill-rule="evenodd" clip-rule="evenodd" d="M479.838 93.212c-6.152 32.276-5.493 52.257-5.493 52.257l3.076 9.002 6.811-9.88s-5.053-37.986-.22-51.16c-2.636-1.976-4.174-.22-4.174-.22z" fill="#EC827D"/><path fill-rule="evenodd" clip-rule="evenodd" d="M188.932 190.483c-12.963-.659-41.307 8.344-51.194 20.859-9.887 12.516 2.637 32.496 5.932 45.89 3.296 13.394-1.757 46.988-1.757 50.281 15.16 10.32 52.073 11.637 56.247-3.293 1.758-16.468-10.327-33.814-10.327-43.475.66-20.859 18.237-64.114 1.099-70.262z" fill="#F9FBFC"/><path fill-rule="evenodd" clip-rule="evenodd" d="M177.727 193.336c6.811 29.202 4.614 60.82 3.076 73.116-1.538 12.296-1.758 53.575-1.758 53.575 9.887-5.05 14.721-14.272 14.941-18.664.219-4.171-3.736-39.961-3.296-42.815.22-2.855 9.008-36.668 8.569-51.599-.44-14.931-10.327-16.687-10.327-16.687h-12.524l1.319 3.074z" fill="#56548C"/><path fill-rule="evenodd" clip-rule="evenodd" d="M189.372 160.184s1.098 7.465 1.318 13.394c.22 9.661-1.538 17.565-6.592 21.298-5.273 3.732-14.94 1.317-19.774-2.855-4.834-4.171-7.91-14.052-8.13-23.274 0-9.441 3.736-20.859 17.138-20.2 13.623.658 16.04 11.637 16.04 11.637z" fill="#FFC8AF"/><path fill-rule="evenodd" clip-rule="evenodd" d="M159.929 181.48s1.099 12.077-2.197 16.468c-.219 3.074 8.13 15.589 16.699 13.394 5.053-1.318 4.394-7.026 4.394-7.026-.439-4.392 0-14.931 0-14.931l-18.896-7.905z" fill="#FFC8AF"/><path fill-rule="evenodd" clip-rule="evenodd" d="M188.273 150.521c-7.47-10.539-35.375-1.756-32.958 8.124-10.766 3.514-3.735 31.399 9.009 33.375 0 0 5.932-5.928 5.493-7.465-1.319.658-2.857.439-3.516-2.855-1.318-5.709 2.417-9.441 6.592-3.074 0 0 .659-5.05-2.197-12.076 0 0 14.501-1.317 19.115-5.489 2.417-1.976 2.637-4.611-1.538-10.54z" fill="#3C3C6D"/><path fill-rule="evenodd" clip-rule="evenodd" d="M157.293 195.973c9.887 21.298 6.811 41.059 6.371 58.624-.439 17.566-9.448 66.53-9.448 66.53-17.357-4.392-19.554-16.029-22.85-21.957-8.13-40.84-2.856-78.167 4.834-90.462 5.932-9.442 21.093-12.735 21.093-12.735z" fill="#56548C"/><path fill-rule="evenodd" clip-rule="evenodd" d="M163.445 259.209c-5.054-14.491-9.448-34.472-18.017-38.644-16.039-3.952-11.206 36.229-3.296 51.379 4.834 9.222 9.668 14.272 17.578 16.468 1.757-10.32 3.295-21.298 3.735-29.203z" fill="#3C3C6D"/><path fill-rule="evenodd" clip-rule="evenodd" d="M159.49 193.336c0 .439-2.198 2.854-2.198 2.854s4.395 9.661 5.933 13.833c1.538 4.172 5.712 7.685 5.712 7.685l5.713-6.148c-7.91-4.172-15.16-18.224-15.16-18.224z" fill="#F9FBFC"/><path fill-rule="evenodd" clip-rule="evenodd" d="M178.166 196.412c-.44-.659-1.758 11.856-3.735 15.15 3.515 3.513 5.712 4.391 5.712 4.391s2.417-14.052-1.977-19.541z" fill="#F9FBFC"/><path d="M156.414 306.417l143.475 82.778 177.532-102.539-143.475-82.777-177.532 102.538z" fill="#83C9FF"/><path d="M167.18 308.831c-2.416 1.318-6.371 1.318-8.788 0-2.417-1.317-2.417-3.733 0-5.05 2.417-1.317 6.372-1.317 8.788 0 2.417 1.537 2.417 3.733 0 5.05zm308.264-19.543c-2.417 1.317-6.372 1.317-8.789 0s-2.417-3.733 0-5.05c2.417-1.317 6.372-1.317 8.789 0s2.417 3.513 0 5.05z" fill="#83C9FF"/><path d="M474.345 423.884c-1.758 1.098-4.614 1.098-6.372 0s-1.758-2.635 0-3.732c1.758-1.098 4.614-1.098 6.372 0 1.758 1.097 1.758 2.634 0 3.732z" fill="#878CF0"/><path d="M464.897 286.652l1.758 135.255h9.008l1.758-135.255h-12.524z" fill="#878CF0"/><path d="M303.845 387.655c-2.417 1.318-6.372 1.318-8.789 0-2.417-1.317-2.417-3.732 0-5.05 2.417-1.317 6.372-1.317 8.789 0 2.416 1.537 2.416 3.733 0 5.05z" fill="#83C9FF"/><path d="M302.526 522.47c-1.758 1.098-4.614 1.098-6.372 0-1.757-1.098-1.757-2.635 0-3.733 1.758-1.097 4.614-1.097 6.372 0 1.758.879 1.758 2.635 0 3.733z" fill="#878CF0"/><path d="M293.298 385.238l1.538 135.254h9.008l1.758-135.254h-12.304z" fill="#878CF0"/><path d="M338.12 210.026c-2.416 1.318-6.371 1.318-8.788 0-2.417-1.317-2.417-3.732 0-5.05 2.417-1.317 6.372-1.317 8.788 0 2.417 1.537 2.417 3.733 0 5.05zm-1.098 134.815c-1.758 1.098-4.614 1.098-6.372 0s-1.758-2.635 0-3.732c1.758-1.098 4.614-1.098 6.372 0 1.757.878 1.757 2.634 0 3.732z" fill="#83C9FF"/><path d="M327.574 207.609l1.758 135.255h9.008l1.538-135.255h-12.304z" fill="#83C9FF"/><path d="M523.562 255.477c0 15.589-9.448 30.3-28.564 41.278L317.467 399.074c-42.406 24.373-116.45 21.299-165.447-6.806-26.147-15.15-39.989-34.473-40.428-52.916v8.124c.439 18.444 14.281 37.766 40.428 52.916 48.997 28.324 123.041 31.398 165.447 6.806l177.531-102.319c19.116-10.978 28.564-25.909 28.564-41.498v-7.904z" fill="#A8B0F4"/><path d="M152.239 392.487c48.997 28.325 123.042 31.398 165.447 6.807l177.532-102.319c19.115-10.979 28.563-25.909 28.563-41.279 0-18.883-13.622-38.644-40.428-54.233-48.997-28.325-123.041-31.399-165.447-6.807L140.375 296.975c-19.775 11.417-29.003 26.787-28.564 42.596.44 18.444 14.062 37.766 40.428 52.916z" fill="#878CF0"/><path fill-rule="evenodd" clip-rule="evenodd" d="M469.511 285.339l-26.806-15.37-45.042 26.128-3.515.44v.878c0 .439.22.659.439.878l27.245 15.809c.879.439 2.197.439 3.296-.22l45.262-26.128c.659-.439.879-.878.879-1.098v-1.537l-1.758.22z" fill="#3C3C6D"/><path fill-rule="evenodd" clip-rule="evenodd" d="M442.705 268.432l-48.557 28.105-11.425-36.009c-.44-1.098 0-2.415.879-2.854l45.92-26.568c.879-.439 1.758 0 2.198 1.098l10.985 36.228z" fill="#56548C"/><path fill-rule="evenodd" clip-rule="evenodd" d="M440.069 267.116l-44.822 25.909-10.327-31.838 45.481-26.128 9.668 32.057z" fill="#BEE1F4"/><path fill-rule="evenodd" clip-rule="evenodd" d="M470.17 286.437l-45.262 26.129c-.878.659-2.417.659-3.295.22l-27.685-16.029 48.558-28.105 27.684 16.029c1.099.219 1.099 1.098 0 1.756z" fill="#56548C"/><path fill-rule="evenodd" clip-rule="evenodd" d="M470.17 286.437l-45.262 26.129c-.878.659-2.417.659-3.295.22l-27.685-16.029 48.558-28.105 27.684 16.029c1.099.219 1.099 1.098 0 1.756z" fill="#56548C"/><path fill-rule="evenodd" clip-rule="evenodd" d="M456.108 278.974l-43.943 25.25-13.183-7.465 43.943-25.47 13.183 7.685z" fill="#112B46"/><path fill-rule="evenodd" clip-rule="evenodd" d="M449.956 294.782l-10.547 6.147c-.659.44-1.538.44-1.977 0l-5.053-2.854c-.44-.219-.44-.878.219-1.098l10.547-6.148c.659-.439 1.538-.439 1.977 0l5.054 2.855c.439.219.439.658-.22 1.098z" fill="#3C3C6D"/><path d="M142.792 364.162c1.098-2.196 21.971-41.279 21.971-41.279l30.98 10.1s-18.236 48.085-20.653 46.988c-2.417-.879-32.298-15.809-32.298-15.809zm65.256-82.777l25.487-19.323 46.141 4.172-26.586 19.761-45.042-4.61z" fill="#F9FBFC"/><path d="M239.028 356.259h-.439s-.22 0-.22-.22l-21.313-12.295c-.879-.44-2.417-.44-3.296.219l-28.782 16.468c-.22 0-.22.219-.44.219h-.439v.659c0 .22.219.659.659.878l21.312 12.296c.879.439 2.417.439 3.296-.219l28.783-16.468c.44-.22.879-.659.879-1.098v-.439z" fill="#A5B7C6"/><path d="M206.29 374.043l-21.313-12.296c-.878-.439-.659-1.318.22-1.976l28.783-16.468c.879-.659 2.417-.659 3.296-.22l21.312 12.296c.879.439.66 1.318-.219 1.976l-28.783 16.468c-.879.659-2.417.659-3.296.22z" fill="#56548C"/><path d="M208.487 372.724l-21.092-12.077 28.563-16.467 20.873 12.076-28.344 16.468z" fill="#FBD15B"/><path fill-rule="evenodd" clip-rule="evenodd" d="M192.667 192.02c12.085 5.489 9.229 37.546 18.457 45.67 5.273 4.611 30.98 10.539 38.011 10.539 2.856 5.709-2.197 12.077-2.197 12.077-43.944-3.514-47.02-4.611-57.127-22.177-7.47-13.833-13.183-49.842 2.856-46.109z" fill="#56548C"/><path d="M248.036 250.206s11.865-1.318 14.062-.439c2.197 1.098 7.251 4.172 8.789 5.489 1.318 1.537 5.932 5.27 2.197 6.148-1.099.219-7.69-1.757-9.448-2.415-1.757-.879-5.053-1.757-5.053-.879 0 .879 8.349 3.074 7.25 4.831-1.098 1.756-3.076.439-9.008-1.537-5.932-1.976-11.645-2.855-11.645-2.855-1.318-4.391 0-7.026 2.856-8.343z" fill="#FFC8AF"/><path d="M229.141 257.012l-8.569 10.759c-.22.22-.22.878.219 1.098.22.219.879.219 1.099-.22l8.569-10.758c.22-.22.22-.879-.22-1.098-.439-.22-.879-.22-1.098.219z" fill="#3C3C6D"/><path fill-rule="evenodd" clip-rule="evenodd" d="M213.321 262.5c3.735 1.976 10.107.659 10.107 1.537 0 .659-1.318 2.854-3.955 2.854-2.637-.219-6.152-4.391-6.152-4.391z" fill="#FFC8AF"/><path fill-rule="evenodd" clip-rule="evenodd" d="M202.774 268.208c2.198-2.415 7.691-7.904 12.305-5.05 4.394 2.855 7.47 2.855 8.788 3.294 1.538-2.196 3.735-.439 5.054 2.635 1.318 3.074-7.91 7.026-9.448 8.124-1.538 1.317-16.699-1.318-16.699-1.318v-7.685z" fill="#FFC8AF"/><path fill-rule="evenodd" clip-rule="evenodd" d="M145.428 211.562c12.084 5.929 15.6 43.255 24.828 52.038 5.273 5.05 26.146 1.098 33.177 1.098 2.856 6.367-1.098 13.833-1.098 13.833-40.209 4.83-50.535 3.732-60.642-15.59-7.471-15.15-12.305-55.551 3.735-51.379z" fill="#56548C"/><path fill-rule="evenodd" clip-rule="evenodd" d="M483.793 119.561c-1.099-3.952-3.516-7.685-6.812-9.88-.879-.659-1.977-1.098-2.856-1.537-.439-.22-.879-.439-1.318-.439-.44 0-1.099-.22-1.538 0-.22.219-.22.439 0 .658.439.879 1.318 1.537 2.197 1.976 1.538.879 2.197 2.196 2.636 3.733-1.538-1.537-2.856-3.074-4.614-4.391-1.757-1.098-3.735-1.976-5.712-2.635-.879-.22-1.758-.659-2.637-.439-1.098.219-1.538 1.098-.879 1.756.659.659 1.538 1.098 2.417 1.537 1.099.659 1.978 1.318 3.076 2.196l1.319 1.317c.219.439.439 1.098.878 1.318-1.098-.439-2.197-1.098-3.295-1.537-.879-.439-1.978-.659-2.857-1.318-.879-.439-1.538-1.097-2.417-1.537-.439-.219-.878-.439-1.318-.219-.22.219-.439.659-.439.878 0 .439.219.659.439 1.098.44.878 1.099 1.317 1.978 1.756l1.977 1.318c.879.659 1.758 1.098 2.417 1.756.439.22.879.659 1.098 1.098.22.22.66.879 1.099 1.098-1.758-.878-3.296-1.976-4.834-2.854-.659-.439-1.318-.879-1.757-1.318-.66-.658-1.319-1.098-2.198-1.098h-.659c-.219.22-.219.44-.219.659 0 .22.219.439.439.659.879 1.317 1.977 2.635 3.296 3.733 1.098.878 2.636 2.415 3.955 2.634a11.98 11.98 0 01-5.274-2.634c-.659-.659-1.538-1.318-2.416-1.537-.22 0-.66 0-.879.219-.22.22 0 .659.219.878 1.099 1.757 2.637 3.953 4.614 4.831 1.099.439 1.978 1.317 3.076 1.976l3.296 1.976c2.637 1.537 5.713 3.074 8.569 3.952.879.22 1.758.44 2.637.22.879 0 1.318-.22 1.977-.878 1.099-1.098 1.978-2.416 2.417-3.953.44-1.756.22-3.732-.22-5.489-.439 0-.659-.878-.878-1.537zm-26.586 1.537c-.879-4.831-1.978-10.54-5.054-14.492-.219-.22-.219-.439-.439-.439-.439-.22-.879.439-.879.878-.22 1.318.44 2.855.879 4.172.439 1.537.439 3.293.22 4.83 0-.219-.22-.219-.22-.439-2.417-3.293-3.735-7.685-5.273-11.417-.22-.439-.44-.879-.879-.879-.659 0-.879.879-.879 1.537 0 3.074.659 5.49 1.978 8.344-1.319-1.976-2.417-4.172-3.296-6.367-.22-.44-.44-1.098-1.099-1.318-2.417-.219.659 8.783 1.099 10.1-1.319-1.756-1.978-3.513-2.417-5.708 0-.44-.22-.879-.44-1.098-.219-.439-.878-.879-1.318-.439-.22.439-.439 1.317-.439 1.756-.22 1.318.219 2.635.659 3.952.659 1.757 1.758 3.513 2.417 5.27-1.099-1.317-1.978-2.635-3.076-3.733-.22-.219-.44-.658-.879-.439-.44 0-.659.659-.44 1.098.879 2.854 2.417 5.709 4.395 7.905 1.098 1.097 2.197 1.976 3.076 3.073.879 1.098 2.197 1.977 3.735 2.635 1.538.659 3.076.879 4.614.879 1.318 0 1.977-.44 2.637-1.318.659-.878 1.318-1.756 1.318-2.854.22-1.757.22-3.513 0-5.489z" fill="#FFC8AF"/><path fill-rule="evenodd" clip-rule="evenodd" d="M484.671 118.684l19.995 6.807c-1.978-26.129 2.636-53.794 13.622-43.914 6.372 5.709 6.592 54.453 1.758 61.699-4.834 7.246-25.707-3.074-40.208-10.539-.44-6.148 4.833-14.053 4.833-14.053z" fill="#3C3C6D"/><path fill-rule="evenodd" clip-rule="evenodd" d="M130.048 264.917c5.053-.878 11.645-.878 16.478.439 8.13 2.415 12.524 7.465 14.282 15.15 1.977 7.685 2.637 20.42-1.977 27.666-2.857 4.391-8.789 3.733-13.183 2.415-5.274-1.317-12.305-3.733-16.479-7.026-6.152-4.611-9.228-14.492-9.668-21.737-.22-6.148 2.856-15.59 10.547-16.907z" fill="#FFC8AF"/><path fill-rule="evenodd" clip-rule="evenodd" d="M123.676 266.233c-4.834 3.294-4.395 10.54-4.175 15.59.44 7.245 3.516 17.126 9.668 21.737 3.295 2.415 3.515 2.854 7.91 4.172.439-.22 1.318-.878 2.636-1.757 2.417-1.756 3.735-5.05 2.856-7.904-.878-2.855-1.098-6.368.66-7.246 2.636-1.537 4.394 3.733 4.394 3.733 1.538-.659 3.955-2.416 2.637-5.49-1.319-3.073 0-6.367 0-6.367 4.833 0 7.03-6.368 8.569-7.246 3.295-1.756 4.394-2.635 3.735-5.489-.44-1.976-1.099-3.952-2.637-5.489-1.758-1.537-7.251-3.733-9.667-4.392-13.183-3.293-23.51-.878-26.586 6.148z" fill="#56548C"/><path fill-rule="evenodd" clip-rule="evenodd" d="M153.338 314.319c-11.865-4.392-25.707-12.296-45.042 3.073-19.336 15.37-14.062 77.947-9.229 92.219 4.834 14.272 36.693 15.37 46.361 14.272 9.667-1.098.22-17.785 3.296-28.763 3.076-10.979 28.343-72.019 4.614-80.801z" fill="#56548C"/><path fill-rule="evenodd" clip-rule="evenodd" d="M159.71 316.737c5.053 3.074 18.016 41.059 18.016 41.059l4.614-29.861s10.767-5.051 16.919 1.756c-4.175 28.983-6.592 58.625-16.919 60.381-10.326 1.757-27.245-25.689-36.473-39.083-9.228-13.613-1.538-43.474 13.843-34.252z" fill="#56548C"/><path d="M191.129 310.147l9.668-7.246 2.417-.659-1.099 1.537-10.326 7.685-.66-1.317z" fill="#3C3C6D"/><path fill-rule="evenodd" clip-rule="evenodd" d="M184.537 329.691c0-.878-3.735-10.1-2.197-13.394 1.538-3.293 3.296-5.489 3.296-5.489 1.538-5.269 5.932-4.611 9.448-1.317 3.515 3.513 8.349 11.857 1.977 18.883-6.372 5.709-12.524 1.317-12.524 1.317z" fill="#FFC8AF"/><path fill-rule="evenodd" clip-rule="evenodd" d="M61.496 338.691v.44c-3.735-.44-8.13 2.854-9.887 7.465-3.077 8.124 1.098 96.171 8.569 94.195 2.416 2.415 54.929 31.618 54.929 31.618l3.076-101.221c0 .219-37.132-32.057-56.687-32.497z" fill="#46467C"/><path fill-rule="evenodd" clip-rule="evenodd" d="M115.107 472.409c-7.47 1.976-11.865-86.071-8.569-94.195 3.296-8.124 14.501-12.077 16.479 1.317 1.977 13.394 12.084 88.047-7.91 92.878z" fill="#EC827D"/><path fill-rule="evenodd" clip-rule="evenodd" d="M322.3 209.805c3.735 1.976 10.107.658 10.107 1.537 0 .878-1.318 2.854-3.955 2.854-2.636 0-6.152-4.391-6.152-4.391z" fill="#FFC8AF"/><path fill-rule="evenodd" clip-rule="evenodd" d="M311.754 215.732c2.197-2.415 7.69-7.905 12.304-5.05 4.394 2.854 7.47 2.854 8.789 3.293 1.538-2.195 3.735-.439 5.053 2.635 1.319 3.074-7.91 7.026-9.448 8.124-1.538 1.098-16.698-1.317-16.698-1.317v-7.685z" fill="#FFC8AF"/><path fill-rule="evenodd" clip-rule="evenodd" d="M509.06 340.667s-39.11-13.393-55.808-11.417c-16.479 1.976-12.963 73.555-12.963 73.555s8.788 1.537 17.577 0c3.735-19.98 9.667-41.718 9.667-41.718s36.034 10.32 41.307 5.27c5.713-5.27.22-25.69.22-25.69zm-48.997 90.902c0 .439.22.878.659 1.317.659.659 1.318 1.098 2.417 1.318 1.318.439 3.076.439 4.614 0l19.335-5.05c3.296-.878 6.811.219 7.69 2.195l4.175 11.857c.439 1.537 2.856 2.415 5.273 2.415h.879c1.758-.219 3.076-.658 3.955-1.537.439-.439.659-.878.659-1.317v-.659l-1.538-8.343-.659-3.733c-.44-1.976 2.636-3.733 6.152-3.513l21.313 1.317h.659c.879 0 1.757-.219 2.417-.439 1.538-.439 2.636-1.317 2.856-2.415.439-1.757-1.318-3.294-4.175-3.513l-20.873-2.415c-.879 0-1.758-.439-2.417-.659-1.757-.878-2.636-2.415-1.538-3.733l7.471-9.222 1.538-1.976c.219-.439.439-.658.439-1.098v-.219c0-1.098-1.099-2.196-2.856-2.854-2.637-.659-5.713-.22-7.251 1.317l-10.546 10.759c-1.758 1.756-5.933 2.195-8.35.878l-15.6-8.344c-1.098-.658-2.416-.878-3.735-.878-1.318 0-2.856.22-3.955.878-1.098.659-1.757 1.537-1.538 2.416 0 .658.44 1.317 1.319 1.976l1.318.878 12.963 8.344c2.417 1.537 1.758 3.732-1.318 4.83h-.22l-18.456 6.148c-1.977.878-3.076 1.976-3.076 3.074z" fill="#3C3C6D"/><path fill-rule="evenodd" clip-rule="evenodd" d="M513.015 418.832l7.47-9.221c.22-.44.44-.659.44-1.098v-5.49c0 .44-.22.659-.44 1.098l-1.538 1.976-7.47 9.222c-.879 1.318-.22 2.635 1.538 3.513zm-5.713 11.42l.66 3.733c1.098-1.098 3.076-1.756 5.273-1.537l21.312 1.317h.66c2.636 0 5.053-1.097 5.492-2.634v-5.709c-.219 1.098-1.318 1.756-2.856 2.415-.659.22-1.538.439-2.417.439h-.659l-21.312-1.317c-3.736-.22-6.592 1.317-6.153 3.293zm-11.205 10.76v1.098c.219-.44.219-.879 0-1.098z" fill="#3C3C6D"/><path fill-rule="evenodd" clip-rule="evenodd" d="M460.063 431.568v5.709c0 .439.22.878.659 1.317 1.318 1.537 4.394 2.196 7.031 1.537l19.335-5.05c3.296-.878 6.811.22 7.69 2.196l4.175 11.857c.439 1.537 2.856 2.415 5.273 2.415h.879c2.637-.22 4.394-1.317 4.614-2.854v-5.709c0 .439-.439.878-.659 1.317-.879.878-2.197 1.318-3.955 1.537h-.879c-2.636 0-4.834-1.098-5.273-2.415l-4.175-11.857c-.659-1.976-4.394-3.074-7.69-2.196l-19.335 5.051c-1.538.439-3.296.439-4.614 0-1.099-.22-1.758-.659-2.417-1.318-.439-.659-.659-1.098-.659-1.537zm7.031-24.591v5.489c0 .658.44 1.537 1.319 2.195l12.963 8.124c2.856-1.097 3.515-3.293 1.318-4.83l-12.963-8.344-1.318-.878c-.879-.439-1.319-1.098-1.319-1.756z" fill="#3C3C6D"/><path fill-rule="evenodd" clip-rule="evenodd" d="M460.502 441.891c.22 2.635 2.417 4.611 5.274 4.391 2.636-.219 4.614-2.415 4.614-5.05-.22-2.635-2.417-4.611-5.273-4.391-2.857 0-4.834 2.415-4.615 5.05zm38.671 12.074c.22 2.635 2.417 4.611 5.273 4.392 2.637-.22 4.614-2.416 4.614-5.051-.22-2.634-2.417-4.61-5.273-4.391-2.856 0-4.834 2.415-4.614 5.05zm31.639-17.566c.22 2.635 2.417 4.611 5.273 4.391 2.637-.219 4.614-2.415 4.614-5.05-.219-2.635-2.417-4.611-5.273-4.391-2.636.219-4.834 2.415-4.614 5.05zM513.015 416.2c.219 2.634 2.417 4.61 5.273 4.391 2.637-.22 4.614-2.415 4.614-5.05-.22-2.635-2.417-4.611-5.273-4.392-2.857.22-4.614 2.196-4.614 5.051zm-47.679 1.976c.22 2.635 2.417 4.611 5.273 4.392 2.637-.22 4.614-2.416 4.614-5.051-.219-2.634-2.417-4.611-5.273-4.391-2.856.22-4.834 2.415-4.614 5.05z" fill="#3C3C6D"/><path fill-rule="evenodd" clip-rule="evenodd" d="M492.361 425.643c0 6.367 13.623 5.05 13.623 0V381.07h-13.623v44.573z" fill="#56548C"/><path fill-rule="evenodd" clip-rule="evenodd" d="M445.122 380.633c3.516 3.293 45.042 26.348 52.952 30.52.879.439 2.197.659 3.076 0 4.394-2.855 6.591-12.516-1.758-18.663-2.417-1.757-46.8-31.618-53.831-29.642h-.219c-.22 0-.44.219-.659.439-3.516 2.854-3.296 14.052.439 17.346z" fill="#56548C"/><path fill-rule="evenodd" clip-rule="evenodd" d="M445.342 362.846c7.031-1.976 51.414 27.666 53.831 29.642 8.349 6.148 6.152 16.029 1.757 18.663l49.217-28.544 1.758-.878c3.955-3.293 5.493-12.296-2.637-18.224-2.417-1.757-47.898-32.277-54.05-29.422l-.44.219-49.436 28.544z" fill="#3C3C6D"/><path fill-rule="evenodd" clip-rule="evenodd" d="M420.734 294.557s-1.099-3.293-3.516-5.05c-2.417-1.756-5.712-4.172-7.47-3.293-1.538.878 3.735 5.05 3.735 5.05-5.713-2.196-11.205-2.635-13.622-2.855-2.417-.219-9.668 2.635-8.13 4.831 1.318 2.196 7.031 5.27 9.668 6.587 2.417 1.317 10.326 3.952 15.819 3.294 5.713-.879 3.516-8.564 3.516-8.564z" fill="#FFC8AF"/><path fill-rule="evenodd" clip-rule="evenodd" d="M509.06 345.939c1.758 26.348-28.124 38.864-70.969 27.007 0 0-2.856 12.076-11.205 48.744-11.865 1.757-19.335 0-19.335 0s-1.319-71.579 19.335-74.653c20.653-3.074 61.74-3.513 61.74-4.611l20.434 3.513z" fill="#56548C"/><path fill-rule="evenodd" clip-rule="evenodd" d="M491.483 198.389c-5.054-.878-11.645-.878-16.479.44-8.13 2.415-12.524 7.465-14.282 15.15-1.977 7.685-2.636 20.42 1.978 27.665 2.856 4.392 8.788 3.733 13.183 2.416 5.273-1.318 12.304-3.733 16.478-7.027 6.153-4.61 9.229-14.491 9.668-21.737.22-6.367-3.076-15.809-10.546-16.907z" fill="#FFC8AF"/><path fill-rule="evenodd" clip-rule="evenodd" d="M497.635 199.705c4.833 3.294 4.394 10.54 4.174 15.59-.439 7.246-3.515 17.126-9.667 21.737-3.296 2.415-3.516 2.855-7.91 4.172-.44-.22-1.318-.878-2.637-1.757-2.417-1.756-3.735-5.05-2.856-7.904s1.098-6.368-.659-7.246c-2.637-1.537-4.395 3.733-4.395 3.733-1.538-.659-3.955-2.415-2.636-5.489 1.318-3.074 0-6.368 0-6.368-4.834 0-7.031-6.367-8.569-7.246-3.296-1.756-4.395-2.634-3.735-5.489.439-1.976 1.098-3.952 2.636-5.489 1.758-1.537 7.251-3.733 9.668-4.172 13.403-3.513 23.51-1.098 26.586 5.928z" fill="#EC827D"/><path fill-rule="evenodd" clip-rule="evenodd" d="M465.996 247.57c10.326-7.246 23.949-16.687 43.064-1.318 19.335 15.37 17.797 82.558 13.183 96.83-4.833 14.272-36.693 15.37-46.36 14.272-9.448-1.317-.22-17.785-3.296-28.763-3.076-10.979-27.245-66.53-6.591-81.021z" fill="#F9FBFC"/><path fill-rule="evenodd" clip-rule="evenodd" d="M461.821 262.061c-1.099.659-2.417 2.855-3.955 5.929-.22 13.174 4.394 29.202 8.569 41.718 3.296-4.611 6.372-9.661 9.228-13.614 9.008-13.393 1.318-43.255-13.842-34.033z" fill="#DCE6EA"/><path fill-rule="evenodd" clip-rule="evenodd" d="M560.034 272.164v.439c3.735-.439 8.13 2.855 9.887 7.466 3.076 8.124-1.098 96.171-8.569 94.194-2.416 2.416-54.929 31.618-54.929 31.618l-3.076-101.221c-.22 0 36.913-32.057 56.687-32.496z" fill="#46467C"/><path fill-rule="evenodd" clip-rule="evenodd" d="M506.204 405.881c7.47 1.976 11.864-86.071 8.569-94.195-3.296-8.124-14.502-12.076-16.479 1.318-1.758 13.174-12.085 87.827 7.91 92.877z" fill="#56548C"/><path fill-rule="evenodd" clip-rule="evenodd" d="M462.7 251.962c-5.054 3.074-19.335 45.89-19.335 45.89l-21.752-6.367c-2.857 0-9.229 5.05-7.91 11.198 13.622 10.319 21.093 14.052 31.419 15.809 10.327 1.756 22.192-19.103 31.42-32.497 9.228-13.393 1.538-43.474-13.842-34.033z" fill="#F9FBFC"/><path fill-rule="evenodd" clip-rule="evenodd" d="M365.365 345.717l-26.806-15.369-45.042 26.128-3.515.439v.879c0 .439.22.658.439.878l27.245 15.809c.879.439 2.197.439 3.296-.22l45.262-26.128c.659-.439.879-.879.879-1.098v-1.537l-1.758.219z" fill="#3C3C6D"/><path fill-rule="evenodd" clip-rule="evenodd" d="M338.56 328.811l-48.558 28.105-11.425-36.009c-.44-1.098 0-2.415.879-2.855l45.92-26.567c.879-.439 1.758 0 2.198 1.098l10.986 36.228z" fill="#56548C"/><path fill-rule="evenodd" clip-rule="evenodd" d="M335.923 327.275l-44.822 25.909-10.327-31.618 45.481-26.128 9.668 31.837z" fill="#EC827D"/><path fill-rule="evenodd" clip-rule="evenodd" d="M366.024 346.598l-45.262 26.128c-.879.659-2.417.659-3.295.22l-27.685-16.029 48.558-28.105 27.684 16.029c1.099.439.879 1.317 0 1.757z" fill="#56548C"/><path fill-rule="evenodd" clip-rule="evenodd" d="M366.024 346.598l-45.262 26.128c-.879.659-2.417.659-3.295.22l-27.685-16.029 48.558-28.105 27.684 16.029c1.099.439.879 1.317 0 1.757z" fill="#56548C"/><path fill-rule="evenodd" clip-rule="evenodd" d="M351.962 339.133l-43.943 25.47-13.183-7.465 43.943-25.47 13.183 7.465z" fill="#112B46"/><path fill-rule="evenodd" clip-rule="evenodd" d="M345.81 354.942l-10.547 6.148c-.659.439-1.538.439-1.977 0l-5.053-2.855c-.44-.219-.44-.878.219-1.098l10.547-6.147c.659-.44 1.538-.44 1.977 0l5.054 2.854c.439.439.439.878-.22 1.098zm-233.12 59.283c-1.757 26.348 28.124 38.864 70.969 27.007 0 0 2.856 12.076 11.206 48.744 11.864 1.757 18.895-8.563 18.895-8.563s1.758-63.016-18.895-66.31c-20.654-3.074-61.741-3.513-61.741-4.611l-20.434 3.733z" fill="#3C3C6D"/><path fill-rule="evenodd" clip-rule="evenodd" d="M130.048 264.917c5.054-.878 11.645-.878 16.479.439 8.129 2.415 12.524 7.465 14.281 15.15 1.978 7.685 2.637 20.42-1.977 27.666-2.856 4.391-8.789 3.733-13.183 2.415-5.273-1.317-12.304-3.733-16.479-7.026-6.152-4.611-9.228-14.492-9.667-21.737-.22-6.148 2.856-15.59 10.546-16.907z" fill="#FFC8AF"/><path fill-rule="evenodd" clip-rule="evenodd" d="M123.676 266.233c-4.834 3.294-4.834 10.759-4.614 15.809.44 7.246 3.955 16.907 10.107 21.518 3.296 2.415 3.516 2.854 7.91 4.172.439-.22 1.318-.878 2.637-1.757 2.416-1.756 3.735-5.05 2.856-7.904-.879-2.855-1.099-6.368.659-7.246 2.637-1.537 4.394 3.733 4.394 3.733 1.538-.659 3.955-2.416 2.637-5.49-1.318-3.073 0-6.367 0-6.367 4.834 0 7.031-6.368 8.569-7.246 3.296-1.756 4.394-2.635 3.735-5.489-.439-1.976-1.098-3.952-2.636-5.489-1.758-1.537-7.251-3.733-9.668-4.392-13.183-3.293-23.51-.878-26.586 6.148z" fill="#3C3C6D"/><path fill-rule="evenodd" clip-rule="evenodd" d="M153.338 314.319c-11.865-4.392-25.707-12.296-45.042 3.073-19.336 15.37-14.062 77.947-9.229 92.219 4.834 14.272 36.693 15.37 46.361 14.272 9.667-1.098.22-17.785 3.296-28.763 3.076-10.979 28.343-72.019 4.614-80.801z" fill="#DD6F6F"/><path fill-rule="evenodd" clip-rule="evenodd" d="M159.71 316.737c5.053 3.074 18.016 41.059 18.016 41.059l4.614-29.861s10.767-5.051 16.919 1.756c-4.175 28.983-6.592 58.625-16.919 60.381-10.326 1.757-27.245-25.689-36.473-39.083-9.228-13.613-1.538-43.474 13.843-34.252z" fill="#EC827D"/><path d="M191.129 310.147l9.668-7.246 2.417-.659-1.099 1.537-10.326 7.685-.66-1.317z" fill="#3C3C6D"/><path fill-rule="evenodd" clip-rule="evenodd" d="M184.537 329.691c0-.878-3.735-10.1-2.197-13.394 1.538-3.293 3.296-5.489 3.296-5.489 1.538-5.269 5.932-4.611 9.448-1.317 3.515 3.513 8.349 11.857 1.977 18.883-6.372 5.709-12.524 1.317-12.524 1.317z" fill="#FFC8AF"/><path fill-rule="evenodd" clip-rule="evenodd" d="M61.496 338.691v.44c-3.735-.44-8.13 2.854-9.887 7.465-3.077 8.124 1.098 96.171 8.569 94.195 2.416 2.415 54.929 31.618 54.929 31.618l3.076-101.221c0 .219-37.132-32.057-56.687-32.497z" fill="#46467C"/><path fill-rule="evenodd" clip-rule="evenodd" d="M115.107 472.409c-7.47 1.976-11.865-86.071-8.569-94.195 3.296-8.124 14.501-12.077 16.479 1.317 1.977 13.394 12.084 88.047-7.91 92.878zm307.384 46.987l-16.698-1.537s-10.766 3.074-16.918 3.953c-6.372.878-10.766-.22-12.304 2.195-.22.439-.44.879-.44 1.537-.22 3.294 2.637 6.368 4.175 7.685 3.295 2.415 6.811 3.733 16.698 3.074 2.637-1.098 7.031-1.756 8.789.878 2.637 1.098 12.304 2.635 16.698 0v-2.195c2.637-2.855 0-15.59 0-15.59z" fill="#56548C"/><path fill-rule="evenodd" clip-rule="evenodd" d="M429.742 366.137c5.493 28.324-14.282 59.283-12.524 82.338 2.197 31.398 3.296 45.011 6.592 70.701 0 0-12.744 7.465-22.192-1.098-9.667-50.061-13.842-59.064-12.524-150.624l40.648-1.317z" fill="#D66565"/><path fill-rule="evenodd" clip-rule="evenodd" d="M352.182 235.494c-5.713 6.587-.879 33.594 7.031 40.181 7.91 6.588 14.501 4.172 21.312-1.537 6.812-5.928 10.767-20.419 9.228-31.178-2.197-15.15-21.532-26.129-37.571-7.466z" fill="#FFC8AF"/><path fill-rule="evenodd" clip-rule="evenodd" d="M350.204 238.348s-1.098 2.854-.439 7.685c.659 4.83 2.417 7.465 3.296 9.661.879 2.195.659 3.732 1.538 4.611.879.878.879-6.148 3.076-7.905 2.197-1.756 5.493 5.928.879 10.539-.659 4.611 5.493 12.516 7.69 13.833 2.197 1.318 11.425-.219 17.138-5.709 5.712-5.708 7.031-14.711 8.349-26.348 1.318-11.637-7.47-15.589-7.47-15.589-.22-7.465-25.048-5.489-34.057-1.537-5.492 2.635 0 10.759 0 10.759z" fill="#56548C"/><path fill-rule="evenodd" clip-rule="evenodd" d="M315.929 381.728s-1.538.439-5.274 1.976c-3.735 1.537-11.425 1.976-16.259 1.317-4.834-.878-11.645-1.976-10.327-3.732 1.319-1.757 25.927-7.905 27.026-7.466 1.098.659 4.834 7.905 4.834 7.905z" fill="#FFC8AF"/><path fill-rule="evenodd" clip-rule="evenodd" d="M390.633 534.545l-16.699-1.537s-10.766 3.074-16.918 3.952c-6.372.878-10.766-.22-12.304 2.196-.22.439-.44.878-.44 1.537-.219 3.293 2.637 6.367 4.175 7.685 3.296 2.415 6.811 3.732 16.698 3.074 2.637-1.098 7.031-1.757 8.789.878 2.637 1.098 12.304 2.635 16.699 0v-2.196c2.416-2.854 0-15.589 0-15.589z" fill="#56548C"/><path fill-rule="evenodd" clip-rule="evenodd" d="M417.218 373.164c1.758 28.983-21.972 60.601-23.29 83.875-1.978 32.057-1.978 54.673-1.978 80.802 0 0-21.312 10.1-22.191-5.49-3.076-51.159-6.592-64.553 6.811-157.87l40.648-1.317z" fill="#EC827D"/><path fill-rule="evenodd" clip-rule="evenodd" d="M361.41 280.504c11.864-5.928 31.2-22.176 47.019-.878 14.721 19.981 20.873 79.703 22.631 91.78 2.197 16.248-42.845 24.811-52.732 24.372-2.197 0-3.735-1.098-4.394-3.294-.879-2.854 1.538-5.05.879-7.685-.44-1.537-1.319-2.854-2.417-4.172-.879-1.317-1.978-2.634-2.198-4.171-.439-2.635 1.319-5.05 1.538-7.466.22-1.976-.219-3.732-.878-5.489-4.175-15.15-11.206-29.202-15.161-44.572-2.636-10.32-6.591-26.788 1.978-35.351 1.098-1.537 2.416-2.854 3.735-3.074z" fill="#3C3C6D"/><path fill-rule="evenodd" clip-rule="evenodd" d="M354.159 288.408c-9.448 30.081-10.327 45.231-19.774 57.088-.66.878-26.366 28.544-26.366 28.544s3.515 6.148 12.523 7.904c14.282-6.148 30.761-28.763 34.935-33.594 2.417-2.854 16.699-28.763 18.896-42.157 1.978-13.174-16.259-29.642-20.214-17.785zm14.941-75.53l-26.805-15.37-45.042 26.128-3.516.44v.878c0 .439.22.659.44.878l27.245 15.809c.879.439 2.197.439 3.295-.219l45.262-26.129c.659-.439.879-.878.879-1.098v-1.537l-1.758.22z" fill="#3C3C6D"/><path fill-rule="evenodd" clip-rule="evenodd" d="M369.759 213.976l-45.261 26.129c-.879.659-2.417.659-3.296.22l-27.684-16.029 48.557-28.105 27.684 16.029c1.099.219 1.099 1.098 0 1.756z" fill="#56548C"/><path fill-rule="evenodd" clip-rule="evenodd" d="M369.759 213.976l-45.261 26.129c-.879.659-2.417.659-3.296.22l-27.684-16.029 48.557-28.105 27.684 16.029c1.099.219 1.099 1.098 0 1.756z" fill="#56548C"/><path fill-rule="evenodd" clip-rule="evenodd" d="M367.342 213.536l-43.943 25.251-13.183-7.466 43.943-25.469 13.183 7.684zm-31.419-1.098l-10.546 6.148c-.659.439-1.538.439-1.978 0l-5.053-2.855c-.44-.219-.44-.878.22-1.097l10.546-6.148c.659-.44 1.538-.44 1.977 0l5.054 2.854c.439.22.439.878-.22 1.098z" fill="#3C3C6D"/><path fill-rule="evenodd" clip-rule="evenodd" d="M257.044 160.841c12.085 5.929 13.183 41.279 22.411 50.282 5.274 5.05 26.147 1.097 33.178 1.097 2.856 6.368-1.099 13.833-1.099 13.833-39.769 1.976-44.603 3.074-54.71-16.248-7.69-15.15-15.819-53.135.22-48.964zm80.197 41.278c-10.546-5.27-12.963-9.442-18.236-14.052-9.228-8.125-12.964-40.401-20.654-44.353-5.053-1.098-7.69 1.317-8.788 5.489-.22.878-.44 1.756-.44 2.854-.439 5.27.879 12.296 3.076 19.103 1.758 5.709 4.395 10.978 6.812 14.93 1.977 3.074 3.954 5.929 6.152 8.564 5.273 6.367 12.084 11.417 27.025 17.126.22-.439 7.69-3.952 5.053-9.661z" fill="#FBD15B"/><path fill-rule="evenodd" clip-rule="evenodd" d="M332.847 210.243c.22.659 2.417 2.855 4.175 5.05 1.758 2.196 4.834 5.709 5.712 4.831.879-.878-.878-4.391-.878-4.391s5.492 5.269 6.371 6.806c.879 1.757.44-3.293-.879-5.489 3.516 5.27 4.395 6.587 4.615 5.27.219-1.318-2.637-8.564-2.198-7.905 3.955 6.148 5.493 6.807 5.054 4.172-.44-2.854-4.394-7.465-6.811-8.783 7.031 4.611 7.47 3.952 5.712 1.976-1.757-1.976-8.129-7.026-16.918-8.124-5.273 4.831-3.955 6.587-3.955 6.587zm4.614 10.981c-2.197-3.513-5.493-7.465-9.668-8.563-2.856-.878-5.932-.22-8.789.659-2.197.658-5.492 1.097-7.909 1.976-1.099 2.634-1.538 5.05-1.538 7.465.439.22.879.22 1.538.439 2.417.22 4.833 1.098 7.25 1.098 1.538 0 4.175.439 5.713 0-.659.22-1.318.439-1.318 1.098 0 .439.439 1.098.879 1.098 3.515.878 6.591-3.513 8.788-5.49-.22.44 7.91 4.831 5.054.22z" fill="#FFC8AF"/><path fill-rule="evenodd" clip-rule="evenodd" d="M299.889 108.147s0 .219.22.219c1.538 2.416 1.758 5.489 1.538 8.344-.44 5.27-3.735 11.637-1.318 16.468 1.098 2.195 3.295 3.732 3.955 5.928.878 3.074-1.319 6.367-4.175 8.124-3.516 2.196-7.91 3.074-11.645 1.756-3.955-1.317-7.031-4.83-7.471-8.782-.659-4.831 2.417-9.442 5.274-13.614 1.538-2.415 3.735-5.489 3.955-8.343.219-2.635-1.319-5.05-.66-7.905.44-1.976 1.538-4.171 3.516-4.83 2.197-1.098 5.273.439 6.811 2.635z" fill="#606BF1"/><path fill-rule="evenodd" clip-rule="evenodd" d="M270.887 130.98s3.296 11.198-4.175 15.809c-.22 2.635 7.47 14.272 15.161 12.296 4.394-1.098 6.811-7.465 6.811-7.465-.44-3.952-2.637-12.515-2.637-12.515l-15.16-8.125z" fill="#FFC8AF"/><path fill-rule="evenodd" clip-rule="evenodd" d="M297.033 108.366s1.977 7.026 1.318 12.515c-.659 5.49-1.318 16.248-6.152 19.761-4.834 3.514-11.865-.658-16.479-4.391-4.614-3.952-9.448-11.198-9.667-19.761 0-8.783 3.295-19.322 15.819-18.883 12.744.659 15.161 10.759 15.161 10.759z" fill="#FFC8AF"/><path fill-rule="evenodd" clip-rule="evenodd" d="M288.244 103.094c3.296 3.953 1.758 8.783-2.417 11.857-1.977 1.317-4.174 2.196-6.152 3.733-1.977 1.317-3.515 3.732-3.076 5.928.22 2.196 2.197 4.172 1.758 6.148-.44 1.756-2.417 2.854-2.637 4.611-.439 1.756 1.099 3.293 1.978 4.83 1.318 2.635 1.538 5.929.219 8.564-2.856 6.147-10.326 5.708-15.819 3.074-5.713-2.635-9.448-9.003-7.69-15.151.879-3.293 3.076-6.148 4.174-9.222 1.319-4.171 1.099-8.563 1.319-12.735.439-8.124 6.591-17.346 15.16-18.663 5.493-.659 9.668 2.855 13.183 7.026z" fill="#606BF1"/><path fill-rule="evenodd" clip-rule="evenodd" d="M292.419 98.265c-2.637-1.757-12.524-4.83-12.524.22 0 5.049 7.47 10.099 11.425 12.515 1.758.878 3.516 1.756 5.054 3.074 1.977 1.537 2.197 4.611 3.955 5.928 2.856-2.635 1.977-9.222.879-12.515-1.319-4.392-5.054-6.807-8.789-9.222z" fill="#606BF1"/><path fill-rule="evenodd" clip-rule="evenodd" d="M369.759 213.978l-45.261 26.129 16.039-33.594c.439-1.098 1.538-2.415 2.417-2.855l42.405-24.591c.879-.439 1.099 0 .44 1.098l-16.04 33.813z" fill="#56548C"/><path fill-rule="evenodd" clip-rule="evenodd" d="M146.307 311.467v-2.635s-6.591-4.172-13.403-4.391c-6.811-.22-10.107 1.537-10.326 2.195-.22.879-.44 3.074-.44 3.074l24.169 1.757z" fill="#DD6F6F"/><path fill-rule="evenodd" clip-rule="evenodd" d="M286.926 141.957s-.659 4.611-.44 5.27c.22.878 1.758 1.756 1.758 1.756h3.076l-4.394-7.026z" fill="#606BF1"/><path fill-rule="evenodd" clip-rule="evenodd" d="M306.92 171.16c-.219-6.148-1.318-10.1-2.417-12.515 0 .658 0 1.537.22 2.195.22 8.124-1.099 19.761-2.417 29.203 1.099 1.537 1.978 2.854 3.076 4.172.879-8.124 1.758-16.688 1.538-23.055z" fill="#EABD4E"/><path fill-rule="evenodd" clip-rule="evenodd" d="M199.259 208.488c0 9.222-3.076 24.372-5.493 35.57.878 1.537 1.977 2.855 2.856 3.953 2.197-10.759 4.394-23.494 4.175-31.179 0-3.294-.66-6.148-1.538-8.344z" fill="#3C3C6D"/><path fill-rule="evenodd" clip-rule="evenodd" d="M206.07 134.711l-11.645-6.587V96.945l11.645 6.587v31.179z" fill="#EC827D"/><path fill-rule="evenodd" clip-rule="evenodd" d="M187.834 124.393l-11.426-6.587V74.551l11.426 6.806v43.036z" fill="#2B3BBD"/><path fill-rule="evenodd" clip-rule="evenodd" d="M224.087 145.253l-11.425-6.587V75.211l11.425 6.807v63.235z" fill="#FBD15B"/><path fill-rule="evenodd" clip-rule="evenodd" d="M378.548 110.777c0-2.195-1.538-4.391-4.394-5.928-5.713-3.293-14.941-3.293-20.654 0-2.856 1.757-4.174 3.733-4.174 5.928v13.175c0 2.195 1.538 4.391 4.394 5.928 5.713 3.293 14.941 3.293 20.654 0 2.856-1.757 4.174-3.733 4.174-5.928v-13.175z" fill="#3C3C6D"/><path fill-rule="evenodd" clip-rule="evenodd" d="M389.974 81.137c1.977-3.074 3.735-6.367 4.833-9.88 1.758-5.05 2.857-10.32 2.857-15.59.219-10.32-3.516-20.64-12.964-27.007-.659-.439-1.538-.878-2.417-1.317-8.788-4.172-26.585-6.368-39.988 3.074-7.471 3.074-15.161 15.59-12.524 29.642 1.538 8.563 4.834 16.906 9.668 24.372 4.614 7.246 8.569 13.832 9.887 22.396l.22.439c-.22 1.976 1.098 4.172 4.174 5.709 5.493 2.854 14.502 2.854 19.994 0 3.076-1.537 4.395-3.733 3.955-5.709 1.319-7.246 4.395-13.174 8.13-19.542 1.538-2.196 2.856-4.391 4.175-6.587z" fill="#FBD15B"/><path d="M360.092 104.412l-5.054-46.329 3.296 5.05c.44.66 1.099.66 1.758.44l4.175-2.416 3.515 7.466c.22.658.879.878 1.538.658l4.394-1.756-6.371 40.84c0 .658.439 1.317 1.098 1.537.659 0 1.318-.44 1.538-1.098l6.592-43.036c0-.439 0-.878-.44-1.098-.439-.22-.879-.439-1.318-.22l-5.273 1.977-3.735-7.465c-.22-.22-.44-.66-.66-.66h-1.098l-4.394 2.416-5.493-8.783c-.22-.439-.879-.658-1.538-.439-.66.22-.879.659-.879 1.318l5.493 51.818c0 .659.659 1.098 1.318 1.098 1.099 0 1.758-.659 1.538-1.318z" fill="#fff"/><path fill-rule="evenodd" clip-rule="evenodd" d="M560.474 231.543c-1.538 1.318-3.296 2.635-5.053 3.513-8.789 5.051-16.479 4.392-20.874-.878l20.874-27.885 5.053 25.25z" fill="#EC827D"/><path fill-rule="evenodd" clip-rule="evenodd" d="M580.248 192.021c0 13.833-8.569 30.301-19.994 39.523l-5.053-25.031v-28.764c13.842-7.904 25.047-1.537 25.047 14.272z" fill="#FBD15B"/><path fill-rule="evenodd" clip-rule="evenodd" d="M555.42 177.75v28.763l-20.873 27.666c-2.636-3.074-4.174-7.685-4.174-13.394 0-15.808 11.205-35.131 25.047-43.035z" fill="#3C3C6D"/><path fill-rule="evenodd" clip-rule="evenodd" d="M109.834 133.833c-5.493 9.442-.439 18.005 10.547 18.664 10.326.659 21.752-7.246 27.025-15.809 3.076-5.05 5.053-14.272-1.099-18.005-1.977-1.317-4.394-1.317-6.811-1.098-11.206.44-23.729 6.148-29.662 16.248zm302.551-39.739c.879 0 1.757 0 2.636.22 6.372 1.975 5.054 10.758.44 14.052-2.637 1.976-5.493 1.098-7.69-1.098-4.395-4.172-1.099-12.735 4.614-13.174z" fill="#EDEEF7"/><path d="M323.179 570.555s-17.357-12.515-18.895-31.618c-1.099-14.491 10.546-19.981 21.532-3.074 0 0-16.039-25.909-1.318-34.911 10.985-6.807 16.698 12.735 16.698 12.735s-10.986-32.496 5.054-33.375c11.425-.658 9.887 16.907 9.887 16.907s10.327-26.129 22.411-18.883l-55.369 92.219zm55.589-92s15.6 5.928-5.493 28.544c0 0 15.6-10.32 21.532-.44 5.713 9.881-29.003 20.859-29.003 20.859s18.676-4.83 20.654 7.905c1.977 12.515-35.375 16.028-35.375 16.028s15.161.22 16.919 9.003c1.757 8.782-31.64 17.785-44.383 10.1l55.149-91.999z" fill="#878CF0"/><path d="M344.492 562.211c-2.637.22-5.273 0-7.91-.22-1.977-.219-3.955-.439-5.932-.878l13.183-22.835c2.636.439 5.493.878 8.349.878 3.076.22 6.152 0 9.228-.219 3.076-.22 6.152-.879 9.008-1.537 2.857-.659 5.933-1.537 8.789-2.855-2.856 1.098-5.713 1.757-8.789 2.416-3.076.658-5.932 1.097-9.008 1.097-3.076.22-6.152.22-9.008 0-2.637-.219-5.054-.658-7.69-1.097l10.326-17.785c2.857-.22 5.933-.44 8.789-1.098 1.538-.22 3.076-.659 4.394-1.098 1.538-.439 2.857-.878 4.395-1.318 2.856-1.097 5.712-2.195 8.349-3.513a73.654 73.654 0 007.91-4.611c-2.637 1.757-5.274 3.074-7.91 4.392-2.856 1.317-5.493 2.415-8.569 3.293-1.538.439-2.856.879-4.394 1.098-1.539.22-2.857.659-4.395.878-2.636.44-5.273.659-7.69.659l19.775-34.253-21.093 33.594c-1.099-2.195-2.197-4.611-3.076-7.026-1.099-2.854-1.978-5.489-2.637-8.343-.659-2.855-1.318-5.709-1.758-8.564-.439-2.854-.878-5.928-1.098-8.782 0 2.854.22 5.928.659 8.782.439 2.855.879 5.929 1.538 8.783.659 2.855 1.538 5.709 2.417 8.563a60.27 60.27 0 003.296 7.905l-10.986 17.565c-1.758-1.756-3.516-3.732-4.834-5.708-1.538-2.416-3.076-5.051-4.394-7.685-1.319-2.635-2.417-5.49-3.296-8.344-.879-2.854-1.758-5.709-2.197-8.563.439 2.854 1.098 5.928 1.977 8.783.879 2.854 1.758 5.708 2.856 8.343 1.099 2.635 2.637 5.489 4.175 7.905 1.538 2.195 3.076 4.391 5.054 6.367l-13.843 22.177c-1.538-1.757-2.856-3.514-4.174-5.49-1.758-2.415-3.296-4.83-4.614-7.465-1.538-2.635-2.857-5.05-3.955-7.685-1.318-2.635-2.417-5.27-3.296-8.124.879 2.854 1.978 5.489 3.076 8.344 1.099 2.635 2.417 5.269 3.735 7.904 1.319 2.635 2.857 5.05 4.395 7.685 1.318 2.196 2.856 4.172 4.394 6.148l-16.259 25.909 3.515 1.976 15.381-26.568c2.197.44 4.394.659 6.591.659 2.637 0 5.273 0 7.91-.219 2.637-.22 5.273-.659 7.91-1.098 2.636-.439 5.273-1.098 7.69-1.757a51.336 51.336 0 01-7.69 1.318c-3.296.878-5.933 1.097-8.569 1.317z" fill="#56548C"/><path d="M183.439 573.19s-14.94 5.709-27.684-1.318c-9.668-5.269-8.13-14.93 7.031-14.711 0 0-22.851-.658-22.411-13.613.219-9.661 14.94-5.27 14.94-5.27s-25.047-6.587-18.895-16.906c4.394-7.466 14.721.878 14.721.878s-12.304-17.346-2.637-21.957l34.935 72.897z" fill="#878CF0"/><path d="M148.504 500.292s10.107-7.465 15.6 15.37c0 0 0-14.053 8.569-13.614 8.569.44 1.099 27.007 1.099 27.007s4.834-13.613 13.403-9.661c8.788 3.953-4.614 28.983-4.614 28.983s6.371-9.222 12.743-6.806c6.152 2.415-1.758 27.226-12.084 32.057l-34.716-73.336z" fill="#878CF0"/><path d="M186.955 556.283c-1.099 1.757-2.197 3.294-3.296 4.831-.879 1.097-1.977 2.415-3.076 3.513l-8.789-17.785c1.319-1.537 2.857-3.074 3.955-4.831 1.319-1.756 2.637-3.733 3.516-5.928 1.098-1.976 1.977-4.172 2.856-6.368.879-2.195 1.538-4.391 1.758-6.587-.44 2.196-1.318 4.392-1.978 6.587-.878 2.196-1.757 4.172-3.076 6.148-1.098 1.976-2.416 3.952-3.735 5.709a35.777 35.777 0 01-3.735 4.391l-6.811-13.833c1.098-1.976 2.197-3.952 2.856-5.928.44-1.098.879-2.196 1.099-3.293.219-1.098.659-2.196.879-3.294a33.973 33.973 0 001.318-6.807c.22-2.195.439-4.61.439-6.806a35.66 35.66 0 01-.659 6.806c-.439 2.196-.879 4.392-1.538 6.587-.22 1.098-.659 2.196-1.098 3.294-.44 1.098-.879 2.196-1.319 3.074-.879 1.757-1.757 3.513-2.856 5.27l-13.183-26.568 12.524 27.007c-1.978-.22-3.735-.439-5.713-.878-2.197-.44-4.394-1.098-6.372-1.757-2.197-.659-4.174-1.537-6.152-2.415-1.977-.879-3.955-1.976-5.932-3.074 1.977 1.098 3.735 2.195 5.932 3.293 1.978.879 3.955 1.976 6.152 2.635 1.978.878 4.175 1.537 6.372 1.976 1.978.659 4.175.878 6.372 1.098l6.591 14.052c-1.757.44-3.735.659-5.712.659-2.197 0-4.395-.219-6.592-.439l-6.591-1.317c-2.197-.659-4.175-1.318-6.372-2.196 1.977.878 4.175 1.756 6.152 2.415 2.197.659 4.394 1.318 6.592 1.537 2.197.439 4.394.659 6.591.659 1.978 0 3.955-.22 6.152-.659l8.13 18.005c-1.758.219-3.516.439-5.273.439-2.198 0-4.395 0-6.592-.22l-6.592-.658c-2.197-.22-4.394-.659-6.371-1.318 2.197.659 4.174 1.098 6.371 1.537 2.198.439 4.395.659 6.592.878 2.197.22 4.394.44 6.592.44 1.977 0 3.735 0 5.712-.22l9.668 20.859 2.636-1.317-10.326-20.64c1.098-1.317 2.197-2.415 3.076-3.952 1.098-1.537 2.197-3.294 3.076-5.05l2.636-5.27c.879-1.756 1.538-3.732 2.197-5.489-.659 1.976-1.538 3.733-2.416 5.489-.66 2.416-1.758 4.172-2.637 5.709z" fill="#56548C"/><path d="M583.105 433.325s-16.039-1.536-24.388-13.393c-6.372-9.002-.66-16.907 12.743-10.32 0 0-20.214-10.539-14.282-22.176 4.395-8.564 15.6 1.976 15.6 1.976s-19.554-16.687-9.667-23.494c7.031-4.831 12.963 7.246 12.963 7.246s-3.296-20.859 7.251-20.859l-.22 81.02z" fill="#878CF0"/><path d="M583.764 352.303s12.304-2.195 7.471 20.64c0 0 6.152-12.516 13.622-8.564 7.47 4.172-10.766 24.592-10.766 24.592s10.327-10.32 16.479-2.854c6.152 7.465-16.919 23.933-16.919 23.933s9.888-5.489 14.282-.659c4.614 5.05-13.622 23.713-24.828 23.494l.659-80.582z" fill="#878CF0"/><path d="M593.651 419.709a58.479 58.479 0 01-5.053 2.854c-1.318.659-2.856 1.318-4.175 1.757l-.219-19.761c1.977-.659 3.954-1.537 5.712-2.635 1.978-1.098 3.955-2.415 5.713-3.733 1.758-1.317 3.515-2.854 5.273-4.391 1.538-1.537 3.296-3.294 4.614-5.05a25.16 25.16 0 01-4.834 4.83c-1.757 1.537-3.515 2.855-5.273 4.172-1.977 1.318-3.735 2.415-5.932 3.513-1.758.879-3.516 1.537-5.273 2.196l-.22-15.37 5.273-3.952a12.594 12.594 0 002.417-2.415c.879-.879 1.538-1.757 2.197-2.635 1.538-1.757 2.856-3.513 4.175-5.489 1.318-1.976 2.417-3.953 3.296-5.929-1.099 1.976-2.198 3.953-3.516 5.929-1.318 1.976-2.637 3.732-4.175 5.269-.659.879-1.538 1.537-2.416 2.416-.879.658-1.758 1.536-2.637 2.195-1.538 1.318-3.076 2.415-4.834 3.513l-.22-29.641-.659 29.861c-1.538-1.098-3.295-1.976-4.614-3.294-1.758-1.317-3.296-2.854-4.834-4.391-1.538-1.537-3.076-3.294-4.394-4.831-1.318-1.756-2.856-3.513-3.955-5.269 1.099 1.976 2.417 3.732 3.735 5.489a48.308 48.308 0 004.395 5.05c1.538 1.537 3.076 3.074 4.834 4.611a42.928 42.928 0 005.053 3.733l-.439 15.589c-1.758-.439-3.736-1.098-5.274-1.756-1.977-.879-3.955-1.977-5.712-3.294-1.758-1.317-3.516-2.635-5.274-4.172-1.757-1.537-3.295-3.074-4.833-4.611 1.318 1.757 2.856 3.294 4.614 4.831a48.29 48.29 0 005.053 4.391c1.758 1.318 3.735 2.415 5.713 3.513 1.758.879 3.735 1.537 5.713 2.196l-.44 19.761c-1.538-.659-3.296-1.098-4.834-1.976-1.977-.878-3.955-1.976-5.932-3.074-1.977-1.098-3.735-2.196-5.493-3.513l-5.273-3.952c1.538 1.537 3.296 2.854 5.053 4.171 1.758 1.318 3.516 2.635 5.493 3.733 1.758 1.098 3.735 2.196 5.713 3.294a50.267 50.267 0 005.053 2.195l-.439 23.055h3.076l-.22-23.055c1.538-.658 3.076-1.317 4.614-2.195 1.758-.879 3.516-1.976 5.054-3.294 1.538-1.098 3.296-2.415 4.614-3.733 1.538-1.317 3.076-2.634 4.394-4.171-1.318 1.317-2.856 2.634-4.394 3.952-1.758 1.098-3.516 2.415-5.054 3.513z" fill="#56548C"/><path d="M572.558 463.188s-10.766 7.245-22.191 3.952c-8.569-2.415-9.228-10.32 2.856-12.955 0 0-18.236 3.733-20.433-6.806-1.538-7.685 10.766-6.807 10.766-6.807s-21.093-.659-18.017-9.881c1.977-6.587 11.865-1.976 11.865-1.976s-12.744-11.417-5.933-16.906l41.087 51.379z" fill="#878CF0"/><path d="M531.471 411.588s6.592-7.685 15.161 9.222c0 0-2.417-11.198 4.394-12.516 6.811-1.317 5.713 21.079 5.713 21.079s1.318-11.637 9.008-10.1c7.69 1.537 1.538 23.713 1.538 23.713s3.296-8.563 8.789-7.685c5.493.878 3.515 21.957-3.735 27.666l-40.868-51.379z" fill="#878CF0"/><path d="M572.338 449.134c-.439 1.537-1.098 3.074-1.757 4.391-.44 1.098-1.099 2.196-1.758 3.294l-10.327-12.516c.879-1.537 1.538-3.074 2.197-4.611.66-1.756 1.319-3.513 1.758-5.269.44-1.757.879-3.733 1.099-5.49.22-1.756.439-3.732.22-5.489 0 1.757-.22 3.733-.44 5.489-.22 1.757-.659 3.733-1.318 5.49a25.756 25.756 0 01-1.978 5.269c-.659 1.537-1.318 2.855-2.197 4.172l-7.91-9.661c.44-1.757 1.099-3.513 1.319-5.27.219-.878.219-1.756.439-2.854 0-.878.22-1.757.22-2.854 0-1.757 0-3.733-.22-5.49-.22-1.756-.439-3.732-.879-5.489.44 1.757.659 3.733.659 5.489.22 1.757.22 3.733 0 5.49 0 .878-.219 1.756-.219 2.854-.22.878-.22 1.756-.44 2.635a18.235 18.235 0 01-1.318 4.611l-15.38-18.664 14.721 19.322c-1.538.22-3.076.44-4.614.44-1.758 0-3.516 0-5.493-.22-1.758-.22-3.516-.439-5.274-.878l-5.273-1.318c1.758.659 3.516 1.098 5.273 1.537 1.758.439 3.516.659 5.274 1.098 1.757.22 3.515.439 5.493.439 1.757 0 3.515 0 5.273-.219l7.69 10.1c-1.318.659-2.856 1.098-4.394 1.537-1.758.439-3.516.659-5.274.878-1.757.22-3.515.22-5.492 0-1.758 0-3.516-.22-5.493-.439a22.15 22.15 0 005.493.659c1.757.219 3.735.219 5.492.219 1.758 0 3.736-.219 5.493-.658 1.538-.44 3.076-.879 4.614-1.537l9.888 12.735-3.955 1.317c-1.758.439-3.516.878-5.273 1.098l-5.274.658c-1.757.22-3.515.22-5.273.22h5.273c1.758 0 3.516-.22 5.274-.439 1.757-.22 3.515-.439 5.273-.878 1.538-.22 2.856-.659 4.394-1.318l11.425 14.931 1.978-1.537-11.865-14.492c.659-1.097 1.318-2.415 1.758-3.732.659-1.537 1.099-3.074 1.538-4.611.439-1.537.879-3.074 1.099-4.831.219-1.537.439-3.293.659-4.83-.22 1.537-.44 3.293-.879 4.83-.44 1.318-.879 2.855-1.319 4.392z" fill="#56548C"/><path d="M239.027 467.359c1.758 3.953 6.812 6.587 13.843 8.783 1.318 5.27 3.515 10.32 3.954 15.59.44-1.757.66-3.733.66-5.49 0-3.074-.44-6.148-.879-9.002 3.076.878 6.372 1.537 9.887 2.415 2.197 5.709 2.856 12.077 2.637 18.224 0 4.611-.66 9.003-1.319 13.394a68.788 68.788 0 003.076-5.489c.879-1.976 1.758-3.952 2.417-5.928.44-1.977.659-4.172.659-6.148 0-4.172-.439-8.564-1.098-12.735 3.735.878 7.69 1.756 11.645 2.634.22 1.098.439 1.977.659 3.074 1.758 10.32.659 20.859-2.856 30.52.439-.439.659-.878.879-1.317 1.757-2.415 3.295-4.83 4.833-7.465.879-1.757 1.758-3.513 2.197-5.49 1.538-5.708.44-11.637-.219-17.785 4.394 1.318 8.569 2.855 12.304 4.611 0 3.733-.22 7.466-.44 11.198-.219 1.757-.219 3.294-.659 5.05-.439 2.196-1.318 4.172-1.977 6.148-3.076 8.124-6.811 16.248-12.085 23.055 1.319-.878 2.417-2.196 3.736-3.293 10.326-10.32 16.259-24.592 17.357-39.303 3.296 1.976 6.372 4.391 8.789 7.246 1.538 1.756 2.856 3.513 4.175 5.269 0 4.172-.44 8.563-1.099 12.735-.659 3.294-1.318 6.587-2.856 9.442-.879 1.756-2.197 3.293-3.296 4.83-6.152 7.685-13.842 14.053-21.752 19.981 12.304-3.952 23.729-11.857 30.76-22.616 1.978-3.074 3.736-6.367 5.493-9.441 3.735 12.735 1.758 25.909-8.129 36.009-15.38 15.809-37.132 10.1-37.132 10.1l-44.164-98.806z" fill="#B1B2F3"/><path d="M282.751 566.383s-14.281 23.055-37.791 22.396c-12.085-.219-22.192-9.002-28.563-19.541a48.142 48.142 0 007.25 2.635c7.471 2.195 15.38 1.537 22.851-.659 5.273-1.537 10.327-3.733 15.16-6.368-5.273.659-10.766.879-16.259.879-2.856 0-5.712.219-8.569-.439-2.636-.44-5.053-1.537-7.47-2.416-2.856-1.098-5.713-2.195-8.349-3.732-5.054-2.855-9.228-6.807-12.744-11.418-.439-2.635-.439-5.05 0-7.246.44-3.074 1.099-5.928 1.758-9.002 1.758 1.537 3.296 3.294 5.053 4.831a62.751 62.751 0 005.713 5.05c2.197 1.537 4.394 2.854 6.811 3.732 7.471 3.294 15.6 4.831 23.73 4.611-3.736-.878-7.471-2.195-10.986-3.732-3.076-1.318-5.933-3.074-9.009-4.831-2.636-1.537-5.273-3.074-7.909-4.83-4.395-3.074-8.13-6.588-11.645-10.54 1.318-3.732 2.856-7.246 4.394-10.759 2.197 3.074 4.614 5.709 7.251 8.124 5.053 4.611 11.205 7.905 18.016 8.344 1.099.22 2.198.22 3.516.22-6.152-2.416-11.865-5.709-17.138-9.881a16.9 16.9 0 01-3.955-3.952c-2.197-2.416-3.735-5.27-5.053-8.344 1.757-3.293 3.515-6.587 5.492-9.661 2.637 4.611 6.153 8.563 10.327 11.637 3.296 2.416 6.811 4.172 10.766 5.27-3.076-1.976-5.712-4.611-7.91-7.465-3.954-5.051-6.591-10.979-8.569-16.907l3.955-6.587c2.198 3.952 5.274 7.245 8.569 10.1-3.076-4.172-5.273-8.563-6.811-13.613 3.735-6.807 5.713-12.077 4.175-15.59l43.943 99.684z" fill="#B1B2F3"/><path d="M305.163 553.428c-1.978 1.097-3.955 1.976-5.933 2.854-1.977.659-4.174 1.537-6.372 1.976-3.954.878-8.129 1.318-12.304 1.098l-4.174-9.002c4.614-1.757 9.008-3.953 12.963-6.587 1.099-.659 2.197-1.537 3.296-2.196 1.098-.878 1.977-1.537 3.076-2.415a64.823 64.823 0 005.493-5.49c3.515-3.952 6.152-8.343 8.349-12.954 2.197-4.831 3.735-9.661 4.175-14.931-.66 5.05-2.198 10.1-4.395 14.711-2.197 4.611-5.053 9.003-8.569 12.735-1.757 1.976-3.515 3.733-5.493 5.27-.879.878-1.977 1.537-3.076 2.415-1.098.659-2.197 1.537-3.295 2.196-4.175 2.635-8.569 4.611-12.964 6.367l-5.053-11.198 4.614-3.513c1.538-1.317 3.296-2.854 4.834-4.171l2.197-2.196c.439-.439.879-.659 1.098-1.098l1.099-1.317c.659-.879 1.318-1.537 2.197-2.416l1.978-2.634c2.416-3.514 4.394-7.466 5.712-11.418 1.319-4.172 2.197-8.344 1.538-12.735.22 4.391-.659 8.563-1.977 12.515a54.658 54.658 0 01-5.933 11.198l-1.977 2.635c-.659.878-1.318 1.537-2.197 2.415l-1.099 1.098c-.439.439-.879.659-1.098 1.098l-2.417 2.196c-1.538 1.317-3.296 2.635-5.054 3.952l-4.614 3.074-3.955-8.563 3.296-3.952 1.538-2.196c.22-.439.659-.659.879-1.098l.659-1.098 1.538-2.415 1.318-2.415.66-1.318.439-1.317c.22-.878.659-1.757.879-2.635 1.318-3.513 1.977-7.026 2.197-10.759.22-3.732.22-7.246-.659-10.759.659 3.513.659 7.246.22 10.759-.44 3.513-1.319 7.026-2.637 10.54-.22.878-.659 1.756-1.099 2.415l-.439 1.317c-.22.439-.44.878-.659 1.098l-1.319 2.415-1.538 2.196-.659 1.098c-.219.439-.439.659-.879 1.098l-1.757 2.195c-.879 1.098-1.978 2.196-3.076 3.294l-6.152-13.394h.219a44.451 44.451 0 001.978-7.246c.439-2.415.879-4.83.879-7.465.439-4.83.439-9.881 0-14.711.219 4.83 0 9.881-.66 14.711a41.845 41.845 0 01-1.318 7.246c-.439 1.976-1.098 3.952-1.758 5.709l-13.183-28.983 12.744 29.641c-2.417-.219-4.834-.878-7.251-1.756-2.636-1.098-5.053-2.415-7.25-4.172-2.198-1.757-4.175-3.733-6.152-5.709-1.758-2.196-3.516-4.391-5.054-6.806 1.318 2.415 3.076 4.83 4.834 7.026 1.758 2.195 3.735 4.172 5.932 6.148a40.743 40.743 0 007.251 4.611c2.636 1.317 5.493 1.976 8.349 2.195l5.713 13.394c-1.538.22-3.296.22-4.834.22-1.977 0-3.735-.22-5.713-.659-3.735-.659-7.47-1.976-10.766-3.513-3.515-1.537-6.811-3.513-10.107-5.489-3.076-2.196-6.152-4.392-9.008-7.027 2.636 2.635 5.712 5.05 8.788 7.466a73.671 73.671 0 009.888 5.928c3.515 1.757 7.25 3.074 10.986 3.733 1.977.439 3.955.658 5.712.878 1.758 0 3.516 0 5.493-.22l3.735 8.783c-4.174 1.537-8.569 2.635-12.963 2.635-4.614.22-9.448-.439-14.062-1.757a68.863 68.863 0 01-13.183-5.269 69.777 69.777 0 01-11.865-7.905 74.612 74.612 0 0011.645 8.344c4.175 2.415 8.569 4.391 13.183 5.709 4.615 1.317 9.448 2.195 14.282 2.195 4.614 0 9.228-.878 13.403-2.415l4.834 11.418c-4.395 2.415-9.228 4.611-14.282 5.928a49.464 49.464 0 01-7.91 1.317c-2.636.22-5.493.22-8.129 0-5.493-.439-10.767-1.756-15.82-3.732-2.417-1.098-5.054-2.196-7.251-3.733-2.417-1.317-4.614-3.074-6.591-4.83 1.977 1.756 4.174 3.513 6.591 5.05a59.023 59.023 0 007.251 3.952c5.053 2.196 10.327 3.733 15.82 4.172 2.636.219 5.493.219 8.349 0a48.326 48.326 0 008.129-1.318c5.054-1.317 9.888-3.074 14.502-5.489l3.955 9.002a52.631 52.631 0 01-9.888 9.881c-.878.878-1.977 1.537-3.076 2.196-1.098.658-1.977 1.317-3.076 1.976-2.197 1.317-4.394 2.196-6.811 3.074-4.614 1.756-9.667 2.415-14.501 2.635-5.054 0-9.888-.659-14.721-2.196 4.614 1.756 9.667 2.415 14.721 2.635 5.053 0 10.107-.659 14.721-2.196a94.188 94.188 0 007.031-2.854c1.098-.439 2.197-1.318 3.296-1.757 1.098-.659 2.197-1.317 3.076-2.196a49.274 49.274 0 009.887-9.221l11.205 26.348 2.637-1.098-11.865-25.909c3.955 0 7.91-.439 11.865-1.537 2.197-.659 4.394-1.318 6.372-2.196 1.977-.878 4.174-1.756 5.932-3.074 3.955-2.195 7.471-5.05 10.547-8.124 3.295-3.074 6.152-6.367 8.569-10.32-2.417 3.733-5.493 7.027-8.789 9.881-2.417 1.976-6.152 4.611-9.887 6.807z" fill="#56548C"/><path d="M519.607 443.424c.659 2.195.219 4.83.219 7.245 0 2.635-.219 5.05.879 7.466.879 2.195 4.614 1.537 5.054-.659.659-2.854-.44-5.489-1.538-7.905-.44-1.097-1.099-2.195-1.758-3.074-.659-1.097-1.538-1.976-2.197-3.073-.22-.659-.879-.44-.659 0zm-14.062 11.416c2.197 1.317 2.856 3.952 3.955 6.148 1.098 2.196 2.636 5.489 5.493 5.928 2.197.22 3.735-1.756 2.636-3.732-.659-1.318-1.758-1.976-2.856-2.855l-2.857-2.854c-.878-.878-1.977-1.537-3.076-2.196-.878-.659-1.977-1.098-3.076-1.537-.439 0-.659.878-.219 1.098zm34.056-9.66c-1.099.22-1.758.659-2.637 1.537-.879.879-1.538 1.976-2.197 2.855-.659.878-1.538 1.976-2.417 3.074-.879 1.317-2.637 2.634-2.856 4.171-.44 1.977 1.098 4.172 3.295 3.514 2.857-.879 5.054-4.831 5.713-7.685.22-1.098.22-2.196.439-3.294.22-.878.22-2.635 1.099-3.293.439-.44 0-1.098-.439-.879zm-39.989 28.765c.879.659 2.197.878 3.076 1.098 1.319.439 2.637.878 3.955 1.098 3.076.439 6.592-.439 9.228-1.757 1.758-.878 1.538-4.172-.659-4.611-3.076-.439-5.712 1.318-8.788 1.537-1.319 0-2.637.22-3.955.439-1.099.22-2.637.44-3.296 1.537.22 0 .22.44.439.659zm46.361-5.491c-1.099 0-2.417-.878-3.516-1.317-1.318-.659-2.417-1.318-3.735-1.757-1.538-.659-2.417-1.098-3.955-1.756-1.758-.659-3.955-.44-4.394 1.756-.659 3.733 5.053 5.05 7.69 5.05 1.538 0 2.856-.219 4.394-.439 1.099-.219 2.197-.659 3.296-1.098.439-.219.439-.439.22-.439zm-7.032 12.735c-.439-1.537-1.757-3.074-2.636-4.611-.879-1.756-1.758-3.952-3.076-5.269-1.758-1.757-5.273 0-4.394 2.634.878 2.416 2.856 3.953 4.833 5.27 1.319 1.098 3.296 2.415 5.273 2.415v-.439zm-24.168 5.71c.439-.658 1.098-1.097 1.757-1.756.879-.878 1.538-1.757 2.417-2.635 1.538-1.756 4.175-4.172 3.736-6.587-.44-1.537-2.417-2.415-3.736-1.537-1.098.659-1.757 1.976-2.417 3.074l-1.977 3.294c-.879 1.756-1.977 3.952-.879 5.928.44.439.879.439 1.099.219z" fill="#B1B2F3"/><path d="M542.896 468.674c-3.515 0-6.591-1.757-9.887-2.635-2.417-.659-5.273-.439-7.69.22.22-.659.659-1.098 1.098-1.537 1.538-1.537 2.857-3.294 3.955-5.05l3.955-5.929c.659-1.098 1.319-1.976 1.758-3.074.439-.878.659-1.976 1.538-2.635 0 0 0-.219-.22-.219-.659.439-.879 1.317-1.318 1.976-.659 1.317-1.318 2.415-2.197 3.513-1.538 2.196-3.076 4.611-4.614 6.807-.659 1.098-1.538 1.976-2.417 3.074-.659.878-1.538 1.537-2.197 2.415 0 .219-.22.22-.22.439 0-.439 0-.878-.22-1.317-.219-1.757-.659-3.733-.879-5.49-.219-1.756-.439-3.732-.878-5.489-.44-2.195-1.319-4.391-1.978-6.587 0-.219-.22 0-.22 0 .66 1.976 1.319 3.952 1.758 5.929.44 1.976.44 3.732.659 5.708.22 1.757.659 3.733.879 5.49.22.878.22 1.976.22 2.854-2.856-.878-5.932-.878-8.349-2.635-2.637-1.537-4.614-4.172-6.152-6.807 0 0-.22 0 0 0 1.538 2.635 3.295 5.051 5.712 6.807 2.417 1.757 5.493 2.415 8.349 3.074-2.636 1.757-5.712 2.635-8.788 3.513-3.296.878-6.811 1.976-10.107 2.415-.22 0 0 .22 0 .22 3.515-.439 7.031-1.537 10.546-2.415 3.076-.659 5.933-1.537 8.569-3.074-.22.658-.22 1.317-.439 1.976-.659 1.537-1.538 2.854-2.197 4.172-1.758 2.854-3.516 5.708-5.274 8.782 1.758-2.854 3.955-5.489 5.493-8.343.879-1.318 1.538-2.635 2.197-3.952.22-.44.44-1.098.66-1.537v1.097c.219 2.635.878 5.27 1.318 7.905.659 4.172 1.098 8.344 1.538 12.296.659 4.172.879 8.563 1.098 12.954.22 4.172.22 8.344 1.319 12.296.439 1.757 3.076 1.098 2.636-.659-.878-4.171-1.318-8.124-1.538-12.295-.439-4.172-1.098-7.905-1.757-12.077-.66-3.952-1.319-7.904-2.198-11.856-.659-3.074-1.538-6.148-1.757-9.222l.219-.22v-.439c1.538 1.976 4.175 3.074 5.713 4.831 1.099 1.097 1.978 1.976 2.856 3.293.879 1.098 1.538 1.976 2.637 2.854.22 0 .22-.219.22-.219-1.319-.878-2.197-2.196-3.076-3.294-.659-.878-1.538-1.756-2.417-2.634-1.978-1.977-4.395-3.294-5.933-5.709v-.659c2.857-1.098 6.153-1.098 9.009-.22 3.296.22 5.932 1.537 9.008 1.318.22 0 .22 0 0 0z" fill="#56548C"/><path d="M65.848 234.033c0-1.75-3.282-3.282-8.095-3.938-.438-4.813-1.97-8.095-3.72-8.095-1.75 0-3.282 3.282-3.938 8.095-4.813.438-8.095 1.969-8.095 3.719 0 1.751 3.282 3.282 8.095 3.939.438 4.813 1.97 8.095 3.72 8.095 1.75 0 3.281-3.282 3.938-8.095 4.594-.657 8.095-1.969 8.095-3.72zm581 33c0-1.75-3.282-3.282-8.095-3.938-.438-4.813-1.969-8.095-3.72-8.095-1.75 0-3.282 3.282-3.938 8.095-4.813.438-8.095 1.969-8.095 3.719 0 1.751 3.282 3.282 8.095 3.939.438 4.813 1.969 8.095 3.719 8.095 1.751 0 3.282-3.282 3.939-8.095 4.594-.657 8.095-1.969 8.095-3.72z" fill="#FFE48F"/><path d="M305.848 12.033c0-1.75-3.282-3.282-8.095-3.938-.438-4.813-1.969-8.095-3.72-8.095-1.75 0-3.282 3.282-3.938 8.095-4.813.438-8.095 1.97-8.095 3.72 0 1.75 3.282 3.281 8.095 3.938.438 4.813 1.969 8.095 3.719 8.095 1.751 0 3.282-3.282 3.939-8.095 4.594-.657 8.095-1.97 8.095-3.72zm152 546c0-1.75-3.282-3.282-8.095-3.938-.438-4.813-1.969-8.095-3.72-8.095-1.75 0-3.282 3.282-3.938 8.095-4.813.438-8.095 1.969-8.095 3.719 0 1.751 3.282 3.282 8.095 3.939.438 4.813 1.969 8.095 3.719 8.095 1.751 0 3.282-3.282 3.939-8.095 4.594-.657 8.095-1.969 8.095-3.72z" fill="#405CE1" fill-opacity=".5"/><path fill="#E02287" fill-opacity=".6" d="M105 552.109l5.109-5.109 5.109 5.109-5.11 5.109zM418 16.11l5.109-5.11 5.108 5.11-5.108 5.108z"/><circle cx="630" cy="424" r="16" stroke="#E02287" stroke-opacity=".6" stroke-width="4"/><circle cx="18" cy="297" r="16" stroke="#405CE1" stroke-opacity=".3" stroke-width="4"/></svg>