<svg width="643" height="618" fill="none" xmlns="http://www.w3.org/2000/svg"><rect x="531.561" y="103" width="124.217" height="121.529" rx="20" transform="rotate(26.677 531.561 103)" fill="url(#paint0_linear)" fill-opacity=".04"/><path d="M220.848 97.033c0-1.75-3.282-3.282-8.095-3.938-.438-4.813-1.969-8.095-3.72-8.095-1.75 0-3.282 3.282-3.938 8.095-4.813.438-8.095 1.97-8.095 3.72 0 1.75 3.282 3.281 8.095 3.938.438 4.813 1.969 8.095 3.719 8.095 1.751 0 3.282-3.282 3.939-8.095 4.594-.657 8.095-1.97 8.095-3.72zm-71 509c0-1.75-3.282-3.282-8.095-3.938-.438-4.813-1.969-8.095-3.72-8.095-1.75 0-3.282 3.282-3.938 8.095-4.813.438-8.095 1.969-8.095 3.719 0 1.751 3.282 3.282 8.095 3.939.438 4.813 1.969 8.095 3.719 8.095 1.751 0 3.282-3.282 3.939-8.095 4.594-.657 8.095-1.969 8.095-3.72z" fill="#FFE48F"/><path d="M633.848 373.033c0-1.75-3.282-3.282-8.095-3.938-.438-4.813-1.969-8.095-3.72-8.095-1.75 0-3.282 3.282-3.938 8.095-4.813.438-8.095 1.969-8.095 3.719 0 1.751 3.282 3.282 8.095 3.939.438 4.813 1.969 8.095 3.719 8.095 1.751 0 3.282-3.282 3.939-8.095 4.594-.657 8.095-1.969 8.095-3.72zm-610-101c0-1.75-3.282-3.282-8.095-3.938-.438-4.813-1.97-8.095-3.72-8.095-1.75 0-3.282 3.282-3.938 8.095-4.813.438-8.095 1.969-8.095 3.719 0 1.751 3.282 3.282 8.095 3.939.438 4.813 1.97 8.095 3.72 8.095 1.75 0 3.281-3.282 3.938-8.095 4.594-.657 8.095-1.969 8.095-3.72z" fill="#405CE1" fill-opacity=".5"/><path fill="#E02287" fill-opacity=".6" d="M316 24.11l5.109-5.11 5.108 5.11-5.108 5.108z"/><circle cx="53" cy="556" r="16" stroke="#E02287" stroke-opacity=".6" stroke-width="4"/><circle cx="520" cy="259" r="16" stroke="#405CE1" stroke-opacity=".3" stroke-width="4"/><path fill-rule="evenodd" clip-rule="evenodd" d="M571.12 458.269c14.837-27.037 20.543-58.817 18.032-89.648-1.369-16.128-5.021-32.492-11.184-47.196-5.935-13.993-13.924-27.037-13.24-42.927.685-15.653 9.587-31.305 4.794-46.01-8.902-27.273-48.848-27.985-70.076-38.657-30.359-14.942-37.435-45.062-53.413-72.573-15.979-27.51-40.175-50.278-69.164-61.188-28.989-10.91-62.772-9.486-89.706 6.166-13.24 7.827-21.685 17.313-28.305 31.306-5.022 10.672-10.043 22.056-19.402 28.46-11.641 8.3-26.25 5.692-39.489 6.877-30.131 2.609-60.261 13.756-82.859 34.864-10.957 10.198-19.63 22.767-25.566 36.76-5.706 13.756-8.673 29.408-17.347 41.978-8.446 11.858-21.685 19.21-29.674 31.543-10.272 16.127-1.598 33.677-3.88 51.227-3.653 27.986-25.794 66.881-6.62 93.443 7.76 10.673 18.945 9.724 30.587 9.487 15.293 0 31.728-1.186 46.337-6.167 12.554-4.269 24.88-9.486 38.119-9.96 9.816-.475 19.631-1.186 29.446-1.423 6.391 0 12.783 1.897 19.174 2.371 13.239 1.423 26.707 2.846 39.946 4.269 29.674 3.32 59.12 6.404 88.794 9.724a407213.2 407213.2 0 00169.369 18.499c18.261 1.897 36.522 4.031 54.783 5.929 1.598.711 19.859 4.032 20.544 2.846z" fill="#EDEEF7" fill-opacity=".5"/><path fill-rule="evenodd" clip-rule="evenodd" d="M116.367 545.891c16.676 7.12 34.037 13.291 50.028 22.31 20.102 11.393 36.778 26.108 59.621 32.279 15.306 4.035 31.753 4.035 47.515 6.171 17.133 2.373 34.494 5.459 51.855 6.646 1.142 0 2.056.237 3.198.237 5.483.237 10.737.475 16.219.712h9.823c66.703.237 137.061-12.579 191.657-54.589 7.996-6.171 15.991-13.291 20.331-22.548 3.655-7.832 4.569-16.851 6.396-25.633 2.056-9.969 5.94-18.75 13.478-25.396 10.28-8.782 15.077-13.291 9.594-27.769-16.904-45.57-49.113-84.257-87.262-112.739-53.226-39.636-118.33-62.184-182.52-73.339-35.865-6.171-72.186-8.544-108.507-6.646a480.823 480.823 0 00-26.042 2.137c-8.224.949-16.447 3.085-24.671 2.848-20.559-.712-42.489 3.322-62.363 9.493-13.02 4.035-32.666 8.307-38.377 23.26-1.828 4.747-3.884 9.019-7.082 13.291-4.568 6.171-12.107 6.883-18.046 10.444-6.625 4.034-12.564 9.493-17.133 15.902-6.624 9.256-10.28 20.411-12.107 31.804-3.198 17.801-4.568 38.212-.228 55.776 4.34 17.8 12.792 34.414 23.3 49.13 18.504 25.87 42.032 47.231 70.13 60.76 3.427 2.136 7.31 3.797 11.193 5.459z" fill="#D6D7F2" fill-opacity=".8"/><path d="M438.461 1.268c-.158 0-.158-.158-.317-.158-.158 0-.316-.159-.316-.159-.159 0-.317-.158-.317-.158l-.317-.159c-.158 0-.316-.158-.316-.158-.159 0-.159 0-.317-.159-.158 0-.316 0-.316-.158-.159 0-.317 0-.317-.159h-2.375c-.158 0-.475.159-.633.159-.317.158-.475.158-.792.317l-6.016 3.487c.475-.317.791-.475 1.425-.475.475-.159.95-.159 1.583 0 .475 0 1.108.158 1.742.317.633.158 1.266.475 1.899.793l169.881 98.609 6.017-3.488L438.461 1.27zm179.38 113.829v-2.378c0-.159 0-.317-.158-.476 0-.158 0-.317-.158-.475 0-.159-.159-.318-.159-.476 0-.159 0-.317-.158-.317 0-.159-.158-.317-.158-.476 0-.158-.159-.317-.159-.475 0-.159-.158-.317-.158-.476 0-.159-.158-.317-.158-.476 0-.158-.159-.158-.159-.317 0-.158-.158-.317-.158-.475 0-.159-.158-.317-.158-.476-.159-.158-.159-.317-.317-.476-.158-.158-.158-.317-.317-.634v-.317c-.158-.317-.475-.792-.633-1.109-.158-.318-.317-.635-.633-.793l-.475-.476c-.158-.158-.159-.317-.317-.475-.158-.159-.158-.317-.316-.476-.159-.159-.159-.317-.317-.476l-.317-.317-.316-.317c-.159-.158-.317-.317-.475-.317-.159-.158-.317-.317-.475-.317l-.159-.158-.158-.159c-.158-.158-.317-.158-.475-.317-.158-.159-.317-.159-.475-.317-.158-.159-.317-.159-.317-.317-.158-.159-.316-.159-.316-.317h-.159l-6.016 3.488c.633.317 1.267.792 1.9 1.268.633.475 1.108.951 1.742 1.585 1.108 1.11 2.058 2.537 2.849 3.964v.158c.475.634.792 1.427 1.109 2.061.316.793.633 1.427.791 2.22.159.792.475 1.585.475 2.219.159.793.159 1.585.159 2.22l-.317 116.524c0 .793 0 1.427-.158 2.061-.159.634-.317 1.11-.475 1.585-.159.476-.475.793-.634 1.11l-.316.317c-.317.317-.634.634-.95.793l6.016-3.488c.317-.159.633-.476.95-.793l.317-.317c.158-.158.158-.317.316-.475.159-.159.317-.476.317-.635 0-.158.158-.317.158-.475 0-.159.159-.317.159-.476 0-.158.158-.317.158-.475v-2.22L618 115.414c-.159 0-.159-.159-.159-.317z" fill="#58AFFB"/><path d="M602.642 103.208c5.067 3.012 9.183 9.987 9.183 15.853l-.316 116.525c0 5.865-4.117 8.243-9.183 5.231L431.97 142.366c-5.066-3.012-9.183-9.988-9.183-15.853l.317-116.525c0-5.866 4.116-8.244 9.183-5.231l170.355 98.451z" fill="#003783"/><path d="M435.77 118.268l12.982-6.659 8.55 13.793 9.499 9.671 9.499-5.708 20.266-6.658 9.182 13.158 9.183 7.61 8.233 12.207 11.399-23.78 13.616 6.659 7.283-6.025 14.882 3.964 22.007-1.903" stroke="#16C5DC" stroke-width="1.989" stroke-miterlimit="10"/><path d="M591.876 128.099c-3.324-1.902-6.174-.317-6.174 3.488 0 3.963 2.691 8.561 6.174 10.622 3.325 1.902 6.175.317 6.175-3.488 0-3.963-2.692-8.719-6.175-10.622z" fill="#FF628A"/><path d="M591.876 131.903c-1.583-.951-2.85-.159-2.85 1.585s1.267 3.964 2.692 4.756c1.583.952 2.85.159 2.85-1.585.158-1.585-1.109-3.805-2.692-4.756z" fill="#212973"/><path d="M564.328 169.16v1.585c0 .952-.95 1.427-1.742 1.11l-7.283-4.28c-.316-.159-.633-.635-.633-1.11v-1.586c0-.951.95-1.426 1.741-1.109l7.283 4.28c.317.317.634.793.634 1.11zm23.274 21.087v1.585c0 .951-.95 1.427-1.742 1.11l-30.715-17.598c-.316-.158-.633-.634-.633-1.11v-1.585c0-.951.95-1.427 1.742-1.11l30.556 17.598c.475.317.792.634.792 1.11z" fill="#7BAEFF"/><path opacity=".53" d="M574.936 198.489v1.585c0 .952-.95 1.427-1.742 1.11l-17.89-10.305c-.317-.158-.634-.634-.634-1.109v-1.586c0-.951.95-1.427 1.742-1.11l17.89 10.305c.475.317.634.634.634 1.11z" fill="#7BAEFF"/><path d="M582.852 195.319v1.585c0 .951-.95 1.427-1.742 1.11l-25.806-14.744c-.317-.159-.634-.634-.634-1.11v-1.585c0-.951.95-1.427 1.742-1.11l25.807 14.744c.316.158.633.634.633 1.11z" fill="#7BAEFF"/><path d="M458.251 73.246l4.434-2.695v13.317l-4.434 2.536V73.246z" fill="#CE7C56"/><path d="M447.327 66.904l4.592-2.537 10.766 6.183-4.434 2.695-10.924-6.341z" fill="#FBD15B"/><path d="M458.251 73.244v13.158l-10.924-6.183V66.902l10.924 6.342z" fill="#E2A029"/><path d="M475.509 71.341l4.433-2.536v24.89l-4.591 2.695.158-25.049z" fill="#2670D4"/><path d="M464.584 65.16l4.592-2.695 10.766 6.341-4.433 2.537-10.925-6.183z" fill="#58AFFB"/><path d="M475.509 71.343l-.159 25.049-10.766-6.342V65.16l10.925 6.183z" fill="#2689FD"/><path d="M492.766 71.181l4.433-2.537-.159 35.037-4.433 2.695.159-35.195z" fill="#E7318B"/><path d="M481.841 65l4.591-2.695 10.766 6.341-4.433 2.537L481.841 65z" fill="#FA5187"/><path d="M492.766 71.183l-.159 35.195-10.924-6.341.158-35.037 10.925 6.183z" fill="#FA5187"/><path d="M509.865 72.134l4.591-2.536-.158 44.073-4.433 2.536V72.134z" fill="#5B5BD6"/><path d="M499.098 65.953l4.433-2.695 10.924 6.341-4.591 2.537-10.766-6.183z" fill="#B391FF"/><path d="M509.865 72.136v44.073l-10.925-6.183.159-44.073 10.766 6.183z" fill="#7974F5"/><path d="M339.667 316.279s1.584 5.549-2.849 8.72c-4.592 3.171-6.808 3.805-10.45 5.232-3.641 1.426-7.124 6.182-5.383 9.67 1.742 3.488 9.658 3.964 14.724 2.537 5.067-1.427 6.017-6.025 10.766-7.61 4.908-1.744 6.492-3.646 7.916-5.073 1.425-1.427-2.374-14.427-2.374-14.427l-14.091 1.585" fill="#382747"/><path d="M335.234 175.023s-4.274 28.378-6.808 38.366c-2.691 9.988-11.557 46.768-9.974 54.695 1.583 7.927 12.033 27.269 14.724 36.781 2.692 9.512 4.75 17.28 6.808 18.39 2.058 1.11 8.866 0 13.141-6.342 4.275-6.341.475-2.695.475-2.695s-1.583-15.695-3.167-21.085c-1.583-5.232-8.391-22.671-7.916-28.378.475-5.707 11.558-35.195 19.474-48.829s12.666-27.903 12.666-27.903l-39.423-13z" fill="#535E6D"/><path d="M363.416 331.023s.317 4.281-4.275 7.452c-4.591 3.17-5.383 5.073-9.024 6.5-3.642 1.426-7.125 6.183-5.383 9.67 1.741 3.488 9.657 3.964 14.724 2.537 5.066-1.427 6.016-6.024 10.766-7.61 4.908-1.744 6.491-3.646 7.916-5.073 1.425-1.427.792-7.134.792-7.134l-17.258-5.707" fill="#382747"/><path d="M344.259 182.949s1.583 23.147 4.749 29.488c3.167 6.341 3.642 11.098 5.225 19.976 1.583 8.878 6.808 69.438 6.333 80.377-.475 11.098-.475 23.622 0 25.208.475 1.585 10.449 5.707 18.841 0 0 0 1.583-13.159 2.691-28.378 1.108-15.22.475-35.195 2.058-54.695 1.584-19.5 9.5-54.061 9.5-67.22-.159-.158-25.332 7.769-49.397-4.756z" fill="#636F82"/><path d="M344.259 182.949s.316 4.439.95 9.988c5.699 3.012 13.141 6.5 20.898 8.719 16.466 4.757 18.208 11.098 18.208 26 0 14.903-6.175 29.964-5.383 44.866.633 11.256 1.266 46.61-1.109 66.427.634-.317 1.109-.634 1.742-1.11 0 0 1.583-13.158 2.691-28.378 1.109-15.219.475-35.195 2.059-54.695 1.583-19.5 9.499-54.061 9.499-67.219-.317 0-25.49 7.927-49.555-4.598z" fill="#535E6D"/><path d="M322.727 102.256s21.69-18.074 26.123-18.39c5.383-.476 11.874 1.426 13.616 8.877 1.742 7.61-2.216 13.317-6.333 15.378-3.958 2.22-44.33 23.147-50.505 22.988-6.175 0-10.133-5.39-6.175-12.049 4.117-6.341 23.274-16.804 23.274-16.804z" fill="#E2EDFF"/><path d="M362.466 80.215v.793c-.317 1.585-1.266 5.707-1.583 7.451-.158 1.586 1.583 4.598 6.016 4.756 4.433.159 12.191-1.427 15.041-6.658-.158-.951.633-10.94 1.583-15.854l-21.057 9.512z" fill="#E16B40"/><path d="M380.832 81.326s21.373 16.964 23.273 22.354c1.9 5.39 1.742 20.134-3.325 29.646-5.066 9.513-4.749 50.415-6.807 57.391-2.059 6.975-21.057 8.243-32.773 5.39-11.716-2.854-30.082-12.683-26.44-25.842 5.541-19.5 3.799-43.914 3.324-50.097-.475-6.183 1.109-21.72 4.433-32.025.634-2.219 8.392-5.231 8.392-5.231s8.074-3.647 29.923-1.586z" fill="#455BAF"/><path d="M381.623 84.181c-18.682-1.744-27.231 1.427-29.289 2.537-.317 3.804-.475 8.72.316 13.317 1.425 8.878 4.908 32.975 4.908 32.975s11.558-19.817 18.999-28.061a12644.99 12644.99 0 0013.141-13.95c-4.433-3.806-8.075-6.818-8.075-6.818z" fill="#E1E8F2"/><path d="M362.466 80.215v.793c-.317 1.585-1.266 5.707-1.583 7.451-.158 1.586 1.583 4.598 6.016 4.756 4.433.159 12.191-1.427 15.041-6.658-.158-.951.633-10.94 1.583-15.854l-21.057 9.512z" fill="#FFC8AF"/><path d="M348.059 50.571c1.266-13.951 11.241-22.83 23.907-21.244 0 0 13.457 0 20.582 11.098 7.124 11.097-.634 21.878-5.542 28.536-2.058 2.854-3.641 4.915-4.591 6.342-.317.475-.633 1.11-1.108 1.427 0 .158-.159.158-.159.158-3.483 4.122-7.599 6.817-10.766 8.085-5.224 2.061-11.557 1.903-15.357-1.427-3.958-3.329-8.233-19.024-6.966-32.975z" fill="#FFC8AF"/><path d="M354.867 104.789l8.233-7.293 6.649 11.573 6.65-4.28c-7.6 8.244-18.999 28.061-18.999 28.061s-2.85-20.134-4.591-30.439l2.058 2.378z" fill="#CFDAE4"/><path d="M355.5 119.057l3.641-13-.633-4.439 4.592-4.122 3.166 5.707-3.641 3.33-.95 19.341a2635.907 2635.907 0 00-4.275 6.976s-.792-6.342-1.9-13.793z" fill="#00A5FF"/><path d="M393.656 38.84s6.649 8.878 1.583 19.817c-5.067 11.097-11.399 16.646-13.141 16.646-1.742 0-2.692-.317-2.533-1.744.316-1.427 1.741-6.024 1.741-6.024s7.283-2.061 6.65-6.817c-.792-4.756-3.483-5.232-6.333-3.488-2.85 1.744-3.008 3.963-4.433 6.024-1.425 2.061-1.267 6.5-2.692 6.183-1.424-.317-2.374-1.427-2.849-3.646-.317-2.22-.792-4.756 1.583-7.768 2.216-3.013-1.425-6.976.633-10.78 2.058-3.964 3.642-5.55 3.642-5.55s-1.425 2.854-10.291 2.379c-9.025-.476-12.825.634-16.624-1.11-3.8-1.586-3.642-6.659-1.742-8.72 1.9-2.06 6.966-3.805 12.824-6.817s9.5-2.378 17.099-1.744c7.758.793 15.833 7.61 14.883 13.159z" fill="#CE7C56"/><path d="M372.757 59.134s0 14.268-3.958 16.329c-3.958 1.903-3.8-5.866-9.816-7.293-6.017-1.427-10.291-1.11-10.133 1.744.158 2.854 1.742 13 7.125 15.378s13.774 1.11 17.573-1.268c3.959-2.378 3.484-19.659 5.067-22.512 1.741-3.012-5.858-2.378-5.858-2.378z" fill="#CE7C56"/><path d="M305.628 131.267s-6.016 2.854-11.874-3.012c-5.858-5.866-24.066-38.207-24.066-38.207s.792-7.452 9.5-8.72c0 0 20.424 26.476 24.857 31.073 4.274 4.756 9.182 13.634 1.583 18.866z" fill="#FFC8AF"/><path d="M394.922 142.047s-11.241-26-10.291-30.281c1.108-5.231 4.75-11.097 12.349-10.622 7.758.476 12.033 5.866 13.141 10.305.95 4.439 8.233 39.159 6.492 45.025-1.742 5.865-7.917 8.243-13.141 2.536-5.225-5.549-8.55-16.963-8.55-16.963z" fill="#E2EDFF"/><path d="M417.404 153.302s-1.741-6.342-10.132-6.976c-8.392-.634-49.081 6.341-49.081 6.341s-5.224 5.549-.316 12.842c0 0 37.839-1.427 44.172-1.11 6.491.159 16.465-1.902 15.357-11.097z" fill="#FFC8AF"/><path d="M349.483 148.387c-2.058-.951-7.916-3.488-9.024-3.805-1.267.159-1.742 3.329.475 4.598 2.216 1.109 5.225 3.012 5.541 4.439.317 1.268-2.691 4.914-3.958 5.548-1.267.793-11.241 2.695-11.716 4.281-.475 1.585 2.375 2.378 4.117 1.902 1.741-.475 3.799-.475 3.799-.475s.475 1.109 1.9 1.744c1.583.634 2.217.475 2.692 1.109.475.476 1.583 1.11 3.641 1.269 2.058.158 6.333-1.744 9.183-2.537l5.7-1.585-2.534-10.464a2.517 2.517 0 00-1.266-1.585 490.63 490.63 0 00-8.55-4.439zm-70.295-67.061s-1.742-5.866-3.958-8.085c-2.217-2.22-3.167-3.805-3.958-6.342-.792-2.536.95-8.72-.792-8.72-1.741 0-4.274 3.33-4.116 5.867.158 2.536 0 5.073-.633 5.707-.634.634-7.6-3.964-9.183-5.549-1.583-1.585-6.491-5.39-7.6-3.963-1.108 1.426-.633 2.536 1.584 4.28 2.216 1.744 7.599 5.39 8.707 6.659.95 1.426 0 1.11-2.533-.159-2.533-1.427-2.375 1.11-1.741 3.17.633 1.903-1.742 2.22-.159 4.281 1.583 2.22.159 1.427 1.9 3.488 1.742 2.22 2.375 3.33 5.7 4.122 3.325.793 7.124 3.012 8.866 4.756 1.741 1.744 8.233-.951 8.233-.951l-.317-8.561z" fill="#FFC8AF"/><path d="M121.34 135.707s7.124 1.585 8.391 8.244c1.425 6.658-4.908 11.89-1.742 17.122 3.167 5.232 7.283 4.122 8.391 12.524 1.109 8.403-12.507 22.829-22.482 8.403-9.974-14.427 7.442-46.293 7.442-46.293z" fill="#4D2C63"/><path d="M80.492 197.539s-13.14 3.487-16.624 11.414c-3.483 7.927-2.691 67.695 15.833 92.427 18.365 24.573 52.721 28.219 60.637 24.573 7.917-3.488 53.672-26.476 57.155-37.89 3.483-11.415-14.091-20.293-23.748-24.573-9.658-4.439-15.833-10.622-21.057-26.476-5.225-15.853-7.917-43.122-14.091-47.561-6.175-4.28-21.215-11.256-58.105 8.086z" fill="#FBD15B"/><path d="M144.772 208.478s-4.433-26.159-7.442-29.171c-3.483-3.488-9.341-6.341-15.199-2.061-5.858 4.281-6.491 10.781-4.908 14.903 1.584 3.963 16.308 37.256 20.741 41.061 4.433 3.804 10.449 2.378 11.716-4.757 1.108-7.134-4.908-19.975-4.908-19.975z" fill="#FA5CA0"/><path d="M135.272 230.038s4.908 7.768 12.983 5.231c8.074-2.536 19.315-40.109 22.007-42.646 0 0 1.266-9.036-7.125-9.353 0 0-19.315 31.707-22.007 35.195-2.691 3.487-6.808 7.292-5.858 11.573z" fill="#FFC8AF"/><path d="M158.229 344.658l-8.233-4.756-31.031 5.074 8.233 4.914 31.031-5.232z" fill="#00265A"/><path d="M127.198 349.891l-8.233-4.914-5.858 3.487 8.391 4.756 5.7-3.329z" fill="#002F71"/><path d="M90.783 383.658l-8.233-4.756v3.488l8.391 4.756-.158-3.488z" fill="#002A65"/><path d="M121.498 353.221l-8.391-4.756-30.557 30.439 8.233 4.756 30.715-30.439z" fill="#00357F"/><path d="M121.498 353.221L90.783 383.66l.159 3.488 30.556-26.317 5.858-3.329 30.873-9.196v-3.646l-31.031 5.232-5.7 3.329z" fill="#001E46"/><path d="M81.284 344.658l8.232-4.756 31.032 5.074-8.391 4.914-30.873-5.232z" fill="#00265A"/><path d="M112.157 349.891l8.391-4.914 5.7 3.487-8.233 4.756-5.858-3.329z" fill="#002F71"/><path d="M148.571 383.658l8.391-4.756-.158 3.488-8.233 4.756v-3.488z" fill="#002A65"/><path d="M118.015 353.221l8.232-4.756 30.715 30.439-8.391 4.756-30.556-30.439z" fill="#00357F"/><path d="M118.015 353.221l30.556 30.439v3.488l-30.556-26.317-5.858-3.329-30.873-9.196v-3.646l30.873 5.232 5.858 3.329z" fill="#001E46"/><path d="M81.284 344.658l8.232-4.756 31.032 5.074-8.391 4.914-30.873-5.232z" fill="#00265A"/><path d="M112.157 349.891l8.391-4.914 5.7 3.487-8.233 4.756-5.858-3.329z" fill="#002F71"/><path d="M148.571 383.658l8.391-4.756-.158 3.488-8.233 4.756v-3.488z" fill="#002A65"/><path d="M118.015 353.221l8.232-4.756 30.715 30.439-8.391 4.756-30.556-30.439z" fill="#00357F"/><path d="M118.015 353.221l30.556 30.439v3.488l-30.556-26.317-5.858-3.329-30.873-9.196v-3.646l30.873 5.232 5.858 3.329z" fill="#001E46"/><path d="M125.456 313.902l-.158 34.878-6.175 3.488.158-34.719 6.175-3.647z" fill="#0046A6"/><path d="M119.282 317.549l-.159 34.719-6.016-3.488v-34.878l6.175 3.647z" fill="#003783"/><path d="M125.456 313.902l-6.174 3.646-6.175-3.646 6.175-3.488 6.174 3.488z" fill="#4DA5DC"/><path d="M209.051 386.352s7.758 8.561 14.249 11.414c6.491 6.025 12.349 10.464 11.558 15.22-1.584 4.756-16.149 1.109-22.166-2.378-6.016-3.33-10.924-9.354-10.924-9.354l.95 2.854c.317.792-.475 1.427-1.108 1.109-.792-.317-1.9-.951-2.375-1.743-1.267-1.903-2.692-7.927-1.267-10.781 1.267-3.012 11.083-6.341 11.083-6.341z" fill="#382747"/><path d="M156.804 318.975s0 13.634 10.133 25.049 24.065 31.866 28.815 44.866c4.749 8.561 9.024 11.414 16.149 5.549 2.85-1.269-2.692-13.317-11.083-29.647-8.233-16.012-22.007-50.414-25.807-54.219-3.799-3.964-16.94-8.561-18.207 8.402z" fill="#FFC8AF"/><path d="M210.476 385.559s2.533 5.866 9.658 11.256c7.124 5.232-1.9 10.781-6.808 9.195-4.908-1.585-13.774-8.085-14.566-10.939-.95-3.012.792-16.646 11.716-9.512z" fill="#FFC8AF"/><path d="M227.891 365.902s7.758 8.561 14.249 11.415c6.492 6.024 12.35 10.463 11.558 15.219-1.583 4.757-16.149 1.11-22.165-2.378-6.017-3.329-10.925-9.353-10.925-9.353l.95 2.853c.317.793-.475 1.427-1.108 1.11-.792-.317-1.9-.951-2.375-1.744-1.266-1.902-2.691-7.927-1.266-10.78 1.266-2.854 11.082-6.342 11.082-6.342z" fill="#382747"/><path d="M175.645 298.524s0 13.634 10.132 25.049c10.133 11.414 24.065 31.866 28.815 44.866 4.75 8.561 9.025 11.414 16.149 5.548 2.85-1.268-2.691-13.317-11.083-29.646-8.232-16.012-22.007-50.415-25.806-54.219-3.8-3.805-16.941-8.561-18.207 8.402z" fill="#FFC8AF"/><path d="M229.316 365.269s2.533 5.866 9.658 11.256c7.125 5.232-1.9 10.781-6.808 9.195-4.908-1.585-13.774-8.085-14.566-10.939-.95-3.012.792-16.804 11.716-9.512z" fill="#FFC8AF"/><path d="M100.599 262.697s-4.75 22.037 5.858 36.146c10.608 14.11 42.273 22.83 43.856 25.049 1.583 2.378 5.066 6.342 9.024 6.342 3.958 0 34.515-14.586 38.473-29.805-1.109-10.622-4.75-13.793-9.025-17.281-4.274-3.487-32.139-16.487-33.723-18.865-1.583-2.378-2.374-7.135-2.374-7.135l-52.089 5.549z" fill="#5155D4"/><path d="M96.8 182.637s-15.516 7.452-18.524 13c-3.009 5.549-3.009 19.025 8.549 31.232 7.125 9.988 11.241 37.573 15.199 44.39 4.908 6.5 28.498 7.927 41.164 3.012 12.666-4.914 12.508-17.28 9.975-21.402-7.442-11.732-4.434-22.512-4.275-28.219.316-5.708 4.749-12.208 2.058-20.135-2.692-7.926-15.357-13.475-17.416-15.853-2.058-2.537-7.916-11.732-14.565-11.89-6.808-.476-22.166 5.865-22.166 5.865z" fill="#FA5CA0"/><path opacity=".76" d="M153.004 252.866c-7.441-11.731-4.433-22.512-4.274-28.219.158-3.964 2.374-8.244 2.849-13.159-8.549 8.086-21.215 16.964-34.989 17.439-15.991.476-30.081-8.561-38.156-15.219 1.583 4.28 4.275 8.878 8.391 13.158 7.125 9.988 11.241 37.573 15.199 44.391 4.908 6.5 28.498 7.926 41.164 3.012 12.666-5.073 12.508-17.281 9.816-21.403z" fill="#E7318B"/><path d="M150.313 247.319c-2.059-5.232-1.9-10.146-1.742-14.268-29.923 18.231-54.463 8.719-54.463 8.719 0 2.537.95 5.073 1.742 7.61l-.159.159c.317 1.268.475 2.378.792 3.646v.158c.158.476.316.952.316 1.586l.475 1.902v.159c29.132 5.707 47.022-5.073 53.039-9.671z" fill="#4D2C63"/><path d="M170.578 159.171c.634-.159 1.267-.159 1.9.158-1.425-.793-2.216-1.268-3.8-.317-.633.317-1.108.634-1.741.951-3.325 1.903-6.65 3.805-10.133 5.866-7.758 4.439-15.515 8.878-23.273 13.476-2.217 1.268-4.275 2.853-5.067 5.549-.791 2.536-.316 5.865-.316 8.402v18.866c0 1.902.633 2.695 2.216 3.646-1.266-.793-1.108-2.536-1.108-3.805v-20.292c0-3.488-.317-6.817 2.375-9.513 1.583-1.585 4.116-2.695 6.016-3.804 6.65-3.805 13.299-7.769 19.949-11.574 2.85-1.744 5.858-3.329 8.708-5.073 1.266-1.11 2.691-2.061 4.274-2.536z" fill="#E2EDFF"/><path d="M169.628 159.486c2.059-1.11 3.642-.317 3.8 2.061v26c0 2.378-1.583 5.232-3.641 6.341l-36.731 21.244c-2.059 1.11-3.642.159-3.8-2.061v-26c0-2.378 1.583-5.231 3.641-6.341l36.731-21.244z" fill="#7BAEFF"/><path d="M99.333 227.345s-4.433-26.158-7.442-29.171c-3.483-3.487-9.34-6.341-15.199-2.061-5.858 4.281-6.49 10.781-4.908 14.903 1.584 3.963 16.308 37.256 20.74 41.061 4.434 3.805 10.45 2.378 11.717-4.756 1.108-7.134-4.908-19.976-4.908-19.976z" fill="#FA5CA0"/><path d="M89.833 248.905s4.908 7.768 12.983 5.232c8.074-2.537 19.315-40.11 22.007-42.647 0 0 1.266-9.036-7.125-9.353 0 0-19.315 31.707-22.007 35.195-2.85 3.488-6.808 7.134-5.858 11.573z" fill="#FFC8AF"/><path d="M117.381 203.564s1.267-7.927 4.75-10.147c3.325-2.378 11.241-4.439 13.299-1.902 2.058 2.695.792 13.158-1.266 14.11-2.059 1.109-7.125 2.695-7.125 2.695s-1.9 3.963-4.116 3.963c-2.375-.158-5.542-8.719-5.542-8.719z" fill="#FFC8AF"/><path d="M165.037 178.831c-.95.476-1.583 1.744-1.583 2.854s.791 1.427 1.583.951c.95-.476 1.583-1.744 1.583-2.854 0-1.109-.792-1.426-1.583-.951z" fill="#EAEEEE"/><path d="M114.056 178.04v.634c.317 1.585 1.267 5.707 1.584 7.451.158 1.585-1.584 4.597-6.017 4.756-4.433.158-12.19-1.427-14.882-6.659.158-.951-.633-10.78-1.583-15.695l20.898 9.513z" fill="#E16B40"/><path d="M123.714 145.381c-3.166-13.634-14.407-20.768-26.598-17.28 0 0-13.141 2.061-18.524 13.951-5.383 12.049 3.8 21.402 9.658 27.268 2.533 2.378 4.275 4.281 5.541 5.549.475.476.792.951 1.267 1.268l.158.159c3.958 3.646 8.391 5.549 11.716 6.341 5.383 1.269 11.716.159 14.882-3.646 3.325-3.963 5.067-19.976 1.9-33.61z" fill="#FFC8AF"/><path d="M121.023 132.538s6.016 1.903 1.583 10.939c-4.433 9.195-11.716 6.342-12.033 13.793-.316 7.61-1.266 10.78-7.916 14.427-6.491 3.646 1.267 7.292 1.267 19.817 0 12.524-12.35 14.426-17.574 10.78-5.225-3.646-.792-7.293-7.6-14.11-6.808-6.817-14.407-9.987-9.182-19.341 5.224-9.354 5.541-8.878 4.75-21.402-.792-12.525 4.907-20.452 16.148-23.781 11.558-3.329 22.957-3.012 30.557 8.878z" fill="#4D2C63"/><path d="M316.077 471.171c-.95 9.83-10.133 16.488-18.524 20.134-9.182 3.964-19.157 5.549-28.973 5.391-10.133-.159-20.424-2.061-29.448-6.5-7.916-3.964-16.307-10.939-16.307-20.61 0 6.976.475 12.841 5.541 18.232 6.491 7.134 16.307 10.78 25.49 12.841 18.049 3.646 42.431 1.902 56.047-11.89 5.541-5.549 6.174-11.415 6.332-18.866-.158.317-.158.793-.158 1.268z" fill="#ADCDFC"/><path d="M302.303 450.402c18.366 10.622 18.365 27.744.158 38.366-18.207 10.622-47.813 10.622-66.021 0-18.365-10.622-18.365-27.744-.158-38.366 18.207-10.463 47.814-10.463 66.021 0z" fill="#E2EDFF"/><path d="M277.763 429l-.158 40.902-7.125 4.122.158-40.744 7.125-4.28z" fill="#C7D8F2"/><path d="M270.638 433.28l-.158 40.744-7.125-4.122.159-40.902 7.124 4.28z" fill="#7BAEFF"/><path d="M277.762 429.001l-7.124 4.28-7.125-4.28 7.125-4.122 7.124 4.122z" fill="#4DA5DC"/><path d="M444.319 318.815c-.158 32.182-25.173 56.914-50.98 72.292-29.765 17.756-64.754 26.317-98.952 29.646-34.673 3.33-70.296.635-104.019-8.561-16.624-4.439-32.773-10.622-47.813-19.024-13.458-7.451-26.124-16.646-36.256-28.378-11.4-13-19.157-29.329-19.157-46.927 0 8.086-.317 16.33 1.266 24.256 2.533 12.049 8.708 23.147 16.466 32.659 9.816 11.732 22.165 21.085 35.306 28.695 14.882 8.561 31.031 14.902 47.497 19.658 33.089 9.196 67.762 12.208 101.96 9.671 34.04-2.536 68.554-10.78 98.636-27.11 25.965-14.109 52.246-37.256 55.571-68.329.792-6.5.475-12.524.475-18.548z" fill="#A8B0F4"/><path d="M391.598 244.937c69.979 40.427 70.453 106.061.791 146.646-69.504 40.427-182.705 40.427-252.684 0-69.979-40.426-70.295-106.06-.791-146.646 69.662-40.427 182.705-40.427 252.684 0z" fill="#878CF0"/><path d="M362.308 302.486s-2.534-3.012-4.908-6.024c-2.375-3.171-4.75-5.549-7.442-4.439-2.691 1.11-2.216 3.329-2.216 3.329s-.317 2.22-.792 4.915c-.316 2.695.159 7.134 4.275 8.561 4.116 1.585 7.916 1.744 7.916 1.744l3.167-8.086z" fill="#EA9273"/><path d="M357.083 311.998s-4.275-2.536-3.325-6.5c.95-3.963 2.216-6.341 2.375-8.085.158-1.744-.95-7.134.95-8.085 1.9-.952 2.216.792 2.374 2.536.159 1.744 1.425 6.5 2.534 8.244a777.175 777.175 0 012.691 4.281s-3.483 7.292-7.599 7.609z" fill="#FF9F75"/><path d="M402.522 346.243s-7.917 5.39-16.624-2.22c-8.708-7.61-27.549-29.805-29.765-31.866 0 0 .158-7.134 7.124-9.829 0 0 14.091 11.732 21.374 16.646 7.283 5.074 31.348 18.232 17.891 27.269z" fill="#fff"/><path d="M356.766 309.145c-.633 1.743-.633 3.012-.633 3.012 2.216 2.061 21.057 24.256 29.765 31.866 5.541 4.914 10.924 4.439 13.932 3.487-15.674-8.085-35.306-29.646-43.064-38.365z" fill="#C7D8F2"/><path d="M419.303 330.387s30.081-8.402 34.672-6.817c5.542 1.903 11.4 6.817 9.817 15.061-1.584 8.403-8.233 12.366-13.3 12.842-5.066.475-47.813 1.426-53.988-1.269-6.174-2.853-7.758-9.988-.791-14.902 6.966-4.915 23.59-4.915 23.59-4.915z" fill="#fff"/><path d="M463.793 338.789c0-.475.158-.792.158-1.109-2.85 3.805-7.758 7.926-16.466 8.244-15.99.634-39.739.634-44.805-.318-3.325-.634-8.391-3.012-11.399-4.439-.95 3.647 1.108 7.293 5.224 9.196 6.175 2.853 48.922 1.743 53.989 1.268 5.066-.476 11.715-4.439 13.299-12.842z" fill="#C7D8F2"/><path d="M320.193 525.07s-3.958 2.695-.316 9.037c3.641 6.341 6.808 2.378 15.199 8.719 8.233 6.342 11.241 7.61 15.674 7.134 4.433-.475 7.124-2.695 7.758-5.073.791-2.378-1.425-6.658-1.425-6.658l-36.89-13.159z" fill="#94A3C0"/><path d="M355.341 525.23s1.741 8.244 2.691 14.585c.317 2.854-3.641 6.976-9.341 6.658-5.541-.317-8.707-1.902-10.766-4.439-1.9-2.378-14.09-7.134-16.307-9.195-2.217-1.902-2.691-7.768-1.742-9.353.95-1.427 4.592-3.964 8.55-2.22 3.958 1.744 7.124 4.915 14.882 5.39 7.916.793 12.033-1.426 12.033-1.426z" fill="#382747"/><path d="M358.982 503.828s-3.958 2.695-.316 9.037c3.641 6.341 6.808 2.378 15.199 8.719 8.233 6.342 11.241 7.61 15.674 7.134 4.433-.475 7.124-2.695 7.758-5.073.791-2.378-1.425-6.658-1.425-6.658l-36.89-13.159z" fill="#94A3C0"/><path d="M394.13 504.144s1.742 8.244 2.691 14.585c.317 2.854-3.641 6.976-9.341 6.659-5.699-.318-8.707-1.903-10.766-4.439-1.899-2.379-14.09-7.135-16.307-9.196-2.216-1.902-2.691-7.768-1.741-9.353.949-1.427 4.591-3.964 8.549-2.22 3.958 1.744 7.125 4.915 14.882 5.391 7.758.634 12.033-1.427 12.033-1.427z" fill="#382747"/><path d="M363.732 436.45c1.9 15.695 9.816 56.756 11.083 71.024 0 0 3.325 5.232 12.982 3.964l4.592-1.903c1.9-.793 3.008-2.695 2.691-4.756-.95-7.927-3.166-27.744-2.216-39.634 1.266-15.061-2.533-24.098-2.533-24.098.316-4.914.95-21.878-8.708-26.317 0 0-23.907-4.439-17.891 21.72z" fill="#616D7F"/><path d="M383.523 421.863l-2.533 5.231s-40.056 1.903-50.822 13.635c0 0-7.125 1.268-5.225 16.963 1.9 15.695 9.816 56.756 11.083 71.024 0 0 3.325 5.232 12.982 3.964l4.592-1.903c1.9-.793 3.008-2.695 2.691-4.756-.95-7.927-3.166-27.744-2.216-39.634 1.266-15.061-2.533-24.097-2.533-24.097s17.573 3.329 36.414 11.097c18.84 7.768 35.148-1.268 42.272-5.232 7.125-3.963 9.816-6.5 9.816-6.5s9.183 0 17.574-7.134c8.391-7.134 9.816-26 .633-37.097-9.024-11.256-74.728 4.439-74.728 4.439z" fill="#6D7B93"/><path d="M403.947 338.472s6.491-2.378 6.016-11.097c-1.9-8.561-4.275-9.037-4.275-9.037s9.025-8.402 19.949-5.707c0 0 6.808 13.634 14.408 19.5 0 .158-6.175 16.17-36.098 6.341z" fill="#FFC8AF"/><path d="M425.479 330.071s-25.332 8.403-32.457 20.134c-7.124 11.732-5.858 24.732-.633 42.964 5.225 18.231-5.225 34.561-2.533 44.231 2.533 9.83 20.899 18.866 47.497 14.269 26.598-4.598 28.656-15.061 30.556-20.927 1.9-5.866-5.224-33.927 1.267-56.756s-6.491-38.366-11.716-42.329c-5.383-3.488-15.674-8.72-31.981-1.586z" fill="#58AFFB"/><path opacity=".54" d="M457.302 331.975c-5.225-3.964-15.674-9.195-31.823-1.903 0 0-25.332 8.403-32.457 20.135-1.741 2.853-3.008 5.707-3.799 8.878 10.291-13.318 24.856-19.183 34.356 3.487 8.866 21.244-13.616 83.866-33.406 64.208-.792 4.122-1.267 7.768-.475 10.78 2.533 9.829 20.898 18.866 47.497 14.268 26.598-4.597 28.656-15.061 30.556-20.926 1.9-5.866-5.225-33.927 1.267-56.756 6.491-22.513-6.492-38.208-11.716-42.171z" fill="#2689FD"/><path d="M401.255 341.168s6.808 4.439 23.907 1.903c17.099-2.378 18.049-14.586 16.624-15.695-1.425-.952-4.433-4.915-4.433-4.915s-18.049 8.244-24.382 10.78c-6.333 2.378-9.816 3.964-9.816 3.964l-1.9 3.963z" fill="#fff"/><path d="M456.035 536.17l-8.233-4.756-31.031 5.073 8.391 4.915 30.873-5.232z" fill="#00265A"/><path d="M425.162 541.403l-8.391-4.915-5.7 3.33 8.233 4.914 5.858-3.329z" fill="#002F71"/><path d="M388.748 575.17l-8.392-4.756v3.488l8.392 4.756v-3.488z" fill="#002A65"/><path d="M419.304 544.731l-8.233-4.915-30.715 30.598 8.392 4.756 30.556-30.439z" fill="#00357F"/><path d="M419.304 544.733l-30.556 30.439v3.488l30.556-26.317 5.858-3.33 30.873-9.353v-3.488l-30.873 5.232-5.858 3.329z" fill="#001E46"/><path d="M379.09 536.17l8.233-4.756 31.031 5.073-8.391 4.915-30.873-5.232z" fill="#00265A"/><path d="M409.963 541.403l8.391-4.915 5.7 3.33-8.233 4.914-5.858-3.329z" fill="#002F71"/><path d="M446.377 575.17l8.392-4.756v3.488l-8.392 4.756v-3.488z" fill="#002A65"/><path d="M415.821 544.731l8.233-4.915 30.714 30.598-8.391 4.756-30.556-30.439z" fill="#00357F"/><path d="M415.821 544.733l30.556 30.439v3.488l-30.556-26.317-5.858-3.33-30.873-9.353v-3.488l30.873 5.232 5.858 3.329z" fill="#001E46"/><path d="M379.09 536.17l8.233-4.756 31.031 5.073-8.391 4.915-30.873-5.232z" fill="#00265A"/><path d="M409.963 541.403l8.391-4.915 5.7 3.33-8.233 4.914-5.858-3.329z" fill="#002F71"/><path d="M446.377 575.17l8.392-4.756v3.488l-8.392 4.756v-3.488z" fill="#002A65"/><path d="M415.821 544.731l8.233-4.915 30.714 30.598-8.391 4.756-30.556-30.439z" fill="#00357F"/><path d="M415.821 544.733l30.556 30.439v3.488l-30.556-26.317-5.858-3.33-30.873-9.353v-3.488l30.873 5.232 5.858 3.329z" fill="#001E46"/><path d="M423.262 505.414l-.158 34.878-6.017 3.488v-34.72l6.175-3.646z" fill="#0046A6"/><path d="M417.087 509.06v34.72l-6.174-3.488.158-34.878 6.016 3.646z" fill="#003783"/><path d="M423.261 505.414l-6.174 3.646-6.017-3.646 6.017-3.488 6.174 3.488z" fill="#4DA5DC"/><path d="M502.74 369.39c-.158-5.708-5.858-9.512-11.241-7.61-23.273 8.244-76.787 27.585-80.27 34.561-3.325 6.5-13.932 43.122-18.999 61.512-1.583 5.232-7.599 7.768-12.349 4.915l-32.298-19.025c-6.174-3.646-13.774 1.586-12.507 8.561l5.224 31.232c.475 2.537 1.9 4.598 4.117 5.866l34.673 19.975c19.315 11.098 42.905 11.732 62.854 1.744l26.598-13.317c23.274-11.731 37.681-35.988 36.731-61.987l-2.533-66.427z" fill="#FBD15B"/><path d="M369.115 368.594s25.49-17.914 30.399-17.914c5.857 0 12.982 2.536 14.249 11.097 1.266 8.403-3.642 14.427-8.233 16.488-4.592 2.061-44.647 17.28-51.455 16.646-6.808-.634-10.608-6.817-5.7-13.792 5.066-7.134 20.74-12.525 20.74-12.525z" fill="#fff"/><path d="M413.763 361.618c0-.476-.159-.793-.159-1.11-1.425 4.439-4.749 9.988-12.824 13.158-14.882 5.866-37.206 13.793-42.272 14.586-3.483.475-9.025 0-12.191-.476.317 3.805 3.483 6.5 7.916 6.976 6.808.634 46.864-14.586 51.455-16.647 4.433-2.061 9.341-8.085 8.075-16.487z" fill="#C7D8F2"/><path d="M300.561 377.632s-6.333-1.11-8.549-2.536c-2.375-1.427-5.541-4.756-6.65-4.756-1.108 0-4.749 1.109-5.541.792-.792-.317 0-1.744.633-1.902.634-.159 4.75-.634 4.117-.793-.634-.158-4.908.951-5.225 0-.317-.951 4.275-6.341 9.183-7.451 4.908-1.11 5.699.793 8.074 1.744s8.075 5.232 8.075 5.232-.475 8.085-4.117 9.67z" fill="#FFC8AF"/><path d="M361.357 387.778s-4.908 9.196-17.257 6.183c-12.349-3.012-41.956-15.061-45.122-15.853 0 0-3.483-7.134 1.9-13.159 0 0 19.632 4.281 29.131 5.39 9.816 1.11 39.898 1.744 31.348 17.439z" fill="#fff"/><path d="M298.187 374.938c.316 1.902.949 3.17.949 3.17 3.167.793 32.773 13 45.123 15.854 7.916 1.902 12.824-1.268 15.357-3.646-19.632.158-49.555-10.781-61.429-15.378z" fill="#C7D8F2"/><path d="M396.505 276.486s-5.224 3.646-6.016 9.988c-.792 6.341 3.325 9.671 1.583 13.634-1.9 3.963-2.691 8.085-1.583 11.732 1.108 3.646 2.691 12.524 4.908 14.902 2.375 2.378 11.716 0 18.999-2.061 7.283-2.061 13.774-7.927 16.465-13.634 2.692-5.707 6.333-16.012 4.117-24.573-2.058-8.561-10.924-15.378-16.941-16.012-5.858-.476-13.457-.317-21.532 6.024z" fill="#FFC8AF"/><path d="M392.547 278.071s-5.699 4.756-2.85 11.573c1.9 2.061 7.125 4.756 8.866 8.402 1.9 3.647-2.849 8.403.792 12.366 3.642 3.964 7.125 5.549 8.075 10.464 1.108 4.914 7.916 4.122 16.782 1.585 3.325-1.585 5.699-7.61 5.699-7.61s6.017-11.256 7.125-18.39c1.108-7.134-.792-10.146-2.85-10.146s-10.924 7.134-18.049 4.756c-7.124-2.537-19.473-14.11-23.59-13z" fill="#93513F"/><path d="M392.547 278.071s.317-6.341 7.125-10.78c6.808-4.439 22.798-1.585 26.915.476 3.166 2.061.316 2.695.316 2.695s5.542 2.378 8.55 6.024c3.166 3.646 4.116 12.524 2.058 16.963-2.058 4.44-13.616 7.135-19.79 5.708-6.333-1.269-25.965-10.147-25.174-21.086z" fill="#A55D46"/><path d="M400.305 307.399s1.108-4.28 3.641-1.902 1.109 8.244-.633 8.878c-1.583.475-3.958-2.695-3.008-6.976z" fill="#FFC8AF"/><path d="M358.507 242.559c-3.958 2.378-7.282 7.927-7.282 12.524v14.586c0 4.597 3.324 6.5 7.282 4.122l55.73-32.5 3.325 5.549 3.167-9.354 19.79-11.098c3.958-2.378 7.283-7.926 7.283-12.524v-14.585c0-4.598-3.325-6.5-7.283-4.122l-82.012 47.402z" fill="#FF7785"/><path d="M244.99 325.158l61.43 35.829 43.222-25.048-61.43-35.83-43.222 25.049z" fill="#fff"/><path d="M297.237 316.281l-9.658 5.707-12.191-3.646c3.483-3.964 11.716-5.549 18.524-3.488 1.108.317 2.217.793 3.325 1.427z" fill="#E2EDFF"/><path d="M299.453 317.074c6.492 3.805 6.492 9.829 0 13.634-6.491 3.805-16.94 3.805-23.432 0-5.224-3.012-6.491-7.451-3.166-11.256l14.882 4.439 11.716-6.817z" fill="#16C5DC"/><path d="M372.123 335.781c1.267.634 1.267 1.744 0 2.536l-35.147 20.451c-1.267.635-3.167.635-4.275 0l-24.54-14.109c-1.267-.634-1.267-1.744 0-2.537l35.148-20.451c1.108-.634 3.166-.634 4.274 0l24.54 14.11z" fill="#F2F8FD"/><path d="M373.073 337.051c0 .158 0 .158 0 0v.634l-.158.158h-.633l-35.148 20.452c-.158 0-.317.158-.475.158h-.158c-.159 0-.159 0-.317.159h-1.9c-.158 0-.317 0-.475-.159h-.158c-.158 0-.317-.158-.475-.158-.158 0-.317-.159-.475-.159l-24.54-14.11c-.475-.317-.792-.634-.792-.951v-.317 1.585c0 .476.317.793.95 1.11l24.54 14.11c.159.158.317.158.475.158.158 0 .159 0 .317.159h3.641c.159 0 .317-.159.475-.159l35.148-20.451h.475l.158-.158v-.634l-.475-1.427z" fill="#7BAEFF"/><path d="M368.482 336.257c.316.159.316.634 0 .793l-33.406 19.341c-.317.159-.95.159-1.425 0l-22.007-12.841a.45.45 0 010-.793l33.406-19.341c.317-.159.95-.159 1.425 0l22.007 12.841z" fill="#7CCCFF"/><path d="M229.633 267.926l-27.549-16.012v16.805l27.707 16.012-.158-16.805z" fill="#CE7C56"/><path d="M256.389 252.55l-27.706-16.171-26.599 15.536 27.549 16.013 26.756-15.378z" fill="#FBD15B"/><path d="M229.633 267.929l.158 16.805 26.598-15.378v-16.805l-26.756 15.378z" fill="#E2A029"/><path d="M196.86 269.829l-27.548-16.013v33.769l27.706 16.17-.158-33.926z" fill="#2670D4"/><path d="M223.616 254.452l-27.706-16.171-26.598 15.537 27.548 16.012 26.756-15.378z" fill="#58AFFB"/><path d="M196.86 269.831l.158 33.927 26.599-15.537v-33.768l-26.757 15.378z" fill="#2689FD"/><path d="M164.245 269.036l-27.706-16.013.158 53.427 27.706 16.171-.158-53.585z" fill="#E7318B"/><path d="M190.843 253.659l-27.548-16.171-26.756 15.537 27.706 16.012 26.598-15.378z" fill="#FF7785"/><path d="M164.245 269.038l.158 53.585 26.599-15.536-.159-53.427-26.598 15.378z" fill="#FA5187"/><path d="M243.723 341.329s0 .158 0 0c-.158.317-.158.475-.316.634v.158l-.475.476c-.159.159-.317.159-.475.317l-.317.317-55.097 32.025c-.316.158-.791.317-1.108.475-.158 0-.316.159-.475.159-.158 0-.316.158-.633.158-.158 0-.475.159-.792.159l-.158-.793c-.317 0-.633-.793-.95-.793h-.158c-.317 0-.634.793-.95.793l-.159.476c-.316 0-.633.158-.95 0h-.158c-.316 0-.633-.159-.791-.159h-.159l-.95-.475-35.464-20.452c-1.108-.634-1.742-1.585-1.742-2.378v6.342c0 .951.634 1.744 1.742 2.378l35.464 20.451c.317.159.634.317.792.476h-.95c.158 0-.475.158-.475.158h2.533c.158 0 .475 0 .792.159h1.583s-.475-.159-.317-.159h2.059c.158 0 .475-.158.633-.158h.475a7.721 7.721 0 001.108-.476l55.097-32.024c.158 0 .158-.159.316-.159.159-.158.317-.158.475-.317.159-.158.317-.317.317-.476v-.317l.158-.158c0-.159.159-.159.159-.317l-.317-.159c0-.158-.317-.158-.317-.317l.475-6.341c.159 0 .475.158.475.317z" fill="#16C5DC"/><path d="M241.982 338.318c2.375 1.427 2.375 3.488 0 4.915l-55.097 32.024c-2.375 1.427-6.016 1.427-8.391 0l-35.464-20.451c-2.375-1.268-2.375-3.488 0-4.915l55.096-32.024c2.375-1.427 6.016-1.427 8.391 0l35.465 20.451z" fill="#fff"/><path d="M195.118 334.512v6.817l-3.8 3.329h-3.483v-7.61l7.283-2.536z" fill="#FA5187"/><path d="M195.118 340.695v9.671l-6.492 3.805v-9.988l6.492-3.488z" fill="#BB4F23"/><path d="M187.202 337.524c-.475-.159-.792-.317-1.267-.476-.316-.158-.633-.158-1.108-.317-.317 0-.633-.158-.95-.158-.316 0-.633-.159-.95-.159h-3.166c-.475 0-.95.159-1.267.159l-1.9.475c-.791.317-1.583.634-2.216.951h-.159c-.475.317-.949.635-1.266.952-.317.158-.475.475-.633.634-.159.158-.317.475-.475.634-.159.158-.159.317-.317.634 0 .159-.158.317-.158.634v10.147c0-.159.158-.318.158-.635 0-.158.158-.317.317-.634.158-.158.316-.475.475-.634l.633-.634c.317-.317.791-.634 1.266-.951h.159c.633-.476 1.425-.793 2.216-.951l1.9-.476c.475 0 .792-.159 1.267-.159h3.166c.317 0 .634 0 .95.159.317 0 .633.158.95.158.317 0 .792.159 1.108.318.475.158.792.317 1.267.475.475.159 1.108.476 1.425.793v-10.147c-.475-.317-.95-.475-1.425-.792z" fill="#E7318B"/><path d="M191.635 348.145v4.439c0-1.585-.95 2.696-3.009 1.427v-9.988c2.059 1.427 3.009 2.696 3.009 4.122z" fill="#1E079D"/><path d="M191.635 348.148v4.439c0-1.586-.95 2.695-3.009 1.427v-10.147c2.059 1.268 3.009 2.854 3.009 4.281z" fill="#2670D4"/><path d="M200.817 348.463c0 .317 0 .793-.158 1.11 0 .317-.158.793-.317 1.11-.158.317-.316.792-.475 1.109a4.774 4.774 0 01-.791 1.11 4.839 4.839 0 01-1.267 1.269c-.633.634-1.583 1.268-2.533 1.902 0 0-.158.158-.317.158v4.44c.159 0 .159-.159.159-.159.95-.634 1.741-1.11 2.533-1.902l1.267-1.269c.316-.317.633-.792.791-1.11.159-.317.317-.792.475-1.109.158-.317.317-.793.317-1.11 0-.317.158-.793.158-1.11v-4.597c.158 0 .158 0 .158.158z" fill="#2689FD"/><path d="M195.118 340.695c7.6 4.439 7.6 11.098.158 15.378l-6.491-3.805c3.958-2.378 3.958-5.865 0-8.085l6.333-3.488z" fill="#58AFFB"/><path d="M195.118 353.855v6.818l-6.492-3.805v-1.11l6.492-1.903z" fill="#88630A"/><path d="M190.843 355.758c-1.108.317-2.375.634-3.641.951-.792.159-1.584.317-2.533.317-.634 0-1.425.159-2.217.159h-1.108v6.817h1.108c.792 0 1.425 0 2.217-.159.791-.158 1.741-.158 2.533-.317 1.266-.158 2.375-.475 3.641-.951 1.583-.476 3.008-1.11 4.275-1.902v-6.818c-1.267.793-2.692 1.427-4.275 1.903z" fill="#E2A029"/><path d="M181.502 357.185v6.818l-.158-5.391.158-6.975v5.548z" fill="#113C7A"/><path d="M195.118 353.856c-3.8 2.219-8.708 3.329-13.774 3.329v-5.39c2.691 0 5.224-.634 7.283-1.744l6.491 3.805z" fill="#FBD15B"/><path d="M180.552 353.379c-.633 0-1.266 0-1.9-.158-.633 0-1.266-.159-1.899-.159-.634-.158-1.267-.158-1.9-.317-.634-.158-1.425-.317-2.059-.475-.791-.159-1.583-.476-2.374-.793-.95-.317-1.9-.793-2.85-1.427-3.8-2.219-5.7-5.073-5.7-8.085v10.146c0 2.854 1.9 6.183 5.7 8.244l2.85 1.427c.791.317 1.583.634 2.374.793.634.158 1.267.317 2.059.475.633.159 1.266.317 1.9.317.633.159 1.266.159 1.899.159.634 0 1.267.158 1.9.158h.792v-10.463c-.158.158-.475.158-.792.158z" fill="#E7318B"/><path d="M195.118 334.513l-6.491 3.805c-3.958-2.378-10.608-2.378-14.566 0s-3.958 6.024 0 8.402c2.058 1.11 4.591 1.744 7.283 1.744v5.39c-4.908 0-9.975-1.109-13.774-3.329-7.6-4.439-7.6-11.573-.159-16.012 7.758-4.439 20.107-4.439 27.707 0z" fill="#FF7785"/><path d="M230.741 341.646c.475.317.475.793 0 1.11-.475.317-1.425.317-1.9 0l-27.39-15.854c-.475-.317-.475-.792 0-1.11.475-.317 1.425-.317 1.9 0l27.39 15.854zm-18.999-7.293c.475.317.475.793 0 1.11-.475.317-1.425.317-1.9 0l-11.716-6.658c-.475-.317-.475-.793 0-1.11.475-.317 1.425-.317 1.9 0l11.716 6.658zm3.641 5.547c.475.318.475.793 0 1.11-.475.317-1.425.317-1.9 0l-18.207-10.463c-.475-.317-.475-.793 0-1.11.475-.317 1.425-.317 1.9 0l18.207 10.463z" fill="#D4D9DF"/><path d="M319.244 263.171v1.744c-.158-.476-.317-.793-.317-1.269v-1.744c.159.476.159.952.317 1.269z" fill="#003783"/><path d="M293.437 262.061v.951c0 .159-.158.159-.158.317 0 .159-.158.159-.158.317v1.744l.158-.158v-.159c0-.158.158-.158.158-.317v-2.854.159z" fill="#0046A6"/><path d="M334.126 263.807v.793s0 .158-.158.158c0 0 0 .159-.158.159l-.159.158s0 .159-.158.159l-.317.317-.158.158-.158.159s-.159 0-.159.158c-.158 0-.158.159-.316.159-.159.159-.475.159-.634.317 0 0-.158 0-.158.159-.158 0-.317.158-.475.158h-.158c-.159 0-.317.159-.475.159h-3.8c-.158 0-.475 0-.633-.159v1.744h4.591c.158 0 .317-.158.475-.158h.158c.159 0 .317-.159.475-.159 0 0 .159 0 .159-.159.158-.158.475-.158.633-.317l.158-.158s.159 0 .159-.159l.158-.158.158-.159.317-.317v-.158l.158-.159s0-.158.159-.158v-2.696l.316.159zm-47.338 3.011c-.159 0-.317 0-.634.158h-2.691c-.317 0-.475 0-.792-.158h-.158c-.317 0-.475-.159-.792-.159-.316 0-.475-.159-.791-.317h-.159c-.158-.159-.475-.159-.633-.317-1.108-.634-1.742-1.585-1.742-2.537v1.744c0 .951.634 1.903 1.742 2.537.158.158.475.158.633.317h.159c.158.158.475.158.633.158.158 0 .317.159.633.159h3.8c.158 0 .317 0 .633-.159h.159c.158 0 .316 0 .475-.158v-1.744c0 .476-.317.476-.475.476zm52.088 7.768v1.585l-12.824 7.61v-1.744l12.824-7.451zm-51.455 7.61l-.158 1.744-13.3-7.769v-1.585l13.458 7.61zm46.705 3.647v.159c0 .158 0 .158-.158.317v.158s0 .159-.158.159c0 .158-.159.158-.159.317s-.158.317-.316.476c-.159.158-.159.317-.317.475l-.317.317c-.158.159-.316.317-.475.317h-.158c-.158.159-.317.317-.633.317-.159.159-.317.159-.633.317 0 0-.159 0-.159.159-.158 0-.316.159-.475.159 0 0-.158 0-.158.158-.158 0-.317.159-.475.159 0 0-.158 0-.158.158-.159 0-.159 0-.317.159-.158 0-.317.158-.475.158h-.317c-.158 0-.316 0-.475.159h-.316c-.317 0-.634.158-.95.158h-3.8c-.158 0-.158 0-.317-.158h-.316c-.159 0-.317-.159-.475-.159-.159 0-.159-.158-.317-.158h-.158c-.159 0-.317-.159-.475-.317-1.108-.635-1.742-1.586-1.742-2.537v1.744c0 .951.634 1.902 1.742 2.537.158.158.316.158.475.317h.158s.158 0 .158.158h.159c.158 0 .316.159.475.159h4.433c.316 0 .633 0 .95-.159h.316c.159 0 .317 0 .475-.158h.317c.158 0 .317-.159.475-.159h.317s.158 0 .158-.158c.158 0 .317-.159.475-.159 0 0 .158 0 .158-.159.159 0 .317-.158.475-.158 0 0 .159 0 .159-.159.158-.158.316-.158.633-.317h.158c.158-.158.317-.158.475-.317h.158c.159-.158.317-.317.475-.317l.159-.158c.158 0 .158-.159.158-.159l.317-.317c.158-.159.158-.317.316-.317 0-.159.159-.159.159-.317v-.317c0-.159 0-.159.158-.317v-2.22c.317-.317.317-.158.158 0zm-34.83-7.133c-.159-.159-.475-.317-.634-.317 0 0-.158 0-.158-.159-.158 0-.317-.158-.475-.158-.158 0-.317-.159-.475-.159h-.158c-.159 0-.317-.159-.634-.159-.316 0-.633-.158-.791-.158h-.159c-.158 0-.316 0-.475-.159h-3.324c-.159 0-.317 0-.634.159h-.316c-.159 0-.317 0-.475.158h-.475c-.159 0-.317.159-.475.159 0 0-.159 0-.159.159-.158.158-.316.158-.633.317l-.158.158s-.158 0-.158.159l-.159.158-.158.159-.317.317v.158l-.158.159s0 .158-.158.158v2.696-.952s0-.158.158-.158c0 0 0-.159.158-.159l.159-.158s0-.159.158-.159l.317-.317.158-.158.158-.159s.158 0 .158-.158c.159 0 .159-.159.317-.159.158-.159.317-.159.633-.317 0 0 .159 0 .159-.159.158 0 .316-.158.475-.158.158 0 .158 0 .316-.159h.159c.158 0 .316 0 .475-.158h.316c.159 0 .317 0 .634-.159h3.324c.159 0 .317 0 .475.159h.317c.317 0 .633.158.792.158.158 0 .475.159.633.159h.158c.159 0 .317.158.475.158.159 0 .317.159.475.159 0 0 .159 0 .159.158.158.159.474.159.633.318 1.741 1.109 2.691 2.378 2.691 3.646v-1.744c-.633-.951-1.583-2.22-3.324-3.329z" fill="#2689FD"/><path d="M319.402 285.844v1.744l-12.824 7.451v-1.744l12.824-7.451z" fill="#2689FD"/><path d="M331.434 260.002c3.167 1.902 3.642 4.597.95 6.182-1.583.952-4.116 1.269-6.491.793l12.982 7.451-12.824 7.452c2.375-.318 4.908-.159 6.491.792 2.692 1.586 2.217 4.281-.95 6.183-3.166 1.903-7.916 2.061-10.607.634-1.583-.951-2.058-2.378-1.425-3.805l-12.983 7.61-13.299-7.768c2.533.475 5.225.317 6.966-.793 2.692-1.585 2.217-4.28-.949-6.183-3.167-1.902-7.917-2.061-10.608-.634-1.742.951-2.217 2.537-1.267 4.122l-13.299-7.768 13.458-7.768c-2.692.634-5.383.317-7.283-.635-2.692-1.585-2.217-4.28.95-6.183 3.166-1.902 7.916-2.061 10.607-.634 1.9 1.11 2.217 2.695 1.267 4.281l13.457-7.769 12.983 7.452c-.633-1.427-.158-2.854 1.425-3.805 2.375-1.268 7.124-.951 10.449.793z" fill="#58AFFB"/><path d="M306.578 293.293v1.744l-13.299-7.609v-1.744l13.299 7.609z" fill="#2689FD"/><path d="M278.843 583.812s16.241-13.535 17.68-34.193c1.028-15.671-9.868-21.607-20.147-3.324 0 0 15.008-28.019 1.233-37.754-10.279-7.361-15.625 13.772-15.625 13.772s10.28-35.142-4.728-36.092c-10.691-.712-9.252 18.284-9.252 18.284s-9.662-28.257-20.97-20.421l51.809 99.728zm-52.014-99.492s-14.597 6.411 5.14 30.868c0 0-14.597-11.16-20.148-.475-5.345 10.686 27.138 22.558 27.138 22.558s-17.475-5.224-19.326 8.548c-1.85 13.534 33.1 17.334 33.1 17.334s-14.186.237-15.83 9.735c-1.645 9.498 29.604 19.233 41.529 10.922l-51.603-99.49z" fill="#878CF0"/><path d="M258.9 574.787c2.468.238 4.935 0 7.402-.237 1.85-.238 3.7-.475 5.551-.95l-12.336-24.695c-2.467.475-5.139.95-7.812.95-2.878.238-5.757 0-8.635-.237-2.878-.238-5.756-.95-8.429-1.662-2.673-.713-5.551-1.662-8.224-3.087 2.673 1.187 5.346 1.899 8.224 2.612 2.878.712 5.551 1.187 8.429 1.187 2.878.237 5.757.237 8.429 0 2.467-.237 4.729-.712 7.196-1.187l-9.663-19.233c-2.672-.238-5.551-.475-8.223-1.188-1.439-.237-2.879-.712-4.112-1.187-1.439-.475-2.673-.95-4.112-1.425-2.673-1.187-5.345-2.374-7.812-3.799-2.467-1.424-4.934-3.087-7.401-4.986 2.467 1.899 4.934 3.324 7.401 4.749 2.672 1.425 5.139 2.612 8.018 3.562 1.439.474 2.672.949 4.111 1.187 1.44.237 2.673.712 4.112.95 2.467.474 4.934.712 7.196.712l-18.503-37.042 19.736 36.33c1.028-2.375 2.056-4.987 2.879-7.599 1.028-3.087 1.85-5.936 2.467-9.023.616-3.087 1.233-6.173 1.644-9.26.412-3.087.823-6.411 1.028-9.498 0 3.087-.205 6.411-.616 9.498-.412 3.087-.823 6.411-1.44 9.498-.616 3.087-1.439 6.173-2.261 9.26a71.028 71.028 0 01-3.084 8.548l10.28 18.996c1.644-1.9 3.289-4.037 4.523-6.174 1.439-2.612 2.878-5.461 4.111-8.31 1.234-2.85 2.262-5.936 3.084-9.023.823-3.087 1.645-6.174 2.056-9.261-.411 3.087-1.028 6.411-1.85 9.498-.823 3.087-1.645 6.174-2.673 9.023-1.028 2.85-2.467 5.936-3.906 8.548-1.439 2.375-2.878 4.749-4.729 6.886l12.952 23.982c1.44-1.899 2.673-3.799 3.907-5.936 1.644-2.612 3.083-5.224 4.317-8.073 1.439-2.849 2.673-5.461 3.701-8.311 1.233-2.849 2.261-5.698 3.083-8.785-.822 3.087-1.85 5.936-2.878 9.023-1.028 2.849-2.261 5.698-3.495 8.548-1.233 2.849-2.672 5.461-4.112 8.31-1.233 2.375-2.672 4.512-4.111 6.649l15.213 28.019-3.289 2.137-14.391-28.731a27.32 27.32 0 01-6.168.712c-2.467 0-4.934 0-7.401-.237-2.467-.238-4.934-.713-7.402-1.188-2.467-.475-4.934-1.187-7.195-1.899a42.139 42.139 0 007.195 1.424c3.084.95 5.551 1.188 8.018 1.425z" fill="#56548C"/><path d="M409.597 586.66s13.98 6.174 25.904-1.424c9.046-5.699 7.607-16.147-6.579-15.909 0 0 21.382-.713 20.97-14.722-.205-10.448-13.98-5.699-13.98-5.699s23.437-7.123 17.681-18.283c-4.112-8.073-13.775.95-13.775.95s11.513-18.758 2.468-23.745l-32.689 78.832z" fill="#878CF0"/><path d="M442.286 507.828s-9.457-8.073-14.597 16.622c0 0 0-15.197-8.018-14.722-8.018.475-1.028 29.206-1.028 29.206s-4.523-14.722-12.541-10.448c-8.224 4.274 4.317 31.343 4.317 31.343s-5.962-9.973-11.924-7.361c-5.756 2.612 1.645 29.444 11.308 34.667l32.483-79.307z" fill="#878CF0"/><path d="M406.308 568.377c1.028 1.9 2.056 3.562 3.083 5.224.823 1.187 1.851 2.612 2.879 3.799l8.223-19.233c-1.233-1.662-2.672-3.324-3.7-5.224-1.234-1.899-2.467-4.036-3.29-6.411-1.028-2.137-1.85-4.511-2.672-6.886-.823-2.374-1.44-4.749-1.645-7.123.411 2.374 1.233 4.749 1.85 7.123.823 2.375 1.645 4.512 2.878 6.649a56.783 56.783 0 003.495 6.173 37.906 37.906 0 003.495 4.749l6.374-14.959c-1.028-2.137-2.056-4.274-2.673-6.411-.411-1.187-.822-2.374-1.028-3.562-.206-1.187-.617-2.374-.822-3.561a41.844 41.844 0 01-1.234-7.361c-.205-2.375-.411-4.987-.411-7.361 0 2.374.206 4.986.617 7.361.411 2.374.822 4.749 1.439 7.123.205 1.187.617 2.375 1.028 3.562.411 1.187.822 2.374 1.233 3.324.823 1.9 1.645 3.799 2.673 5.699l12.335-28.731-11.718 29.206c1.85-.238 3.495-.475 5.345-.95 2.056-.475 4.112-1.187 5.962-1.9 2.056-.712 3.906-1.662 5.757-2.611 1.85-.95 3.7-2.138 5.551-3.325-1.851 1.187-3.495 2.375-5.551 3.562-1.851.95-3.701 2.137-5.757 2.849-1.85.95-3.906 1.662-5.962 2.137-1.85.713-3.906.95-5.962 1.188l-6.168 15.196c1.645.475 3.495.713 5.346.713 2.056 0 4.111-.238 6.167-.475l6.168-1.425c2.056-.712 3.906-1.425 5.962-2.375-1.85.95-3.906 1.9-5.756 2.612-2.056.713-4.112 1.425-6.168 1.663a27.378 27.378 0 01-6.168.712c-1.85 0-3.7-.238-5.756-.712l-7.607 19.47c1.645.238 3.289.475 4.934.475 2.056 0 4.112 0 6.168-.237l6.167-.713c2.056-.237 4.112-.712 5.963-1.424-2.056.712-3.907 1.187-5.963 1.662-2.055.475-4.111.712-6.167.949-2.056.238-4.112.475-6.168.475-1.85 0-3.495 0-5.345-.237l-9.046 22.557-2.467-1.424 9.663-22.32c-1.028-1.425-2.056-2.612-2.879-4.274-1.028-1.662-2.056-3.562-2.878-5.462l-2.467-5.698c-.822-1.9-1.439-4.037-2.056-5.936.617 2.137 1.439 4.036 2.262 5.936.616 2.612 1.644 4.511 2.467 6.173z" fill="#56548C"/><path d="M71.716 407.855s16.037-6.242 20.87-22.658c3.703-12.472-4.695-20.313-16.41-8.783 0 0 17.476-18.11 7.664-30.336-7.25-8.988-15.445 6.645-15.445 6.645s14.843-25.25 2.492-30.636c-8.78-3.818-11.053 12.194-11.053 12.194s-3.236-25.745-14.102-22.844l25.984 96.418z" fill="#878CF0"/><path d="M45.28 311.558s-13.376.77-1.136 26.632c0 0-10.317-13.211-16.758-6.45-6.37 7.023 18.911 26.322 18.911 26.322s-13.92-9.448-17.886 1.134c-3.965 10.582 25.04 23.845 25.04 23.845s-11.932-3.817-14.924 3.144c-3.148 7.283 21.574 24.491 33.05 21.147l-26.298-95.774z" fill="#878CF0"/><path d="M56.522 394.546c2.16.824 4.024 1.447 6.115 2.009 1.567.422 3.361.783 4.86.944l-6.057-23.592c-2.247-.241-4.563-.742-6.723-1.566-2.387-.764-4.843-1.788-7.073-2.874-2.23-1.085-4.53-2.431-6.829-3.778-2.073-1.407-4.443-3.015-6.36-4.745 1.917 1.73 4.287 3.338 6.517 4.423 2.3 1.347 4.53 2.432 6.759 3.517 2.456 1.025 4.616 1.849 7.23 2.552 2.09.562 4.11.863 6.13 1.164l-4.66-18.363-6.69-3.256a14.616 14.616 0 01-3.257-2.211c-1.185-.804-2.143-1.668-3.102-2.533-2.143-1.668-4.06-3.397-6.046-5.388a51.85 51.85 0 01-5.28-6.153c1.76 2.051 3.52 4.102 5.506 6.093 1.987 1.99 3.904 3.719 5.977 5.126.958.865 2.073 1.407 3.258 2.211 1.115.543 2.3 1.347 3.414 1.89 2.004 1.145 3.938 2.03 6.098 2.853l-9.198-35.357 10.173 35.377c1.236-1.73 2.767-3.26 3.707-5.191 1.392-2.052 2.488-4.306 3.584-6.559s2.122-4.768 2.992-6.961c.8-2.454 1.826-4.969 2.4-7.362-.504 2.655-1.304 5.109-2.104 7.563a57.888 57.888 0 01-2.922 7.223c-1.096 2.253-2.192 4.506-3.514 6.82-1.166 1.992-2.558 4.044-4.02 5.835l5.408 18.442c1.672-1.006 3.5-2.334 4.875-3.542 1.758-1.59 3.447-3.441 4.839-5.493 1.392-2.052 2.784-4.105 4.107-6.418 1.322-2.314 2.418-4.567 3.514-6.821-.8 2.455-1.896 4.708-3.218 7.022a54.547 54.547 0 01-3.81 6.619c-1.393 2.052-3.081 3.904-4.77 5.755-1.532 1.529-3.36 2.857-5.188 4.186l6.736 23.41c1.375-1.207 3.046-2.214 4.352-3.683 1.758-1.59 3.446-3.441 5.135-5.292 1.688-1.851 3.15-3.642 4.542-5.694l4.177-6.157c-1.096 2.253-2.488 4.306-3.88 6.358-1.393 2.052-2.785 4.104-4.473 5.956-1.462 1.79-3.15 3.642-4.84 5.493a50.065 50.065 0 01-4.508 4.004l7.782 27.333-3.169.846-7.103-27.514c-1.794-.361-3.588-.722-5.452-1.345-2.09-.562-4.25-1.386-6.254-2.532-1.933-.884-4.163-1.969-5.94-3.175-2.004-1.146-4.007-2.292-5.854-3.759 1.777 1.206 3.78 2.351 5.784 3.497 2.16.824 4.39 1.909 6.323 2.793z" fill="#56548C"/><path d="M92.077 440.512s13.396 5.666 24.121-1.398c8.061-5.233 6.227-14.827-7.062-14.641 0 0 19.976-.571 18.889-13.726-.858-9.574-13.256-5.143-13.256-5.143s21.523-6.587 15.422-16.722c-4.132-7.3-12.853.911-12.853.911s9.5-17.102.737-21.764l-25.998 72.483z" fill="#878CF0"/><path d="M118.006 367.766s-9.235-7.338-12.689 15.151c0 0-1.069-13.999-8.506-13.694-7.437.305.815 26.671.815 26.671s-5.058-13.494-12.492-9.549c-7.435 3.946 5.954 28.661 5.954 28.661s-6.118-9.29-11.498-6.734c-5.38 2.557 3.358 27.113 12.644 31.917l25.772-72.423z" fill="#878CF0"/><path d="M87.836 423.718c.941 1.709 2.109 3.358 3.207 4.745.802 1.187 1.83 2.313 2.858 3.439l6.661-17.744c-1.394-1.589-2.562-3.237-3.73-4.886-1.237-1.911-2.475-3.821-3.486-5.792-1.011-1.971-2.092-4.203-2.877-6.234-.785-2.031-1.64-4.324-1.971-6.476.558 2.092 1.413 4.384 2.197 6.416.785 2.031 1.866 4.263 3.104 6.173a34.897 34.897 0 003.712 5.731c1.168 1.649 2.266 3.037 3.591 4.364l5.078-13.68c-1.011-1.971-2.249-3.881-3.034-5.913-.505-.985-.785-2.031-1.36-3.278-.279-1.046-.785-2.031-1.134-3.338-.558-2.092-1.186-4.445-1.519-6.597-.332-2.152-.733-4.566-.84-6.778.106 2.212.508 4.626 1.067 6.717a32.62 32.62 0 001.745 6.537c.279 1.046.785 2.031 1.134 3.338.505.986.785 2.032 1.29 3.017a25.226 25.226 0 002.824 5.128l9.913-26.455-9.024 27.058c1.654-.162 3.309-.323 4.893-.746 1.811-.484 3.622-.967 5.59-1.773 1.741-.745 3.483-1.49 5.154-2.496l5.014-3.019c-1.601 1.268-3.273 2.274-4.944 3.28-1.672 1.007-3.413 1.752-5.084 2.758-1.742.745-3.483 1.49-5.52 2.034-1.811.484-3.622.967-5.503 1.189l-4.712 14.143c1.567.421 3.292.521 5.016.621 1.951.04 3.831-.183 5.712-.405 1.881-.222 3.692-.705 5.66-1.511 1.811-.483 3.552-1.228 5.52-2.033-1.672 1.006-3.413 1.751-5.451 2.295-1.741.745-3.778 1.289-5.589 1.772-1.811.484-3.918.766-5.869.727-1.724-.1-3.449-.2-5.243-.561l-6.138 17.884 4.494.481c1.95.039 3.901.079 5.782-.143l5.642-.666c1.881-.222 3.692-.706 5.503-1.189l-5.433 1.45c-1.811.484-3.692.706-5.573.928-1.881.222-3.761.444-5.712.404-1.654.162-3.152.002-4.946-.36l-7.025 20.922-2.526-1.286 7.617-20.52c-1.028-1.126-2.126-2.513-2.998-3.961-1.167-1.649-2.109-3.358-3.05-5.068-.942-1.709-1.883-3.418-2.668-5.449-.715-1.77-1.5-3.801-2.215-5.571.715 1.77 1.5 3.801 2.442 5.51.871 1.448 1.813 3.157 2.754 4.867z" fill="#56548C"/><path d="M357.583 472.211c-1.645 4.274-6.373 7.123-12.952 9.498-1.234 5.699-3.29 11.16-3.701 16.859-.411-1.9-.616-4.037-.616-5.937 0-3.324.411-6.648.822-9.735-2.878.95-5.962 1.662-9.252 2.612-2.055 6.174-2.672 13.06-2.467 19.708 0 4.986.617 9.735 1.234 14.484a78.102 78.102 0 01-2.878-5.936c-.823-2.137-1.645-4.274-2.262-6.411a36.384 36.384 0 01-.617-6.648c0-4.512.412-9.261 1.028-13.772-3.495.949-7.195 1.899-10.896 2.849-.205 1.187-.411 2.137-.617 3.324-1.644 11.16-.616 22.558 2.673 33.005-.411-.475-.617-.949-.822-1.424-1.645-2.612-3.084-5.224-4.523-8.074-.823-1.899-1.645-3.799-2.056-5.936-1.439-6.173-.411-12.584.205-19.233-4.111 1.425-8.018 3.087-11.513 4.987 0 4.036.206 8.073.412 12.109.205 1.9.205 3.562.616 5.462.412 2.374 1.234 4.511 1.851 6.648 2.878 8.786 6.373 17.571 11.307 24.932-1.233-.95-2.261-2.374-3.495-3.562-9.663-11.16-15.214-26.594-16.241-42.503-3.084 2.137-5.963 4.749-8.224 7.836-1.439 1.9-2.673 3.799-3.906 5.699 0 4.511.411 9.26 1.028 13.772.616 3.561 1.233 7.123 2.672 10.21.823 1.899 2.056 3.562 3.084 5.224 5.757 8.31 12.952 15.196 20.353 21.607-11.512-4.274-22.203-12.822-28.782-24.457-1.85-3.324-3.495-6.886-5.14-10.21-3.495 13.772-1.644 28.019 7.607 38.941 14.391 17.097 34.745 10.923 34.745 10.923l41.323-106.851z" fill="#B1B2F3"/><path d="M316.671 579.301s13.363 24.932 35.361 24.219c11.307-.237 20.765-9.735 26.727-21.132a41.284 41.284 0 01-6.785 2.849c-6.99 2.375-14.391 1.662-21.381-.712-4.934-1.662-9.663-4.037-14.186-6.886 4.934.712 10.074.95 15.214.95 2.673 0 5.345.237 8.018-.475 2.467-.475 4.728-1.662 6.99-2.612 2.673-1.188 5.345-2.375 7.812-4.037 4.729-3.087 8.635-7.361 11.924-12.347.412-2.849.412-5.461 0-7.836-.411-3.324-1.028-6.411-1.644-9.735-1.645 1.662-3.084 3.562-4.729 5.224a62.386 62.386 0 01-5.345 5.461c-2.056 1.662-4.112 3.087-6.373 4.037-6.99 3.561-14.597 5.223-22.204 4.986 3.495-.95 6.99-2.375 10.279-4.037 2.879-1.424 5.551-3.324 8.43-5.224 2.467-1.662 4.934-3.324 7.401-5.223 4.112-3.325 7.607-7.124 10.896-11.398-1.234-4.036-2.673-7.836-4.112-11.635-2.056 3.325-4.317 6.174-6.784 8.786-4.729 4.986-10.485 8.548-16.858 9.023-1.028.237-2.056.237-3.29.237 5.757-2.612 11.102-6.173 16.036-10.685a17.254 17.254 0 003.701-4.274c2.056-2.612 3.495-5.699 4.728-9.023-1.645-3.562-3.289-7.123-5.14-10.448-2.467 4.987-5.756 9.261-9.662 12.585-3.084 2.612-6.373 4.512-10.074 5.699 2.878-2.137 5.345-4.986 7.401-8.073 3.701-5.462 6.168-11.873 8.018-18.284l-3.701-7.123c-2.055 4.274-4.934 7.836-8.017 10.922 2.878-4.511 4.934-9.26 6.373-14.721-3.495-7.361-5.346-13.06-3.906-16.859l-41.118 107.801z" fill="#B1B2F3"/><path d="M295.701 565.29c1.85 1.187 3.7 2.137 5.55 3.087 1.851.712 3.907 1.662 5.963 2.137 3.7.95 7.606 1.424 11.513 1.187l3.906-9.735c-4.318-1.9-8.429-4.274-12.13-7.124-1.028-.712-2.056-1.662-3.084-2.374-1.028-.95-1.85-1.662-2.878-2.612a66.329 66.329 0 01-5.14-5.936c-3.289-4.274-5.756-9.023-7.812-14.01-2.056-5.223-3.495-10.447-3.906-16.146.616 5.461 2.055 10.922 4.111 15.909 2.056 4.986 4.729 9.735 8.018 13.772 1.645 2.137 3.29 4.036 5.14 5.699.822.949 1.85 1.662 2.878 2.611 1.028.713 2.056 1.663 3.084 2.375 3.906 2.849 8.018 4.986 12.13 6.886l4.728-12.11-4.317-3.799c-1.439-1.425-3.084-3.087-4.523-4.512l-2.056-2.374c-.411-.475-.822-.712-1.028-1.187l-1.028-1.425c-.616-.95-1.233-1.662-2.056-2.612l-1.85-2.849a53.51 53.51 0 01-5.345-12.347c-1.234-4.512-2.056-9.023-1.439-13.772-.206 4.749.616 9.26 1.85 13.534a62.703 62.703 0 005.551 12.11l1.85 2.849c.617.95 1.234 1.662 2.056 2.612l1.028 1.187c.411.475.822.713 1.028 1.188l2.261 2.374c1.44 1.425 3.084 2.849 4.729 4.274l4.317 3.324 3.701-9.26-3.084-4.274-1.439-2.375c-.206-.474-.617-.712-.822-1.187l-.617-1.187-1.439-2.612-1.234-2.612-.617-1.425-.411-1.424c-.205-.95-.616-1.9-.822-2.85-1.234-3.799-1.85-7.598-2.056-11.634-.206-4.037-.206-7.836.617-11.635-.617 3.799-.617 7.835-.206 11.635.411 3.799 1.234 7.598 2.467 11.397.206.95.617 1.9 1.028 2.612l.411 1.425c.206.474.412.949.617 1.187l1.234 2.612 1.439 2.374.617 1.187c.205.475.411.713.822 1.188l1.645 2.374c.822 1.187 1.85 2.375 2.878 3.562l5.756-14.484h-.205a53.96 53.96 0 01-1.85-7.836c-.412-2.612-.823-5.224-.823-8.073a102.788 102.788 0 010-15.909c-.205 5.224 0 10.685.617 15.909a51.848 51.848 0 001.233 7.835c.412 2.137 1.028 4.274 1.645 6.174l12.336-31.343-11.925 32.055c2.262-.237 4.523-.949 6.785-1.899 2.467-1.187 4.728-2.612 6.784-4.512 2.056-1.899 3.906-4.036 5.757-6.173 1.644-2.375 3.289-4.749 4.728-7.361-1.233 2.612-2.878 5.224-4.523 7.598-1.644 2.375-3.495 4.512-5.551 6.649a37.864 37.864 0 01-6.784 4.986c-2.467 1.425-5.14 2.137-7.812 2.374l-5.346 14.485c1.439.237 3.084.237 4.523.237 1.851 0 3.495-.237 5.346-.712 3.495-.712 6.99-2.137 10.073-3.799 3.29-1.662 6.374-3.799 9.457-5.936 2.879-2.375 5.757-4.749 8.43-7.599-2.467 2.85-5.346 5.461-8.224 8.073a67.643 67.643 0 01-9.251 6.411c-3.29 1.9-6.785 3.325-10.28 4.037-1.85.475-3.7.712-5.345.95-1.645 0-3.29 0-5.14-.238l-3.495 9.498c3.906 1.662 8.018 2.85 12.13 2.85 4.317.237 8.84-.475 13.158-1.9a59.669 59.669 0 0012.335-5.699c3.906-2.374 7.607-5.223 11.102-8.548-3.29 3.325-6.99 6.411-10.897 9.023-3.906 2.612-8.018 4.749-12.335 6.174-4.317 1.425-8.84 2.374-13.363 2.374-4.318 0-8.635-.949-12.541-2.612l-4.523 12.348c4.112 2.612 8.635 4.986 13.363 6.411a40.677 40.677 0 007.401 1.424c2.468.238 5.14.238 7.607 0 5.14-.475 10.074-1.899 14.803-4.036 2.261-1.187 4.728-2.375 6.784-4.037 2.262-1.425 4.317-3.324 6.168-5.224-1.851 1.9-3.906 3.8-6.168 5.462-2.261 1.662-4.523 3.086-6.784 4.274-4.729 2.374-9.663 4.036-14.803 4.511-2.467.238-5.14.238-7.812 0a39.64 39.64 0 01-7.607-1.424c-4.728-1.425-9.251-3.325-13.569-5.937l-3.7 9.736c2.672 4.036 5.756 7.598 9.251 10.685.822.95 1.85 1.662 2.878 2.374 1.028.713 1.851 1.425 2.879 2.137 2.055 1.425 4.111 2.375 6.373 3.324 4.317 1.9 9.046 2.612 13.569 2.85 4.728 0 9.251-.712 13.774-2.375-4.317 1.9-9.046 2.612-13.774 2.85-4.729 0-9.457-.713-13.775-2.375a81.898 81.898 0 01-6.579-3.087c-1.028-.474-2.055-1.424-3.083-1.899-1.028-.712-2.056-1.425-2.879-2.375-3.495-2.849-6.579-6.173-9.251-9.972l-10.485 28.493-2.467-1.187 11.102-28.019c-3.701 0-7.402-.475-11.102-1.662-2.056-.712-4.112-1.424-5.962-2.374-1.851-.95-3.907-1.9-5.551-3.325-3.701-2.374-6.99-5.461-9.869-8.785-3.083-3.324-5.756-6.886-8.017-11.16 2.261 4.037 5.139 7.598 8.223 10.685 2.262 2.137 5.757 4.986 9.252 7.361z" fill="#56548C"/><path d="M148.015 400.998c-1.719 1.75-2.784 4.424-4.088 6.688-1.421 2.469-2.547 4.835-4.741 6.586-1.897 1.647-4.57-.714-3.742-2.977 1.006-2.983 3.318-4.939 5.512-6.69a15.961 15.961 0 013.084-2.06c1.127-.721 2.314-1.134 3.441-1.855.533-.515.949-.001.534.308zm5.241 17.267c-2.492.209-4.448 2.37-6.524 3.915-2.076 1.545-5.1 3.913-7.653 2.991-1.9-.82-2.081-3.39-.124-4.729 1.245-.927 2.492-1.031 3.856-1.341l3.857-1.342c1.186-.413 2.433-.517 3.679-.621 1.068-.207 2.196-.106 3.324-.005.356.205.06 1.131-.415 1.132zm-22.402-24.955c.772.719 1.069 1.438 1.308 2.672.239 1.233.181 2.57.242 3.701.06 1.131.181 2.57.301 4.009.002 1.645.716 3.7.065 5.243-.71 2.057-3.142 3.397-4.568 1.754-1.842-2.157-1.491-6.886-.486-9.869.414-1.132 1.007-2.161 1.421-3.292.296-.926 1.244-2.572.886-3.6-.119-.616.593-1.028.831-.618zm16.906 45.624c-1.068.207-2.256-.202-3.087-.407-1.306-.204-2.612-.408-3.799-.817-2.731-1.025-5.108-3.489-6.535-5.955-.952-1.644 1.004-4.628 3.022-4.014 2.731 1.025 3.922 3.902 6.298 5.544 1.069.616 2.019 1.437 2.97 2.258.772.719 1.901 1.643 1.843 2.979-.178-.102-.415.309-.712.412zm-34.631-26.787c.891.513 2.433.305 3.561.406 1.425-.002 2.671-.106 3.977.098 1.603.101 2.552.099 4.155.2 1.781.203 3.444 1.435 2.615 3.698-1.479 3.806-6.823 2.373-8.961 1.143-1.247-.719-2.197-1.54-3.326-2.464-.772-.718-1.426-1.643-2.08-2.567-.238-.411-.119-.617.059-.514zm-1.171 15.219c1.186-1.236 3.084-2.061 4.626-3.091 1.661-1.236 3.558-2.883 5.338-3.502 2.373-.826 4.276 2.462 2.142 4.521-2.016 1.853-4.449 2.37-6.763 2.682-1.662.413-3.976.724-5.58-.199l.237-.411zM128.476 444c-.001-.822-.298-1.542-.477-2.467-.239-1.233-.3-2.364-.538-3.597-.3-2.365-1.135-5.859.525-7.918 1.186-1.235 3.263-1.135 3.858.304.536 1.13.359 2.672.301 4.009l-.173 4.01c-.235 2.056-.529 4.627-2.486 5.966-.594.207-.95.001-1.01-.307z" fill="#B1B2F3"/><path d="M115.504 413.788c2.851 1.641 6.293 1.431 9.439 2.146 2.315.512 4.513 2.051 6.117 3.797.178-.72.058-1.337-.061-1.954-.418-2.158-.539-4.42-.482-6.579l-.008-7.403c.058-1.336-.003-2.467.233-3.701.118-1.028.532-2.16.175-3.187 0 0 .118-.206.296-.104.298.72.002 1.645.003 2.468-.176 1.542-.234 2.879-.114 4.318.063 2.776.006 5.758.069 8.533-.058 1.337.181 2.57.301 4.01.061 1.13.418 2.158.478 3.289-.118.206.06.308-.058.514.237-.411.474-.823.889-1.132 1.126-1.544 2.548-3.19 3.674-4.734s2.371-3.293 3.675-4.734c1.541-1.853 3.438-3.5 5.158-5.25.118-.206.178.102.178.102-1.601 1.545-3.202 3.089-4.624 4.736-1.423 1.647-2.371 3.293-3.615 5.042-1.126 1.544-2.549 3.191-3.675 4.734-.652.721-1.244 1.75-1.718 2.573 2.79.51 5.284 1.946 8.192 1.428 2.967-.209 5.992-1.755 8.661-3.506 0 0 .179.102 0 0-2.669 1.751-5.397 3.194-8.305 3.712-2.907.517-5.757-.301-8.429-1.018 1.19 2.878 3.211 5.137 5.231 7.396 2.199 2.362 4.457 5.032 6.893 6.982.178.103-.119.206-.119.206-2.614-2.053-4.872-4.723-7.249-7.187-2.139-2.054-3.981-4.21-5.289-6.882-.178.72-.533 1.337-.71 2.057-.295 1.749-.293 3.394-.47 4.936-.115 3.496-.23 6.991-.463 10.693.115-3.496-.245-6.991.048-10.384-.002-1.645.175-3.187.351-4.73.059-.514.236-1.234.295-1.748l-.593 1.029c-1.599 2.367-3.556 4.528-5.334 6.792-2.785 3.602-5.393 7.307-7.882 10.806-2.785 3.602-5.333 7.615-7.881 11.628-2.429 3.807-4.68 7.717-7.703 10.908-1.305 1.441-3.087-.408-1.783-1.849 2.964-3.499 5.453-6.998 7.882-10.805 2.607-3.705 5.156-6.895 7.942-10.497 2.667-3.396 5.334-6.793 8.179-10.086 2.193-2.573 4.565-5.044 6.401-7.822l-.059-.309.237-.411c-2.314 1.134-5.044.932-7.239 1.86-1.483.516-2.67.929-4.094 1.753-1.305.618-2.313 1.134-3.678 1.444-.178-.103-.059-.308-.059-.308 1.542-.208 2.966-1.032 4.271-1.651 1.008-.515 2.195-.928 3.382-1.341 2.669-.929 5.34-1.035 7.891-2.58l.236-.412.119-.206c-1.724-2.362-4.396-3.901-7.186-4.411-2.791-1.333-5.64-1.329-8.016-2.971-.178-.103-.178-.103 0 0z" fill="#56548C"/><defs><linearGradient id="paint0_linear" x1="593.669" y1="103" x2="593.669" y2="224.529" gradientUnits="userSpaceOnUse"><stop stop-color="#E02287" stop-opacity=".6"/><stop offset="1" stop-color="#607CFE"/></linearGradient></defs></svg>