<svg width="321" height="262" fill="none" xmlns="http://www.w3.org/2000/svg"><path opacity=".75" d="M179.919 11.346C162.43 1.02 143.666 14.271 133.828 34.65c-9.837 20.38-13.754 37.835-53.56 30.067-39.805-7.768-57.294 13.251-54.925 47.613 2.368 34.453 43.63 106.65 153.027 101.349 109.305-5.392 142.188-75.578 137.361-107.655-4.828-32.077-65.128-24.126-88.902-50.72-23.683-26.503-34.34-36.464-46.91-43.958z" fill="#EDEFF4"/><path d="M159.019 159.283l-43.612 21.414c-.815.377-1.407 1.322-1.407 2.078v.504c0 .755.666 1.7 1.407 2.078l43.612 21.413c.814.378 2.073.378 2.813 0l43.612-21.413c.814-.378 1.407-1.323 1.407-2.078v-.504c0-.756-.667-1.701-1.407-2.078l-43.612-21.414c-.74-.377-1.999-.377-2.813 0z" fill="#405CE1"/><path opacity=".7" d="M159.019 159.283l-43.612 21.414c-.815.377-1.407 1.322-1.407 2.078v.504c0 .755.666 1.7 1.407 2.078l43.612 21.413c.814.378 2.073.378 2.813 0l43.612-21.413c.814-.378 1.407-1.323 1.407-2.078v-.504c0-.756-.667-1.701-1.407-2.078l-43.612-21.414c-.74-.377-1.999-.377-2.813 0z" fill="#FAFAFA"/><path d="M117.332 179.758l-1.925.945c-.815.377-1.407 1.322-1.407 2.078v.504c0 .755.666 1.7 1.407 2.078l43.612 21.413c.37.189.888.315 1.406.315v-6.109l-43.093-21.224z" fill="#405CE1"/><path opacity=".6" d="M117.332 179.758l-1.925.945c-.815.377-1.407 1.322-1.407 2.078v.504c0 .755.666 1.7 1.407 2.078l43.612 21.413c.37.189.888.315 1.406.315v-6.109l-43.093-21.224z" fill="#FAFAFA"/><path d="M159.018 159.283l-43.611 21.414c-.815.377-.815 1.007 0 1.385l43.611 21.413c.815.378 2.074.378 2.814 0l43.612-21.413c.814-.378.814-1.008 0-1.385l-43.612-21.414c-.74-.377-1.999-.377-2.814 0z" fill="#405CE1"/><path opacity=".8" d="M159.018 159.283l-43.611 21.414c-.815.377-.815 1.007 0 1.385l43.611 21.413c.815.378 2.074.378 2.814 0l43.612-21.413c.814-.378.814-1.008 0-1.385l-43.612-21.414c-.74-.377-1.999-.377-2.814 0z" fill="#FAFAFA"/><path fill-rule="evenodd" clip-rule="evenodd" d="M158.426 181.592l-20.436 1.575c-1.999-6.109 6.516-11.84 18.955-12.785 7.479-.567 14.291.504 19.696 3.149l-14.364 7.054c-1.037.44-2.74.881-3.851 1.007z" fill="#3C3C6D"/><path d="M137.99 183.793c-.296 0-.592-.189-.74-.441-.666-2.204-.222-4.408 1.407-6.424 3.11-3.841 9.922-6.549 18.141-7.179 7.626-.567 14.586.504 20.065 3.212.223.126.371.315.371.567 0 .251-.148.44-.371.566l-14.364 7.054c-1.037.504-2.888 1.008-4.072 1.134l-20.437 1.511zm22.806-12.911c-1.259 0-2.518.063-3.85.126-7.701.567-14.217 3.149-17.03 6.613-1.259 1.575-1.703 3.212-1.333 4.85l19.844-1.512c1.036-.063 2.591-.504 3.48-.945l13.179-6.486c-4.146-1.764-8.959-2.646-14.29-2.646z" fill="#FAFAFA"/><path fill-rule="evenodd" clip-rule="evenodd" d="M161.832 182.722l8.959 8.691c-11.18 2.834-24.878.63-30.654-4.913-1.11-1.07-1.777-2.078-2.221-3.338l20.436-1.574c1.185-.126 2.666.441 3.48 1.134z" fill="#405CE1"/><path d="M160.499 193.238c-8.515 0-16.733-2.33-20.954-6.298-1.185-1.197-1.925-2.267-2.369-3.59-.074-.189 0-.378.074-.504.148-.126.296-.252.518-.252l20.436-1.574c1.333-.126 3.11.504 3.998 1.323l8.96 8.691c.148.189.222.378.148.567-.074.189-.296.377-.518.44a45.221 45.221 0 01-10.293 1.197zm-21.546-9.51c.37.819.962 1.575 1.777 2.33 5.331 5.165 17.992 7.306 28.729 4.976l-8.219-7.873c-.592-.567-1.851-1.007-2.74-.944l-19.547 1.511z" fill="#FAFAFA"/><path fill-rule="evenodd" clip-rule="evenodd" d="M162.499 181.274l20.436-1.575c1.555 4.85-3.184 9.447-12.143 11.714l-8.959-8.691c-.815-.693-.445-1.385.666-1.448z" fill="#FFA200"/><path d="M170.792 191.978c-.222 0-.444-.063-.592-.189l-8.96-8.691c-.518-.504-.74-1.134-.518-1.638.222-.504.814-.819 1.629-.882l20.436-1.574c.37 0 .666.189.814.441 1.703 5.227-3.257 10.14-12.661 12.47 0 .063-.074.063-.148.063zm-8.219-10.077c-.296 0-.444.063-.444.126 0 0 .074.126.222.315l8.663 8.376c7.923-2.078 12.291-6.046 11.329-10.329l-19.77 1.512z" fill="#FAFAFA"/><path fill-rule="evenodd" clip-rule="evenodd" d="M162.203 180.581l14.364-7.054c3.554 1.764 5.628 3.716 6.368 6.172l-20.436 1.575c-1.111.063-1.259-.252-.296-.693z" fill="#37474F"/><path d="M162.128 181.905c-.444 0-1.11-.063-1.258-.567-.222-.693.666-1.134.962-1.323l14.365-7.053a.772.772 0 01.74 0c3.776 1.826 5.924 3.904 6.738 6.55.074.189 0 .377-.074.503-.148.126-.296.252-.518.252l-20.436 1.575c-.222.063-.296.063-.519.063zm14.439-7.684l-12.81 6.298 18.215-1.385c-.888-1.89-2.591-3.464-5.405-4.913z" fill="#FAFAFA"/><path d="M211.019 138.283l-43.612 21.414c-.815.377-1.407 1.322-1.407 2.078v.504c0 .755.666 1.7 1.407 2.078l43.612 21.413c.814.378 2.073.378 2.813 0l43.612-21.413c.814-.378 1.407-1.323 1.407-2.078v-.504c0-.756-.667-1.701-1.407-2.078l-43.612-21.414c-.74-.377-1.999-.377-2.813 0z" fill="#405CE1"/><path opacity=".7" d="M211.019 138.283l-43.612 21.414c-.815.377-1.407 1.322-1.407 2.078v.504c0 .755.666 1.7 1.407 2.078l43.612 21.413c.814.378 2.073.378 2.813 0l43.612-21.413c.814-.378 1.407-1.323 1.407-2.078v-.504c0-.756-.667-1.701-1.407-2.078l-43.612-21.414c-.74-.377-1.999-.377-2.813 0z" fill="#FAFAFA"/><path d="M169.332 158.75l-1.925.945c-.815.378-1.407 1.322-1.407 2.078v.504c0 .756.666 1.7 1.407 2.078l43.612 21.413c.37.189.888.315 1.406.315v-6.109l-43.093-21.224z" fill="#405CE1"/><path opacity=".6" d="M169.332 158.75l-1.925.945c-.815.378-1.407 1.322-1.407 2.078v.504c0 .756.666 1.7 1.407 2.078l43.612 21.413c.37.189.888.315 1.406.315v-6.109l-43.093-21.224z" fill="#FAFAFA"/><path d="M211.018 138.283l-43.611 21.414c-.815.377-.815 1.007 0 1.385l43.611 21.413c.815.378 2.074.378 2.814 0l43.612-21.413c.814-.378.814-1.008 0-1.385l-43.612-21.414c-.74-.377-1.999-.377-2.814 0z" fill="#405CE1"/><path opacity=".8" d="M211.018 138.283l-43.611 21.414c-.815.377-.815 1.007 0 1.385l43.611 21.413c.815.378 2.074.378 2.814 0l43.612-21.413c.814-.378.814-1.008 0-1.385l-43.612-21.414c-.74-.377-1.999-.377-2.814 0z" fill="#FAFAFA"/><path d="M192.582 153.839l8.959-1.448c.518-.063 1.037.252 1.037.693v1.511c0 .504.444.819 1.036.756l14.587-1.449c.592-.063.888.252.666.693l-2.665 6.487c-.149.441.148.819.666.819h11.255c.592 0 .888.378.666.819l-2.962 7.305-13.254 6.487-33.171-16.312 13.18-6.361z" fill="#3C3C6D"/><path d="M212.499 176.637l9.922-4.913 2.962-7.306c.148-.44-.148-.755-.666-.629l-17.919 2.96c-.518.063-.889-.189-.666-.63l2.665-6.487c.148-.441-.148-.756-.666-.693l-14.587 1.449c-.592.063-.814-.252-.518-.63l2.295-3.401c.296-.441.074-.693-.518-.567l-8.959 1.449-6.664 3.275 33.319 16.123z" fill="#405CE1"/><path d="M149.019 130.283l-43.612 21.414c-.815.377-1.407 1.322-1.407 2.078v.504c0 .755.666 1.7 1.407 2.078l43.612 21.413c.814.378 2.073.378 2.813 0l43.612-21.413c.814-.378 1.407-1.323 1.407-2.078v-.504c0-.756-.667-1.701-1.407-2.078l-43.612-21.414c-.814-.377-2.073-.377-2.813 0z" fill="#405CE1"/><path opacity=".7" d="M149.019 130.283l-43.612 21.414c-.815.377-1.407 1.322-1.407 2.078v.504c0 .755.666 1.7 1.407 2.078l43.612 21.413c.814.378 2.073.378 2.813 0l43.612-21.413c.814-.378 1.407-1.323 1.407-2.078v-.504c0-.756-.667-1.701-1.407-2.078l-43.612-21.414c-.814-.377-2.073-.377-2.813 0z" fill="#FAFAFA"/><path d="M107.332 150.75l-1.925.945c-.815.378-1.407 1.322-1.407 2.078v.504c0 .756.666 1.7 1.407 2.078l43.612 21.413c.37.189.888.315 1.406.315v-6.109l-43.093-21.224z" fill="#405CE1"/><path opacity=".6" d="M107.332 150.75l-1.925.945c-.815.378-1.407 1.322-1.407 2.078v.504c0 .756.666 1.7 1.407 2.078l43.612 21.413c.37.189.888.315 1.406.315v-6.109l-43.093-21.224z" fill="#FAFAFA"/><path d="M149.018 130.283l-43.611 21.414c-.815.377-.815 1.007 0 1.385l43.611 21.413c.815.378 2.074.378 2.814 0l43.612-21.413c.814-.378.814-1.008 0-1.385l-43.612-21.414c-.814-.377-2.073-.377-2.814 0z" fill="#405CE1"/><path opacity=".8" d="M149.018 130.283l-43.611 21.414c-.815.377-.815 1.007 0 1.385l43.611 21.413c.815.378 2.074.378 2.814 0l43.612-21.413c.814-.378.814-1.008 0-1.385l-43.612-21.414c-.814-.377-2.073-.377-2.814 0z" fill="#FAFAFA"/><path d="M120.437 149.993l21.843-10.707c.37-.189 1.037-.189 1.407 0l3.554 1.764c.37.189.37.504 0 .692l-21.843 10.707c-.37.189-1.036.189-1.407 0l-3.554-1.763c-.37-.189-.37-.504 0-.693z" fill="#405CE1"/><path d="M130.433 154.905l15.179-7.431c.37-.189 1.036-.189 1.407 0l3.554 1.763c.37.189.37.504 0 .693l-15.253 7.369c-.37.189-1.037.189-1.407 0l-3.554-1.764c-.37-.126-.37-.441.074-.63z" fill="#3C3C6D"/><path d="M140.355 159.755l25.101-12.344c.37-.189 1.036-.189 1.406 0l3.555 1.764c.37.189.37.504 0 .692l-25.101 12.345c-.37.188-1.037.188-1.407 0l-3.554-1.764c-.37-.189-.37-.504 0-.693z" fill="#37474F"/><path d="M150.277 164.67l11.847-5.794c.37-.189 1.036-.189 1.407 0l3.554 1.764c.37.188.37.503 0 .692l-11.847 5.794c-.371.189-1.037.189-1.407 0l-3.554-1.763c-.371-.189-.371-.504 0-.693z" fill="#FFA200"/><path d="M36.332.458H34.89c.254-.085.763-.085 1.442 0z" fill="url(#paint0_linear)"/><path d="M254.68 198.515c-4.59 2.329-7.026 5.777.562 6.523 7.589.745 17.519 10.156 36.443 6.895 18.924-3.355 5.246-16.4-22.859-17.984l-14.146 4.566z" fill="#EDEFF4"/><path opacity=".75" d="M93.143 233.935c3.646 1.756 5.29 6 3.356 9.403-1.356 2.551-4.034 4.701-9.105 4.584-11.524-.381-19.856 12.549-40.81 1.693C25.63 238.76 61.95 227.666 61.95 227.666s7.544-4.772 31.193 6.269z" fill="#EDEFF4"/><path d="M302.523 143.77s13.108 2.675 17.778 14.078c0 0-11.827 3.503-23.202 1.337-11.375-2.229 5.424-15.415 5.424-15.415z" fill="url(#paint1_linear)"/><path d="M296.578 150.559s10.176 1.185 16.935 4.242c0 0-8.733-2.371-19.517-3.057l2.582-1.185z" fill="#405EBF"/><path d="M285.41 153.245s16.537 1.188 22.05-7.438c5.513-8.626 4.337-12.876 4.337-12.876s-22.712-.375-30.503 13.939l4.116 6.375z" fill="url(#paint2_linear)"/><path d="M286.292 151.248s10.511-11.001 23.52-15.939c0 0-14.994 4-24.402 15.126l.882.813z" fill="#405EBF"/><path d="M285.41 153.245s16.537 1.188 22.05-7.438c5.513-8.626 4.337-12.876 4.337-12.876s-22.712-.375-30.503 13.939l4.116 6.375z" fill="url(#paint3_linear)"/><path d="M286.88 146.934c17.64 4.125 18.081 18.314 21.977 25.753 0 0-18.743 2.687-27.636-12.377-2.72-6.001-5.439-12.814 5.659-13.376z" fill="url(#paint4_linear)"/><path d="M285.704 152.496s11.098 6.001 15.508 15.002c0 0-9.996-12.002-17.346-13.689l1.838-1.313z" fill="#405EBF"/><path d="M286.88 146.934c17.64 4.125 18.081 18.314 21.977 25.753 0 0-18.743 2.687-27.636-12.377-2.72-6.001-5.439-12.814 5.659-13.376z" fill="url(#paint5_linear)"/><path d="M279.677 127.681s7.497-8.814 29.106-7.314c0 0-3.748.938-6.982 7.876-3.234 6.938-10.217 13.377-22.565 10.876l.441-11.438z" fill="url(#paint6_linear)"/><path d="M281.809 134.744s10.29-8.439 20.433-11.752c0 0-8.967 1.688-21.609 11.126l1.176.626z" fill="#405EBF"/><path d="M279.677 127.681s7.497-8.814 29.106-7.314c0 0-3.748.938-6.982 7.876-3.234 6.938-10.217 13.377-22.565 10.876l.441-11.438z" fill="url(#paint7_linear)"/><path d="M301.727 73.173s2.94-6.313 8.82-11.751c-.073.062-3.234 7.876-8.82 11.751z" fill="url(#paint8_linear)"/><path d="M298.052 76.549s2.499-8.001 1.764-15.94c-.074 0-3.087 8.626-1.764 15.94z" fill="url(#paint9_linear)"/><path d="M316.427 72.36s-8.599 3.625-17.787 4.5c0 0 9.261-4.188 17.787-4.5z" fill="url(#paint10_linear)"/><path d="M312.899 78.234s-9.187 3.5-18.816 3.938c.074-.063 9.923-4.188 18.816-3.938z" fill="url(#paint11_linear)"/><path d="M307.68 83.984s-9.408 3.75-19.183 4.126c0 0 10.069-4.438 19.183-4.126z" fill="url(#paint12_linear)"/><path d="M302.829 91.924s-10.069 2.125-19.771.938c0 0 10.878-2.688 19.771-.938z" fill="url(#paint13_linear)"/><path d="M293.127 81.615s1.617-8.126.074-16.002c0 0-2.132 8.876-.074 16.002z" fill="url(#paint14_linear)"/><path d="M287.1 87.049s1.47-8.939-1.029-17.252c-.073 0-2.131 9.751 1.029 17.252z" fill="url(#paint15_linear)"/><path d="M281.514 91.553s.955-9.001-2.132-17.19c0 0-1.47 9.876 2.132 17.19z" fill="url(#paint16_linear)"/><path d="M276.884 95.237s9.481-4.876 24.475-21.628c0 0-14.479 18.315-23.961 23.378l-.514-1.75z" fill="#192EAD"/><path d="M303.785 100.798s5.954-4.438 14.112-7.001c0 0-7.056 5.688-14.112 7.001z" fill="url(#paint17_linear)"/><path d="M298.64 102.361s6.542-6.126 10.143-13.502c.074 0-7.35 6.501-10.143 13.502z" fill="url(#paint18_linear)"/><path d="M317.309 105.798s-9.629-.125-18.228-2.938c-.074 0 10.437-.125 18.228 2.938z" fill="url(#paint19_linear)"/><path d="M310.988 109.614s-10.07-.438-18.816-3.876c.073.063 11.098.188 18.816 3.876z" fill="url(#paint20_linear)"/><path d="M303.27 112.735s-10.363-.313-19.33-3.813c0 0 11.392 0 19.33 3.813z" fill="url(#paint21_linear)"/><path d="M294.671 117.864s-10.069-2-18.081-6.938c0 .062 11.099 1.875 18.081 6.938z" fill="url(#paint22_linear)"/><path d="M291.584 104.923s5.88-6.625 8.673-14.189c.073 0-6.615 7.001-8.673 14.189z" fill="url(#paint23_linear)"/><path d="M283.279 107.361s6.174-7.376 8.379-15.752c0 0-7.13 7.876-8.379 15.752z" fill="url(#paint24_linear)"/><path d="M275.855 109.237s5.659-7.626 7.423-16.065c0-.062-6.615 8.126-7.423 16.065z" fill="url(#paint25_linear)"/><path d="M269.828 110.735s11.025-.625 33.369-9.688c0 0-22.711 10.626-33.957 11.439l.588-1.751z" fill="#192EAD"/><path d="M276.884 113.865s2.646-9.814 8.746-16.064c0 0 18.302 19.564-5.512 31.941l-3.234-15.877z" fill="url(#paint26_linear)"/><path d="M279.897 123.932s6.101-6.939 5.66-17.69c0 0-.662 10.626-6.395 16.502l.735 1.188z" fill="#405EBF"/><path d="M276.884 113.865s2.646-9.814 8.746-16.064c0 0 18.302 19.564-5.512 31.941l-3.234-15.877z" fill="url(#paint27_linear)"/><path d="M53.153 156.254s-10.65 2.253-14.445 11.855c0 0 9.61 2.95 18.852 1.127 9.242-1.878-4.407-12.982-4.407-12.982z" fill="url(#paint28_linear)"/><path d="M57.228 157.953s-10.619.949-17.671 3.394c0 0 9.112-1.896 20.365-2.445l-2.694-.949z" fill="#405EBF"/><path d="M67.232 164.607s-13.666.999-18.22-6.258c-4.556-7.257-3.584-10.833-3.584-10.833s18.767-.315 25.205 11.727l-3.401 5.364z" fill="url(#paint29_linear)"/><path d="M66.503 162.925s-8.685-9.255-19.436-13.409c0 0 12.39 3.365 20.165 12.725l-.73.684z" fill="#405EBF"/><path d="M67.232 164.607s-13.666.999-18.22-6.258c-4.556-7.257-3.584-10.833-3.584-10.833s18.767-.315 25.205 11.727l-3.401 5.364z" fill="url(#paint30_linear)"/><path d="M66.017 159.293c-14.577 3.471-14.941 15.407-18.16 21.665 0 0 15.487 2.261 22.837-10.412 2.247-5.048 4.433-10.78-4.677-11.253z" fill="url(#paint31_linear)"/><path d="M66.99 163.977s-9.172 5.048-12.816 12.62c0 0 8.26-10.096 14.333-11.516l-1.518-1.104z" fill="#405EBF"/><path d="M66.017 159.293c-14.577 3.471-14.941 15.407-18.16 21.665 0 0 15.487 2.261 22.837-10.412 2.247-5.048 4.433-10.78-4.677-11.253z" fill="url(#paint32_linear)"/><path d="M71.97 143.094s-6.196-7.415-24.052-6.153c0 0 3.098.789 5.77 6.626 2.672 5.837 8.442 11.253 18.646 9.15l-.365-9.623z" fill="url(#paint33_linear)"/><path d="M70.208 149.038s-8.503-7.099-16.884-9.886c0 0 7.41 1.42 17.856 9.36l-.972.526z" fill="#405EBF"/><path d="M71.97 143.094s-6.196-7.415-24.052-6.153c0 0 3.098.789 5.77 6.626 2.672 5.837 8.442 11.253 18.646 9.15l-.365-9.623z" fill="url(#paint34_linear)"/><path d="M53.748 97.245s-2.43-5.31-7.288-9.886c0 .053 2.672 6.626 7.288 9.886z" fill="url(#paint35_linear)"/><path d="M56.784 100.081s-2.065-6.73-1.457-13.41c0 0 2.55 7.258 1.457 13.41z" fill="url(#paint36_linear)"/><path d="M41.6 96.559s7.107 3.05 14.699 3.786c0 0-7.653-3.523-14.698-3.786z" fill="url(#paint37_linear)"/><path d="M44.455 101.497s7.592 2.945 15.548 3.313c0-.052-8.199-3.523-15.548-3.313z" fill="url(#paint38_linear)"/><path d="M48.768 106.337s7.774 3.156 15.852 3.471c.06 0-8.321-3.733-15.852-3.471z" fill="url(#paint39_linear)"/><path d="M52.837 113.018s8.32 1.787 16.338.788c0 0-8.99-2.261-16.338-.788z" fill="url(#paint40_linear)"/><path d="M60.854 104.341s-1.336-6.836-.06-13.462c0 0 1.76 7.467.06 13.462z" fill="url(#paint41_linear)"/><path d="M65.834 108.916s-1.215-7.52.85-14.514c0 0 1.762 8.204-.85 14.514z" fill="url(#paint42_linear)"/><path d="M70.45 112.703s-.79-7.572 1.762-14.46c0 0 1.214 8.308-1.762 14.46z" fill="url(#paint43_linear)"/><path d="M74.216 115.804s-7.835-4.102-20.225-18.195c0 0 11.965 15.408 19.8 19.667l.425-1.472z" fill="#192EAD"/><path d="M52.048 120.483s-4.92-3.733-11.661-5.889c0 0 5.77 4.785 11.661 5.889z" fill="url(#paint44_linear)"/><path d="M56.239 121.796s-5.406-5.153-8.382-11.358c0 0 6.074 5.468 8.382 11.358z" fill="url(#paint45_linear)"/><path d="M40.873 124.687s7.956-.105 15.062-2.472c0 0-8.685-.105-15.062 2.472z" fill="url(#paint46_linear)"/><path d="M46.035 127.897s8.321-.368 15.549-3.26c0 .052-9.11.157-15.549 3.26z" fill="url(#paint47_linear)"/><path d="M52.473 130.524s8.564-.263 15.974-3.208c-.061 0-9.414 0-15.974 3.208z" fill="url(#paint48_linear)"/><path d="M59.58 134.837s8.32-1.683 14.94-5.837c0 .053-9.232 1.578-14.94 5.837z" fill="url(#paint49_linear)"/><path d="M62.13 123.952s-4.859-5.574-7.167-11.936c-.06 0 5.467 5.889 7.167 11.936z" fill="url(#paint50_linear)"/><path d="M68.994 126.001s-5.102-6.205-6.924-13.251c0 0 5.83 6.626 6.924 13.251z" fill="url(#paint51_linear)"/><path d="M75.067 127.577s-4.677-6.415-6.134-13.514c.06-.053 5.527 6.836 6.134 13.514z" fill="url(#paint52_linear)"/><path d="M80.108 128.842s-9.11-.526-27.574-8.151c0 0 18.768 8.94 28.06 9.623l-.486-1.472z" fill="#192EAD"/><path d="M74.277 131.475s-2.186-8.256-7.227-13.514c0 0-15.123 16.459 4.555 26.871l2.672-13.357z" fill="url(#paint53_linear)"/><path d="M71.726 139.94s-5.04-5.837-4.676-14.881c0 0 .546 8.939 5.284 13.882l-.608.999z" fill="#405EBF"/><path d="M74.277 131.475s-2.186-8.256-7.227-13.514c0 0-15.123 16.459 4.555 26.871l2.672-13.357z" fill="url(#paint54_linear)"/><path d="M265.477 76.541s-.589-1.963.196-7.164c.884-5.2.589-8.243-2.257-7.654 0 0 .884-5.005-4.71-4.71 0 0 2.65.294 2.65 2.257 0 0-1.865-3.14-6.87-.197-5.005 2.944-7.949 2.061-7.949 2.061s.884.687 2.257 1.08c0 0-2.159.49-4.612-.295 0 0 2.748 4.22 6.477 4.318 0 0-1.57.393-3.435-.392 0 0 2.846 2.159 6.379 1.472l7.949 6.476 3.925 2.748z" fill="#192EAD"/><path d="M267.931 78.994c-.785 1.57-2.748 4.317-7.458 5.2l-.491-3.728-.294-2.454s-.393.295-.982.687c-.883.589-2.159 1.178-3.336 1.178-1.865 0-3.729-10.991-4.024-12.758v-.294c4.024-.392 5.594-1.766 5.594-1.766a7.62 7.62 0 00.49 1.766c1.178 2.65 3.631 3.827 3.631 3.827-.588-2.159.687-4.318 1.669-2.846.981 1.472-.393 3.631-.393 3.631 1.865 3.926 5.005 7.066 5.005 7.066.196.294.393.392.589.49z" fill="#FFC8AF"/><path d="M278.529 203.133s-18.351.49-19.234-.295c-1.08-.981 10.893-4.612 12.659-5.201 2.944.491 4.71.196 5.495-.098 1.276 1.472 1.08 5.594 1.08 5.594z" fill="#242463"/><path d="M277.547 194.988v.098c-.883.098-1.864.196-2.747.196-1.276 0-2.356-.098-2.748-.196v-.196s-2.944-27.968-4.122-34.641c-1.177-6.673-1.57-25.613-4.416-35.721l14.131-2.257 6.87-1.08s-3.631 23.749-5.201 33.758c-1.57 9.814 2.355 12.856-1.767 40.039z" fill="url(#paint55_linear)"/><path d="M277.548 197.539c-.883.197-2.65.491-5.496.098.098 0 .197-.098.197-.098l-.197-2.453c.785.098 3.337.294 5.496 0v2.453z" fill="#566EEC"/><path d="M277.548 194.984v.099c-.884.098-1.865.196-2.748.196 3.435-7.949 3.042-25.122 1.57-29.146-1.668-4.71-2.65-6.967-.687-14.818 1.865-7.851 1.374-27.183 1.374-27.183.196-.687.393-1.374.687-1.963l6.869-1.079s-3.631 23.748-5.201 33.758c-1.668 9.911 2.257 12.953-1.864 40.136z" fill="url(#paint56_linear)"/><path d="M241.281 74.528l-1.172.116.494 4.98 1.172-.115-.494-4.98z" fill="#1B4266"/><path d="M241.14 76.148l-.588.098c-.393 0-.786-.294-.786-.589l-.883-8.93c0-.393.295-.785.589-.785l.589-.098c.392 0 .785.294.785.589l.883 8.93c.098.392-.196.785-.589.785z" fill="#17177F"/><path d="M257.823 102.645a7.446 7.446 0 01-1.178.981c-2.159 1.57-6.28 4.318-8.832 5.103-.785.294-1.472.294-1.864.098-1.865-1.374-3.631-13.935-4.416-19.725v-.098c-.098-.49-.098-.883-.196-1.276-.099-.883-.197-1.373-.197-1.373-.196 0-1.079.196-2.159-.393-1.177-.687.687-6.87.687-6.87s-1.668 0-1.668-.588c0-.589 4.71-2.355 5.005-1.472.294.883.883 8.734 2.846 13.542.589 1.374 1.079 2.748 1.57 3.828a108.412 108.412 0 011.668 4.317c.589-.196 1.08-.49 1.668-.785 3.141-1.766 6.085-5.2 6.085-5.2l.49 5.691.491 4.22z" fill="#FFC8AF"/><path d="M250.757 103.725c-.981-2.944-3.042-8.734-3.238-9.323a106.73 106.73 0 011.668 4.318c.589-.196 1.08-.49 1.669-.785.196 3.239-.099 5.79-.099 5.79zm-2.943 5.006c-.785.294-1.472.294-1.865.098-1.864-1.374-3.631-13.935-4.416-19.725v-.098c0-.392-.098-.883-.196-1.276-.098-.49-.098-.883-.196-1.373-.295-1.767-.491-3.337-.491-3.435 1.963 3.925 2.159 9.519 3.042 12.855.883 3.337 2.159 3.828 2.748 9.323.196 1.865.785 3.042 1.374 3.631zm10.009-6.087a7.446 7.446 0 01-1.178.981l-1.472-8.93 2.257 3.828.393 4.121z" fill="#FDBFA3"/><path d="M263.515 100.777s-2.356 3.729-4.809 4.809c0 0-1.374-4.907-3.533-10.893 0 0 5.398-5.201 6.183-9.912l2.159 15.996z" fill="url(#paint57_linear)"/><path d="M285.3 120.314c-7.066 8.047-25.515 8.145-25.515 8.145 1.57-5.888 2.944-20.608 1.865-29.146-1.08-8.538-1.276-14.818-1.276-14.818v-.196c4.71-.982 6.673-3.73 7.458-5.201 6.575 4.023 10.697 10.892 13.248 17.958 1.668 4.612 2.65 9.225 3.239 13.15.981 5.888.981 10.108.981 10.108z" fill="#EC827D"/><path d="M259.981 80.563l-.294-2.454s-.393.295-.981.687c.883-.785 1.864-1.864 2.551-3.434.098-.098.196 2.846-1.276 5.2zm-2.551-13.64c-2.257.49-4.808.294-6.084.196v-.294c4.024-.392 5.594-1.766 5.594-1.766a7.26 7.26 0 00.49 1.864z" fill="#FDBFA3"/><path d="M284.417 110.2l-11.285 9.715-3.14-2.846s5.593-13.542 5.103-15.603c-.491-1.963-5.888-9.814-5.888-9.814 4.317.099 8.439 2.454 11.874 5.3 1.766 4.71 2.747 9.322 3.336 13.248z" fill="#D66565"/><path d="M279.314 111.085c-4.612 6.182-6.183 8.733-6.183 8.733l.099.099c.196.196.687.687.981 1.177.392.589.589 1.178 0 1.57-2.159 1.374-2.355 2.257-4.22 2.061-.981-.098-1.374-.294-1.668-.687-.294-.392-.393-.883-.491-1.57-.196-1.079.883-2.355 2.159-5.299 1.374-2.944 3.827-7.655 5.79-12.561.981-2.454 1.668-4.122 2.257-5.103 0-.098.098-.197.098-.295v-.098c.098-.294.295-.49.295-.589v-.196l.098-.098-1.865-1.178 1.865-3.238 2.355-4.122s4.416 3.73 5.594 5.692c.098.098.098.196.196.295 1.177 1.668-2.846 9.224-7.36 15.407z" fill="#FFC8AF"/><path d="M281.669 95.483c-1.962 1.276-3.336 3.63-3.532 4.023 0-.098.098-.196.098-.294v-.098c.098-.294.294-.49.294-.589v-.196l.098-.098-1.864-1.178c0-.098.883-3.336 1.864-3.238a.54.54 0 01.491.294c1.472 1.57 2.551 1.374 2.551 1.374z" fill="#FDBFA3"/><path d="M274.309 122.66c-2.159 1.374-2.355 2.257-4.22 2.061-.981-.098-1.374-.295-1.668-.687.687.589 3.14.491 4.22-.981.392-.589 1.079-1.276 1.668-1.963.294.589.491 1.276 0 1.57z" fill="url(#paint58_linear)"/><path d="M279.314 111.085c-4.612 6.183-6.182 8.734-6.182 8.734l.098.098c-1.08.785-1.767 1.472-1.767 1.472 1.374-2.355 5.3-9.323 6.575-11.972 1.276-2.748 2.061-4.416 5.986-9.323 1.669-2.159 2.454-3.729 2.846-4.906.099.098.099.196.197.294.785 1.864-3.239 9.421-7.753 15.603z" fill="#FDBFA3"/><path d="M281.964 89.198s-9.519-7.458-13.346-6.084c-3.827 1.374-2.748 5.986 0 8.145 2.747 2.16 4.906 3.926 8.341 7.557 0 0 5.005-5.692 5.005-9.618z" fill="url(#paint59_linear)"/><path d="M61.201 25.597c0-1.516-2.86-2.842-7.055-3.41-.382-4.169-1.717-7.011-3.242-7.011-1.526 0-2.86 2.842-3.432 7.01-4.196.38-7.056 1.706-7.056 3.222s2.86 2.842 7.056 3.41c.38 4.169 1.716 7.011 3.241 7.011 1.526 0 2.86-2.842 3.433-7.01 4.004-.57 7.055-1.706 7.055-3.222zM27.714 152.63c0-2.022-3.814-3.79-9.408-4.548-.508-5.558-2.288-9.348-4.322-9.348-2.034 0-3.814 3.79-4.577 9.348-5.593.505-9.407 2.274-9.407 4.295s3.814 3.79 9.407 4.547c.509 5.559 2.289 9.348 4.323 9.348 2.034 0 3.814-3.789 4.576-9.348 5.34-.757 9.408-2.273 9.408-4.294z" fill="#9FADF0"/><path d="M292.148 46.391c0-2.02-3.814-3.79-9.407-4.547-.509-5.558-2.288-9.348-4.322-9.348-2.034 0-3.814 3.79-4.577 9.348-5.594.505-9.407 2.273-9.407 4.295 0 2.02 3.813 3.79 9.407 4.547.508 5.558 2.288 9.348 4.322 9.348 2.034 0 3.814-3.79 4.577-9.348 5.339-.758 9.407-2.273 9.407-4.295z" fill="#FFE48F"/><path fill="#E02287" fill-opacity=".6" d="M227 22.383L234.382 15l7.383 7.382-7.383 7.382z"/><path d="M173.73 125.236l.417-.239c.656-.358 1.133-1.252 1.133-1.967V82.5c0-.715-.537-1.61-1.133-1.967l-35.106-20.265c-.655-.357-1.669-.357-2.265 0l-.417.239c-.656.357-1.132 1.251-1.132 1.967v40.53c0 .715.536 1.609 1.132 1.966l35.106 20.266c.656.357 1.669.357 2.265 0z" fill="#405CE1"/><path opacity=".7" d="M173.73 125.236l.417-.239c.656-.358 1.133-1.252 1.133-1.967V82.5c0-.715-.537-1.61-1.133-1.967l-35.106-20.265c-.655-.357-1.669-.357-2.265 0l-.417.239c-.656.357-1.132 1.251-1.132 1.967v40.53c0 .715.536 1.609 1.132 1.966l35.106 20.266c.656.357 1.669.357 2.265 0z" fill="#FAFAFA"/><path d="M175.279 102.761V82.496a2.11 2.11 0 00-.357-1.133l-5.007 2.861v40.053l1.55.895c.655.357 1.669.357 2.265 0l.417-.239c.655-.358 1.132-1.252 1.132-1.967v-20.205z" fill="#405CE1"/><path opacity=".6" d="M175.279 102.761V82.496a2.11 2.11 0 00-.357-1.133l-5.007 2.861v40.053l1.55.895c.655.357 1.669.357 2.265 0l.417-.239c.655-.358 1.132-1.252 1.132-1.967v-20.205z" fill="#FAFAFA"/><path d="M136.419 61.82l35.106 20.265c.656.357 1.132 1.251 1.132 1.966v40.531c0 .715-.536 1.013-1.132.655l-35.106-20.265c-.656-.358-1.133-1.252-1.133-1.967v-40.53c-.059-.715.477-1.013 1.133-.656z" fill="#405CE1"/><path opacity=".8" d="M136.419 61.82l35.106 20.265c.656.357 1.132 1.251 1.132 1.966v40.531c0 .715-.536 1.013-1.132.655l-35.106-20.265c-.656-.358-1.133-1.252-1.133-1.967v-40.53c-.059-.715.477-1.013 1.133-.656z" fill="#FAFAFA"/><path opacity=".5" d="M139.28 98.827c1.073.656 2.742.775 4.053-2.325 1.251-3.099 2.384-5.543 3.934-4.53 1.072.716.953 1.73 1.907 2.266 1.49.894 2.682-2.921 3.218-6.438.775-5.006 1.491-6.317 2.861-5.543 2.027 1.133 1.848 4.47 1.848 7.51 0 2.742 0 4.172 1.49 4.769.954.417 1.907-1.967 2.325-3.815.417-1.848 1.251-2.682 2.145-2.205.894.476 1.848 1.728 1.848 6.556.06 4.291.119 10.43.179 11.801.179 3.219 2.026 4.828 3.576 5.722v4.828l-29.384-16.927v-1.67z" fill="#FAFAFA"/><path d="M168.485 112.835c-2.324-1.311-3.576-3.338-3.695-5.96-.06-1.431-.119-7.987-.179-11.802-.059-4.708-.953-5.84-1.728-6.318-.179-.119-.418-.119-.596-.06-.477.18-.894.954-1.133 2.027-.298 1.55-1.013 3.457-1.967 3.934-.238.12-.536.179-.775.06-1.668-.656-1.668-2.206-1.668-5.067v-.655c0-2.742 0-5.603-1.669-6.557-.418-.238-.596-.178-.716-.119-.834.417-1.311 3.1-1.668 5.424-.239 1.37-1.014 5.9-2.623 6.676-.358.178-.715.178-1.073-.06-.536-.298-.775-.775-1.013-1.192-.238-.417-.417-.775-.894-1.073-.298-.179-.537-.238-.775-.179-1.013.298-2.026 2.742-2.742 4.53-.596 1.49-1.43 2.444-2.324 2.742-.656.238-1.431.12-2.146-.298l.298-.537c.417.239 1.013.477 1.609.239.775-.239 1.431-1.073 1.967-2.444 1.073-2.563 1.967-4.53 3.1-4.887.417-.12.834-.06 1.251.238.596.417.894.894 1.073 1.311.179.358.358.716.775.954.179.12.358.12.536.06.835-.418 1.789-2.921 2.265-6.259.596-3.814 1.133-5.483 2.027-5.9.357-.18.775-.12 1.311.119 2.027 1.132 2.027 4.172 2.027 7.093v.655c0 2.742 0 3.934 1.311 4.47.059 0 .119.06.298 0 .536-.298 1.252-1.847 1.669-3.576.298-1.311.775-2.205 1.43-2.503.358-.179.775-.12 1.133.06.953.536 1.967 1.788 2.026 6.794.06 3.815.119 10.371.179 11.742.119 2.444 1.252 4.232 3.397 5.484l-.298.834z" fill="#3C3C6D"/><path opacity=".4" d="M139.28 91.977c0 1.072 2.086 6.556 6.735 6.854 4.649.298 6.377-4.888 8.642-3.636 2.265 1.252 1.848 4.947 3.934 6.258 2.086 1.312 4.351-5.84 6.914-4.708 2.563 1.132 1.669 8.881 3.159 10.311v10.431l-29.384-16.928v-8.582z" fill="#FAFAFA"/><path d="M168.425 107.231c-.715-.656-.953-2.444-1.192-4.47-.298-2.444-.596-5.245-1.907-5.782-1.073-.477-2.265 1.014-3.338 2.444-1.132 1.49-2.324 3.04-3.576 2.265-1.132-.656-1.55-1.967-2.026-3.219-.418-1.251-.894-2.443-1.908-3.04-.834-.476-1.549.12-2.801 1.193-1.371 1.192-3.099 2.682-5.722 2.503-4.709-.298-6.974-5.841-7.033-7.152h.596c0 .894 1.907 6.258 6.437 6.556 2.384.12 3.993-1.252 5.305-2.384 1.192-1.013 2.265-1.907 3.457-1.252 1.251.715 1.728 2.027 2.205 3.338.417 1.192.834 2.324 1.728 2.861.775.477 1.789-.775 2.802-2.146 1.192-1.55 2.563-3.278 4.053-2.622 1.609.715 1.967 3.516 2.265 6.258.179 1.728.417 3.576.953 4.113l-.298.536zM141.544 68.55c.537.298.954 1.073.954 1.67 0 .595-.417.893-.954.535-.536-.297-.953-1.072-.953-1.668 0-.596.417-.835.953-.537zm1.729 1.907c0 .418.298.954.715 1.192l6.557 3.815c.417.238.715.06.715-.358 0-.417-.298-.953-.715-1.192l-6.557-3.814c-.417-.239-.715-.12-.715.357z" fill="#405CE1"/><path d="M141.544 73.201c.537.298.954 1.073.954 1.67 0 .595-.417.893-.954.536-.536-.298-.953-1.073-.953-1.67 0-.595.417-.893.953-.536z" fill="#3C3C6D"/><path d="M143.273 75.05c0 .418.298.954.715 1.192l6.557 3.815c.417.238.715.06.715-.358 0-.417-.298-.953-.715-1.192l-6.557-3.814c-.417-.239-.715-.06-.715.357zm41.477 43.599l-.471-.27c-.741-.403-1.279-1.413-1.279-2.22V70.402c0-.808.606-1.817 1.279-2.22l39.633-22.88c.74-.403 1.884-.403 2.557 0l.471.27c.74.404 1.279 1.413 1.279 2.22V93.55c0 .808-.606 1.817-1.279 2.221l-39.633 22.879c-.673.403-1.817.403-2.557 0z" fill="#405CE1"/><path opacity=".7" d="M184.75 118.649l-.471-.27c-.741-.403-1.279-1.413-1.279-2.22V70.402c0-.808.606-1.817 1.279-2.22l39.633-22.88c.74-.403 1.884-.403 2.557 0l.471.27c.74.404 1.279 1.413 1.279 2.22V93.55c0 .808-.606 1.817-1.279 2.221l-39.633 22.879c-.673.403-1.817.403-2.557 0z" fill="#FAFAFA"/><path d="M183 93.278V70.4c0-.404.135-.875.404-1.279l5.652 3.23v45.219l-1.749 1.009c-.741.404-1.885.404-2.557 0l-.471-.269c-.741-.404-1.279-1.413-1.279-2.221v-22.81z" fill="#405CE1"/><path opacity=".6" d="M183 93.278V70.4c0-.404.135-.875.404-1.279l5.652 3.23v45.219l-1.749 1.009c-.741.404-1.885.404-2.557 0l-.471-.269c-.741-.404-1.279-1.413-1.279-2.221v-22.81z" fill="#FAFAFA"/><path d="M226.939 47.05l-39.633 22.879c-.74.403-1.279 1.413-1.279 2.22v45.757c0 .808.606 1.144 1.279.74l39.633-22.878c.741-.404 1.279-1.413 1.279-2.22V47.79c0-.807-.538-1.144-1.279-.74z" fill="#405CE1"/><path opacity=".8" d="M226.939 47.05l-39.633 22.879c-.74.403-1.279 1.413-1.279 2.22v45.757c0 .808.606 1.144 1.279.74l39.633-22.878c.741-.404 1.279-1.413 1.279-2.22V47.79c0-.807-.538-1.144-1.279-.74z" fill="#FAFAFA"/><path d="M200.092 90.388c0-5.182 3.162-11.238 7.065-13.458v-5.653c-3.499 2.019-6.594 5.787-8.815 10.632-3.903 8.748-3.162 17.765 1.683 20.254l2.691-5.989c-1.615-.807-2.624-2.826-2.624-5.786z" fill="#405CE1"/><path d="M207.158 71.274v5.653c3.902-2.221 7.065.134 7.065 5.315 0 5.182-3.163 11.238-7.065 13.458-1.683.942-3.23 1.077-4.442.471l-2.691 5.989c2.153 1.077 4.374.808 7.133-.74 6.258-3.634 11.304-13.256 11.304-21.6 0-8.344-5.114-12.18-11.304-8.546z" fill="#3C3C6D"/><path d="M207.158 101.35c6.258-3.634 11.304-13.256 11.304-21.6l-4.239 2.49c0 5.181-3.163 11.17-7.065 13.39-1.683.942-3.23 1.077-4.442.471l-2.691 5.989c2.153 1.144 4.374.875 7.133-.74z" fill="#FFA200"/><path d="M189.056 72.899c-.605.336-1.077 1.211-1.077 1.884 0 .673.472 1.01 1.077.605.606-.336 1.077-1.21 1.077-1.884 0-.672-.471-.942-1.077-.605zm10.969-4.984c0 .47-.337 1.077-.808 1.346l-7.402 4.306c-.471.27-.807.068-.807-.403 0-.472.336-1.077.807-1.346l7.402-4.307c.471-.269.808-.067.808.404z" fill="#405CE1"/><path d="M201.773 65.559c-.605.336-1.076 1.211-1.076 1.884 0 .673.471 1.01 1.076.606.606-.337 1.077-1.212 1.077-1.885 0-.672-.471-.942-1.077-.605z" fill="#3C3C6D"/><path d="M212.742 60.575c0 .471-.337 1.077-.808 1.346l-7.401 4.306c-.471.27-.808.068-.808-.403 0-.471.337-1.077.808-1.346l7.401-4.307c.404-.269.808-.067.808.404z" fill="#405CE1"/><path d="M214.424 58.157c-.605.336-1.076 1.211-1.076 1.884 0 .673.471 1.01 1.076.606.606-.337 1.077-1.212 1.077-1.885.067-.605-.471-.942-1.077-.605z" fill="#37474F"/><path d="M225.393 53.178c0 .471-.337 1.077-.808 1.346l-7.402 4.306c-.471.27-.807.068-.807-.403 0-.471.336-1.077.807-1.346l7.402-4.307c.471-.201.808-.067.808.404z" fill="#405CE1"/><path d="M122.713 98.704v-3.94l-3.367-.651a.446.446 0 00-.383.076l-1.684.957 2.181.42 3.253 3.138z" fill="#EBEBEB"/><path d="M145.71 121.012l.268-.153c.382-.229.727-.803.727-1.263V99.507c0-.459-.345-1.033-.727-1.262l-22.538-13.01c-.421-.23-1.072-.23-1.454 0l-.268.153c-.421.23-.727.803-.727 1.262v20.089c0 .46.344 1.034.727 1.263l22.538 13.01c.421.23 1.071.23 1.454 0z" fill="#EBEBEB"/><path d="M146.705 112.522v-13.01c0-.23-.077-.497-.23-.727l-3.214 1.875v19.783l.995.574c.421.23 1.071.23 1.454 0l.268-.153c.382-.23.727-.804.727-1.263v-7.079z" fill="#E0E0E0"/><path d="M121.717 86.234l22.538 13.01c.421.23.727.804.727 1.263v20.089c0 .459-.344.65-.727.421l-22.538-13.01c-.42-.23-.727-.804-.727-1.263v-20.09c0-.458.345-.65.727-.42z" fill="#F0F0F0"/><path d="M120.99 99.66l-3.826-3.712c-.383-.382-.039-.994.459-.918l3.367.65v3.98z" fill="#F0F0F0"/><path d="M142.457 114.051v-6.659a3.616 3.616 0 00-1.798-3.099 1.52 1.52 0 00-2.258 1.186c-.077.842-1.033 1.339-1.76.919a2.823 2.823 0 01-1.378-2.335l-.306-5.816c-.038-.995-.612-1.913-1.492-2.449-1.072-.65-2.449.115-2.526 1.34l-.191 3.252c-.038.727-.842 1.186-1.492.804-.88-.498-1.454-1.416-1.569-2.411l-.153-1.186a3.382 3.382 0 00-1.646-2.526c-1.033-.574-2.296.153-2.296 1.34v6.696l18.865 10.944z" fill="#405CE1"/><path d="M140.391 104.592c.077 0 .115-.038.115-.115v-.229c0-.077-.038-.115-.115-.115-.076 0-.115.038-.115.115v.229c0 .038.039.115.115.115zm0 7.656c.076 0 .114-.039.114-.115v-.498c0-.076-.038-.114-.114-.114-.077 0-.115.038-.115.114v.498c0 .076.038.115.115.115zm0-.957c.076 0 .114-.038.114-.115v-.497c0-.077-.038-.115-.114-.115-.077 0-.115.038-.115.115v.497c0 .077.038.115.115.115zm0-.957c.076 0 .114-.038.114-.114v-.498c0-.076-.038-.115-.114-.115-.077 0-.115.039-.115.115v.498c0 .076.038.114.115.114zm0-.956c.076 0 .114-.039.114-.115v-.498c0-.076-.038-.114-.114-.114-.077 0-.115.038-.115.114v.498c0 .076.038.115.115.115zm0-.957c.076 0 .114-.038.114-.115v-.497c0-.077-.038-.115-.114-.115-.077 0-.115.038-.115.115v.497c0 .077.038.115.115.115zm0-.957c.076 0 .114-.038.114-.114v-.498c0-.076-.038-.115-.114-.115-.077 0-.115.039-.115.115v.498c0 .038.038.114.115.114zm0-.956c.076 0 .114-.038.114-.115v-.497c0-.077-.038-.115-.114-.115-.077 0-.115.038-.115.115v.497c0 .038.038.115.115.115zm0-.957c.076 0 .114-.038.114-.115v-.497c0-.077-.038-.115-.114-.115-.077 0-.115.038-.115.115v.497c0 .039.038.115.115.115zm0 7.42c.077 0 .115-.038.115-.115v-.229c0-.077-.038-.115-.115-.115-.076 0-.115.038-.115.115v.229c0 .077.039.115.115.115z" fill="#FAFAFA"/><path d="M140.391 103.792a.78.78 0 01.344.612c0 .23-.153.306-.344.191a.777.777 0 01-.344-.612c0-.191.153-.306.344-.191z" fill="#37474F"/><path d="M133.006 95.904c.076 0 .115-.038.115-.114v-.23c0-.076-.039-.115-.115-.115-.077 0-.115.039-.115.115v.23c0 .076.038.114.115.114zm0 12.054c.076 0 .115-.038.115-.115v-.497c0-.077-.039-.115-.115-.115-.077 0-.115.038-.115.115v.497c0 .077.038.115.115.115zm0-.995c.076 0 .115-.038.115-.114v-.498c0-.076-.039-.115-.115-.115-.077 0-.115.039-.115.115v.498c0 .076.038.114.115.114zm0-.995c.076 0 .115-.038.115-.114v-.498c0-.076-.039-.115-.115-.115-.077 0-.115.039-.115.115v.498c0 .076.038.114.115.114zm0-.994c.076 0 .115-.039.115-.115v-.498c0-.076-.039-.114-.115-.114-.077 0-.115.038-.115.114v.498c0 .038.038.115.115.115zm0-1.034c.076 0 .115-.038.115-.114v-.498c0-.076-.039-.115-.115-.115-.077 0-.115.039-.115.115v.498c0 .076.038.114.115.114zm0-.994c.076 0 .115-.039.115-.115v-.498c0-.076-.039-.114-.115-.114-.077 0-.115.038-.115.114v.498c0 .076.038.115.115.115zm0-.995c.076 0 .115-.039.115-.115v-.498c0-.076-.039-.114-.115-.114-.077 0-.115.038-.115.114v.498c0 .076.038.115.115.115zm0-.995c.076 0 .115-.038.115-.115v-.497c0-.077-.039-.115-.115-.115-.077 0-.115.038-.115.115v.497c0 .038.038.115.115.115zm0-1.033c.076 0 .115-.039.115-.115v-.498c0-.076-.039-.114-.115-.114-.077 0-.115.038-.115.114v.498c0 .076.038.115.115.115zm0-.995c.076 0 .115-.038.115-.115v-.498c0-.076-.039-.114-.115-.114-.077 0-.115.038-.115.115v.497c0 .076.038.115.115.115zm0-.995c.076 0 .115-.038.115-.115v-.497c0-.077-.039-.115-.115-.115-.077 0-.115.038-.115.115v.497c0 .077.038.115.115.115zm0-.995c.076 0 .115-.038.115-.115v-.497c0-.077-.039-.115-.115-.115-.077 0-.115.038-.115.115v.497c0 .038.038.115.115.115zm0 11.799c.076 0 .115-.039.115-.115v-.23c0-.076-.039-.115-.115-.115-.077 0-.115.039-.115.115v.23c0 .076.038.115.115.115z" fill="#FAFAFA"/><path d="M133.006 95.147a.78.78 0 01.344.613c0 .23-.153.306-.344.19a.778.778 0 01-.345-.611c0-.192.153-.306.345-.192z" fill="#37474F"/><path d="M125.62 95.373c.076 0 .114-.038.114-.115v-.23c0-.076-.038-.114-.114-.114-.077 0-.115.038-.115.115v.23c0 .038.038.114.115.114zm.001 8.379c.077 0 .115-.038.115-.115v-.459c0-.077-.038-.115-.115-.115-.076 0-.115.038-.115.115v.459c0 .038.039.115.115.115zm0-.918c.077 0 .115-.039.115-.115v-.459c0-.077-.038-.115-.115-.115-.076 0-.115.038-.115.115v.459c0 .038.039.115.115.115zm0-.957c.077 0 .115-.038.115-.115v-.459c0-.077-.038-.115-.115-.115-.076 0-.115.038-.115.115v.459c0 .077.039.115.115.115zm0-.918c.077 0 .115-.039.115-.115v-.459c0-.077-.038-.115-.115-.115-.076 0-.115.038-.115.115v.459c0 .038.039.115.115.115zm0-.957c.077 0 .115-.038.115-.115v-.459c0-.076-.038-.115-.115-.115-.076 0-.115.038-.115.115v.46c0 .076.039.114.115.114zm0-.918c.077 0 .115-.039.115-.115v-.46c0-.076-.038-.114-.115-.114-.076 0-.115.038-.115.115v.459c0 .076.039.115.115.115zm0-.919c.077 0 .115-.038.115-.115v-.459c0-.076-.038-.114-.115-.114-.076 0-.115.038-.115.114v.46c0 .038.039.114.115.114zm0-.956c.077 0 .115-.039.115-.115v-.46c0-.076-.038-.114-.115-.114-.076 0-.115.038-.115.115v.459c0 .076.039.115.115.115zm0-.919c.077 0 .115-.038.115-.115v-.459c0-.076-.038-.114-.115-.114-.076 0-.115.038-.115.114v.46c0 .076.039.114.115.114zm0 8.15c.076 0 .114-.039.114-.115v-.23c0-.076-.038-.115-.114-.115-.077 0-.115.039-.115.115v.23c0 .076.038.115.115.115z" fill="#FAFAFA"/><path d="M125.62 94.57a.778.778 0 01.345.612c0 .23-.153.306-.345.19a.78.78 0 01-.344-.611c-.038-.192.153-.307.344-.192z" fill="#37474F"/><path d="M142.457 116.877c.076 0 .115-.038.153-.114a.202.202 0 00-.077-.268l-18.864-10.906a.202.202 0 00-.268.077.202.202 0 00.077.268l18.864 10.905c.038 0 .077.038.115.038z" fill="#3C3C6D"/><path d="M220.742 107.452v-5.042l4.307-.832a.57.57 0 01.49.098l2.154 1.223-2.79.588-4.161 3.965z" fill="#EBEBEB"/><path d="M191.273 135.99l-.343-.196c-.539-.293-.93-1.028-.93-1.615v-25.7c0-.587.44-1.321.93-1.615l28.833-16.644c.538-.293 1.37-.293 1.86 0l.342.196c.539.294.931 1.028.931 1.615v25.7c0 .588-.441 1.322-.931 1.616l-28.832 16.643c-.49.343-1.322.343-1.86 0z" fill="#EBEBEB"/><path d="M190.049 125.171v-16.643c0-.294.098-.637.294-.93l4.112 2.349v25.357l-1.273.735c-.539.293-1.371.293-1.86 0l-.343-.196c-.538-.294-.93-1.028-.93-1.616v-9.056z" fill="#E0E0E0"/><path d="M221.965 91.542l-28.832 16.644c-.539.294-.93 1.028-.93 1.615v25.7c0 .588.44.832.93.539l28.832-16.644c.539-.294.931-1.028.931-1.615v-25.7c0-.588-.392-.832-.931-.539z" fill="#F0F0F0"/><path d="M222.896 108.725l4.895-4.749c.489-.489.049-1.273-.588-1.175l-4.307.833v5.091z" fill="#F0F0F0"/><path d="M208.112 113.083c-.098.098-.098.294-.098.294 0 4.014-2.888 8.86-6.315 10.916-3.573 2.154-6.413.538-6.315-3.623.098-3.769 2.546-8.37 5.728-10.573l-.196-.098v-.343c-3.378 2.399-6.021 7.245-6.021 11.259 0 4.308 3.035 6.07 6.804 3.916 3.769-2.154 6.853-7.44 6.804-11.797-.049-.098-.293-.049-.391.049z" fill="#FFA200"/><path d="M209.14 112.743c0-4.7-3.329-6.658-7.392-4.259-1.811 1.028-3.524 2.79-4.846 4.895l1.126.832c1.028-1.664 2.35-2.986 3.769-3.769 3.133-1.811 5.728-.343 5.728 3.28 0 3.622-2.546 8.077-5.728 9.888-3.133 1.811-5.727.343-5.727-3.28l-1.713.979c0 4.7 3.328 6.658 7.391 4.259 4.063-2.349 7.392-8.077 7.392-12.825z" fill="#405CE1"/><path d="M201.748 112.053c-2.399 1.37-4.308 4.699-4.308 7.441 0 2.741 1.909 3.867 4.308 2.496s4.308-4.699 4.308-7.441c0-2.741-1.909-3.867-4.308-2.496z" fill="#3C3C6D"/><path d="M218.734 99.186l-7.342 4.259c-.392.245-.686.734-.686 1.126 0 .391.294.538.686.293l7.342-4.258c.392-.245.686-.735.686-1.126.049-.392-.294-.539-.686-.294zm0 3.624l-7.342 4.259c-.392.245-.686.734-.686 1.126 0 .392.294.539.686.294l7.342-4.259c.392-.245.686-.734.686-1.126.049-.343-.294-.489-.686-.294zm0 3.669l-7.342 4.259c-.392.245-.686.734-.686 1.126 0 .391.294.538.686.293l7.342-4.258c.392-.245.686-.735.686-1.126.049-.392-.294-.539-.686-.294zm0 3.619l-7.342 4.259c-.392.244-.686.734-.686 1.126 0 .391.294.538.686.293l7.342-4.258c.392-.245.686-.735.686-1.126.049-.392-.294-.49-.686-.294zm0 3.674l-7.342 4.259c-.392.245-.686.734-.686 1.126 0 .391.294.538.686.293l7.342-4.258c.392-.245.686-.735.686-1.126.049-.392-.294-.539-.686-.294z" fill="#E0E0E0"/><path d="M57.152 237.386s-1.412 3.428-1.11 6.453c0 0 3.43.908 7.564-.302 2.622-.706 8.773-1.21 9.075-3.025 1.412-7.967-3.428.605-9.479-3.832l-6.05.706zm25.613 0s-1.412 3.428-1.11 6.453c0 0 3.43.908 7.564-.302 2.622-.706 9.479-.101 10.286-1.815 3.227-6.757-4.74-.605-10.69-5.042l-6.05.706z" fill="#242463"/><path d="M95.37 143.301c0 26.017-3.126 56.37-5.142 90.959-.101 1.109-.101 2.117-.202 3.227h-7.362l-.1-3.227-.706-41.446-1.815-24.807-.706-9.781-.101.605-14.622 75.328-.605 3.227H57.05c0-1.109 0-2.118.1-3.227.505-19.462 2.824-42.454 6.253-67.261l1.109-20.773s16.034-6.454 26.32-4.639c1.714.403 3.227 1.008 4.537 1.815z" fill="url(#paint60_linear)"/><path d="M79.337 158.935l-14.622 75.328-.605 3.227h-2.824c.807-11.294 4.336-30.554 7.664-39.933 2.32-6.756 1.21-14.823 3.025-25.008 1.715-10.286 6.757-22.69 6.757-22.69l.605 9.076z" fill="url(#paint61_linear)"/><path d="M95.37 143.301c0 26.017-3.125 56.37-5.142 90.959-.101 1.109-.101 2.117-.202 3.227h-1.714c-1.009-11.496 1.109-32.471 2.622-50.824.907-10.286.403-22.589 0-30.253-.202-4.437-.202-10.487-.101-14.722 1.714.201 3.227.806 4.538 1.613z" fill="url(#paint62_linear)"/><path d="M73.892 90.665s-4.639 4.336-7.06-.504c-2.52-4.74-9.68-13.816-4.234-15.53 0 0-1.412-1.916.1-4.034 0 0-.504 1.412.706 3.127 0 0-1.714-5.042 6.252-5.85 7.967-.806 7.866-4.638 7.866-4.638s.504 1.311.1 3.126c0 0 .707-.706 1.01-3.428 0 0 2.218 3.227.604 8.067 0 0 .706-1.311 1.11-2.622 0 0 .1 6.151-2.32 8.672l.605 9.177-4.74 4.437z" fill="#192EAD"/><path d="M80.345 91.567c0 .1-.1.1-.1.202-.807.806-3.228-.202-3.228-.202l1.11 4.437v.1l-1.513.303-.605.101-6.656 1.311.606-5.243c6.554-.706 6.554-8.572 6.554-8.572-2.218.706-3.428-5.143-1.714-5.042 1.714.1 2.723 4.336 2.723 4.336.1-1.412 0-3.025-.202-4.134-.1-.807-.303-1.311-.303-1.311 1.715-.908 2.522-3.126 2.522-3.126.1.302.201.504.302.806 2.723 8.37 1.11 14.925.504 16.034z" fill="#FFC8AF"/><path d="M77.017 91.57l1.11 4.438c-.605.201-1.11.302-1.412.403-.404.1-.605.1-.605.1l.605-8.167c.907 3.227 2.218 3.025 3.63 3.428-.907.706-3.328-.201-3.328-.201z" fill="#FDBFA3"/><path d="M79.74 75.338c-.504 1.613-1.815 3.025-2.521 3.63-.1-.806-.302-1.31-.302-1.31 1.714-.908 2.52-3.127 2.52-3.127.101.303.202.605.303.807z" fill="#4864D8"/><path d="M94.06 104.375s5.244-5.042 5.748-6.454c.504-1.411 1.714-4.033 3.429-4.437l-.505 2.925s1.412-.504 1.614-.807c.202-.202.403-2.017.605-2.017.202 0 .907 2.723.202 3.429-.605.706-2.017 2.017-3.429 2.32l-1.008 3.629-2.32 5.042-4.336-3.63z" fill="#FFC8AF"/><path d="M115.236 75.84s4.033.908 6.05.706c2.017-.202 7.967-5.143 8.975-6.756 1.009-1.614-10.891.504-10.891.504l-4.134 5.546z" fill="#1D1D6D"/><path d="M151.211 48.998c5.599-16.978-2.253-34.829-17.539-39.87-15.286-5.04-32.216 4.636-37.816 21.615-5.599 16.978 2.254 34.828 17.539 39.869 15.286 5.041 32.217-4.636 37.816-21.614z" fill="#1D1D6D"/><path d="M80.345 98.327l-1.614-3.025s-5.848-.907-11.193 2.219v3.932l12.807-3.126z" fill="url(#paint63_linear)"/><path d="M128.144 7.67c-15.731-3.53-31.866 7.664-36.202 25.008-3.327 13.412 1.513 26.723 11.194 33.58l.504 2.521a6.367 6.367 0 003.429 4.438c.605.302 1.31.605 1.916.907l-16.337 56.874 2.32 13.311 20.168-68.572c.202 0 .504 0 .706.101 1.714.101 3.428-.403 4.739-1.411l6.353-4.74c10.185-3.328 18.858-12.303 21.782-24.303 4.437-17.244-4.84-34.185-20.572-37.714z" fill="#1F1F84"/><path d="M116.144 77.958c-.302 2.42-.302 4.437-.504 4.84-.706 1.412-1.109 2.32-2.32 4.034-.302.504-.605 1.31-.806 2.42-.404 2.723-.404 7.866-.908 10.891-.302 2.42-.807 5.445-1.21 7.966-.101.807-.202 1.614-.302 2.32a54.852 54.852 0 01-.404 2.722l-6.857-3.63c.202-.706.303-1.412.504-2.017.101-.201.101-.403.202-.605.302-.907.504-1.714.807-2.42.806-2.118 1.411-4.034 2.319-6.857 1.21-4.034 1.815-9.681 1.815-9.681-1.311-2.823-1.109-7.765-1.109-8.672 0-1.11.101-2.118.504-1.816 1.008.706 1.008 2.118 1.008 2.118s-.1 2.118.706 2.521c.101.101.101.101.908 0 2.218-.1 3.328-.806 3.328-.806l1.311-4.236c.1-.1 1.109.202 1.008.908z" fill="#FFC8AF"/><path d="M110.396 108.009c-.101.807-.202 1.614-.303 2.32l-6.756-2.925c.101-.202.101-.403.202-.605.302-.907.504-1.714.806-2.42l6.051 3.63z" fill="#FDBFA3"/><path d="M109.992 111.939s-1.109 4.437-2.319 7.361c-.403 1.11-.908 2.017-1.21 2.219-1.412 1.109-12.807-6.252-12.807-6.252l.202 2.823 1.411 21.984.202 3.227s-12.706 7.764-30.757 3.731l.202-2.622.605-9.177.101-1.916.101-1.815v-.101l-.1-.1c-.707-.606-5.144-4.538-6.152-7.866-1.714-6.353-3.328-18.152-1.21-19.563 1.21-.807 2.52-1.513 3.932-2.219 10.79-5.344 26.118-6.756 27.732-5.042l.504.504c6.857 7.16 11.899 13.614 11.899 13.614l1.21-2.622 6.454 3.832z" fill="url(#paint64_linear)"/><path d="M107.774 119.2c-.403 1.109-.907 2.017-1.21 2.218-1.411 1.11-12.907-6.353-12.907-6.353s-.706-4.336-1.715-9.983c2.118 5.647 2.521 7.765 5.85 8.975 4.537 1.815 5.646 6.958 9.982 5.143z" fill="url(#paint65_linear)"/><path d="M65.522 128.779c-.101-.101-.404-.302-.706-.605-.605-1.815-1.311-4.235-1.412-5.042-.1-1.311 0-14.32 0-14.32 2.219 7.765 2.118 16.639 2.118 19.967z" fill="url(#paint66_linear)"/><path d="M95.168 139.976c-1.21.605-2.42 1.109-3.63 1.613-11.697 4.639-21.176 4.034-26.824 2.723l.606-9.176c.1-.605.1-1.21.1-1.916v-2.017c.101-12.504-2.017-23.496-3.428-29.647 10.79-5.345 26.118-6.757 27.731-5.043l.504.505c1.009 3.731 1.815 7.865 2.42 11.899.505 3.126.807 6.252 1.11 9.076l1.411 21.983z" fill="url(#paint67_linear)"/><path d="M145.187 42.361c-.101.706-.303 1.513-.505 2.219-2.521 10.185-9.781 17.849-18.454 20.672a22.323 22.323 0 01-8.571 1.11c-1.311-.102-2.521-.202-3.832-.505-2.219-.504-4.336-1.31-6.252-2.42-9.48-5.445-14.521-17.546-11.395-29.95 3.63-14.824 17.445-24.403 30.857-21.378a23.668 23.668 0 016.958 2.924c5.95 3.731 9.983 10.185 11.194 17.547.504 3.226.504 6.453 0 9.781z" fill="#EFF4F4"/><path d="M132.48 14.227c-.605-.202-1.311-.403-1.916-.504-13.412-3.025-27.227 6.555-30.857 21.378-3.126 12.706 2.218 25.11 12.201 30.353-12.201-3.932-19.16-17.748-15.73-31.865 3.63-14.824 17.445-24.404 30.857-21.379 1.916.504 3.832 1.11 5.445 2.017z" fill="#1D1D6D"/><path d="M101.724 109.115l1.714-3.025 6.958 3.025-.101 5.345-8.571-5.345z" fill="#DBE1E3"/><path d="M126.127 65.351l18.959-22.992c-.101.706-.303 1.513-.505 2.219-2.42 10.185-9.68 17.95-18.454 20.773z" fill="url(#paint68_linear)"/><path d="M145.186 32.68l-27.631 33.78c-1.311-.1-2.521-.202-3.832-.504-2.218-.504-4.336-1.311-6.252-2.42l26.421-48.404c6.05 3.73 10.084 10.185 11.294 17.546z" fill="url(#paint69_linear)"/><path d="M91.539 141.587c.806-13.614.302-34.286.302-34.286l.807 1.613c.504 3.126.807 6.252 1.11 9.076l1.41 21.983c-1.21.605-2.52 1.11-3.63 1.614z" fill="url(#paint70_linear)"/><defs><linearGradient id="paint0_linear" x1="35.562" y1=".304" x2="35.581" y2=".533" gradientUnits="userSpaceOnUse"><stop stop-color="#7763F7"/><stop offset=".248" stop-color="#6F72F7"/><stop offset=".337" stop-color="#6C79F7"/><stop offset=".763" stop-color="#5B9EF8"/><stop offset="1" stop-color="#50B5F8"/></linearGradient><linearGradient id="paint1_linear" x1="301.58" y1="152.026" x2="326.67" y2="163.75" gradientUnits="userSpaceOnUse"><stop stop-color="#4F6AD9"/><stop offset="1" stop-color="#658BFD"/></linearGradient><linearGradient id="paint2_linear" x1="287.73" y1="148.582" x2="307.468" y2="134.495" gradientUnits="userSpaceOnUse"><stop stop-color="#4869D8"/><stop offset="1" stop-color="#658BFD"/></linearGradient><linearGradient id="paint3_linear" x1="309.517" y1="154.033" x2="300.171" y2="141.08" gradientUnits="userSpaceOnUse"><stop stop-color="#8DAEFF"/><stop offset="1" stop-color="#8DAEFF" stop-opacity="0"/></linearGradient><linearGradient id="paint4_linear" x1="277.524" y1="155.184" x2="305.737" y2="166.478" gradientUnits="userSpaceOnUse"><stop stop-color="#546AEA"/><stop offset="1" stop-color="#658BFD"/></linearGradient><linearGradient id="paint5_linear" x1="293.669" y1="175.149" x2="293.769" y2="164.65" gradientUnits="userSpaceOnUse"><stop stop-color="#8DAEFF"/><stop offset="1" stop-color="#8DAEFF" stop-opacity="0"/></linearGradient><linearGradient id="paint6_linear" x1="281.439" y1="135.318" x2="300.614" y2="119.535" gradientUnits="userSpaceOnUse"><stop stop-color="#546AEA"/><stop offset="1" stop-color="#658BFD"/></linearGradient><linearGradient id="paint7_linear" x1="301.192" y1="137.44" x2="295.126" y2="128.457" gradientUnits="userSpaceOnUse"><stop stop-color="#8DAEFF"/><stop offset="1" stop-color="#8DAEFF" stop-opacity="0"/></linearGradient><linearGradient id="paint8_linear" x1="300.433" y1="68.42" x2="311.555" y2="65.465" gradientUnits="userSpaceOnUse"><stop stop-color="#546AEA"/><stop offset="1" stop-color="#658BFD"/></linearGradient><linearGradient id="paint9_linear" x1="296.055" y1="69.141" x2="301.646" y2="67.656" gradientUnits="userSpaceOnUse"><stop stop-color="#546AEA"/><stop offset="1" stop-color="#658BFD"/></linearGradient><linearGradient id="paint10_linear" x1="298.459" y1="76.272" x2="316.2" y2="71.558" gradientUnits="userSpaceOnUse"><stop stop-color="#546AEA"/><stop offset="1" stop-color="#658BFD"/></linearGradient><linearGradient id="paint11_linear" x1="294.072" y1="81.876" x2="312.589" y2="76.957" gradientUnits="userSpaceOnUse"><stop stop-color="#546AEA"/><stop offset="1" stop-color="#658BFD"/></linearGradient><linearGradient id="paint12_linear" x1="288.405" y1="87.79" x2="307.375" y2="82.749" gradientUnits="userSpaceOnUse"><stop stop-color="#546AEA"/><stop offset="1" stop-color="#658BFD"/></linearGradient><linearGradient id="paint13_linear" x1="283.406" y1="94.203" x2="302.123" y2="89.23" gradientUnits="userSpaceOnUse"><stop stop-color="#546AEA"/><stop offset="1" stop-color="#658BFD"/></linearGradient><linearGradient id="paint14_linear" x1="291.102" y1="74.023" x2="295.144" y2="72.95" gradientUnits="userSpaceOnUse"><stop stop-color="#546AEA"/><stop offset="1" stop-color="#658BFD"/></linearGradient><linearGradient id="paint15_linear" x1="284.694" y1="78.762" x2="288.18" y2="77.836" gradientUnits="userSpaceOnUse"><stop stop-color="#546AEA"/><stop offset="1" stop-color="#658BFD"/></linearGradient><linearGradient id="paint16_linear" x1="278.891" y1="83.262" x2="281.68" y2="82.521" gradientUnits="userSpaceOnUse"><stop stop-color="#546AEA"/><stop offset="1" stop-color="#658BFD"/></linearGradient><linearGradient id="paint17_linear" x1="305.21" y1="96.053" x2="316.183" y2="99.413" gradientUnits="userSpaceOnUse"><stop stop-color="#546AEA"/><stop offset="1" stop-color="#658BFD"/></linearGradient><linearGradient id="paint18_linear" x1="300.932" y1="94.986" x2="306.447" y2="96.675" gradientUnits="userSpaceOnUse"><stop stop-color="#546AEA"/><stop offset="1" stop-color="#658BFD"/></linearGradient><linearGradient id="paint19_linear" x1="299.218" y1="102.259" x2="316.72" y2="107.619" gradientUnits="userSpaceOnUse"><stop stop-color="#546AEA"/><stop offset="1" stop-color="#658BFD"/></linearGradient><linearGradient id="paint20_linear" x1="292.294" y1="105.53" x2="310.562" y2="111.124" gradientUnits="userSpaceOnUse"><stop stop-color="#546AEA"/><stop offset="1" stop-color="#658BFD"/></linearGradient><linearGradient id="paint21_linear" x1="284.068" y1="108.566" x2="302.783" y2="114.297" gradientUnits="userSpaceOnUse"><stop stop-color="#546AEA"/><stop offset="1" stop-color="#658BFD"/></linearGradient><linearGradient id="paint22_linear" x1="276.165" y1="112.315" x2="294.631" y2="117.969" gradientUnits="userSpaceOnUse"><stop stop-color="#546AEA"/><stop offset="1" stop-color="#658BFD"/></linearGradient><linearGradient id="paint23_linear" x1="293.898" y1="97.386" x2="297.885" y2="98.607" gradientUnits="userSpaceOnUse"><stop stop-color="#546AEA"/><stop offset="1" stop-color="#658BFD"/></linearGradient><linearGradient id="paint24_linear" x1="285.645" y1="99.098" x2="289.084" y2="100.151" gradientUnits="userSpaceOnUse"><stop stop-color="#546AEA"/><stop offset="1" stop-color="#658BFD"/></linearGradient><linearGradient id="paint25_linear" x1="278.062" y1="100.828" x2="280.813" y2="101.67" gradientUnits="userSpaceOnUse"><stop stop-color="#546AEA"/><stop offset="1" stop-color="#658BFD"/></linearGradient><linearGradient id="paint26_linear" x1="282.998" y1="123.927" x2="285.418" y2="103.825" gradientUnits="userSpaceOnUse"><stop stop-color="#566DEC"/><stop offset="1" stop-color="#658BFD"/></linearGradient><linearGradient id="paint27_linear" x1="294.346" y1="120.418" x2="286.04" y2="113.831" gradientUnits="userSpaceOnUse"><stop stop-color="#8DAEFF"/><stop offset="1" stop-color="#8DAEFF" stop-opacity="0"/></linearGradient><linearGradient id="paint28_linear" x1="53.9" y1="163.207" x2="33.259" y2="172.513" gradientUnits="userSpaceOnUse"><stop stop-color="#4F6AD9"/><stop offset="1" stop-color="#658BFD"/></linearGradient><linearGradient id="paint29_linear" x1="65.296" y1="160.683" x2="48.79" y2="149.112" gradientUnits="userSpaceOnUse"><stop stop-color="#4869D8"/><stop offset="1" stop-color="#658BFD"/></linearGradient><linearGradient id="paint30_linear" x1="47.293" y1="165.269" x2="55.198" y2="154.506" gradientUnits="userSpaceOnUse"><stop stop-color="#8DAEFF"/><stop offset="1" stop-color="#8DAEFF" stop-opacity="0"/></linearGradient><linearGradient id="paint31_linear" x1="73.73" y1="166.234" x2="50.302" y2="175.445" gradientUnits="userSpaceOnUse"><stop stop-color="#546AEA"/><stop offset="1" stop-color="#658BFD"/></linearGradient><linearGradient id="paint32_linear" x1="60.388" y1="183.029" x2="60.302" y2="174.197" gradientUnits="userSpaceOnUse"><stop stop-color="#8DAEFF"/><stop offset="1" stop-color="#8DAEFF" stop-opacity="0"/></linearGradient><linearGradient id="paint33_linear" x1="70.494" y1="149.519" x2="54.421" y2="136.523" gradientUnits="userSpaceOnUse"><stop stop-color="#546AEA"/><stop offset="1" stop-color="#658BFD"/></linearGradient><linearGradient id="paint34_linear" x1="54.172" y1="151.304" x2="59.309" y2="143.833" gradientUnits="userSpaceOnUse"><stop stop-color="#8DAEFF"/><stop offset="1" stop-color="#8DAEFF" stop-opacity="0"/></linearGradient><linearGradient id="paint35_linear" x1="54.799" y1="93.246" x2="45.587" y2="90.842" gradientUnits="userSpaceOnUse"><stop stop-color="#546AEA"/><stop offset="1" stop-color="#658BFD"/></linearGradient><linearGradient id="paint36_linear" x1="58.415" y1="93.85" x2="53.785" y2="92.641" gradientUnits="userSpaceOnUse"><stop stop-color="#546AEA"/><stop offset="1" stop-color="#658BFD"/></linearGradient><linearGradient id="paint37_linear" x1="56.429" y1="99.85" x2="41.736" y2="96.015" gradientUnits="userSpaceOnUse"><stop stop-color="#546AEA"/><stop offset="1" stop-color="#658BFD"/></linearGradient><linearGradient id="paint38_linear" x1="60.054" y1="104.562" x2="44.717" y2="100.559" gradientUnits="userSpaceOnUse"><stop stop-color="#546AEA"/><stop offset="1" stop-color="#658BFD"/></linearGradient><linearGradient id="paint39_linear" x1="64.737" y1="109.538" x2="49.025" y2="105.438" gradientUnits="userSpaceOnUse"><stop stop-color="#546AEA"/><stop offset="1" stop-color="#658BFD"/></linearGradient><linearGradient id="paint40_linear" x1="68.868" y1="114.935" x2="53.365" y2="110.889" gradientUnits="userSpaceOnUse"><stop stop-color="#546AEA"/><stop offset="1" stop-color="#658BFD"/></linearGradient><linearGradient id="paint41_linear" x1="62.508" y1="97.954" x2="59.161" y2="97.08" gradientUnits="userSpaceOnUse"><stop stop-color="#546AEA"/><stop offset="1" stop-color="#658BFD"/></linearGradient><linearGradient id="paint42_linear" x1="67.803" y1="101.944" x2="64.916" y2="101.191" gradientUnits="userSpaceOnUse"><stop stop-color="#546AEA"/><stop offset="1" stop-color="#658BFD"/></linearGradient><linearGradient id="paint43_linear" x1="72.599" y1="105.729" x2="70.289" y2="105.126" gradientUnits="userSpaceOnUse"><stop stop-color="#546AEA"/><stop offset="1" stop-color="#658BFD"/></linearGradient><linearGradient id="paint44_linear" x1="50.851" y1="116.492" x2="41.757" y2="119.227" gradientUnits="userSpaceOnUse"><stop stop-color="#546AEA"/><stop offset="1" stop-color="#658BFD"/></linearGradient><linearGradient id="paint45_linear" x1="54.386" y1="115.592" x2="49.815" y2="116.967" gradientUnits="userSpaceOnUse"><stop stop-color="#546AEA"/><stop offset="1" stop-color="#658BFD"/></linearGradient><linearGradient id="paint46_linear" x1="55.803" y1="121.71" x2="41.297" y2="126.073" gradientUnits="userSpaceOnUse"><stop stop-color="#546AEA"/><stop offset="1" stop-color="#658BFD"/></linearGradient><linearGradient id="paint47_linear" x1="61.525" y1="124.461" x2="46.383" y2="129.016" gradientUnits="userSpaceOnUse"><stop stop-color="#546AEA"/><stop offset="1" stop-color="#658BFD"/></linearGradient><linearGradient id="paint48_linear" x1="68.322" y1="127.017" x2="52.81" y2="131.683" gradientUnits="userSpaceOnUse"><stop stop-color="#546AEA"/><stop offset="1" stop-color="#658BFD"/></linearGradient><linearGradient id="paint49_linear" x1="74.852" y1="130.169" x2="59.547" y2="134.772" gradientUnits="userSpaceOnUse"><stop stop-color="#546AEA"/><stop offset="1" stop-color="#658BFD"/></linearGradient><linearGradient id="paint50_linear" x1="60.199" y1="117.612" x2="56.895" y2="118.606" gradientUnits="userSpaceOnUse"><stop stop-color="#546AEA"/><stop offset="1" stop-color="#658BFD"/></linearGradient><linearGradient id="paint51_linear" x1="67.019" y1="119.05" x2="64.169" y2="119.907" gradientUnits="userSpaceOnUse"><stop stop-color="#546AEA"/><stop offset="1" stop-color="#658BFD"/></linearGradient><linearGradient id="paint52_linear" x1="73.285" y1="120.503" x2="71.005" y2="121.189" gradientUnits="userSpaceOnUse"><stop stop-color="#546AEA"/><stop offset="1" stop-color="#658BFD"/></linearGradient><linearGradient id="paint53_linear" x1="69.206" y1="139.94" x2="67.134" y2="123.037" gradientUnits="userSpaceOnUse"><stop stop-color="#566DEC"/><stop offset="1" stop-color="#658BFD"/></linearGradient><linearGradient id="paint54_linear" x1="59.829" y1="136.988" x2="66.787" y2="131.568" gradientUnits="userSpaceOnUse"><stop stop-color="#8DAEFF"/><stop offset="1" stop-color="#8DAEFF" stop-opacity="0"/></linearGradient><linearGradient id="paint55_linear" x1="273.703" y1="112.794" x2="275.481" y2="171.785" gradientUnits="userSpaceOnUse"><stop stop-color="#24247F"/><stop offset="1" stop-color="#2D2D96"/></linearGradient><linearGradient id="paint56_linear" x1="280.452" y1="109.353" x2="278.081" y2="188.503" gradientUnits="userSpaceOnUse"><stop stop-color="#242463"/><stop offset="1" stop-color="#242463" stop-opacity="0"/></linearGradient><linearGradient id="paint57_linear" x1="267.75" y1="88.475" x2="257.078" y2="97.961" gradientUnits="userSpaceOnUse"><stop stop-color="#E1E1E1"/><stop offset="1" stop-color="#fff"/></linearGradient><linearGradient id="paint58_linear" x1="268.383" y1="122.976" x2="274.6" y2="122.976" gradientUnits="userSpaceOnUse"><stop stop-color="#EF6F6F"/><stop offset="1" stop-color="#EF6F6F" stop-opacity="0"/></linearGradient><linearGradient id="paint59_linear" x1="270.275" y1="71.935" x2="275.907" y2="95.947" gradientUnits="userSpaceOnUse"><stop stop-color="#E1E1E1"/><stop offset="1" stop-color="#fff"/></linearGradient><linearGradient id="paint60_linear" x1="97.232" y1="133.568" x2="69.44" y2="214.788" gradientUnits="userSpaceOnUse"><stop stop-color="#24247F"/><stop offset="1" stop-color="#2D2D96"/></linearGradient><linearGradient id="paint61_linear" x1="79.033" y1="145.082" x2="59.928" y2="256.607" gradientUnits="userSpaceOnUse"><stop stop-color="#242463"/><stop offset="1" stop-color="#242463" stop-opacity="0"/></linearGradient><linearGradient id="paint62_linear" x1="99.276" y1="137.838" x2="78.956" y2="256.456" gradientUnits="userSpaceOnUse"><stop stop-color="#242463"/><stop offset="1" stop-color="#242463" stop-opacity="0"/></linearGradient><linearGradient id="paint63_linear" x1="67.532" y1="98.375" x2="80.324" y2="98.375" gradientUnits="userSpaceOnUse"><stop stop-color="#E1E1E1"/><stop offset="1" stop-color="#fff"/></linearGradient><linearGradient id="paint64_linear" x1="79.072" y1="155.557" x2="85.042" y2="94.186" gradientUnits="userSpaceOnUse"><stop stop-color="#E1E1E1"/><stop offset="1" stop-color="#fff"/></linearGradient><linearGradient id="paint65_linear" x1="86.55" y1="129.897" x2="107.056" y2="102.99" gradientUnits="userSpaceOnUse"><stop stop-color="#BCCACE"/><stop offset="1" stop-color="#BCCACE" stop-opacity="0"/></linearGradient><linearGradient id="paint66_linear" x1="72.485" y1="118.39" x2="44.705" y2="119.878" gradientUnits="userSpaceOnUse"><stop stop-color="#BCCACE"/><stop offset="1" stop-color="#BCCACE" stop-opacity="0"/></linearGradient><linearGradient id="paint67_linear" x1="81.484" y1="152.724" x2="71.565" y2="57.042" gradientUnits="userSpaceOnUse"><stop stop-color="#F4BA38"/><stop offset="1" stop-color="#FFD349"/></linearGradient><linearGradient id="paint68_linear" x1="161.963" y1="87.693" x2="111.456" y2="22.656" gradientUnits="userSpaceOnUse"><stop stop-color="#fff"/><stop offset="1" stop-color="#fff" stop-opacity="0"/></linearGradient><linearGradient id="paint69_linear" x1="160.457" y1="89.266" x2="108.904" y2="22.883" gradientUnits="userSpaceOnUse"><stop stop-color="#fff"/><stop offset="1" stop-color="#fff" stop-opacity="0"/></linearGradient><linearGradient id="paint70_linear" x1="94.86" y1="150.172" x2="87.637" y2="83.812" gradientUnits="userSpaceOnUse"><stop stop-color="#FF911E"/><stop offset="1" stop-color="#FE931E" stop-opacity="0"/></linearGradient></defs></svg>