<svg width="329" height="238" fill="none" xmlns="http://www.w3.org/2000/svg"><path d="M79.543 77.593c11.11-1.782 19.172-6.348 20.85-18.068 1.478-10.321-4.718-18.709-14.039-22.115-14.714-5.378-23.309 4.249-38.351 4.118-14.865-.13-21.353-6.253-34.285-.474-13.25 5.921-16.284 19.275-4.311 27.54 12.013 8.292 18.935 2.114 32.087 2.097 13.538-.018 22.401 9.413 38.05 6.902z" fill="#F1F3F7"/><path opacity=".75" d="M187.61 46.411c-18.147-9.716-37.617 2.752-47.824 21.926-10.208 19.174-14.272 35.596-55.575 28.288-41.302-7.309-59.449 12.467-56.991 44.796 2.457 32.415 45.272 100.341 158.783 95.354 113.416-5.073 147.536-71.107 142.527-101.287-5.01-30.179-67.578-22.699-92.246-47.72-24.573-24.934-35.632-34.306-48.674-41.357z" fill="#EDEFF4"/><path d="M36.99 48.187h-1.415c.25-.083.75-.083 1.416 0z" fill="url(#paint0_linear)"/><path d="M283.458 192.727s12.861 2.625 17.443 13.813c0 0-11.604 3.438-22.765 1.312-11.161-2.187 5.322-15.125 5.322-15.125z" fill="url(#paint1_linear)"/><path d="M277.624 199.387s9.985 1.163 16.616 4.163c0 0-8.568-2.327-19.149-3l2.533-1.163z" fill="#405EBF"/><path d="M266.667 202.023s16.226 1.166 21.635-7.298c5.409-8.464 4.255-12.634 4.255-12.634s-22.285-.368-29.929 13.677l4.039 6.255z" fill="url(#paint2_linear)"/><path d="M267.532 200.061s10.313-10.794 23.078-15.639c0 0-14.712 3.925-23.943 14.842l.865.797z" fill="#405EBF"/><path d="M266.667 202.023s16.226 1.166 21.635-7.298c5.409-8.464 4.255-12.634 4.255-12.634s-22.285-.368-29.929 13.677l4.039 6.255z" fill="url(#paint3_linear)"/><path d="M268.109 195.832c17.308 4.048 17.741 17.97 21.563 25.269 0 0-18.39 2.637-27.116-12.144-2.669-5.888-5.337-12.573 5.553-13.125z" fill="url(#paint4_linear)"/><path d="M266.955 201.289s10.89 5.888 15.217 14.72c0 0-9.808-11.776-17.02-13.432l1.803-1.288z" fill="#405EBF"/><path d="M268.109 195.832c17.308 4.048 17.741 17.97 21.563 25.269 0 0-18.39 2.637-27.116-12.144-2.669-5.888-5.337-12.573 5.553-13.125z" fill="url(#paint5_linear)"/><path d="M261.041 176.938s7.356-8.648 28.559-7.176c0 0-3.678.92-6.851 7.728-3.174 6.808-10.025 13.125-22.141 10.672l.433-11.224z" fill="url(#paint6_linear)"/><path d="M263.132 183.87s10.097-8.28 20.049-11.53c0 0-8.798 1.656-21.202 10.917l1.153.613z" fill="#405EBF"/><path d="M261.041 176.938s7.356-8.648 28.559-7.176c0 0-3.678.92-6.851 7.728-3.174 6.808-10.025 13.125-22.141 10.672l.433-11.224z" fill="url(#paint7_linear)"/><path d="M282.677 123.46s2.884-6.194 8.654-11.53c-.072.061-3.173 7.727-8.654 11.53z" fill="url(#paint8_linear)"/><path d="M279.071 126.772s2.452-7.85 1.731-15.639c-.073 0-3.029 8.464-1.731 15.639z" fill="url(#paint9_linear)"/><path d="M297.1 122.664s-8.438 3.557-17.453 4.416c0 0 9.087-4.109 17.453-4.416z" fill="url(#paint10_linear)"/><path d="M293.638 128.429s-9.014 3.434-18.462 3.864c.072-.062 9.736-4.11 18.462-3.864z" fill="url(#paint11_linear)"/><path d="M288.518 134.07s-9.231 3.68-18.823 4.048c0 0 9.88-4.355 18.823-4.048z" fill="url(#paint12_linear)"/><path d="M283.758 141.858s-9.88 2.085-19.4.92c0 0 10.674-2.637 19.4-.92z" fill="url(#paint13_linear)"/><path d="M274.239 131.74s1.587-7.973.072-15.701c0 0-2.091 8.709-.072 15.701z" fill="url(#paint14_linear)"/><path d="M268.325 137.076s1.442-8.77-1.01-16.928c-.072 0-2.091 9.568 1.01 16.928z" fill="url(#paint15_linear)"/><path d="M262.844 141.491s.938-8.832-2.091-16.866c0 0-1.443 9.69 2.091 16.866z" fill="url(#paint16_linear)"/><path d="M258.301 145.111s9.303-4.784 24.015-21.22c0 0-14.207 17.97-23.51 22.938l-.505-1.718z" fill="#192EAD"/><path d="M284.696 150.564s5.841-4.354 13.846-6.869c0 0-6.923 5.581-13.846 6.869z" fill="url(#paint17_linear)"/><path d="M279.647 152.099s6.419-6.01 9.953-13.247c.072 0-7.212 6.378-9.953 13.247z" fill="url(#paint18_linear)"/><path d="M297.965 155.473s-9.447-.123-17.885-2.882c-.072 0 10.241-.123 17.885 2.882z" fill="url(#paint19_linear)"/><path d="M291.763 159.213s-9.88-.43-18.462-3.803c.072.061 10.89.184 18.462 3.803z" fill="url(#paint20_linear)"/><path d="M284.191 162.28s-10.169-.306-18.967-3.741c0 0 11.178 0 18.967 3.741z" fill="url(#paint21_linear)"/><path d="M275.753 167.308s-9.88-1.963-17.741-6.808c0 .061 10.89 1.84 17.741 6.808z" fill="url(#paint22_linear)"/><path d="M272.724 154.614s5.77-6.501 8.51-13.923c.072 0-6.491 6.87-8.51 13.923z" fill="url(#paint23_linear)"/><path d="M264.575 157.006s6.058-7.237 8.221-15.455c0 0-6.995 7.728-8.221 15.455z" fill="url(#paint24_linear)"/><path d="M257.291 158.845s5.553-7.483 7.284-15.763c0-.061-6.491 7.973-7.284 15.763z" fill="url(#paint25_linear)"/><path d="M251.377 160.319s10.818-.613 32.742-9.507c0 0-22.285 10.427-33.319 11.224l.577-1.717z" fill="#192EAD"/><path d="M258.301 163.387s2.596-9.629 8.582-15.762c0 0 17.957 19.197-5.409 31.34l-3.173-15.578z" fill="url(#paint26_linear)"/><path d="M261.258 173.263s5.986-6.808 5.553-17.357c0 0-.649 10.427-6.274 16.192l.721 1.165z" fill="#405EBF"/><path d="M258.301 163.387s2.596-9.629 8.582-15.762c0 0 17.957 19.197-5.409 31.34l-3.173-15.578z" fill="url(#paint27_linear)"/><path d="M53.495 201.051s-10.45 2.21-14.173 11.632c0 0 9.428 2.895 18.497 1.105 9.068-1.842-4.324-12.737-4.324-12.737z" fill="url(#paint28_linear)"/><path d="M57.493 202.715s-10.418.93-17.338 3.33c0 0 8.941-1.861 19.982-2.4l-2.644-.93z" fill="#405EBF"/><path d="M67.31 209.246s-13.41.98-17.879-6.14c-4.47-7.12-3.516-10.629-3.516-10.629s18.415-.309 24.732 11.506l-3.338 5.263z" fill="url(#paint29_linear)"/><path d="M66.594 207.595s-8.521-9.081-19.07-13.157c0 0 12.157 3.302 19.785 12.486l-.715.671z" fill="#405EBF"/><path d="M67.31 209.246s-13.41.98-17.879-6.14c-4.47-7.12-3.516-10.629-3.516-10.629s18.415-.309 24.732 11.506l-3.338 5.263z" fill="url(#paint30_linear)"/><path d="M66.117 204.031c-14.302 3.406-14.66 15.118-17.818 21.258 0 0 15.196 2.218 22.407-10.216 2.205-4.953 4.35-10.577-4.589-11.042z" fill="url(#paint31_linear)"/><path d="M67.07 208.625s-8.998 4.953-12.573 12.383c0 0 8.104-9.906 14.064-11.299l-1.49-1.084z" fill="#405EBF"/><path d="M66.117 204.031c-14.302 3.406-14.66 15.118-17.818 21.258 0 0 15.196 2.218 22.407-10.216 2.205-4.953 4.35-10.577-4.589-11.042z" fill="url(#paint32_linear)"/><path d="M71.957 188.14s-6.078-7.275-23.599-6.037c0 0 3.04.774 5.662 6.501s8.283 11.042 18.295 8.978l-.358-9.442z" fill="url(#paint33_linear)"/><path d="M70.23 193.97s-8.344-6.966-16.568-9.7c0 0 7.27 1.393 17.52 9.184l-.953.516z" fill="#405EBF"/><path d="M71.957 188.14s-6.078-7.275-23.599-6.037c0 0 3.04.774 5.662 6.501s8.283 11.042 18.295 8.978l-.358-9.442z" fill="url(#paint34_linear)"/><path d="M54.08 143.149s-2.384-5.211-7.152-9.7c0 .052 2.622 6.501 7.151 9.7z" fill="url(#paint35_linear)"/><path d="M57.059 145.934s-2.026-6.604-1.43-13.157c0 0 2.503 7.121 1.43 13.157z" fill="url(#paint36_linear)"/><path d="M42.16 142.477s6.973 2.992 14.422 3.714c0 0-7.508-3.456-14.421-3.714z" fill="url(#paint37_linear)"/><path d="M44.961 147.329s7.45 2.89 15.256 3.251c0-.052-8.045-3.457-15.256-3.251z" fill="url(#paint38_linear)"/><path d="M49.192 152.076s7.628 3.095 15.554 3.405c.06 0-8.164-3.663-15.554-3.405z" fill="url(#paint39_linear)"/><path d="M53.185 158.625s8.165 1.755 16.031.774c0 0-8.82-2.218-16.03-.774z" fill="url(#paint40_linear)"/><path d="M61.052 150.115s-1.311-6.708-.06-13.209c0 0 1.729 7.327.06 13.209z" fill="url(#paint41_linear)"/><path d="M65.939 154.604s-1.192-7.378.834-14.241c0 0 1.728 8.049-.834 14.241z" fill="url(#paint42_linear)"/><path d="M70.468 158.318s-.775-7.43 1.728-14.189c0 0 1.192 8.152-1.728 14.189z" fill="url(#paint43_linear)"/><path d="M74.162 161.36s-7.687-4.024-19.844-17.852c0 0 11.74 15.117 19.427 19.297l.417-1.445z" fill="#192EAD"/><path d="M52.41 165.958s-4.826-3.663-11.441-5.778c0 0 5.661 4.695 11.442 5.778z" fill="url(#paint44_linear)"/><path d="M56.523 167.246s-5.304-5.056-8.224-11.144c0 0 5.96 5.366 8.224 11.144z" fill="url(#paint45_linear)"/><path d="M41.445 170.086s7.807-.103 14.78-2.425c0 0-8.522-.103-14.78 2.425z" fill="url(#paint46_linear)"/><path d="M46.51 173.23s8.165-.361 15.257-3.199c0 .052-8.94.155-15.256 3.199z" fill="url(#paint47_linear)"/><path d="M52.828 175.811s8.402-.258 15.673-3.147c-.06 0-9.237 0-15.673 3.147z" fill="url(#paint48_linear)"/><path d="M59.8 180.044s8.165-1.651 14.66-5.728c0 .052-9.058 1.548-14.66 5.728z" fill="url(#paint49_linear)"/><path d="M62.303 169.361s-4.767-5.469-7.032-11.713c-.06 0 5.363 5.779 7.032 11.713z" fill="url(#paint50_linear)"/><path d="M69.037 171.373s-5.006-6.088-6.793-13.002c0 0 5.72 6.501 6.793 13.002z" fill="url(#paint51_linear)"/><path d="M74.996 172.921s-4.588-6.295-6.018-13.261c.06-.051 5.422 6.708 6.019 13.261z" fill="url(#paint52_linear)"/><path d="M79.943 174.161s-8.94-.515-27.056-7.997c0 0 18.415 8.771 27.532 9.442l-.476-1.445z" fill="#192EAD"/><path d="M74.222 176.741s-2.146-8.101-7.092-13.261c0 0-14.839 16.15 4.47 26.366l2.622-13.105z" fill="url(#paint53_linear)"/><path d="M71.719 185.047s-4.947-5.727-4.59-14.602c0 0 .537 8.772 5.185 13.622l-.595.98z" fill="#405EBF"/><path d="M74.222 176.741s-2.146-8.101-7.092-13.261c0 0-14.839 16.15 4.47 26.366l2.622-13.105z" fill="url(#paint54_linear)"/><path d="M213.137 183.191H71.439c-1.488 0-2.764 1.197-2.764 2.746v29.853a2.758 2.758 0 002.764 2.746h141.698v-35.345z" fill="#407BFF"/><path opacity=".2" d="M213.137 183.191H71.439c-1.488 0-2.764 1.197-2.764 2.746v29.853a2.758 2.758 0 002.764 2.746h141.698v-35.345z" fill="#000"/><path opacity=".2" d="M178.428 218.539h-21.69v-35.275h21.69v35.275zm-31.04 0h-10.987v-35.275h10.987v35.275z" fill="#000"/><path d="M213.137 183.191h46.996c1.559 0 2.764 1.197 2.764 2.746v29.783c0 1.549-1.205 2.746-2.764 2.746h-46.925v-35.275h-.071z" fill="#407BFF"/><path opacity=".9" d="M221.785 186.992h41.112v27.741h-41.041c-1.985 0-3.616-1.619-3.616-3.591v-20.559c-.07-1.971 1.56-3.591 3.545-3.591z" fill="#fff"/><path opacity=".2" d="M88.522 210.934c-5.598 0-10.136-4.508-10.136-10.069 0-5.56 4.538-10.068 10.136-10.068 5.598 0 10.137 4.508 10.137 10.068 0 5.561-4.539 10.069-10.137 10.069z" fill="#000"/><path d="M202.93 157.562H61.233c-1.489 0-2.765 1.197-2.765 2.746v20.208a2.759 2.759 0 002.765 2.746H202.93v-25.7z" fill="#263238"/><path opacity=".2" d="M202.93 157.562H61.233c-1.489 0-2.765 1.197-2.765 2.746v20.208a2.759 2.759 0 002.765 2.746H202.93v-25.7z" fill="#000"/><path d="M202.93 157.562h46.925c1.56 0 2.765 1.197 2.765 2.746v20.137c0 1.549-1.205 2.746-2.765 2.746H202.93v-25.629z" fill="#263238"/><path opacity=".9" d="M211.578 161.363h41.042v18.025h-41.042c-1.985 0-3.615-1.62-3.615-3.591v-10.843c0-1.971 1.63-3.591 3.615-3.591z" fill="#fff"/><path opacity=".3" d="M173.229 177.135H74.062c-1.63 0-2.977-1.337-2.977-2.957v-7.533c0-1.62 1.347-2.957 2.978-2.957h99.166c1.631 0 2.978 1.337 2.978 2.957v7.533c0 1.62-1.347 2.957-2.978 2.957zm24.271 6.111h-3.757v-25.629h3.757v25.629zm-6.87 0h-3.756v-25.629h3.756v25.629z" fill="#407BFF"/><path d="M218.595 131.16H76.898c-1.489 0-2.765 1.197-2.765 2.746v20.982a2.759 2.759 0 002.765 2.746h141.697V131.16z" fill="#FF7A00"/><path opacity=".9" d="M183.795 157.59h-49.194v-26.403h49.194v26.403zm-70.29 0h-24.95v-26.403h24.95v26.403z" fill="#fff"/><path d="M218.595 131.16h46.925c1.56 0 2.765 1.197 2.765 2.746v20.911c0 1.549-1.205 2.746-2.765 2.746h-46.925V131.16z" fill="#FFA200"/><path opacity=".9" d="M227.243 134.961h41.042v18.869h-41.042c-1.985 0-3.615-1.619-3.615-3.59v-11.688c0-1.972 1.63-3.591 3.615-3.591z" fill="#fff"/><path d="M208.316 113.625H66.619c-1.489 0-2.764 1.197-2.764 2.746v12.04a2.759 2.759 0 002.764 2.746h141.697v-17.532z" fill="#407BFF"/><path opacity=".3" d="M208.316 113.625H66.619c-1.489 0-2.764 1.197-2.764 2.746v12.04a2.759 2.759 0 002.764 2.746h141.697v-17.532z" fill="#fff"/><path opacity=".2" d="M208.316 113.625H66.619c-1.489 0-2.764 1.197-2.764 2.746v12.04a2.759 2.759 0 002.764 2.746h141.697v-17.532z" fill="#000"/><path d="M208.317 113.625h46.925c1.559 0 2.764 1.197 2.764 2.746v12.04c0 1.549-1.205 2.746-2.764 2.746h-46.925v-17.532z" fill="#407BFF"/><path opacity=".3" d="M208.317 113.625h46.925c1.559 0 2.764 1.197 2.764 2.746v12.04c0 1.549-1.205 2.746-2.764 2.746h-46.925v-17.532z" fill="#fff"/><path opacity=".9" d="M216.964 117.426h41.042v9.927h-41.042c-1.984 0-3.615-1.619-3.615-3.59v-2.817c0-1.901 1.631-3.52 3.615-3.52z" fill="#fff"/><path opacity=".4" d="M195.639 126.508h-64.221V118.2h64.221v8.308z" fill="#263238"/><g clip-path="url(#clip0)"><path d="M243.762 154.555c.631 1.82.631 3.78.21 5.67-.421 1.89-1.332 3.57-2.385 5.18-.07.07-.14.21-.07.28 0 .07.07.14.141.21 2.665 1.96 5.4 3.99 8.627 4.62a17.58 17.58 0 01-.632-4.69c0-2.24.421-4.48 1.754-6.3" fill="#FFC8AF"/><path d="M257.368 146.156c.632.63.702 1.61.632 2.52-.071.91-.351 1.75-.211 2.66.14 1.19.982 2.17 1.754 3.15-.421.56-1.333.42-1.894.84-.281.21-.421.56-.561.91-.702 1.54-1.543 3.01-2.665 4.34-.141.14-.281.35-.491.42-.281.14-.562 0-.842-.14-3.086-1.19-6.172-2.59-8.487-5.04-2.244-2.38-3.577-6.02-2.455-9.1" fill="#FFC8AF"/><path d="M251.196 150.705c1.263-1.05 2.104-2.66 2.104-4.34 1.544 1.68 4.139 2.24 6.383 1.61 2.174-.63 3.998-2.45 4.84-4.55-1.403.49-3.016.42-4.349-.28a5.102 5.102 0 001.894-3.15c-1.263.77-2.806.77-4.279.42-1.473-.35-2.735-.98-4.068-1.54-1.332-.56-2.805-.91-4.278-.7-1.473.21-2.876 1.12-3.297 2.52-1.473-.21-3.016.07-4.138.98-.701.56-1.122 1.4-1.543 2.17-.701 1.26-1.262 2.73-.912 4.13.211.7.561 1.26.982 1.82.07.14.211.35.211.49s-.071.28-.141.42c-.21.56-.07 1.19 0 1.75.211.98.421 2.03.912 2.94.421.91 1.754 2.17 2.736 2.59 0 0 3.086-.28 4.208-4.9" fill="#192EAD"/><path d="M251.126 150.917c-.14-.77-.281-1.19-.701-1.61-.281-.28-.491-.56-.842-.77-.21-.14-.491-.28-.772-.35-.28-.07-.631-.07-.911.07-.632.28-.912 1.05-.912 1.82 0 1.68 1.192 3.22 2.735 3.78" fill="#FFC8AF"/><path d="M280.584 152.736l-5.821-4.62c-.14-.14-.421-.07-.421.14l-2.034 13.58 5.19 3.15" fill="#E83C4C"/><path d="M280.234 152.805l-5.611-4.27-2.174 14.35 5.26 3.15" fill="#fff"/><path d="M280.585 152.734l-11.573 2.24c-.421.07-.772.42-.842.91l-2.104 19.46 12.344-1.68 2.175-20.93z" fill="#E83C4C"/><path d="M278.41 173.664l2.174-20.93-.701.14-2.455 20.93.982-.14z" fill="#D52248"/><path d="M275.114 175.133c-.07-1.05-.561-1.82-1.122-2.73-.702-.98-1.543-2.1-1.964-3.15-.07-.14-.141-.35 0-.42.07-.07.28-.07.421 0 1.192.56 1.332 1.4 2.384 2.17-.701-1.54-2.034-4.69-1.192-4.34 1.122.42 1.122 2.17 2.244 2.66.211-1.12-.631-2.31-.07-3.29.491-.77 1.403 2.8 1.964 4.27.211.56.351 1.05.421 1.68.14 1.47-.491 2.94-1.122 4.34" fill="#FFC8AF"/><path d="M274.132 176.676c-2.806.98-4.91 3.36-6.664 5.74-2.735 3.78-4.979 7.91-6.733 12.25-.21.49-.351 1.12.07 1.4.141.14.351.14.561.21.912.07 1.824-.28 2.666-.7 6.032-3.01 10.38-8.68 13.607-14.63" fill="#EC827D"/><path d="M285.003 213.214c.491 1.05.701 2.24.701 3.43-.07 1.96-.771 3.92-.14 5.74 0 .07.07.14.14.21.07.07.141.07.281.07 1.122-.07 2.174-.07 3.296-.14 1.614-.07 3.157-.14 4.7-.56a16.77 16.77 0 002.595-1.05c1.262-.56 2.455-1.12 3.717-1.68-1.683-.28-3.366-.7-5.05-1.26-1.332-.42-2.665-1.05-3.437-2.17-.35-.49-.491-1.05-.701-1.54-.491-1.54-.982-3.15-1.403-4.69" fill="#FFC8AF"/><path d="M285.143 219.723c-.35 1.54-.21 3.15.351 4.55.07.14.14.28.281.35.21.14.42.07.631.07 5.401-.84 10.731-2.31 15.781-4.41.772-.35 1.683-.77 1.964-1.61.07-.14.07-.28 0-.42l-.21-.21c-.702-.42-1.684-.35-2.525-.21-1.543.28-3.087.7-4.7.49-.701-.14-1.332-.35-1.964-.56-.14-.07-.35-.14-.561-.07-.14 0-.28.14-.35.21-.562.56-.982 1.19-1.193 1.96-.07.14-.07.28-.14.35-.14.07-.281.07-.421.07-2.385 0-4.91-.14-6.803-1.54" fill="#100C56"/><path d="M304.221 206.356a6.954 6.954 0 012.034 2.87c.772 1.75.912 3.92 2.245 5.32.07.07.07.14.21.14.07 0 .21 0 .281-.07l2.945-1.47c1.403-.7 2.876-1.4 4.069-2.45.701-.63 1.332-1.26 1.893-1.96.912-1.05 1.754-2.03 2.666-3.08-1.684.42-3.367.77-5.121.91-1.402.14-2.875.14-4.068-.56-.491-.28-.911-.7-1.262-1.12-1.122-1.19-2.174-2.45-3.227-3.71" fill="#FFC8AF"/><path d="M307.097 212.237a6.942 6.942 0 002.244 3.99c.14.14.281.21.421.21.21 0 .421-.07.561-.21 4.559-3.01 8.838-6.51 12.555-10.57.561-.63 1.192-1.4 1.122-2.24 0-.14-.07-.28-.14-.35-.07-.07-.211-.07-.281-.14-.841-.14-1.683.35-2.384.84-1.263.91-2.525 1.96-4.068 2.31-.632.14-1.333.21-2.035.28-.21 0-.35 0-.561.14-.14.07-.21.21-.21.35-.281.7-.421 1.54-.281 2.31 0 .14.071.28 0 .42-.07.14-.21.21-.35.28-2.175.98-4.489 1.89-6.804 1.4" fill="#100C56"/><path d="M286.476 180.523l4.279 31.57-6.804 1.26s-7.084-17.36-6.453-24.08" fill="#28288A"/><path d="M255.475 204.395s22.164-31.71 28.125-29.68c5.962 2.03 25.11 27.86 25.11 27.86l-4.629 5.53s-17.184-11.34-20.831-18.48c0 0-17.114 47.04-40.19 29.75" fill="#28288A"/><path d="M243.201 162.535c-2.385 1.61-3.437 4.27-4.209 7.07-.771 2.8-1.403 5.32-1.964 9.45-.42 3.22 0 5.32 0 8.61 0 5.18.912 10.71.982 15.89.07 5.18 1.473 14 5.401 16.1 3.437-2.38 3.156-6.09 6.803-8.19 2.736-1.54 2.666-3.43 4.419-5.25 1.543-1.61 2.245-3.15 2.385-3.5.912-2.1.982-3.99.912-4.27-.982-8.89.771-12.6-2.595-20.86-1.193-2.94-3.016-5.6-3.718-8.68-.07-.35-.14-.77-.35-1.05-.211-.28-1.193-1.61-1.544-1.75-2.244-1.12-4.418-2.45-6.522-3.57z" fill="#EC827D"/><path d="M242.71 171.494c1.964-5.25 6.873-4.06 9.96-3.01 3.086 1.05 5.891 2.8 9.047 3.57 2.666.63 5.471.56 8.207.77 2.735.28 5.541.98 7.505 2.94.841.84 1.543 2.31.771 3.36-.21.28-.491.49-.771.63-3.648 2.17-8.347 3.29-12.345 2.59-3.998-.63-5.821-1.05-9.819-1.4-1.684-.14-4.98-2.03-6.664-2.38-1.613-.28-3.226-.91-4.418-2.17-1.193-1.26-1.894-3.08-1.473-4.9z" fill="#EC827D"/></g><path d="M92.046 161.351l-4.558-2.34 3.66-11.214 4.56 2.27-3.662 11.284z" fill="#FFC3BD"/><path d="M87.902 157.291l5.595 1.17c.207.069.345.206.276.413l-.69 4.472c-.07.481-.622.825-1.037.688-1.934-.413-2.832-.757-5.318-1.239-1.52-.344-6.769-1.376-8.772-2.064-2.003-.688-1.243-2.683-.345-2.545 4.144.481 7.666.068 9.324-.757.346-.207.622-.207.967-.138z" fill="#263238"/><path d="M141.916 93.168s-39.094 3.784-42.34 17.957c-4.698 20.365-11.052 39.767-11.052 39.767l8.772 1.513c1.312-5.779 11.328-26.144 15.955-39.835 10.568-1.583 38.887 4.403 43.101-3.647 3.453-6.536 3.384-13.14 3.384-13.14l-17.82-2.615z" fill="#272786"/><path opacity=".3" d="M141.916 93.168s-39.094 3.784-42.34 17.957c-4.698 20.365-11.052 39.767-11.052 39.767l8.772 1.513c1.312-5.779 11.328-26.144 15.955-39.835 10.568-1.583 38.887 4.403 43.101-3.647 3.453-6.536 3.384-13.14 3.384-13.14l-17.82-2.615z" fill="#000"/><path d="M146.129 57.53c-.207 2.545-.622 4.953-1.036 7.43-.415 2.477-.898 4.885-1.589 7.362-.621 2.477-1.381 4.885-2.417 7.361-.553 1.239-1.105 2.477-1.934 3.784-.415.62-.898 1.308-1.451 1.927-.621.62-1.312 1.307-2.279 1.857l-.276.138-.138.069c-1.865.688-3.385.413-4.628.138-1.243-.276-2.28-.757-3.247-1.308-.967-.55-1.864-1.1-2.693-1.72-.415-.344-.829-.619-1.175-.963-.414-.344-.759-.688-1.174-1.1l2.141-3.165c.829.275 1.658.619 2.487.825.829.275 1.658.482 2.487.688a8.682 8.682 0 002.141.275c.621 0 1.036-.137.967-.206l-.415.206a10.66 10.66 0 001.175-1.513c.414-.826.897-1.72 1.243-2.752.76-1.996 1.312-4.197 1.865-6.468.483-2.27.967-4.54 1.312-6.88.415-2.27.691-4.678 1.036-6.949l7.598.964z" fill="#FFC3BD"/><path d="M139.291 53.744c-4.766 4.128-4.49 14.173-4.49 14.173l12.571 4.541c2.694-4.128 3.937-12.04 3.73-15.411-.345-5.23-6.147-8.188-11.811-3.303z" fill="#F9C53F"/><path opacity=".2" d="M151.102 57.255c-2.279-1.101-5.319-.757-8.427 1.926-2.763 2.408-3.868 6.811-4.213 10.114l8.91 3.165c2.625-4.06 3.937-11.765 3.73-15.205z" fill="#000"/><path d="M74.019 149.31l-1.52-4.885 10.568-5.71 1.52 4.885-10.568 5.71z" fill="#FFC3BD"/><path d="M72.845 144.014l3.799 4.197a.33.33 0 010 .481l-3.178 3.234c-.345.344-.967.275-1.243-.069-1.312-1.513-1.865-2.27-3.523-4.128-1.036-1.169-4.697-4.953-6.078-6.467-1.381-1.514.207-2.959.898-2.408 3.384 2.408 6.7 4.403 8.496 4.678.345.069.621.276.829.482z" fill="#263238"/><path d="M150.756 94.613s-26.799 3.578-32.325 10.871c-9.601 12.728-40.06 33.712-40.06 33.712l2.762 8.875s41.512-17.406 48.833-31.992c13.538-1.032 35.572 3.371 39.094-4.954 2.28-5.572 1.174-13.897 1.174-13.897l-19.478-2.615z" fill="#272786"/><path opacity=".2" d="M150.756 94.613s-26.799 3.578-32.325 10.871c-9.601 12.728-40.06 33.712-40.06 33.712l2.762 8.875s41.512-17.406 48.833-31.992c13.538-1.032 35.572 3.371 39.094-4.954 2.28-5.572 1.174-13.897 1.174-13.897l-19.478-2.615z" fill="#000"/><path d="M125.615 80.37l-4.075-3.92-2.763 5.503s4.904 2.683 6.147 1.445l.691-3.027z" fill="#FFC3BD"/><path d="M116.152 76.45l-.691 4.471 3.316 1.032 2.763-5.504h-5.388z" fill="#FFC3BD"/><path d="M170.027 50.375c-.483-1.308-1.45-2.684-2.832-2.684-.276 0-2.072 0-2.417.07-1.658.068-3.73.137-5.733.412-3.453.413-8.427 1.17-11.397 1.995-1.726.482-3.384 1.032-4.696 1.583h-.07c-1.519.619-2.486 2.133-2.348 3.784.691 7.293 2.418 27.451 1.382 37.909l28.319 3.715c1.726-5.366 2.348-17.682 2.417-27.727 0-6.123-.553-13.622-2.625-19.057z" fill="#F9C53F"/><path opacity=".2" d="M172.514 64.203l-.553.069-3.591 3.096-3.73 12.728-12.778 2.202c3.108 1.582 12.087 1.857 17.475.481a4.194 4.194 0 003.108-3.921c.138-3.165.207-6.399.207-9.426 0-1.72-.069-3.44-.138-5.229z" fill="#000"/><path d="M126.651 68.332s2.486-1.376 7.183-.07c4.697 1.308 7.943-.206 7.943-.206l1.727 3.234-15.886.55-.967-3.508z" fill="#272786"/><path opacity=".8" d="M126.651 68.332s2.486-1.376 7.183-.07c4.697 1.308 7.943-.206 7.943-.206l1.727 3.234-15.886.55-.967-3.508z" fill="#fff"/><path d="M126.651 68.333s-.069-1.032-3.108-1.101c-6.078-.207-8.634-1.72-8.634-1.72l-.276 1.582 12.985 4.816-.967-3.577z" fill="#272786"/><path opacity=".8" d="M126.651 68.333s-.069-1.032-3.108-1.101c-6.078-.207-8.634-1.72-8.634-1.72l-.276 1.582 12.985 4.816-.967-3.577z" fill="#fff"/><path d="M131.762 91.59l-11.189-3.166c-.277-.069-.484-.344-.622-.619l-5.733-20.778c-.138-.481.207-.825.691-.688l10.706 3.027 6.147 22.223zm17.475.962l-14.781-.825-6.147-22.223 14.988.825c.345 0 .622.276.76.62l5.802 20.846c.069.413-.207.757-.622.757z" fill="#272786"/><path d="M131.762 91.59l2.694.137-6.147-22.222-2.694-.138 6.147 22.223z" fill="#272786"/><path opacity=".3" d="M131.762 91.59l2.694.137-6.147-22.222-2.694-.138 6.147 22.223z" fill="#000"/><path d="M171.409 55.398c.138.964.276 1.858.276 2.752.069.895.138 1.79.138 2.684.07 1.788.07 3.577-.069 5.366-.207 3.578-.759 7.224-2.003 10.802 0 .069-.138.344-.207.55-.069.207-.207.413-.345.62-.207.412-.484.756-.76 1.1a8.019 8.019 0 01-1.727 1.445c-1.105.688-2.141 1.032-3.108 1.307-1.934.55-3.799.757-5.595.826-3.591.206-7.045-.069-10.568-.62l.208-3.783c3.246-.344 6.561-.757 9.67-1.376 1.519-.275 3.039-.688 4.282-1.239.622-.275 1.174-.55 1.45-.825l.208-.207s-.069 0-.069.07l-.07.068s-.069.138 0 0c.346-1.445.553-2.89.76-4.472.138-1.514.277-3.096.277-4.679 0-1.582 0-3.165-.07-4.747 0-.757-.069-1.582-.138-2.34l-.069-1.169-.069-1.1 7.598-1.033z" fill="#FFC3BD"/><path d="M171.409 49.344c-3.385-2.546-8.013-2.477-9.878 4.265-1.243 4.404-.552 13.279-.552 13.279l13.4-.275c1.45-7.087.414-14.724-2.97-17.27z" fill="#F9C53F"/><path d="M157.664 36.89l-2.832 3.303-3.868 4.472c.207.55.414 1.17.622 1.789.69 2.408-1.52 2.89-3.454 4.06 0 0-2.97 3.92 4.144 2.751 7.046-1.1 8.082-4.816 8.082-4.816-3.109-2.133-2.901-7.43-2.694-11.558z" fill="#FFC3BD"/><path d="M154.486 52.852c-.621.206-1.381.344-2.21.481-1.243.207-2.21.207-2.901.207l-.138.825c-.276.207-.345 1.17 1.312 2.27 1.658-.412 4.352-1.857 3.937-3.783z" fill="#F2F2F2"/><path d="M159.183 47.277s-1.312 3.578-6.216 4.885c.69 1.927-.415 4.06-.415 4.06s6.769-2.34 8.22-4.61c1.45-2.34.829-3.647.829-3.647-.76-.413-1.52-.619-2.418-.688zm-9.601 8.738s.069-2.959.898-3.922c-.483-1.307-.207-2.064.484-3.234-1.036.276-2.694.826-3.661 2.408-.967 1.514-.345 4.816 2.279 4.748z" fill="#fff"/><path opacity=".2" d="M151.033 44.734c.207.55.414 1.17.621 1.789 1.589-.62 3.523-2.821 3.454-4.541 0-.688-.138-1.307-.207-1.72l-3.868 4.472z" fill="#000"/><path d="M141.639 29.047c-1.312 2.821-.207 9.426 6.148 6.743 6.354-2.614-3.937-11.283-6.148-6.743zm13.883 5.778c-.552 1.238-.069 4.059 2.625 2.958 2.763-1.17-1.658-4.953-2.625-2.958z" fill="#263238"/><path d="M156.282 36.754c-.898 1.032-1.174 3.922 1.727 3.509 2.97-.344-.276-5.16-1.727-3.51z" fill="#263238"/><path d="M156.973 29.184c1.174 5.298 2.072 8.394.207 11.903-2.832 5.298-9.877 4.885-12.571.069-2.417-4.335-3.868-12.316.622-16.03 4.421-3.578 10.637-1.24 11.742 4.058z" fill="#FFC3BD"/><path d="M156.075 22.992c-1.105-4.747-7.459-3.096-10.706-.206-3.315 2.89-4.075 5.091-6.838 6.811 5.042.688 12.226-1.307 13.538-3.027-.138 1.72 1.174 3.715 2.21 4.334-.138 1.514 0 4.472 0 4.472l2.28-1.17 2.694-1.1c3.937-6.674 1.588-10.802-3.178-10.114z" fill="#263238"/><path d="M160.219 33.31c-.345 1.514-1.312 2.684-2.279 3.372-1.519 1.032-2.694-.275-2.625-1.995.069-1.583.898-4.06 2.556-4.335 1.658-.344 2.694 1.238 2.348 2.959zm-16.597 2.725s-.069 2.34-.622 3.715c.829.344 1.796-.344 1.796-.344l-1.174-3.37zm5.408 42.615l-4.352-1.857.138 5.504s4.283 1.72 4.973-.55l-.759-3.096z" fill="#FFC3BD"/><path d="M139.291 78.033l.967 3.921 4.628.345-.207-5.436-5.388 1.17z" fill="#FFC3BD"/><ellipse cx="275" cy="84.501" rx="22" ry="12.5" transform="rotate(20.275 275 84.501)" fill="#F1F3F7"/><path d="M210.066 45.31c-27.16-5.03-38.802-14.936-34.527-28.56 2.949-9.4 25.633-10.255 48.899-4.382 13.834 3.492 37.862-1.927 54.035-4.676 13.21-2.245 47.532 6.404 43.49 18.928-4.042 12.524-29.135 24.27-46.496 25.658-17.361 1.39-45.353-3.255-65.401-6.968z" fill="#F1F3F7"/><path d="M37.191 64H33.87v-8.53h-8.582V64H21.95V44.805h3.336v7.989h8.582v-7.99h3.322V64zm15.477-4.47h-7.435L43.677 64H40.21l7.25-19.195h2.994L57.718 64h-3.48l-1.57-4.47zm-6.5-2.689h5.564l-2.781-7.963-2.782 7.963zM60.447 64V44.805h5.67c1.695 0 3.198.378 4.508 1.133 1.318.756 2.338 1.829 3.059 3.217.72 1.389 1.08 2.98 1.08 4.773v.962c0 1.82-.364 3.42-1.094 4.799a7.587 7.587 0 01-3.098 3.19c-1.336.748-2.87 1.121-4.6 1.121h-5.525zm3.336-16.506v13.843h2.175c1.749 0 3.09-.545 4.021-1.635.94-1.099 1.42-2.672 1.437-4.72v-1.067c0-2.084-.453-3.674-1.358-4.773-.905-1.099-2.22-1.648-3.942-1.648h-2.333zM82.146 64h-3.322V44.805h3.322V64z" fill="#F7707C"/><path d="M185.043 87.516l5.332 14.168 5.319-14.168h4.152V106h-3.2v-6.094l.318-8.15L191.505 106h-2.298l-5.446-14.231.317 8.137V106h-3.199V87.516h4.164zm25.644 14.46l4.697-14.46h3.53L212.261 106h-3.11l-6.627-18.484h3.517l4.646 14.46zm14.053-2.844V106h-3.212V87.516h7.072c2.065 0 3.702.537 4.913 1.612 1.218 1.075 1.828 2.497 1.828 4.266 0 1.81-.597 3.22-1.79 4.227-1.185 1.007-2.848 1.51-4.99 1.51h-3.821zm0-2.577h3.86c1.142 0 2.014-.267 2.615-.8.601-.542.901-1.32.901-2.336 0-.999-.305-1.794-.914-2.387-.609-.6-1.447-.91-2.514-.926h-3.948v6.449z" fill="#5573C1"/><path d="M206.984 35.056c0-.844-.299-1.494-.897-1.951-.588-.457-1.656-.918-3.203-1.384-1.547-.466-2.778-.985-3.692-1.556-1.749-1.099-2.623-2.531-2.623-4.298 0-1.547.628-2.821 1.885-3.823 1.266-1.002 2.905-1.503 4.918-1.503 1.336 0 2.526.246 3.572.738 1.046.492 1.868 1.196 2.466 2.11.597.905.896 1.911.896 3.019h-3.322c0-1.002-.317-1.785-.949-2.347-.624-.571-1.521-.857-2.69-.857-1.09 0-1.938.233-2.544.699-.598.466-.897 1.116-.897 1.951 0 .703.325 1.292.976 1.767.65.465 1.723.923 3.217 1.37 1.494.44 2.694.945 3.599 1.517.905.562 1.569 1.213 1.991 1.951.421.73.632 1.586.632 2.57 0 1.6-.615 2.875-1.845 3.824-1.222.94-2.883 1.41-4.984 1.41-1.388 0-2.667-.254-3.836-.764-1.16-.519-2.066-1.23-2.716-2.136-.642-.905-.962-1.96-.962-3.164h3.335c0 1.09.36 1.934 1.081 2.532.721.597 1.754.896 3.098.896 1.16 0 2.031-.233 2.611-.699.588-.474.883-1.098.883-1.872zm11.126-14.251l5.537 14.713 5.524-14.713h4.311V40h-3.322v-6.328l.33-8.464L224.821 40h-2.386l-5.656-14.779.329 8.45V40h-3.322V20.805h4.324zm30.849 14.726h-7.435L239.968 40h-3.467l7.251-19.195h2.993L254.009 40h-3.481l-1.569-4.47zm-6.499-2.69h5.563l-2.781-7.963-2.782 7.963zm21.33-.237h-3.717V40h-3.336V20.805h6.75c2.215 0 3.925.496 5.129 1.49 1.204.993 1.806 2.43 1.806 4.31 0 1.284-.312 2.36-.936 3.23-.616.862-1.477 1.525-2.584 1.991l4.311 8.003V40h-3.573l-3.85-7.396zm-3.717-2.676h3.427c1.125 0 2.004-.282 2.637-.844.633-.571.949-1.35.949-2.334 0-1.028-.294-1.823-.883-2.386-.58-.562-1.45-.852-2.61-.87h-3.52v6.434zm27.263-6.434h-5.986V40h-3.309V23.494h-5.932v-2.69h15.227v2.69z" fill="#5A85E8"/><defs><linearGradient id="paint0_linear" x1="36.235" y1="48.036" x2="36.254" y2="48.26" gradientUnits="userSpaceOnUse"><stop stop-color="#7763F7"/><stop offset=".248" stop-color="#6F72F7"/><stop offset=".337" stop-color="#6C79F7"/><stop offset=".763" stop-color="#5B9EF8"/><stop offset="1" stop-color="#50B5F8"/></linearGradient><linearGradient id="paint1_linear" x1="282.532" y1="200.828" x2="307.15" y2="212.332" gradientUnits="userSpaceOnUse"><stop stop-color="#4F6AD9"/><stop offset="1" stop-color="#658BFD"/></linearGradient><linearGradient id="paint2_linear" x1="268.943" y1="197.448" x2="288.309" y2="183.625" gradientUnits="userSpaceOnUse"><stop stop-color="#4869D8"/><stop offset="1" stop-color="#658BFD"/></linearGradient><linearGradient id="paint3_linear" x1="290.32" y1="202.796" x2="281.15" y2="190.087" gradientUnits="userSpaceOnUse"><stop stop-color="#8DAEFF"/><stop offset="1" stop-color="#8DAEFF" stop-opacity="0"/></linearGradient><linearGradient id="paint4_linear" x1="258.928" y1="203.928" x2="286.611" y2="215.009" gradientUnits="userSpaceOnUse"><stop stop-color="#546AEA"/><stop offset="1" stop-color="#658BFD"/></linearGradient><linearGradient id="paint5_linear" x1="274.77" y1="223.516" x2="274.868" y2="213.215" gradientUnits="userSpaceOnUse"><stop stop-color="#8DAEFF"/><stop offset="1" stop-color="#8DAEFF" stop-opacity="0"/></linearGradient><linearGradient id="paint6_linear" x1="262.77" y1="184.432" x2="281.584" y2="168.945" gradientUnits="userSpaceOnUse"><stop stop-color="#546AEA"/><stop offset="1" stop-color="#658BFD"/></linearGradient><linearGradient id="paint7_linear" x1="282.152" y1="186.514" x2="276.199" y2="177.7" gradientUnits="userSpaceOnUse"><stop stop-color="#8DAEFF"/><stop offset="1" stop-color="#8DAEFF" stop-opacity="0"/></linearGradient><linearGradient id="paint8_linear" x1="281.407" y1="118.796" x2="292.32" y2="115.896" gradientUnits="userSpaceOnUse"><stop stop-color="#546AEA"/><stop offset="1" stop-color="#658BFD"/></linearGradient><linearGradient id="paint9_linear" x1="277.112" y1="119.504" x2="282.597" y2="118.047" gradientUnits="userSpaceOnUse"><stop stop-color="#546AEA"/><stop offset="1" stop-color="#658BFD"/></linearGradient><linearGradient id="paint10_linear" x1="279.47" y1="126.503" x2="296.877" y2="121.878" gradientUnits="userSpaceOnUse"><stop stop-color="#546AEA"/><stop offset="1" stop-color="#658BFD"/></linearGradient><linearGradient id="paint11_linear" x1="275.166" y1="132.003" x2="293.334" y2="127.176" gradientUnits="userSpaceOnUse"><stop stop-color="#546AEA"/><stop offset="1" stop-color="#658BFD"/></linearGradient><linearGradient id="paint12_linear" x1="269.606" y1="137.804" x2="288.219" y2="132.858" gradientUnits="userSpaceOnUse"><stop stop-color="#546AEA"/><stop offset="1" stop-color="#658BFD"/></linearGradient><linearGradient id="paint13_linear" x1="264.7" y1="144.094" x2="283.065" y2="139.215" gradientUnits="userSpaceOnUse"><stop stop-color="#546AEA"/><stop offset="1" stop-color="#658BFD"/></linearGradient><linearGradient id="paint14_linear" x1="272.252" y1="124.291" x2="276.218" y2="123.237" gradientUnits="userSpaceOnUse"><stop stop-color="#546AEA"/><stop offset="1" stop-color="#658BFD"/></linearGradient><linearGradient id="paint15_linear" x1="265.964" y1="128.945" x2="269.384" y2="128.036" gradientUnits="userSpaceOnUse"><stop stop-color="#546AEA"/><stop offset="1" stop-color="#658BFD"/></linearGradient><linearGradient id="paint16_linear" x1="260.271" y1="133.357" x2="263.007" y2="132.63" gradientUnits="userSpaceOnUse"><stop stop-color="#546AEA"/><stop offset="1" stop-color="#658BFD"/></linearGradient><linearGradient id="paint17_linear" x1="286.094" y1="145.909" x2="296.86" y2="149.206" gradientUnits="userSpaceOnUse"><stop stop-color="#546AEA"/><stop offset="1" stop-color="#658BFD"/></linearGradient><linearGradient id="paint18_linear" x1="281.896" y1="144.863" x2="287.308" y2="146.52" gradientUnits="userSpaceOnUse"><stop stop-color="#546AEA"/><stop offset="1" stop-color="#658BFD"/></linearGradient><linearGradient id="paint19_linear" x1="280.214" y1="152.001" x2="297.387" y2="157.26" gradientUnits="userSpaceOnUse"><stop stop-color="#546AEA"/><stop offset="1" stop-color="#658BFD"/></linearGradient><linearGradient id="paint20_linear" x1="273.421" y1="155.206" x2="291.346" y2="160.695" gradientUnits="userSpaceOnUse"><stop stop-color="#546AEA"/><stop offset="1" stop-color="#658BFD"/></linearGradient><linearGradient id="paint21_linear" x1="265.349" y1="158.19" x2="283.712" y2="163.813" gradientUnits="userSpaceOnUse"><stop stop-color="#546AEA"/><stop offset="1" stop-color="#658BFD"/></linearGradient><linearGradient id="paint22_linear" x1="257.595" y1="161.863" x2="275.714" y2="167.411" gradientUnits="userSpaceOnUse"><stop stop-color="#546AEA"/><stop offset="1" stop-color="#658BFD"/></linearGradient><linearGradient id="paint23_linear" x1="274.995" y1="147.218" x2="278.907" y2="148.416" gradientUnits="userSpaceOnUse"><stop stop-color="#546AEA"/><stop offset="1" stop-color="#658BFD"/></linearGradient><linearGradient id="paint24_linear" x1="266.896" y1="148.899" x2="270.27" y2="149.932" gradientUnits="userSpaceOnUse"><stop stop-color="#546AEA"/><stop offset="1" stop-color="#658BFD"/></linearGradient><linearGradient id="paint25_linear" x1="259.457" y1="150.594" x2="262.156" y2="151.421" gradientUnits="userSpaceOnUse"><stop stop-color="#546AEA"/><stop offset="1" stop-color="#658BFD"/></linearGradient><linearGradient id="paint26_linear" x1="264.3" y1="173.26" x2="266.675" y2="153.536" gradientUnits="userSpaceOnUse"><stop stop-color="#566DEC"/><stop offset="1" stop-color="#658BFD"/></linearGradient><linearGradient id="paint27_linear" x1="275.435" y1="169.817" x2="267.285" y2="163.354" gradientUnits="userSpaceOnUse"><stop stop-color="#8DAEFF"/><stop offset="1" stop-color="#8DAEFF" stop-opacity="0"/></linearGradient><linearGradient id="paint28_linear" x1="54.228" y1="207.873" x2="33.975" y2="217.004" gradientUnits="userSpaceOnUse"><stop stop-color="#4F6AD9"/><stop offset="1" stop-color="#658BFD"/></linearGradient><linearGradient id="paint29_linear" x1="65.41" y1="205.397" x2="49.214" y2="194.043" gradientUnits="userSpaceOnUse"><stop stop-color="#4869D8"/><stop offset="1" stop-color="#658BFD"/></linearGradient><linearGradient id="paint30_linear" x1="47.745" y1="209.896" x2="55.502" y2="199.336" gradientUnits="userSpaceOnUse"><stop stop-color="#8DAEFF"/><stop offset="1" stop-color="#8DAEFF" stop-opacity="0"/></linearGradient><linearGradient id="paint31_linear" x1="73.685" y1="210.842" x2="50.698" y2="219.88" gradientUnits="userSpaceOnUse"><stop stop-color="#546AEA"/><stop offset="1" stop-color="#658BFD"/></linearGradient><linearGradient id="paint32_linear" x1="60.594" y1="227.321" x2="60.51" y2="218.655" gradientUnits="userSpaceOnUse"><stop stop-color="#8DAEFF"/><stop offset="1" stop-color="#8DAEFF" stop-opacity="0"/></linearGradient><linearGradient id="paint33_linear" x1="70.51" y1="194.444" x2="54.739" y2="181.693" gradientUnits="userSpaceOnUse"><stop stop-color="#546AEA"/><stop offset="1" stop-color="#658BFD"/></linearGradient><linearGradient id="paint34_linear" x1="54.495" y1="196.195" x2="59.535" y2="188.864" gradientUnits="userSpaceOnUse"><stop stop-color="#8DAEFF"/><stop offset="1" stop-color="#8DAEFF" stop-opacity="0"/></linearGradient><linearGradient id="paint35_linear" x1="55.11" y1="139.225" x2="46.072" y2="136.867" gradientUnits="userSpaceOnUse"><stop stop-color="#546AEA"/><stop offset="1" stop-color="#658BFD"/></linearGradient><linearGradient id="paint36_linear" x1="58.659" y1="139.82" x2="54.116" y2="138.634" gradientUnits="userSpaceOnUse"><stop stop-color="#546AEA"/><stop offset="1" stop-color="#658BFD"/></linearGradient><linearGradient id="paint37_linear" x1="56.71" y1="145.706" x2="42.293" y2="141.943" gradientUnits="userSpaceOnUse"><stop stop-color="#546AEA"/><stop offset="1" stop-color="#658BFD"/></linearGradient><linearGradient id="paint38_linear" x1="60.267" y1="150.336" x2="45.219" y2="146.409" gradientUnits="userSpaceOnUse"><stop stop-color="#546AEA"/><stop offset="1" stop-color="#658BFD"/></linearGradient><linearGradient id="paint39_linear" x1="64.861" y1="155.216" x2="49.445" y2="151.193" gradientUnits="userSpaceOnUse"><stop stop-color="#546AEA"/><stop offset="1" stop-color="#658BFD"/></linearGradient><linearGradient id="paint40_linear" x1="68.915" y1="160.507" x2="53.704" y2="156.537" gradientUnits="userSpaceOnUse"><stop stop-color="#546AEA"/><stop offset="1" stop-color="#658BFD"/></linearGradient><linearGradient id="paint41_linear" x1="62.675" y1="143.848" x2="59.391" y2="142.991" gradientUnits="userSpaceOnUse"><stop stop-color="#546AEA"/><stop offset="1" stop-color="#658BFD"/></linearGradient><linearGradient id="paint42_linear" x1="67.871" y1="147.763" x2="65.038" y2="147.024" gradientUnits="userSpaceOnUse"><stop stop-color="#546AEA"/><stop offset="1" stop-color="#658BFD"/></linearGradient><linearGradient id="paint43_linear" x1="72.576" y1="151.475" x2="70.309" y2="150.883" gradientUnits="userSpaceOnUse"><stop stop-color="#546AEA"/><stop offset="1" stop-color="#658BFD"/></linearGradient><linearGradient id="paint44_linear" x1="51.237" y1="162.042" x2="42.313" y2="164.726" gradientUnits="userSpaceOnUse"><stop stop-color="#546AEA"/><stop offset="1" stop-color="#658BFD"/></linearGradient><linearGradient id="paint45_linear" x1="54.705" y1="161.159" x2="50.22" y2="162.508" gradientUnits="userSpaceOnUse"><stop stop-color="#546AEA"/><stop offset="1" stop-color="#658BFD"/></linearGradient><linearGradient id="paint46_linear" x1="56.095" y1="167.165" x2="41.861" y2="171.446" gradientUnits="userSpaceOnUse"><stop stop-color="#546AEA"/><stop offset="1" stop-color="#658BFD"/></linearGradient><linearGradient id="paint47_linear" x1="61.709" y1="169.859" x2="46.852" y2="174.328" gradientUnits="userSpaceOnUse"><stop stop-color="#546AEA"/><stop offset="1" stop-color="#658BFD"/></linearGradient><linearGradient id="paint48_linear" x1="68.379" y1="172.37" x2="53.158" y2="176.948" gradientUnits="userSpaceOnUse"><stop stop-color="#546AEA"/><stop offset="1" stop-color="#658BFD"/></linearGradient><linearGradient id="paint49_linear" x1="74.786" y1="175.463" x2="59.769" y2="179.98" gradientUnits="userSpaceOnUse"><stop stop-color="#546AEA"/><stop offset="1" stop-color="#658BFD"/></linearGradient><linearGradient id="paint50_linear" x1="60.408" y1="163.139" x2="57.166" y2="164.115" gradientUnits="userSpaceOnUse"><stop stop-color="#546AEA"/><stop offset="1" stop-color="#658BFD"/></linearGradient><linearGradient id="paint51_linear" x1="67.1" y1="164.553" x2="64.304" y2="165.394" gradientUnits="userSpaceOnUse"><stop stop-color="#546AEA"/><stop offset="1" stop-color="#658BFD"/></linearGradient><linearGradient id="paint52_linear" x1="73.248" y1="165.98" x2="71.011" y2="166.653" gradientUnits="userSpaceOnUse"><stop stop-color="#546AEA"/><stop offset="1" stop-color="#658BFD"/></linearGradient><linearGradient id="paint53_linear" x1="69.246" y1="185.046" x2="67.213" y2="168.461" gradientUnits="userSpaceOnUse"><stop stop-color="#566DEC"/><stop offset="1" stop-color="#658BFD"/></linearGradient><linearGradient id="paint54_linear" x1="60.045" y1="182.15" x2="66.872" y2="176.832" gradientUnits="userSpaceOnUse"><stop stop-color="#8DAEFF"/><stop offset="1" stop-color="#8DAEFF" stop-opacity="0"/></linearGradient><clipPath id="clip0"><path fill="#fff" transform="translate(223 138.035)" d="M0 0h101v91H0z"/></clipPath></defs></svg>