<svg width="358" height="259" fill="none" xmlns="http://www.w3.org/2000/svg"><path fill-rule="evenodd" clip-rule="evenodd" d="M68.727 152.609c10.03-1.791 20.346-3.22 29.947-5.554 12.087-3.066 22.249-7.276 35.917-8.521 9.059-.805 18.81-.271 28.293-.446 10.25-.219 20.509-.611 30.892-.476.61.033 1.224-.02 1.833.013l9.612.266 1.829.1 1.828.1 1.98.108c39.463 2.073 80.98 8.503 112.535 23.835 4.614 2.246 9.209 4.837 11.639 7.916 1.995 2.623 2.444 5.594 3.355 8.503 1.044 3.264-4.3-9.547-.001-7.146 5.938 3.185 2.114 6.193 5.114 15.14-4 18.053-23.082 35.566-46.136 43.578-32.235 11.062-71.176 16.211-109.309 17.765-21.285.828-42.961.423-64.409-1.357-5.171-.456-10.189-.904-15.35-1.533-4.856-.613-9.693-1.57-14.573-1.751-12.202-.407-25.08-2.412-36.703-5.041-7.699-1.721-19.201-3.737-22.288-8.758-.982-1.614-2.125-3.063-4.03-4.554-2.633-2.137-7.037-2.638-10.48-3.953-3.89-1.513-7.3-3.432-9.928-5.656-3.796-3.241-5.735-6.9-6.598-10.673-1.512-5.889-2.066-12.506.835-18.066 2.907-5.648 8.228-10.73 14.734-15.14 11.427-7.781 25.67-13.934 42.664-17.338 2.17-.574 4.484-.968 6.797-1.361z" fill="#F1F3F7"/><path fill-rule="evenodd" clip-rule="evenodd" d="M23.993 207.89c-8.815-13.837-12.159-30.141-10.64-45.896.76-8.22 3.04-16.714 6.688-24.249 3.496-7.124 8.207-13.837 7.904-22.057-.457-8.084-5.624-16.03-2.888-23.565 5.32-13.974 28.877-14.385 41.492-19.865 17.934-7.672 22.19-23.153 31.613-37.264 9.423-14.112 23.709-25.757 40.884-31.374 17.174-5.617 37.084-4.795 53.043 3.151 7.751 3.973 12.766 8.905 16.718 16.03 3.04 5.48 5.927 11.37 11.399 14.521 6.839 4.247 15.502 2.877 23.405 3.563 17.783 1.37 35.565 6.987 48.94 17.81 6.535 5.206 11.551 11.645 15.046 18.906 3.344 6.987 5.168 15.07 10.183 21.51 5.016 6.027 12.767 9.863 17.479 16.165 6.079 8.221.911 17.263 2.279 26.305 2.128 14.385 15.199 34.25 3.952 47.95-4.56 5.481-11.247 4.933-18.086 4.796-8.967 0-18.694-.548-27.358-3.152-7.447-2.192-14.742-4.795-22.493-5.069-5.776-.274-11.551-.548-17.479-.685-3.799 0-7.599.959-11.399 1.233-7.751.685-15.806 1.507-23.557 2.192a848815.36 848815.36 0 00-52.435 4.933c-33.285 3.151-66.722 6.302-100.158 9.453-10.791.959-21.582 2.055-32.373 3.014-.912.548-11.703 2.192-12.16 1.644z" fill="#F1F3F7"/><path fill-rule="evenodd" clip-rule="evenodd" d="M68.353 25.857c-3.316 5.631-.302 10.818 6.48 11.114 6.33.445 13.263-4.297 16.428-9.484 1.808-2.963 3.014-8.594-.603-10.817-1.206-.74-2.713-.74-4.22-.593-6.782.297-14.468 3.705-18.085 9.78zM221.882 3c.577 0 1.01 0 1.587.16 3.753 1.283 2.887 6.896.289 9.14-1.588 1.284-3.176.642-4.475-.64-2.742-2.887-.721-8.34 2.599-8.66z" fill="#EDEEF7"/><path d="M257.947 133.516h-2.556v75.026h2.556v-75.026z" fill="#3C3C6D"/><path d="M176.717 156.535h-5.363v7.366h5.363v-7.366z" fill="#303030"/><path d="M176.272 158.555h-4.669v35.786h4.669v-35.786z" fill="#56585E"/><path d="M199.355 201.124l-22.354-11.882v5.401l16.033 6.481v1.186h6.321v-1.186z" fill="#0A2126"/><path d="M177.001 194.644h-6.055v-9.757h6.055v9.757z" fill="#0A2126"/><path d="M148.592 201.124l22.354-11.882v5.401l-16.016 6.481v1.186h-6.338v-1.186zm23.348-11.882v13.068h-1.509v.921H177v-.921h-1.385l.444-13.068h-4.119z" fill="#0A2126"/><path d="M183.748 138.508h-22.212l-6.091-37.681c-1.1-6.764 4.137-12.909 11.009-12.909h12.375c6.872 0 12.11 6.144 11.009 12.909l-6.09 37.681z" fill="#004555"/><path d="M158.517 119.809l-9.126 3.612 5.61 23.25 2.451-.354-2.699-20.258 4.847-2.089-1.083-4.161zm27.663 0l7.795 5.4-1.296 22.666-3.143-.584 1.101-19.549-6.25-3.648 1.793-4.285z" fill="#282859"/><path d="M196.318 150.425h-41.565v-4.109h37.446a4.117 4.117 0 014.119 4.109z" fill="#56548C"/><path d="M182.487 72.496s-.888 9.827 1.829 12.537c2.716 2.709 3.089 2.638 4.03 2.372 0 0-.621 1.665-2.344 1.771h-.373c-2.006-.124.16 1.505 1.208 1.877 1.047.372-2.095.78-4.279.266-1.35-.319-15.412-.142-17.596-2.09-1.367-1.204 4.599-7.26 4.883-10.305.728-7.951 12.642-6.428 12.642-6.428z" fill="#606BF1"/><path d="M210.754 71.644s-1.314 2.763-1.882 5.932c-.568 3.17.302 8.783 1.882 11.139 1.58 2.355 1.74 3.222 3.178 3.222s7.173-2.514 7.688-8.34c.515-5.826-10.458-11.953-10.458-11.953h-.408z" fill="#FFBC9D"/><path d="M270.04 121.457s-3.694-1.683-4.83-2.816c-1.136-1.133-4.741-4.09-6.552-4.09s-10.919 4.072-9.641 4.533c1.278.46 8.274-1.629 8.274-1.629s-8.185 3.364-6.729 4.002c1.456.637 5.912-1.098 5.912-1.098s-2.272 1.098-2.272 1.912c0 .815 3.338-.814 5.255-.814 1.936 0 7.031 3.169 7.031 3.169l3.552-3.169z" fill="#FFC8AF"/><path d="M290.369 171.356c-.692.726-1.953 1.186-3.373 1.133-1.421-.053-2.646-.602-3.285-1.363.692-.726 1.953-1.187 3.373-1.134 1.421.054 2.646.602 3.285 1.364zm15.466 29.607a121.772 121.772 0 01-1.278-19.532c.035-3.258.213-6.516.461-9.774.249-3.24.639-6.481 1.101-9.704.923-6.445 2.237-12.838 3.853-19.141a188.467 188.467 0 012.699-9.385c.994-3.099 2.042-6.18 3.267-9.208l.39.159c-1.171 3.01-2.184 6.109-3.142 9.208a170.944 170.944 0 00-2.575 9.385c-1.545 6.304-2.77 12.678-3.604 19.106-.409 3.205-.764 6.428-.977 9.668-.213 3.223-.355 6.464-.337 9.704a116.996 116.996 0 001.509 19.301l-1.367.213z" fill="#AF9BE2"/><path d="M317.855 111.273c-1.847 1.116-3.321 3.471-3.729 6.34-.408 2.886.355 5.542 1.811 7.118 1.847-1.115 3.32-3.471 3.729-6.339.408-2.869-.355-5.525-1.811-7.119zm-10.883 9.916c-.231 1.664.497 3.718 2.041 5.365 1.563 1.664 3.552 2.497 5.238 2.39.231-1.664-.497-3.718-2.042-5.365-1.562-1.647-3.551-2.497-5.237-2.39zm7.438 8.695c1.421.921 3.569 1.133 5.735.443 2.166-.709 3.782-2.143 4.403-3.719-1.42-.921-3.568-1.133-5.735-.442-2.183.708-3.799 2.142-4.403 3.718zm-1.953 6.125c1.42.921 3.569 1.133 5.735.443 2.166-.691 3.782-2.143 4.403-3.719-1.42-.921-3.568-1.133-5.735-.442-2.184.708-3.799 2.142-4.403 3.718zm-2.219 7.313c1.421.92 3.569 1.133 5.735.442 2.166-.69 3.782-2.142 4.404-3.718-1.421-.921-3.569-1.134-5.735-.443-2.167.708-3.8 2.16-4.404 3.719zm-1.473 6.82c1.42.921 3.569 1.133 5.735.443 2.166-.691 3.782-2.143 4.403-3.719-1.42-.921-3.569-1.133-5.735-.443-2.184.709-3.8 2.143-4.403 3.719zm.603-1.383c-1.421.921-3.569 1.133-5.735.443-2.166-.691-3.782-2.143-4.404-3.719 1.421-.921 3.569-1.133 5.735-.442 2.184.708 3.8 2.16 4.404 3.718zm-4.386-21.071c-.23 1.664.498 3.718 2.042 5.365 1.563 1.665 3.551 2.497 5.238 2.391.231-1.665-.497-3.719-2.042-5.366-1.562-1.664-3.551-2.514-5.238-2.39zm-2.272 7.363c-.231 1.664.497 3.718 2.042 5.365 1.562 1.665 3.551 2.497 5.238 2.391.23-1.665-.498-3.719-2.042-5.366-1.563-1.664-3.551-2.514-5.238-2.39zm44.832 6.258c-2.841 1.558-5.487 3.399-8.061 5.33a91.684 91.684 0 00-7.387 6.25 99.704 99.704 0 00-6.694 6.977 95.009 95.009 0 00-5.93 7.65c-3.693 5.294-6.765 11.031-9.25 16.999a94.353 94.353 0 00-5.363 18.628l1.368.23a93.473 93.473 0 014.989-18.451c2.361-5.932 5.309-11.651 8.895-16.964a97.643 97.643 0 015.753-7.685 94.739 94.739 0 016.552-7.047 94.774 94.774 0 017.244-6.34c2.539-1.965 5.167-3.842 7.955-5.436l-.071-.141z" fill="#AF9BE2"/><path d="M358 134.027c-.16 2.143-1.58 4.533-3.959 6.198-2.38 1.664-5.114 2.213-7.191 1.629.159-2.143 1.58-4.516 3.959-6.198 2.397-1.664 5.114-2.213 7.191-1.629zm-16.051-1.804c1.598 1.452 2.574 4.055 2.397 6.941-.16 2.904-1.438 5.365-3.178 6.623-1.598-1.452-2.575-4.055-2.397-6.959.16-2.887 1.438-5.348 3.178-6.605zm-9.481 4.726c1.917.974 3.551 3.223 4.172 6.056.622 2.833.053 5.56-1.296 7.242-1.918-.973-3.551-3.222-4.173-6.055-.603-2.834-.053-5.561 1.297-7.243zm-6.392 5.883c1.917.974 3.551 3.223 4.172 6.056.622 2.833.054 5.56-1.296 7.242-1.917-.974-3.551-3.222-4.172-6.056-.604-2.851-.054-5.577 1.296-7.242zm-7.351 6.02c2.113.46 4.262 2.213 5.593 4.798 1.314 2.586 1.474 5.366.604 7.331-2.113-.46-4.261-2.196-5.593-4.799-1.332-2.585-1.474-5.365-.604-7.33zm-5.185 7.544c1.918-.089 4.19.938 5.913 2.886 1.722 1.948 2.485 4.303 2.166 6.198-1.918.088-4.191-.939-5.913-2.886-1.722-1.931-2.468-4.303-2.166-6.198zm-3.764 4.742c1.918-.088 4.191.939 5.913 2.886 1.722 1.948 2.486 4.303 2.166 6.198-1.917.089-4.19-.938-5.912-2.886-1.723-1.93-2.468-4.303-2.167-6.198zm-2.148 6.995c1.652-.071 3.587.814 5.061 2.479 1.473 1.664 2.13 3.683 1.864 5.312-1.651.071-3.587-.814-5.06-2.479-1.474-1.664-2.131-3.683-1.865-5.312zm-2.077 7.313c1.207-.673 2.983-.762 4.74-.089 1.758.673 3.019 1.93 3.445 3.241-1.207.672-2.983.761-4.741.088-1.74-.69-3.018-1.948-3.444-3.24zm-.835 6.005c.746-.815 2.077-1.328 3.569-1.275 1.509.07 2.787.69 3.444 1.576-.746.814-2.077 1.328-3.569 1.275-1.509-.054-2.787-.691-3.444-1.576z" fill="#AF9BE2"/><path d="M354.041 150.018c-1.829 1.134-4.599 1.364-7.369.408-2.752-.957-4.794-2.834-5.522-4.87 1.829-1.133 4.599-1.363 7.369-.407 2.752.956 4.776 2.851 5.522 4.869zm-5.824 4.766c-1.829 1.133-4.599 1.363-7.369.407-2.752-.956-4.794-2.833-5.522-4.869 1.829-1.134 4.599-1.364 7.369-.408 2.752.974 4.794 2.851 5.522 4.87zm-6.197 5.895c-1.828 1.133-4.598 1.363-7.368.407-2.752-.956-4.794-2.833-5.522-4.87 1.829-1.133 4.599-1.363 7.368-.407 2.753.956 4.777 2.851 5.522 4.87zm-6.995 3.915c-1.492.92-3.747 1.115-5.984.336-2.237-.779-3.888-2.302-4.492-3.949 1.491-.92 3.746-1.115 5.983-.336 2.238.761 3.889 2.302 4.493 3.949zm-5.256 3.737c-1.225.779-3.054.974-4.865.336-1.811-.619-3.143-1.894-3.604-3.258 1.225-.779 3.054-.974 4.865-.336 1.811.62 3.143 1.895 3.604 3.258zm-3.126 4.816c-1.225.78-3.054.974-4.865.337-1.811-.62-3.143-1.895-3.604-3.258 1.225-.779 3.054-.974 4.865-.337 1.811.62 3.143 1.895 3.604 3.258zm-3.426 4.354c-.995.832-2.646 1.239-4.421.956-1.776-.283-3.214-1.186-3.889-2.302.995-.832 2.646-1.239 4.421-.956 1.776.283 3.214 1.186 3.889 2.302zm-3.32 5.468c-1.118.319-2.592.036-3.906-.867-1.314-.886-2.113-2.161-2.22-3.312 1.119-.318 2.593-.035 3.907.868 1.296.903 2.113 2.178 2.219 3.311zm-3.693 3.279c-.888.071-1.953-.337-2.805-1.204-.853-.85-1.279-1.93-1.208-2.798.888-.089 1.953.336 2.806 1.204.852.85 1.278 1.93 1.207 2.798zm-2.451.869c-.586.088-1.26-.142-1.793-.673-.533-.532-.764-1.204-.675-1.789.586-.088 1.261.142 1.793.673.533.531.764 1.204.675 1.789zm-.799 1.613c-.586.088-1.26-.142-1.793-.673-.533-.531-.763-1.204-.675-1.789.586-.088 1.261.142 1.794.673.532.532.763 1.222.674 1.789z" fill="#AF9BE2"/><path d="M284.546 135.887c2.024 2.213 3.8 4.621 5.487 7.083a82.06 82.06 0 014.616 7.685 88.892 88.892 0 013.8 8.127 90.65 90.65 0 012.912 8.482c1.651 5.755 2.645 11.705 3.036 17.69a86.938 86.938 0 01-.87 17.955l-1.278-.212a85.585 85.585 0 001.118-17.69c-.302-5.914-1.19-11.811-2.734-17.53a88.78 88.78 0 00-2.752-8.464 90.024 90.024 0 00-3.64-8.128 83.956 83.956 0 00-4.475-7.721c-1.633-2.479-3.391-4.904-5.362-7.136l.142-.141z" fill="#CFC3EE"/><path d="M277.533 126.379c-.515 1.93.035 4.444 1.633 6.622 1.598 2.179 3.835 3.471 5.824 3.577.515-1.93-.036-4.444-1.634-6.622-1.58-2.178-3.817-3.471-5.823-3.577zm14.648 3.187c-1.829.797-3.462 2.798-4.19 5.383-.728 2.603-.338 5.136.816 6.765 1.829-.797 3.463-2.798 4.191-5.383.728-2.603.337-5.153-.817-6.765zm6.906 6.977c-1.988.283-4.084 1.771-5.468 4.09-1.385 2.32-1.705 4.87-1.03 6.747 1.971-.283 4.083-1.771 5.468-4.09 1.403-2.32 1.705-4.87 1.03-6.747zm3.854 7.047c-1.989.283-4.084 1.771-5.469 4.09-1.385 2.32-1.704 4.87-1.03 6.747 1.989-.284 4.084-1.771 5.469-4.091 1.403-2.319 1.722-4.869 1.03-6.746zm4.669 7.492c-1.988-.23-4.403.673-6.338 2.55-1.936 1.877-2.894 4.267-2.717 6.251 1.989.23 4.403-.673 6.339-2.55 1.935-1.877 2.894-4.268 2.716-6.251zm2.291 8.163c-1.669-.637-3.96-.407-6.055.78-2.095 1.186-3.462 3.045-3.764 4.798 1.669.638 3.959.408 6.055-.779 2.113-1.186 3.48-3.046 3.764-4.799zm1.882 5.293c-1.669-.637-3.96-.407-6.055.78-2.095 1.186-3.462 3.045-3.764 4.798 1.669.638 3.959.408 6.054-.779 2.113-1.204 3.481-3.046 3.765-4.799zm-.195 6.781c-1.42-.549-3.391-.354-5.185.673-1.793 1.027-2.965 2.603-3.231 4.108 1.42.549 3.391.354 5.184-.673 1.794-1.027 2.983-2.603 3.232-4.108zm-.356 7.03c-.853-.957-2.397-1.559-4.137-1.488-1.74.071-3.232.797-3.995 1.806.852.956 2.397 1.559 4.137 1.488 1.74-.071 3.231-.797 3.995-1.806zm-1.065 5.526c-.409-.938-1.421-1.788-2.752-2.178-1.332-.39-2.646-.212-3.498.354.408.939 1.42 1.789 2.752 2.178 1.332.407 2.663.23 3.498-.354z" fill="#CFC3EE"/><path d="M276.236 141.605c1.279 1.541 3.64 2.568 6.339 2.55 2.699-.018 5.06-1.062 6.303-2.621-1.278-1.54-3.64-2.567-6.338-2.549-2.699 0-5.043 1.062-6.304 2.62zm3.694 5.918c1.278 1.541 3.64 2.568 6.338 2.55 2.699-.018 5.061-1.062 6.304-2.621-1.279-1.54-3.64-2.567-6.339-2.549-2.699.017-5.06 1.062-6.303 2.62zm3.674 7.012c1.279 1.541 3.64 2.568 6.339 2.55 2.699-.018 5.06-1.063 6.303-2.621-1.278-1.54-3.639-2.567-6.338-2.55-2.699.018-5.043 1.063-6.304 2.621zm4.99 5.522c1.03 1.257 2.965 2.089 5.149 2.072 2.202-.018 4.119-.868 5.131-2.143-1.03-1.257-2.965-2.089-5.149-2.072-2.202.018-4.119.886-5.131 2.143zm3.48 4.853c.835 1.044 2.397 1.753 4.173 1.753 1.775-.018 3.32-.726 4.155-1.789-.835-1.045-2.397-1.753-4.173-1.753-1.776 0-3.338.726-4.155 1.789zm1.314 5.152c.834 1.045 2.397 1.753 4.172 1.753 1.776-.018 3.32-.726 4.155-1.789-.835-1.044-2.397-1.753-4.173-1.753-1.775 0-3.338.726-4.154 1.789zm1.722 4.836c.622 1.027 1.953 1.877 3.605 2.161 1.651.283 3.178-.089 4.101-.868-.621-1.027-1.953-1.877-3.604-2.16-1.651-.266-3.196.106-4.102.867zm1.261 5.807c.888.602 2.273.796 3.693.407 1.421-.39 2.504-1.275 2.948-2.249-.888-.602-2.273-.797-3.693-.407-1.421.389-2.504 1.275-2.948 2.249zm2.273 3.985c.745.336 1.811.283 2.823-.213s1.704-1.31 1.9-2.107c-.746-.336-1.812-.283-2.824.213-1.012.495-1.704 1.31-1.899 2.107zm1.899 1.469c.479.248 1.154.248 1.775-.053.622-.301 1.03-.833 1.119-1.364-.479-.248-1.154-.248-1.775.053-.622.301-1.03.833-1.119 1.364zm.213 1.668c.479.248 1.154.248 1.775-.053.622-.301 1.03-.833 1.119-1.364-.479-.248-1.154-.248-1.776.053-.621.301-1.029.833-1.118 1.364z" fill="#CFC3EE"/><path d="M327.425 129.316c-2.059 2.479-3.853 5.171-5.539 7.916a89.146 89.146 0 00-4.564 8.517 95.468 95.468 0 00-3.657 8.942 92.8 92.8 0 00-2.699 9.297c-1.492 6.286-2.237 12.731-2.344 19.194a92.623 92.623 0 001.882 19.284l1.367-.283a92.298 92.298 0 01-2.148-18.983c0-6.392.657-12.785 2.024-19.035a99.324 99.324 0 012.521-9.261 94.497 94.497 0 013.498-8.943 92.675 92.675 0 014.404-8.552c1.633-2.763 3.391-5.472 5.397-7.969l-.142-.124z" fill="#8475AA"/><path d="M334.456 118.73c.657 2.055.196 4.781-1.402 7.225-1.598 2.426-3.942 3.931-6.09 4.144-.657-2.054-.196-4.781 1.402-7.225 1.616-2.426 3.942-3.931 6.09-4.144zm-15.589 4.18c2.024.762 3.889 2.833 4.794 5.578.906 2.762.639 5.525-.515 7.331-2.006-.762-3.888-2.833-4.794-5.578-.923-2.762-.657-5.525.515-7.331zm-7.066 7.879c2.148.213 4.492 1.7 6.108 4.108 1.616 2.426 2.095 5.153 1.456 7.207-2.149-.212-4.492-1.7-6.108-4.108-1.633-2.426-2.095-5.153-1.456-7.207zm-3.8 7.793c2.148.213 4.492 1.7 6.108 4.108 1.616 2.426 2.095 5.153 1.456 7.207-2.148-.212-4.492-1.7-6.108-4.108-1.616-2.408-2.095-5.153-1.456-7.207zm-4.616 8.305c2.13-.354 4.776.496 6.96 2.408 2.184 1.93 3.338 4.445 3.249 6.605-2.131.354-4.776-.496-6.96-2.408-2.184-1.93-3.338-4.462-3.249-6.605zm-2.042 8.923c1.758-.779 4.243-.655 6.569.513 2.326 1.169 3.889 3.099 4.297 4.976-1.758.779-4.243.655-6.569-.513-2.326-1.187-3.889-3.099-4.297-4.976zm-1.758 5.793c1.758-.779 4.244-.655 6.569.513 2.326 1.169 3.889 3.099 4.297 4.976-1.758.779-4.243.655-6.569-.514-2.308-1.186-3.889-3.098-4.297-4.975zm.586 7.296c1.509-.673 3.64-.567 5.628.443 1.989 1.009 3.338 2.656 3.693 4.267-1.509.673-3.639.567-5.628-.443-2.006-1.027-3.356-2.656-3.693-4.267zm.746 7.54c.87-1.062 2.504-1.788 4.368-1.806 1.882-.018 3.515.691 4.403 1.735-.87 1.063-2.503 1.789-4.368 1.807-1.882.017-3.515-.673-4.403-1.736zm1.42 5.915c.391-1.027 1.438-2.001 2.859-2.497 1.42-.496 2.84-.372 3.781.195-.39 1.027-1.438 2.001-2.858 2.496-1.403.496-2.823.372-3.782-.194z" fill="#8475AA"/><path d="M336.659 135.038c-1.296 1.718-3.782 2.957-6.694 3.081-2.912.124-5.504-.885-6.943-2.496 1.297-1.718 3.782-2.958 6.694-3.081 2.93-.124 5.504.885 6.943 2.496zm-3.658 6.571c-1.296 1.717-3.782 2.957-6.694 3.081-2.911.124-5.504-.886-6.924-2.497 1.296-1.718 3.782-2.957 6.694-3.081 2.911-.124 5.504.885 6.924 2.497zm-3.605 7.753c-1.296 1.718-3.782 2.958-6.694 3.082-2.912.124-5.504-.886-6.925-2.497 1.296-1.718 3.782-2.957 6.694-3.081 2.912-.124 5.504.885 6.925 2.496zm-5.06 6.2c-1.047 1.399-3.071 2.409-5.451 2.497-2.361.106-4.474-.726-5.646-2.036 1.048-1.399 3.072-2.408 5.451-2.497 2.379-.088 4.475.726 5.646 2.036zm-3.497 5.403c-.853 1.186-2.486 2.018-4.404 2.089-1.917.089-3.622-.62-4.563-1.717.852-1.187 2.486-2.019 4.386-2.09 1.935-.071 3.639.62 4.581 1.718zm-1.155 5.613c-.852 1.186-2.486 2.019-4.403 2.09-1.918.088-3.622-.62-4.563-1.718.852-1.186 2.486-2.019 4.385-2.09 1.936-.07 3.64.62 4.581 1.718zm-1.58 5.312c-.604 1.151-2.007 2.125-3.764 2.515-1.758.389-3.427.07-4.475-.709.604-1.151 2.007-2.125 3.764-2.514 1.758-.39 3.445-.071 4.475.708zm-1.065 6.318c-.923.708-2.397.974-3.942.62-1.544-.355-2.77-1.24-3.285-2.267.924-.708 2.397-.974 3.942-.62 1.545.354 2.752 1.24 3.285 2.267zm-2.237 4.393c-.799.39-1.953.39-3.054-.088-1.119-.479-1.9-1.328-2.148-2.161.799-.389 1.935-.389 3.054.089 1.118.478 1.899 1.31 2.148 2.16zm-1.971 1.7c-.498.301-1.226.337-1.9.036-.675-.301-1.154-.85-1.279-1.417.515-.301 1.225-.336 1.9-.035.693.301 1.154.85 1.279 1.416zm-.143 1.789c-.497.301-1.225.337-1.9.036-.675-.301-1.154-.85-1.278-1.417.515-.301 1.225-.336 1.9-.035.692.301 1.154.85 1.278 1.416z" fill="#8475AA"/><path d="M297.455 181.13c-3.054-4.444-6.25-8.8-9.677-12.979l.054-.053c3.515 4.108 6.8 8.393 9.943 12.784 3.142 4.41 6.09 8.943 8.753 13.653a128.614 128.614 0 011.864 3.471c-.23.123-.479.265-.71.407a130.025 130.025 0 00-1.811-3.524c-2.521-4.71-5.38-9.296-8.416-13.759z" fill="#AF9BE2"/><path d="M284.422 162.484c1.119.107 2.291.85 3.019 2.072.728 1.222.852 2.603.408 3.63-1.119-.106-2.291-.85-3.019-2.072-.728-1.221-.852-2.585-.408-3.63zm8.345 2.602c.462.885.48 2.231-.035 3.559-.515 1.328-1.439 2.302-2.38 2.656-.461-.885-.479-2.231.036-3.559.515-1.328 1.438-2.302 2.379-2.656zm.284 9.796c-.763.655-2.059.973-3.48.779-1.42-.195-2.574-.868-3.125-1.7.764-.655 2.06-.974 3.48-.779 1.403.194 2.557.867 3.125 1.7zm3.374 4.336c-.763.655-2.059.973-3.48.779-1.42-.195-2.574-.868-3.125-1.7.764-.655 2.06-.974 3.48-.779 1.403.194 2.557.867 3.125 1.7zm2.29 3.453c-.763.655-2.059.974-3.48.779-1.42-.195-2.574-.868-3.125-1.7.764-.655 2.06-.974 3.48-.779 1.403.195 2.557.867 3.125 1.7zm2.539 3.808c-.763.655-2.059.974-3.48.779-1.42-.194-2.574-.867-3.125-1.7.764-.655 2.06-.973 3.48-.779 1.403.213 2.557.886 3.125 1.7zm-5.557-17.674c.462.885.479 2.231-.036 3.559-.515 1.328-1.438 2.302-2.379 2.656-.462-.885-.479-2.231.036-3.559.532-1.328 1.438-2.302 2.379-2.656z" fill="#AF9BE2"/><path d="M298.502 172.633c.461.885.479 2.231-.036 3.559-.515 1.328-1.438 2.302-2.379 2.656-.462-.885-.48-2.231.035-3.559.515-1.328 1.438-2.302 2.38-2.656zm2.663 3.875c.462.885.48 2.231-.035 3.559-.515 1.328-1.438 2.302-2.379 2.656-.462-.885-.48-2.231.035-3.559.533-1.346 1.456-2.32 2.379-2.656zm2.592 3.773c.462.886.48 2.231-.035 3.559-.515 1.329-1.438 2.302-2.379 2.657-.462-.886-.48-2.232.035-3.56.515-1.328 1.438-2.302 2.379-2.656z" fill="#AF9BE2"/><path d="M295.448 191.324h20.223c3.356 1.718 5.487 4.25 5.487 7.101 0 3.046-2.433 5.737-6.179 7.437h-18.821c-3.764-1.7-6.179-4.391-6.179-7.437-.036-2.851 2.113-5.401 5.469-7.101z" fill="#405CE1"/><path d="M297.348 192.921c-1.988-.23-4.67 1.275-5.344 4.286-.941 5.949 5.025 7.685 8.292 6.179-2.841-.708-5.949-2-6.037-4.94-.16-1.54.763-3.01.763-3.046.124-.177.391-.619.852-1.151.409-.495.924-.92 1.474-1.328z" fill="#F8F0A1"/><path d="M294.504 191.848h22.337v-1.399h-22.337v1.399z" fill="#6B9FC5"/><path d="M66.438 167.704c-.693.726-1.954 1.186-3.374 1.133-1.42-.053-2.645-.602-3.285-1.364.693-.726 1.953-1.186 3.374-1.133 1.42.036 2.645.584 3.285 1.364zm15.465 29.681a121.834 121.834 0 01-1.278-19.532c.035-3.258.213-6.516.462-9.774.248-3.241.639-6.481 1.1-9.704.924-6.445 2.238-12.838 3.853-19.142a189.41 189.41 0 012.7-9.385c.993-3.098 2.041-6.179 3.266-9.207l.39.159c-1.171 3.01-2.183 6.109-3.142 9.208a187.798 187.798 0 00-2.575 9.385c-1.544 6.304-2.77 12.678-3.604 19.106-.408 3.205-.763 6.428-.976 9.668-.214 3.223-.356 6.464-.338 9.704-.035 6.463.48 12.927 1.51 19.301l-1.368.213z" fill="#AF9BE2"/><path d="M93.923 107.695c-1.847 1.116-3.32 3.471-3.729 6.34-.408 2.886.355 5.542 1.811 7.118 1.847-1.116 3.32-3.471 3.73-6.339.407-2.869-.338-5.543-1.812-7.119zm-10.884 9.915c-.23 1.665.497 3.719 2.042 5.366 1.562 1.664 3.551 2.497 5.238 2.39.23-1.664-.497-3.718-2.042-5.365-1.563-1.647-3.551-2.497-5.238-2.391zm7.439 8.305c1.42.921 3.57 1.134 5.736.443 2.166-.708 3.781-2.143 4.403-3.719-1.42-.92-3.569-1.133-5.735-.442-2.184.708-3.8 2.16-4.404 3.718zm-1.953 6.516c1.42.921 3.57 1.133 5.735.443 2.167-.709 3.782-2.143 4.404-3.719-1.42-.921-3.57-1.133-5.735-.443-2.184.709-3.8 2.143-4.404 3.719zm-2.218 7.312c1.42.921 3.569 1.134 5.735.443 2.166-.708 3.782-2.142 4.403-3.718-1.42-.921-3.569-1.134-5.735-.443-2.166.708-3.782 2.16-4.403 3.718zm-1.475 6.821c1.42.921 3.569 1.133 5.735.442 2.166-.708 3.782-2.142 4.403-3.718-1.42-.921-3.568-1.133-5.735-.443-2.183.708-3.8 2.143-4.403 3.719zm.622-1.383c-1.42.921-3.57 1.133-5.735.443-2.166-.709-3.782-2.143-4.404-3.719 1.42-.921 3.57-1.133 5.735-.443 2.167.709 3.782 2.143 4.404 3.719zm-4.404-21.086c-.23 1.664.498 3.718 2.043 5.365 1.562 1.665 3.55 2.497 5.237 2.391.231-1.665-.497-3.719-2.041-5.366-1.545-1.646-3.552-2.496-5.238-2.39zm-2.272 7.363c-.23 1.665.497 3.719 2.042 5.365 1.563 1.665 3.551 2.497 5.238 2.391.23-1.665-.497-3.719-2.042-5.365-1.562-1.647-3.551-2.497-5.238-2.391zm44.85 6.269c-2.841 1.558-5.487 3.399-8.061 5.33a91.684 91.684 0 00-7.387 6.25 96.379 96.379 0 00-6.711 6.995 94.659 94.659 0 00-5.93 7.649c-3.694 5.295-6.765 11.032-9.251 16.999a94.333 94.333 0 00-5.362 18.629l1.367.23a93.57 93.57 0 014.99-18.451c2.36-5.932 5.308-11.652 8.895-16.964a97.424 97.424 0 015.752-7.685 94.753 94.753 0 016.552-7.048 94.543 94.543 0 017.244-6.339c2.54-1.965 5.167-3.842 7.955-5.436l-.053-.159z" fill="#AF9BE2"/><path d="M134.068 130.449c-.159 2.143-1.58 4.515-3.959 6.198-2.379 1.664-5.114 2.213-7.191 1.629.16-2.143 1.58-4.516 3.959-6.198 2.397-1.664 5.114-2.213 7.191-1.629zm-16.051-1.824c1.598 1.452 2.575 4.055 2.397 6.959-.159 2.904-1.438 5.365-3.178 6.623-1.598-1.452-2.574-4.055-2.397-6.959.16-2.887 1.438-5.348 3.178-6.623zm-9.464 4.746c1.918.974 3.551 3.223 4.173 6.056.621 2.833.053 5.56-1.296 7.242-1.918-.974-3.551-3.222-4.173-6.056-.621-2.85-.053-5.56 1.296-7.242zm-6.391 5.879c1.917.974 3.551 3.223 4.172 6.056.622 2.851.054 5.56-1.296 7.242-1.917-.974-3.551-3.222-4.172-6.056-.622-2.851-.054-5.578 1.296-7.242zm-7.368 6.02c2.113.46 4.261 2.195 5.593 4.798 1.314 2.586 1.473 5.366.603 7.331-2.113-.46-4.261-2.213-5.593-4.799-1.331-2.603-1.473-5.365-.603-7.33zm-5.186 7.544c1.918-.089 4.19.938 5.913 2.886 1.722 1.948 2.486 4.303 2.166 6.198-1.917.088-4.19-.939-5.912-2.887-1.723-1.947-2.468-4.302-2.167-6.197zm-3.746 4.746c1.918-.089 4.19.938 5.913 2.886 1.722 1.948 2.485 4.303 2.166 6.198-1.918.088-4.19-.939-5.913-2.886-1.722-1.948-2.485-4.303-2.166-6.198zm-2.149 6.991c1.652-.071 3.587.814 5.06 2.479 1.474 1.664 2.131 3.683 1.865 5.312-1.651.071-3.587-.814-5.06-2.479-1.492-1.664-2.131-3.683-1.865-5.312zm-2.093 7.297c1.206-.673 2.982-.761 4.74-.089 1.758.673 3.018 1.931 3.444 3.241-1.207.673-2.983.761-4.74.088-1.74-.672-3.001-1.93-3.445-3.24zm-.836 6.021c.746-.815 2.078-1.329 3.569-1.275 1.51.07 2.788.69 3.445 1.576-.746.814-2.078 1.328-3.57 1.275-1.49-.071-2.787-.691-3.444-1.576z" fill="#AF9BE2"/><path d="M130.109 146.44c-1.829 1.134-4.598 1.364-7.368.407-2.752-.956-4.794-2.833-5.522-4.869 1.829-1.133 4.598-1.364 7.368-.407 2.752.956 4.776 2.833 5.522 4.869zm-5.824 4.762c-1.829 1.133-4.599 1.363-7.369.407-2.752-.956-4.793-2.833-5.521-4.869 1.828-1.134 4.598-1.364 7.368-.408 2.752.957 4.794 2.851 5.522 4.87zm-6.197 5.894c-1.829 1.134-4.599 1.364-7.369.408-2.752-.956-4.794-2.833-5.522-4.87 1.829-1.133 4.599-1.363 7.369-.407 2.752.956 4.776 2.851 5.522 4.869zm-6.995 3.916c-1.492.92-3.747 1.115-5.984.336-2.237-.779-3.888-2.302-4.492-3.949 1.492-.921 3.747-1.115 5.984-.336 2.237.761 3.888 2.302 4.492 3.949zm-5.238 3.737c-1.225.779-3.054.974-4.865.336-1.811-.619-3.143-1.894-3.604-3.258 1.225-.779 3.054-.974 4.865-.336 1.793.62 3.125 1.895 3.604 3.258zm-3.142 4.816c-1.226.78-3.054.974-4.865.337-1.811-.62-3.143-1.895-3.605-3.258 1.225-.779 3.054-.974 4.865-.337 1.811.62 3.143 1.895 3.605 3.258zm-3.427 4.354c-.994.832-2.645 1.239-4.421.956-1.775-.283-3.214-1.186-3.888-2.302.994-.832 2.645-1.239 4.42-.956 1.776.283 3.214 1.186 3.89 2.302zm-3.32 5.476c-1.12.319-2.593.035-3.907-.868-1.314-.885-2.113-2.16-2.22-3.311 1.12-.319 2.593-.035 3.907.868s2.113 2.16 2.22 3.311zm-3.694 3.271c-.888.088-1.953-.337-2.805-1.204-.852-.85-1.278-1.93-1.207-2.798.887-.089 1.953.336 2.805 1.204.87.85 1.296 1.93 1.207 2.798zm-2.45.872c-.586.089-1.261-.141-1.794-.672-.515-.532-.763-1.205-.674-1.789.586-.088 1.26.142 1.793.673.533.531.763 1.204.675 1.788zm-.799 1.61c-.586.088-1.261-.142-1.794-.673-.532-.531-.763-1.204-.674-1.789.586-.088 1.26.142 1.793.673.533.532.781 1.204.675 1.789z" fill="#AF9BE2"/><path d="M60.614 132.309c2.024 2.213 3.8 4.621 5.486 7.083a86.292 86.292 0 014.617 7.685 89.049 89.049 0 013.8 8.127 90.233 90.233 0 012.911 8.482c1.67 5.755 2.646 11.705 3.036 17.69a86.876 86.876 0 01-.87 17.955l-1.278-.212a85.572 85.572 0 001.118-17.69c-.301-5.914-1.19-11.811-2.734-17.53a88.78 88.78 0 00-2.752-8.464 89.94 89.94 0 00-3.64-8.128 83.795 83.795 0 00-4.474-7.721c-1.634-2.479-3.392-4.905-5.362-7.136l.142-.141z" fill="#CFC3EE"/><path d="M53.618 122.801c-.514 1.93.036 4.444 1.634 6.622 1.598 2.178 3.835 3.471 5.824 3.577.515-1.93-.036-4.444-1.634-6.622-1.598-2.178-3.835-3.471-5.824-3.577zm14.63 3.172c-1.829.796-3.462 2.797-4.19 5.383-.728 2.603-.337 5.135.817 6.764 1.829-.797 3.462-2.798 4.19-5.383.728-2.585.355-5.135-.817-6.764zm6.908 6.992c-1.99.283-4.084 1.771-5.47 4.09-1.384 2.32-1.704 4.87-1.029 6.747 1.989-.284 4.084-1.771 5.469-4.091 1.402-2.319 1.722-4.869 1.03-6.746zm3.871 7.047c-1.989.283-4.084 1.77-5.469 4.09-1.385 2.32-1.705 4.87-1.03 6.747 1.989-.284 4.084-1.771 5.469-4.091 1.385-2.319 1.704-4.869 1.03-6.746zm4.652 7.492c-1.989-.23-4.404.673-6.339 2.55-1.935 1.877-2.894 4.267-2.717 6.251 1.989.23 4.404-.673 6.34-2.55 1.934-1.877 2.893-4.268 2.716-6.251zm2.291 8.163c-1.67-.637-3.96-.407-6.055.779-2.096 1.187-3.463 3.046-3.765 4.799 1.67.638 3.96.407 6.055-.779 2.113-1.186 3.48-3.046 3.764-4.799zm1.899 5.293c-1.67-.637-3.96-.407-6.055.779-2.095 1.187-3.462 3.046-3.764 4.799 1.669.638 3.96.407 6.054-.779 2.096-1.204 3.463-3.046 3.765-4.799zm-.213 6.781c-1.42-.549-3.391-.354-5.184.673-1.794 1.027-2.965 2.603-3.232 4.108 1.42.549 3.392.354 5.185-.673 1.81-1.027 2.983-2.603 3.231-4.108zm-.356 7.029c-.852-.956-2.397-1.558-4.137-1.487-1.74.071-3.231.797-3.995 1.806.852.956 2.397 1.558 4.137 1.488 1.74-.071 3.231-.797 3.995-1.807zm-1.047 5.527c-.409-.939-1.42-1.789-2.752-2.178-1.332-.39-2.664-.213-3.498.354.408.939 1.42 1.788 2.752 2.178 1.332.39 2.646.23 3.498-.354z" fill="#CFC3EE"/><path d="M52.322 138.012c1.279 1.54 3.64 2.567 6.339 2.549 2.699-.017 5.06-1.062 6.303-2.62-1.278-1.541-3.64-2.568-6.338-2.55-2.7.018-5.06 1.08-6.304 2.621zm3.676 5.933c1.278 1.541 3.64 2.568 6.339 2.55 2.699-.018 5.06-1.08 6.303-2.621-1.278-1.54-3.64-2.567-6.339-2.55-2.699.018-5.042 1.063-6.303 2.621zm3.692 7.012c1.279 1.54 3.64 2.567 6.34 2.55 2.698-.018 5.06-1.08 6.302-2.621-1.278-1.541-3.64-2.568-6.338-2.55-2.7.018-5.06 1.063-6.304 2.621zm4.972 5.522c1.03 1.257 2.965 2.089 5.15 2.072 2.2-.018 4.118-.868 5.13-2.143-1.03-1.257-2.965-2.089-5.149-2.072-2.201.018-4.119.886-5.13 2.143zm3.481 4.852c.834 1.045 2.397 1.753 4.172 1.753 1.776-.017 3.32-.726 4.137-1.788-.834-1.045-2.397-1.753-4.172-1.753-1.758 0-3.303.726-4.137 1.788zm1.313 5.153c.835 1.044 2.397 1.753 4.173 1.753 1.775-.018 3.32-.726 4.154-1.789-.834-1.044-2.397-1.753-4.172-1.753-1.776 0-3.32.726-4.155 1.789zm1.723 4.836c.621 1.027 1.953 1.877 3.604 2.161 1.651.283 3.178-.089 4.102-.868-.622-1.027-1.954-1.877-3.605-2.16-1.651-.266-3.178.106-4.101.867zm1.278 5.807c.888.602 2.273.796 3.693.407 1.42-.39 2.504-1.275 2.948-2.249-.888-.602-2.273-.797-3.694-.407-1.42.389-2.52 1.275-2.947 2.249zm2.255 3.965c.746.337 1.811.283 2.823-.212 1.012-.496 1.705-1.311 1.9-2.108-.746-.336-1.811-.283-2.823.213s-1.705 1.31-1.9 2.107zm1.899 1.489c.48.248 1.154.248 1.776-.053.621-.301 1.03-.833 1.118-1.364-.479-.248-1.154-.248-1.775.053s-1.03.833-1.119 1.364zm.213 1.668c.48.248 1.154.248 1.776-.053.621-.301 1.03-.833 1.118-1.364-.479-.248-1.154-.248-1.775.053-.622.301-1.03.815-1.119 1.364z" fill="#CFC3EE"/><path d="M103.494 125.742c-2.06 2.479-3.853 5.171-5.54 7.915a89.073 89.073 0 00-4.563 8.518 95.306 95.306 0 00-3.658 8.942 92.886 92.886 0 00-2.699 9.296c-1.491 6.286-2.237 12.732-2.343 19.195a92.603 92.603 0 001.882 19.284l1.367-.284a92.302 92.302 0 01-2.149-18.982c0-6.392.657-12.785 2.025-19.036a99.246 99.246 0 012.52-9.261 94.367 94.367 0 013.499-8.942 90.499 90.499 0 014.403-8.553c1.633-2.762 3.391-5.471 5.398-7.968l-.142-.124z" fill="#8475AA"/><path d="M110.542 115.133c.657 2.054.196 4.781-1.402 7.224-1.598 2.426-3.942 3.932-6.09 4.144-.657-2.054-.196-4.781 1.402-7.225 1.598-2.408 3.942-3.913 6.09-4.143zm-15.606 4.195c2.024.762 3.888 2.833 4.793 5.578.906 2.762.64 5.525-.514 7.331-2.007-.762-3.889-2.833-4.794-5.578-.924-2.762-.657-5.525.514-7.331zm-7.066 7.879c2.148.213 4.491 1.7 6.107 4.108 1.616 2.426 2.095 5.153 1.456 7.207-2.148-.212-4.492-1.7-6.108-4.108-1.616-2.426-2.095-5.153-1.456-7.207zM84.087 135c2.149.212 4.492 1.7 6.108 4.108 1.616 2.426 2.095 5.153 1.456 7.207-2.148-.212-4.492-1.7-6.108-4.108-1.633-2.408-2.095-5.153-1.456-7.207zm-4.634 8.305c2.13-.354 4.776.496 6.96 2.408 2.184 1.93 3.338 4.445 3.25 6.605-2.131.354-4.777-.496-6.96-2.408-2.185-1.93-3.339-4.462-3.25-6.605zm-2.042 8.923c1.758-.779 4.244-.655 6.57.513 2.326 1.169 3.888 3.099 4.297 4.976-1.758.779-4.244.655-6.57-.514-2.308-1.186-3.888-3.098-4.297-4.975zm-1.758 5.793c1.758-.779 4.244-.656 6.57.513 2.326 1.169 3.888 3.099 4.297 4.976-1.758.779-4.244.655-6.57-.531-2.308-1.169-3.888-3.081-4.297-4.958zm.587 7.296c1.509-.673 3.64-.567 5.628.443 1.988 1.009 3.338 2.656 3.693 4.267-1.51.673-3.64.567-5.629-.443-1.988-1.027-3.338-2.673-3.693-4.267zm.744 7.544c.87-1.062 2.504-1.788 4.368-1.806 1.882-.018 3.516.691 4.404 1.735-.87 1.063-2.504 1.789-4.368 1.807-1.882.017-3.516-.673-4.404-1.736zm1.439 5.895c.39-1.027 1.438-2.001 2.858-2.497 1.42-.496 2.841-.372 3.782.195-.39 1.027-1.438 2.001-2.858 2.497-1.42.495-2.841.389-3.782-.195z" fill="#8475AA"/><path d="M112.727 131.46c-1.296 1.718-3.782 2.957-6.694 3.081-2.912.124-5.504-.885-6.925-2.497 1.297-1.717 3.782-2.957 6.694-3.081 2.912-.124 5.504.886 6.925 2.497zm-3.658 6.57c-1.296 1.718-3.782 2.958-6.694 3.082-2.912.123-5.504-.886-6.942-2.497 1.296-1.718 3.781-2.957 6.693-3.081 2.93-.124 5.522.885 6.943 2.496zm-3.587 7.753c-1.296 1.718-3.782 2.957-6.694 3.081-2.912.124-5.504-.885-6.925-2.496 1.296-1.718 3.782-2.958 6.694-3.082 2.894-.141 5.487.886 6.925 2.497zm-5.078 6.201c-1.048 1.399-3.072 2.409-5.451 2.497-2.362.106-4.475-.726-5.646-2.036 1.047-1.399 3.071-2.408 5.45-2.497 2.38-.089 4.475.726 5.647 2.036zm-3.497 5.397c-.852 1.187-2.486 2.019-4.403 2.09-1.918.088-3.623-.62-4.564-1.718.853-1.186 2.486-2.018 4.404-2.089 1.917-.089 3.622.619 4.563 1.717zm-1.137 5.616c-.852 1.186-2.486 2.018-4.403 2.107-1.918.088-3.622-.62-4.563-1.718.852-1.186 2.486-2.018 4.385-2.089 1.936-.089 3.622.602 4.581 1.7zm-1.598 5.311c-.604 1.151-2.006 2.125-3.764 2.515-1.758.389-3.427.07-4.474-.709.603-1.151 2.006-2.125 3.764-2.514 1.758-.39 3.444-.071 4.474.708zm-1.065 6.322c-.923.708-2.397.974-3.941.619-1.545-.354-2.77-1.239-3.285-2.266.923-.708 2.397-.974 3.942-.62 1.544.337 2.752 1.24 3.284 2.267zm-2.237 4.393c-.799.39-1.935.39-3.054-.089-1.118-.478-1.9-1.328-2.148-2.16.799-.389 1.935-.389 3.054.089 1.119.478 1.9 1.31 2.148 2.16zm-1.954 1.7c-.514.301-1.225.319-1.9.035-.674-.301-1.153-.849-1.278-1.416.515-.301 1.225-.337 1.9-.036.675.284 1.136.833 1.278 1.417zm-.141 1.785c-.515.301-1.225.337-1.9.036-.675-.301-1.154-.85-1.278-1.417.515-.301 1.225-.336 1.9-.035.674.301 1.136.85 1.278 1.416z" fill="#8475AA"/><path d="M73.522 177.552c-3.053-4.444-6.25-8.8-9.676-12.979l.053-.053c3.516 4.108 6.818 8.393 9.96 12.784 3.144 4.409 6.09 8.943 8.754 13.653.64 1.151 1.26 2.302 1.865 3.47-.231.124-.48.266-.71.408a108.005 108.005 0 00-1.812-3.506c-2.539-4.746-5.397-9.315-8.434-13.777z" fill="#AF9BE2"/><path d="M60.472 158.906c1.118.106 2.29.85 3.018 2.072.728 1.222.853 2.603.409 3.63-1.119-.106-2.29-.85-3.019-2.072-.728-1.222-.834-2.585-.408-3.63zm8.363 2.602c.461.885.479 2.231-.036 3.559-.515 1.328-1.438 2.302-2.38 2.656-.46-.885-.479-2.231.036-3.559.533-1.328 1.439-2.302 2.38-2.656zm.284 9.795c-.764.656-2.06.974-3.48.78-1.42-.195-2.575-.868-3.125-1.7.763-.655 2.06-.974 3.48-.779 1.402.194 2.574.867 3.125 1.699zm3.373 4.336c-.764.656-2.06.974-3.48.78-1.42-.195-2.575-.868-3.125-1.7.763-.656 2.06-.974 3.48-.78 1.402.195 2.557.868 3.125 1.7zm2.291 3.454c-.764.655-2.06.973-3.48.779-1.42-.195-2.575-.868-3.125-1.7.763-.655 2.06-.974 3.48-.779 1.403.194 2.557.867 3.125 1.7zm2.539 3.808c-.764.655-2.06.974-3.48.779-1.42-.195-2.575-.867-3.125-1.7.763-.655 2.06-.974 3.48-.779 1.403.213 2.557.868 3.125 1.7zm-5.557-17.674c.462.885.48 2.231-.035 3.559-.515 1.328-1.439 2.302-2.38 2.656-.461-.886-.479-2.231.036-3.559.533-1.328 1.456-2.302 2.38-2.656z" fill="#AF9BE2"/><path d="M74.57 169.055c.462.885.48 2.231-.036 3.559-.515 1.328-1.438 2.302-2.379 2.656-.462-.885-.48-2.231.036-3.559.532-1.328 1.438-2.302 2.379-2.656zm2.68 3.859c.462.885.48 2.231-.035 3.559-.515 1.328-1.438 2.302-2.38 2.656-.46-.885-.479-2.231.036-3.559.515-1.328 1.439-2.302 2.38-2.656zm2.576 3.789c.461.885.48 2.231-.036 3.559-.515 1.328-1.438 2.302-2.379 2.656-.462-.885-.48-2.231.035-3.559.533-1.328 1.439-2.302 2.38-2.656z" fill="#AF9BE2"/><path d="M71.516 187.75h20.223c3.356 1.718 5.486 4.25 5.486 7.101 0 3.045-2.432 5.737-6.178 7.437H72.226c-3.764-1.7-6.179-4.392-6.179-7.437-.018-2.851 2.113-5.401 5.469-7.101z" fill="#405CE1"/><path d="M73.416 189.344c-1.989-.231-4.67 1.257-5.362 4.285-.942 5.949 5.024 7.685 8.291 6.18-2.84-.709-5.948-2.001-6.037-4.941-.16-1.54.764-3.01.764-3.045.124-.178.373-.62.852-1.151a9.708 9.708 0 011.492-1.328z" fill="#F8F0A1"/><path d="M70.562 188.262h22.336v-1.399H70.562v1.399z" fill="#6B9FC5"/><path d="M310.687 102.78V15.004h-86.381v87.776h86.381z" fill="#290096"/><path d="M309.031 16.648h-83.06v84.465h83.06V16.648z" fill="#F1ECFF"/><path d="M243.388 81.082h-3.658v13.83h3.658v-13.83zm6.641-2.496h-3.658v16.326h3.658V78.586zm6.623-2.496h-3.658v18.823h3.658V76.09zm6.64-2.5h-3.657v21.32h3.657V73.59zm6.622-2.512h-3.657v23.817h3.657V71.078zm6.641-2.496h-3.658v26.313h3.658V68.582zm6.623-2.5h-3.657v28.81h3.657v-28.81zm6.641-2.492h-3.658v31.307h3.658V63.59zm6.64-2.5h-3.657v33.803h3.657V61.09zm6.623-2.496h-3.657v36.318h3.657V58.594z" fill="#D7CEEE"/><path d="M304.041 44.41c-.32.053-9.091 1.612-9.41 1.612l3 .814-8.984 3.4c-.462 2.054-.799 3.488-1.065 4.64-1.421-.142-4.084-.373-6.392-.603l-8.452 7.579c-2.113-.266-4.741-.602-6.623-.832a11614.81 11614.81 0 01-12.269 10.412c-1.74-.585-4.208-1.417-5.717-1.93-.639.442-11.754 8.145-12.429 8.588l.622.885 11.967-8.287c1.775.602 4.101 1.381 5.788 1.948a5816.29 5816.29 0 0112.376-10.5c2.113.265 4.723.601 6.64.85.48-.426 8.168-7.332 8.47-7.597 1.189.106 5.113.478 6.871.637a932.301 932.301 0 001.154-5.029l8.523-3.895-.657 2.921 6.587-5.613z" fill="#ECB2CD"/><path d="M117.378 158.559h-4.67v35.769h4.67v-35.769z" fill="#56585E"/><path d="M118.106 194.646h-6.054v-9.775h6.054v9.775zm-28.409 6.462l22.354-11.881v5.418l-16.033 6.463v1.187h-6.32v-1.187zm50.746 0l-22.337-11.881v5.418l16.016 6.463v1.187h6.321v-1.187z" fill="#0A2126"/><path d="M113.045 189.227v13.068h-1.509v.92h6.57v-.92h-1.385l.426-13.068h-4.102z" fill="#0A2126"/><path d="M118.141 156.539h-6.019v7.366h6.019v-7.366z" fill="#303030"/><path d="M99.623 119.812l-7.422 4.091 5.984 27.075 2.912-.549-3.427-25.145 4.03-1.735-2.077-3.737zm27.645 0l7.812 6.11-1.296 25.675-3.16-.673 1.101-22.134-6.25-4.126 1.793-4.852z" fill="#282859"/><path d="M124.853 138.51h-22.212l-6.108-37.664c-1.1-6.764 4.137-12.909 11.009-12.909h12.393c6.871 0 12.109 6.145 11.008 12.909l-6.09 37.664zm11.63 15.141H94.918a4.117 4.117 0 014.12-4.108h33.326a4.116 4.116 0 014.119 4.108z" fill="#56548C"/><path d="M126.77 92.346l2.078-1.399s-5.451-8.925-4.883-16.627c.302-4.055-6.374-10.04-8.15-9.12-.106-.035-5.93.124-6.445 13.387l-1.243 15.53 6.285 5.56s3.96-6.782 9.002-3.807c5.043 2.974 3.143 1.7 3.143 1.7s.213-3.808.213-5.224z" fill="#002B32"/><path d="M104.062 92.7s-.054 14.785 1.456 17.92c1.509 3.134.834 21.815.834 21.815l17.33.514s2.219-17.424 2.219-22.188c0-4.763 1.74-18.114 1.74-18.114s-11.79-3.01-23.579.053z" fill="#746C87"/><path d="M120.965 82.166c.266.265-.799 7.366.231 9.438 0 0-2.77 15.299-4.634 15.529-1.616.195-2.486-12.82-2.824-14.307-.443-2.001.515-11.97.515-11.97l6.712 1.31z" fill="#FFC8AF"/><path d="M120.857 85.282c-2.485 2.231-4.953 1.187-6.836-1.629.036-1.416.231-2.709.249-2.797l6.694 1.31c.106.106 0 1.434-.107 3.116z" fill="#FFBC9D"/><path d="M119.97 65.732s3.054.584 3.409 3.187c.355 2.603.87 4.781.355 7.827-.514 3.046-2.325 7.1-5.308 7.756-2.983.655-6.108-4.268-6.108-6.96 0-2.673-1.083-7.17.941-9.933 2.077-2.745 6.711-1.877 6.711-1.877z" fill="#FFC8AF"/><path d="M108.518 131.409l-3.267 1.523s-3.694 4.091-4.51 11.297c-.817 7.225 9.002 10.749 9.002 10.749l19.389-1.364s7.173-19.584-4.741-21.939c-11.417-2.231-15.873-.266-15.873-.266z" fill="#001542"/><path d="M119.438 142.211s.106 3.417.284 3.488c1.633.638 8.753-.159 9.534 3.896.87 4.533-13.565 37.593-12.606 42.498.959 4.905 2.255 9.137 3.036 9.916.781.779.799 1.452.124 2.125-.674.673-3.586-.106-4.403-.921-.817-.814-1.793-7.136-3.267-8.606-1.474-1.469-2.042-2.39-.337-5.861 1.704-3.471 6.143-30.368 6.694-33.148.55-2.798-.338-4.02-.338-4.02l-6.765-4.285 8.044-5.082z" fill="#FFC8AF"/><path d="M124.906 139.216s-2.521-1.699-7.581 0c-5.061 1.7-8.47 5.915-9.02 7.898-.55 1.965-2.805 40.302-5.806 46.571-3 6.268-3.178 6.622-4.51 7.95-1.314 1.311-.71 4.569 0 5.277.728.708 6.286-.744 6.925-2.922.639-2.178 2.006-7.26 2.557-8.8.55-1.541 4.403-16.132 8.061-23.038 3.675-6.906 4.864-22.152 4.864-23.427 0-1.275 6.446-1.753 6.446-1.753s1.385-7.012-1.936-7.756z" fill="#FFC8AF"/><path d="M127.64 92.648s2.362 1.364 2.681 3.1c1.332 6.958 2.504 24.577 1.953 29.039-.674 5.578-2.858 5.578-2.858 5.578l-26.083-3.116 1.101-6.942s17.755 1.098 19.531 1.098c1.775 0 1.9-13.44 1.9-13.44l1.775-15.317z" fill="#4D475B"/><path d="M104.061 92.7s-6.197-.054-7.564 7.844c-1.367 7.897-.55 29.801 2.326 29.801 2.859 0 18.715-9.172 20.899-9.172a1.48 1.48 0 01-1.137-1.187l-.746-4.214s-12.322.142-14.506 2.32c0 0 2.326-8.571 2.326-11.705 0-3.116 2.237-13.688-1.598-13.688z" fill="#998DB6"/><path d="M125.173 118.323s-6.907-2.302-7.102-1.222c-.498 2.868 1.118 4.179 1.118 4.179s4.688.708 5.433-.053c.746-.744.551-2.904.551-2.904z" fill="#FFC8AF"/><path d="M184.013 118.803l-.355 11.102s5.274.992 6.73.443c.798-.301.958-5.843.71-12.236-2.77-.23-4.475-.248-7.085.691z" fill="#FFBC9D"/><path d="M191.098 118.11c-.213-5.135-.675-10.819-1.278-14.821-1.367-8.995-6.818-13.652-6.818-13.652l-.16 27.659.124 1.841c2.61-.938 5.362-1.257 8.132-1.027z" fill="#fff"/><path d="M163.346 90.17c0 3.63.621 21.745 1.722 27.536 1.101 5.79-7.617 15.866-7.617 20.735 0 4.887 6.374 11.97 6.374 11.97h21.307s6.552-11.899 4.19-17.477c-2.361-5.578-5.646-1.399-4.013-9.402 1.634-7.986 1.794-18.93.888-26.562-.905-7.632-5.042-9.951-12.145-9.951-7.119.035-10.706-.478-10.706 3.152z" fill="#FBD15B"/><path d="M182.842 135.072s-10.031-3.063-14.843 1.718c-4.794 4.781-4.19 13.617-4.19 13.617h21.306c0 .017 6.925-9.704-2.273-15.335z" fill="#D29F10"/><path d="M178.422 141.465c-1.492-3.63-3.143-4.32-4.51-4.32-2.486 0-6.41 1.363-8.097 5.666-1.793 4.551-8.7 32.351-9.907 37.487-.87 3.665-2.557 6.197-4.35 8.287-3.782 5.684-2.682 9.332-.125 12.041 0 .336 2.752 1.044 5.824-7.473.693-1.895.994-3.063 1.829-7.189.799-4.126 20.827-40.869 19.336-44.499z" fill="#FFBC9D"/><path d="M156.901 194.093c-1.012.637-3.427 2.089-4.403 2.089-.941 0-2.237-2.762-2.788-4.073-1.385 3.861-.284 6.729 1.722 8.836.373.443 2.54.691 5.469-6.852z" fill="#292959"/><path d="M188.559 143.609c.089-3.966-2.379-4.816-4.314-5.153-2.451-.443-5.647 2.355-8.292 6.481-2.646 4.126-8.7 32.352-9.908 37.487-.852 3.665-2.556 6.197-4.35 8.287-3.782 5.684-2.681 9.402-.124 12.112 0 .336 2.752.991 5.824-7.526.692-1.895.994-3.063 1.829-7.189.816-4.126 19.264-40.568 19.335-44.499z" fill="#FFC8AF"/><path d="M166.56 197.421c-1.208.407-2.45.673-3.445.514-1.953-.319-2.308-3.56-2.308-5.755-2.681 4.905-1.562 8.428.781 10.907.409.248 2.255.656 4.972-5.666z" fill="#292959"/><path d="M176.645 119.385l4.83 8.889c.035.071.018.16-.053.195-.071.036-.16.018-.196-.053l-5.113-8.73c-.089-.141-.036-.336.106-.425a.303.303 0 01.426.124c0-.017 0-.017 0 0z" fill="#99CEDC"/><path d="M179.114 122.273c-1.048-1.045-2.646.372-4.102.832-1.456.461-15.109.354-17.027-.088-.71-.16-.373-2.338.337-5.277a16.304 16.304 0 00-6.889-.673c-.746 7.154-.994 13.493 0 14.13 2.184 1.435 20.366-4.462 22.194-4.462 1.829 0 .924.85 3.658.85 1.616 0 2.734-.301 3.374-.549a.737.737 0 00.426-.974c-.391-1.044-1.225-3.028-1.971-3.789z" fill="#FFC8AF"/><path d="M158.073 118.8c.071-.336.159-.708.248-1.08a16.32 16.32 0 00-6.889-.673c-.089.904-.177 1.789-.248 2.639 1.349-.248 4.705-.85 6.889-.886z" fill="#FFBC9D"/><path d="M158.322 117.739c2.272-4.94 5.948-13.21 6.25-16.521.461-5.259-.693-13.28-.693-13.28s-6.214 3.842-8.221 8.287c-1.1 2.425-4.492 12.855-5.397 21.514 2.272-.265 5.841-.744 8.061 0z" fill="#fff"/><path d="M172.188 129.619h13.104s-9.002-2.904-13.104 0z" fill="#CEF2FA"/><path d="M197.845 129.619h-12.571s4.848-1.01 8.115-1.01c3.267 0 4.456 1.01 4.456 1.01z" fill="#5DB9F4"/><path d="M195.627 125.583s-6.108-.177-10.334 4.037c0 0 2.006-1.434 5.291-2.266 3.285-.85 5.522-.797 5.522-.797l-.479-.974z" fill="#5DB9F4"/><path d="M171.318 129.617h13.974l-13.21-.301-.764.301z" fill="#00485C"/><path d="M196.23 115.08c-.976-6.339-.177-13.741-.177-13.741s1.704-1.47 3.977-.867c2.272.602 3.48.974 3.249.336-.213-.637-3.178-1.664-3.178-1.664s2.841-.036 4.297.708c1.456.744 1.793-.69-2.255-1.417-4.049-.708-2.717-1.097-2.042-1.328.675-.23 4.723.815 5.788.053.994-.708-5.469-1.416-7.368-1.186 8.274-2.337 5.699-3.364-2.149-.673-2.255.761-4.261 4.126-4.314 4.197-.196.265-2.415 10.5-2.539 18.309 2.13-.991 4.74-1.487 6.711-2.727z" fill="#FFBC9D"/><path d="M190.743 102.207c-.603.602-7.617 26.738-3.622 27.783 3.995 1.045 8.878-3.949 8.878-3.949l.959-21.567-6.215-2.267z" fill="#333A6A"/><path d="M246.264 100.936c.817-1.86 4.261-2.337 5.362-2.692 1.101-.354 2.113-2.55 2.859-2.78.728-.23.515 2.231-.604 2.869-1.118.637.32 1.611 1.172 1.611.87 0 4.013-.23 4.723-1.859.728-1.629 2.06-2.585 2.237-2.019.178.567-1.669 3.028-1.669 3.028s2.983-2.709 3.196-2.036c.213.673-2.503 2.62-2.503 2.62s1.829-.831 2.361-.53c.533.318-4.35 3.329-5.326 3.63-.959.301-4.777.106-6.659-.089-.781-.089-1.189 3.789-2.539 8.854-.692-1.24-4.048-2.302-5.007-3.329 1.616-3.436 2.06-6.534 2.397-7.278z" fill="#FFC8AF"/><path d="M243.956 104.652l-6.161 25.853s5.788.85 8.221 0c2.432-.85 5.468-17.991 5.468-25.481l-7.528-.372z" fill="#333A6A"/><path d="M291.754 152.358l-12.873 2.479-8.167-3.24 8.167-8.429 12.873 9.19z" fill="#47405C"/><path d="M297.897 94.86s-2.095 1.257-4.598 7.348c-2.504 6.091-2.504 18.699-4.954 19.85-2.148 1.009-19.371 3.116-23.633 3.612a1.98 1.98 0 00-1.455.921l-2.22 3.542 11.559.371s13.139 6.534 16.495 4.303c3.355-2.231 13.103-20.664 14.364-26.1 1.26-5.437-5.558-13.848-5.558-13.848z" fill="#28288A"/><path d="M272.579 120.287c-.551 0-6.002-1.275-6.002-1.275l-1.278 5.631 5.646 2.355 1.634-6.711z" fill="#fff"/><path d="M261.658 196.164s-1.917 5.808-7.297 7.26c-2.024.549-11.257 5.082-9.535 5.082.657 0 19.798.071 19.798.071s1.42-2.514.887-4.781c-.55-2.267 2.095-7.632 2.095-7.632h-5.948z" fill="#292959"/><path d="M48.984 62.492s1.616 9.615 6.659 16.078c3.782 4.835 11.683 10.218 11.683 10.218l-4.475 4.887-12.34-10.146-1.527-21.037z" fill="#FFCF52"/><path d="M42.219 53.496h-9.89l.32 32.458 13.139.885-3.57-33.343z" fill="#260E0D"/><path d="M53.317 209.002c5.575 0 5.433 2.284 5.433 2.284H42.433s.816-7.03.94-8.677h3.836c.426 2.019 1.829 6.393 6.108 6.393zm-27.273.83c5.078 0 6.108-6.127 6.25-7.242h3.658v.531c0 .761.958 8.995.958 8.995H20.593s-.124-2.284 5.45-2.284z" fill="#292959"/><path d="M27.5 165.654l-5.202-43.915 1.474-12.997h28.675l.213 11.457 3 44.64s-7.475 37.168-7.35 37.77h-5.434c.018-.141 1.527-40.744 1.527-40.744l-6.178-36.195-2.415 37.965s1.1 34.229 1.118 38.957h-5.095c.017-.107-4.333-36.938-4.333-36.938z" fill="#2F1954"/><path d="M23.576 110.442l.195-1.7h28.676l.035 1.505-6.019 2.037a25.372 25.372 0 01-15.092.389l-7.795-2.231z" fill="#0E0E0E"/><path d="M21.782 62.137c3.125-3.489 10.334-9.066 18.289-7.72l8.31 3.682 2.45 17.885 2.166 34.069-29.634.337-2.806-33.166s-1.9-11.599 1.226-15.087z" fill="#405CE1"/><path d="M41.065 46.377s.089 6.994.764 10.554c.266 1.38-.373 2.78-1.545 3.293-.87.372-2.006.602-3.445.319-3.728-.708-3.853-4.887-3.853-4.887l1.261-12.75 6.818 3.47z" fill="#FFC8AF"/><path d="M34.248 42.922l6.835 3.47s.036 2.586.213 5.401c-1.775.089-4.03-.92-6.392-3.966-.355-.46-.674-.903-.994-1.346l.338-3.56z" fill="#FFBC9D"/><path d="M40.621 28.474s2.344 1.983 3.356 5.312a115.57 115.57 0 001.9 5.737l-1.083.708s.852 4.64.195 6.233c-1.012 2.409-5.273 4.357-10.12-1.062-4.83-5.436-5.239-10.2-4.422-12.537.835-2.337 8.292-5.595 10.174-4.391z" fill="#FFC8AF"/><path d="M33.36 33.644s2.148-1.983 5.237-1.133c3.09.85 4.137-.46 3.533-1.133 0 0 2.717.07 3.73-2.409 1.011-2.479.763-9.987-4.05-8.57-4.81 1.417-3.834 4.816-3.834 4.816s-1.545-1.629-3.001-.779-1.26 2.054-1.26 2.054-1.332 2.763-3.161 3.117c-1.829.354-1.651 4.462-1.651 4.462s-1.083.85-.32 3.825c.764 2.975 5.22 7.596 5.22 9.013 0 0 1.101-1.86.213-4.763-.887-2.904-.887-4.604.071-4.604.977 0-.728-3.896-.728-3.896z" fill="#121841"/><path d="M34.726 39.471s-.302-2.444-.994-2.444c-.693 0-1.332.266-1.154 1.647.16 1.381.87 2.922 1.775 2.284.888-.637.373-1.487.373-1.487z" fill="#FFC8AF"/><path d="M26.595 33.838a.976.976 0 01.426-.53c.639-.302 1.509.353 2.06.814l.088-.124c-.39-.443-.781-.886-1.35-1.169-.834-.39-1.58 0-1.881.761l.657.248z" fill="#121841"/><path d="M26.54 36.994a3.473 3.473 0 01.018-1.134c.409-1.841 2.415-1.682 2.504-1.735v-.106c-.053.017-2.894-.602-3.303 2.373a3.815 3.815 0 00-.035.796l.817-.194z" fill="#121841"/><path d="M43.213 54.734l2.202 66.138h13.742L55.11 90.84l-2.663-18.257s-1.296-12.288-4.084-14.466c-2.788-2.214-5.15-3.383-5.15-3.383zm-11.026-.351l1.456 66.491H18.906s-.55-52.697 1.083-58.204c1.616-5.525 12.198-8.287 12.198-8.287z" fill="#F9C53F"/><path d="M48.558 57.197l-6.338-3.7 2.06 32.882 3.462-18.646-1.225-.85 2.041-9.686zM32.88 86.06l-.55-32.564-5.646 2.568 3.071 10.801-.763.602L32.88 86.06z" fill="#FFCF52"/><path d="M58.75 95.728l20.418-15.565-21.626-1.983-16.335 17.548h17.542z" fill="#1E3340"/><path d="M47.385 89.121s-2.219.514-3.036 1.399c-1.047 1.133-3.533 2.993-4.58 2.993-1.048 0-5.487.442-5.487.442l-.746 4.976s16.584-3.86 17.365-4.728c.781-.85-3.889.638-3.889.248 0-.372 5.629-.814 5.327-1.77-.284-.957-5.184 1.292-5.628.814-.426-.478 5.912-1.257 5.912-2.284 0-1.01-6.32 1.47-6.32 1.47s-.125-.514 1.597-1.329c1.705-.814 3.374-1.487 2.983-1.895-.373-.407-4.758 2.214-5.326 1.577l1.828-1.913z" fill="#FFC8AF"/><path d="M24.038 61.376s2.414 4.498 1.935 10.96c-.48 6.464-1.296 16.38.053 19.62 1.35 3.241 11.24 0 11.24 0v7.65s-14.33 5.932-18.484 3.984c-4.173-1.948-3.764-18.646-3.764-26.844 0-8.181 6.374-21.25 9.02-15.37z" fill="#FFCF52"/><path d="M64.768 88.926s.284.354.746 1.452c.444 1.062-.799 2.16-1.03 2.39-.462.443-1.296 1.027-1.81 1.328-.516.301-.853.46-1.35.567-.728.16-2.362-2.48-2.131-2.745.16-.177.337-.3.497-.248.178.053 1.989 1.505 1.989 1.505s-1.634-2.089-1.456-2.709c.177-.62.532-.549.675-.39.142.16 2.219 2.108 2.219 2.108s-1.403-2.48-1.278-2.886c.124-.408.692-.691 1.331.318.355.567 1.314 1.47 1.314 1.47s-.781-1.877-.603-2.479c.195-.584.887.319.887.319z" fill="#FFC8AF"/><path d="M220.697 203.691s.053.248.177.638c.391 1.169 1.456 3.577 3.924 4.179 3.285.797 5.877-.071 6.463.531.586.584.817 2.426.817 2.426l-19.726.921 1.171-8.039 7.174-.656z" fill="#292959"/><path d="M204.664 155.296l7.564 50.962 10.138-1.612-1.651-49.705-16.051.355z" fill="#EC827D"/><path d="M211.215 201.902s-2.503 2.125-2.503 4.356l-8.665 6.375h-3.054s6.392-7.968 7.67-9.969c1.279-2.001 1.332-3.949 1.332-3.949l5.22 3.187z" fill="#4C3D65"/><path d="M238.612 154.145c-2.805-8.446-10.546-4.533-10.546-4.533-4.83.903-12.003 17.513-13.015 22.701-.728 3.736-7.848 20.736-11.754 29.926 2.716-1.47 6.303-.62 7.866 1.93 8.291-13.67 28.373-47.244 27.449-50.024z" fill="#EC827D"/><path d="M205.534 203.23s2.361.69 3.125 2.248c.763 1.559-3.125 4.604-3.125 5.986 0 1.381 1.029 2.549 0 3.063-1.03.513-9.428.602-8.967-1.08.462-1.682 3.764-3.559 5.114-5.667 1.349-2.089 2.539-5.117 3.853-4.55z" fill="#292959"/><path d="M229.219 152.354s12.696-3.647 8.576 4.994c-.799 1.664-37.393 4.179-37.393 1.133 0-3.063 2.326-6.109 2.326-6.109h26.491v-.018z" fill="#EC827D"/><path d="M201.219 97.656s4.315-1.753 9.535-2.196c2.858-.248 5.717.673 8.948.673 9.109 0 17.88 2.408 18.839 6.818.959 4.426-11.026 47.473-8.292 50.2 2.734 2.727-24.112 4.445-27.485 1.08-3.356-3.364-11.364-52.768-1.545-56.575z" fill="#000945"/><path d="M213.488 87.244l-2.717 9.154s7.12 2.798 11.897 0l-1.51-10.164-7.67 1.01z" fill="#FFC8AF"/><path d="M201.219 97.656s-7.653 10.253-9.286 15.14c-1.634 4.905-6.108 13.228-5.735 15.388.373 2.16 3.036 4.303 7.493 3.24 4.456-1.062 4.137-5.365 4.137-5.365l3.391-28.403zm37.091 4.551s9.606 26.402 7.706 28.297c-1.9 1.894-8.221 0-8.221 0l-6.942-13.494 7.457-14.803z" fill="#000945"/><path d="M296.158 64.76s-3.569 4.675-4.119 7.862c-.551 3.276-1.226 8.5-1.226 8.5h1.456s1.208 2.903 1.208 4.834c0 1.93 3.071.726 4.847.726 1.776 0 5.735-1.523 7.28-7.083 1.545-5.578 4.385-15.477-9.446-14.84z" fill="#FFC8AF"/><path d="M300.366 91.215l-2.184 1.611-.763 2.94 3.107-1.417-.16-3.134z" fill="#28288A"/><path d="M304.006 79.508l5.416 12.413s-10.387 3.417-9.855 2.904c.533-.532-.674-9.669-.674-9.669l5.113-5.648z" fill="#FFC8AF"/><path d="M291.31 61.375c-.16.283-2.965 5.967 1.864 8.145 4.848 2.178 6.037-.956 7.333.974 1.296 1.93-1.118 5.065-.071 6.835l1.616.302s.32-.957.977-.957c.656 0 .834 4.887 1.864 4.887 1.047 0 3.054-4.16 4.03-6.09.977-1.931 2.983-8.465-.728-10.147-3.71-1.7-5.326-.407-5.326-2.019 0-1.611-1.616.089-1.616.089s-.888-1.204-.32-2.586c.569-1.363-3.959-1.859-5.007.886-1.047 2.744-2.823-3.294-4.616-.319z" fill="#2D1175"/><path d="M311.712 172.312h-4.67v34.459h4.67v-34.459z" fill="#56585E"/><path d="M312.439 207.055h-6.054v-9.403h6.054v9.403zm-28.39 6.232l22.336-11.439v5.206l-16.015 6.233v1.133h-6.321v-1.133z" fill="#0A2126"/><path d="M334.794 213.287l-22.355-11.439v5.206l16.034 6.233v1.133h6.321v-1.133zm-27.414-11.439v12.572h-1.491v.885h6.551v-.885h-1.385l.444-12.572h-4.119z" fill="#0A2126"/><path d="M312.368 165.02h-5.983v12.041h5.983V165.02z" fill="#303030"/><path d="M245.252 174.281s-4.35 4.356-5.806 5.808c-1.456 1.452-9.588 2.196-7.972 3.807 1.616 1.612 5.788 3.701 7.688 3.701 1.9 0 9.18-1.629 9.18-1.629s.834-7.278 1.829-8.269l-4.919-3.418z" fill="#292959"/><path d="M270.945 136.863c-6.196 0-27.858 35.415-27.858 35.415l2.166 2.001 5.824 4.321c.994-.992 23.65-28.987 23.65-28.987s8.789 3.577 15.536 3.577c6.73 0 14.808-13.883 14.808-13.883-.781-.779-27.947-2.444-34.126-2.444z" fill="#28288A"/><path d="M315.795 136.541c.018-.124.018-.248.036-.371.461-5.26 1.882-47.014-5.487-47.014 0 0-8.505 1.523-13.92 8.394-.906 1.15-1.083 2.195-1.474 3.771-2.699 10.536-4.474 30.05-4.226 37.452 8.292 3.293 17.614 3.081 25.071-2.232z" fill="#fff"/><path d="M307.504 85.563c-.728 0-8.168 7.153-8.168 7.153l-.639 4.108 11.648-5.418-2.841-5.844z" fill="#fff"/><path d="M299.247 93.215l-1.811.744-1.9 3.93 1.083-.336 2.202-1.647.426-2.691zm-2.627 4.34s-4.404 22.293-5.433 41.895l-2.841 2.533s.355-3.081.355-7.526 4.616-33.361 6.836-36.566l1.083-.336z" fill="#EC827D"/><path d="M310.326 89.14s-2.219.408-5.131 1.7c-.817 3.294-5.38 10.873-7.404 18.983-1.509 6.056-5.06 13.953-5.646 18.982-.497 4.339-1.314 8.04-1.616 10.589-.692 6.127-3.498 16.557-3.498 16.557l26.491-3.612s1.829-10.926 2.273-16.185c.48-5.241 1.918-47.013-5.469-47.013z" fill="#28288A"/><path d="M306.917 146.85l-5.149-.584c-1.988-.23-3.427-2.019-3.196-4.002l1.137-9.952 12.375 1.399-1.136 9.952a3.63 3.63 0 01-4.031 3.187z" fill="#3C3C6D"/><path d="M306.599 88.043l-7.067 5.985-7.102 34.229s8.132-14.202 7.919-15.672c-.213-1.469-1.474-2.762-1.474-2.762s7.724-19.248 7.724-21.78z" fill="#28288A"/><path d="M308.977 86.379l-2.379 1.664-.888 3.506 5.628-2.107-2.361-3.063z" fill="#28288A"/><path d="M311.782 165.404h-5.717a2.77 2.77 0 01-2.77-2.762v-5.49h11.257v5.49a2.759 2.759 0 01-2.77 2.762z" fill="#303030"/><path d="M318.37 131.356s-25.977-.177-26.793 1.629c-.817 1.807.408 22.985.408 22.985l3.089-.549s-1.278-17.956.64-19.868c1.917-1.912 22.94.992 23.206.708.266-.265-.55-4.905-.55-4.905z" fill="#282859"/><path d="M291.24 132.432c-1.385 1.452.266 17.176.514 19.142.196-8.889-.071-16.326.373-18.292 1.438-.885 12.287-1.257 21.076-1.93-3.001-.177-19.904-.779-21.963 1.08zm.87.832c0-.017 0-.017 0 0 .017-.017.017-.017 0 0z" fill="#282859"/><path d="M330.391 157.314h-46.236a4.958 4.958 0 014.972-4.959h41.264v4.959zm-4.368-58.099s-10.919 5.224-10.919 22.577 6.374 30.545 6.374 30.545h8.913s-11.47-24.454-6.197-34.901c5.274-10.412 14.205-16.22 1.829-18.221z" fill="#56548C"/><path d="M324.194 117.473c5.042-9.969 13.405-15.707 3.373-17.938 7.422 2.497-.248 8.146-4.989 17.495-5.273 10.43 6.197 34.901 6.197 34.901v4.959h-44.602c-.018.141-.018.301-.018.442h46.236v-4.958c0-.018-11.471-24.472-6.197-34.901z" fill="#084F60"/><path d="M307.841 92.49c-3.303.779-7.244 3.187-9.41 9.721-2.167 6.534-4.368 15.636-7.28 16.964-2.912 1.328-21.857-.177-21.857-.177l-.48 8.482s20.668 6.056 26.208 5.453c5.539-.602 15.269-20.239 18.234-27.322 5.718-13.67-1.935-13.936-5.415-13.121zm-29.385 66.881c-2.504 12.005-10.299 40.054-10.299 40.054l-9.499-2.745s5.931-44.959 10.742-49.74c4.794-4.781 11.559.443 9.056 12.431z" fill="#28288A"/><path d="M264.855 126.557s2.628-.407 3.977.956c1.349 1.346 1.9 2.922 1.9 2.922l-9.695-.283c-.017-.018 1.492-3.701 3.818-3.595z" fill="#313B3D"/><path d="M261.02 130.134s1.509-3.701 3.817-3.595c0 0 2.628-.407 3.978.957.23.23.443.478.639.726a10.54 10.54 0 00-.87-1.24c-1.35-1.629-3.072-1.222-3.978-1.151-2.308.213-3.817 4.338-3.817 4.338l.231-.035z" fill="#405CE1"/><path d="M264.73 126.557s-1.313-.124-1.793.336c-.479.461-.781.797-.941.956-.16.142-.018 2.037 2.166 2.515 2.184.478 1.794-.549 2.433-.301.621.265 1.349.673 1.651.354.32-.301.728.443 1.19 0 .461-.443-.799-3.24-1.51-3.931-.71-.691-1.242-.443-1.811-.443-.586 0-1.385.514-1.385.514z" fill="#FFC8AF"/><path d="M271.779 134.773h-2.556V209.8h2.556v-75.027zm-201.099-.461h-2.556v75.027h2.557v-75.027zm23.793-1.874h-2.557v75.026h2.557v-75.026z" fill="#3C3C6D"/><path d="M280.693 129.621H60.863v5.206h219.83v-5.206z" fill="#878CF0"/><path d="M226.148 160.041h-28.853l-7.937-43.064c-1.42-7.738 5.38-14.75 14.311-14.75h16.087c8.931 0 9.605 10.394 9.161 18.734l-1.207 17.035-1.562 22.045z" fill="#46467C"/><path d="M192.36 120.658c-1.421-7.738 5.38-14.75 14.31-14.75h16.087c1.882 0 3.391.46 4.599 1.257-1.35-2.957-3.676-4.958-7.582-4.958h-16.086c-8.931 0-15.732 7.012-14.311 14.75l7.919 43.083h2.308l-7.244-39.382z" fill="#56548C"/><path d="M218.175 167.125h-4.67v45.119h4.67v-45.119z" fill="#666E9E"/><path d="M218.902 212.58h-6.054v-10.713h6.054v10.713z" fill="#371C45"/><path d="M190.512 219.681l22.336-13.033v5.932l-16.015 7.101v1.31h-6.321v-1.31zm50.744 0l-22.354-13.033v5.932l16.034 7.101v1.31h6.32v-1.31zm-27.414-13.033v14.343h-1.491v1.01h6.551v-1.01h-1.385l.444-14.343h-4.119z" fill="#371C45"/><path d="M218.849 163.141h-6.019v4.586h6.019v-4.586z" fill="#303030"/><path d="M241.915 163.14h-52.06c0-3.205 2.611-5.808 5.824-5.808h40.394a5.801 5.801 0 015.842 5.808z" fill="#3C3C6D"/><path d="M210.399 93.371s8.38 3.33 12.251.248l1.172 2.692s-1.332 2.32-6.712 2.726c-5.38.408-8.007-3.4-8.007-3.4l1.296-2.266z" fill="#333A6A"/><path d="M211.535 80.36s-1.918-1.452-1.918-.39c0 1.08-.213 4.87 1.581 3.808 1.793-1.045.337-3.418.337-3.418z" fill="#FFC8AF"/><path d="M213.737 69.75s-3.64-1.186-4.635 2.497c-.994 3.683 1.652 7.472 1.652 9.314 0 1.842.994 3.949 2.716 5.684 1.74 1.736 5.789 3.542 5.789 3.542s4.509-2.78 6.054-5.844c1.545-3.063.622-5.117 1.225-9.703.622-4.605-2.539-6.127-3.888-6.127-1.332-.018-5.948-5.011-8.913.637z" fill="#170053"/><path d="M243.087 141.979l-15.323-4.604-.285 3.984 10.316 2.302-2.521 13.847 2.93.213 4.883-15.742z" fill="#282859"/><path d="M179.397 88.325c0-1.115-.887-1.47-1.97-1.717-3.729-.833-8.541-.974-8.186.318.462 1.683 4.031 4.002 6.481 4.002 2.432 0 3.587-1.983 3.587-1.983l.088-.62z" fill="#4B2847"/><path d="M176.646 83.083l.781 8.96s-3.267 1.611-7.333-.283l1.633-14.698 4.919 6.021z" fill="#FFC8AF"/><path d="M176.646 83.084l.337 3.86a2.823 2.823 0 01-1.136-.318c-3.125-1.682-3.587-6.304-3.64-8.942l4.439 5.4z" fill="#FFBC9D"/><path d="M182.274 67.646s1.438 1.115 1.757 3.152c.32 2.036-1.029 4.303-1.029 6.02 0 1.718-3.179 9.863-7.156 7.933-3.959-1.93-3.64-8.127-3.64-9.509 0-1.38 1.936-6.197 4.279-7.313 2.362-1.133 5.789-.283 5.789-.283z" fill="#FFC8AF"/><path opacity=".53" d="M182.274 67.64s1.438 1.116 1.758 3.153c.319 2.036.657 5.702-1.03 6.02-.977.177-4.368-5.418-3.409-9.473 1.473 0 2.681.3 2.681.3z" fill="#FFBC9D"/><path d="M169.241 86.926l-.994 4.391a5056.67 5056.67 0 018.487 13.334c.959 1.523 2.042-8.748 2.663-16.326-4.243 1.345-6.622 2.018-10.156-1.4z" fill="#fff"/><path d="M301.644 74.921s-.071 3.188.693 3.188c.763 0 2.45-1.807 2.166-3.72-.284-1.93-2.504-1.699-2.859.532z" fill="#FFC8AF"/><path d="M302.176 74.564s-.39 1.258.196 1.842c.568.567 1.686-.797 1.083-1.842-.622-1.026-1.154-.725-1.279 0z" fill="#FFBC9D"/><path d="M289.18 67.184c-.035.265.231.726.391.938.852 1.098 2.503 1.257 3.604 1.399-.142 0-1.616.301-2.858-.053-1.332-.354-2.131-1.222-2.362-2.107l1.225-.177z" fill="#2D1175"/><path d="M100.297 204.45c-.675 0-1.154-2.497-1.367-3.86-.266.354-.55.655-.923 1.009-1.314 1.311-.71 4.569 0 5.277.728.708 6.285-.744 6.924-2.922.089-.318.196-.673.32-1.098-1.438.567-4.279 1.594-4.954 1.594zm11.754-16.43s-2.024 3.346-2.024 4.904c0 1.576 1.012 10.412 1.012 10.412l1.35.054s-.994-6.056-.142-6.269c.852-.23 2.237 8.039 2.237 8.039l6.96.478s.124-2.302-2.024-3.931c-2.131-1.629-2.237-1.097-3.267-4.586-.994-3.488-4.102-9.101-4.102-9.101z" fill="#292959"/><path d="M110.542 148.604s-.159 2.337.533 3.028c.692.69 4.066.248 4.066-1.523 0-1.753-3.551-2.55-4.599-1.505zm69.939-5.154c-2.735 1.045.621 4.09 2.77 3.736 2.148-.372.603-5.047-2.77-3.736zm-7.884-1.187s-1.19-1.151-3.64-.815c-2.468.337 1.758 4.498 3.693 4.038 1.936-.461-.053-3.223-.053-3.223zm-18.945-14.784c.995-.107 2.149-.089 2.149.566 0 1.151-3.605 2.001-3.605 1.08.018-.07.036-1.505 1.456-1.646zm-46.572-10.765s-.373-3.435-.781-3.895c-.426-.461-4.137-5.047-4.599-4.551-.462.496 2.752 4.126 2.752 4.126s-3.799-3.542-3.995-2.745c-.213.815 3.48 4.197 3.48 4.197s-3.888-2.94-3.888-2.302c0 0 3.64 3.789 3.764 3.931.124.141.462 2.036.462 2.036l2.805-.797z" fill="#FFC8AF"/><path d="M104.204 108.707s1.793.85 1.793 1.523c0 .673.533 3.842.533 3.842l-1.545-.655.302-2.851c.017.018-1.705-1.859-1.083-1.859z" fill="#FFC8AF"/><path d="M117.289 63.535c-2.22.248-5.753-.283-7.387 3.329-.976 2.054-2.947 6.02-2.947 13.068 0 10.5-10.156 15.14-10.156 15.14l4.456 2.142 2.664-2.142-1.811 3.86 7.297.726.32-5.029 1.509 5.72 3.374-.709s-1.35-17.176-1.492-23.657c.018.036.036.036.036.036s-.036-.833-.036-1.913a8.787 8.787 0 000-.974c.018-1.027.071-2.125.213-2.85.32-1.771.977-2.674 2.575-3.436 1.598-.761 7.315 1.399 7.315 1.399-.178-3.276-3.711-4.976-5.93-4.71z" fill="#1B2B80"/><path d="M120.255 64.122c2.805.62 3.64 4.905 5.93 7.19 2.29 2.284 1.705 5.577.621 7.755-1.083 2.178-2.84.762-2.84.762s.905.513 1.491-1.31c.586-1.807-.444-3.223-3.516-4.233-3.089-1.01-6.036-7.42-6.036-7.42-.071-1.256 1.562-3.346 4.35-2.744z" fill="#2F499F"/><path d="M123.965 79.825c1.066.62 2.557-1.965 1.474-3.665-.799-1.31-2.539-1.86-3.924-2.426-2.202-1.257-4.315-4.746-5.611-6.87.924 2.531 2.894 6.055 5.274 7.472l.568.248c.586.23 2.379.708 3.249 1.877.693.92.373 2.32-.106 2.992-.178.284-.533.514-.924.372z" fill="#023135"/><path d="M113.737 76.353s-.781-3.365-2.077-2.55c-1.296.815.089 4.533 1.296 4.533s.781-1.983.781-1.983z" fill="#FFC8AF"/><path d="M182.559 67.84c3.178.797 4.421 3.895 2.84 6.286-.266.407-.639.78-1.118.814v-.69c.177.035.515-.337.621-.478 1.581-2.001.604-4.94-2.343-5.932z" fill="#606BF1"/><path d="M180.214 65.676s2.237 0 3.87 1.647c1.651 1.646 1.154 8.11 0 9.066-1.154.956 2.93 1.86.48 1.86-2.433.017-6.534-12.343-4.35-12.573z" fill="#606BF1"/><path d="M183.055 68.653c.035-.107-1.261-3.577-4.421-4.09-3.782-.62-8.257 2.195-9.624 6.002-1.367 3.807-2.592 8.146-6.339 9.226-3.746 1.08-4.421 6.57-3.249 10.022 1.172 3.453 4.759 2.568 4.759 2.568s-2.184-1.895-1.616-2.48c0 0 1.669 3.223 3.551 2.586 1.882-.637 2.646-1.682 2.646-1.682s-3.25-.496-1.119-2.302c1.491-1.257 2.255-2.408 4.013-4.533 1.686-2.037.799-7.473 2.272-11.368.196.159.48.3.924.336 2.006.212 1.083-1.24 3-3.418 3.285-1.841 4.99-.85 5.203-.867z" fill="#606BF1"/><path d="M169.916 72.977c.515 1.47.888 3.4.817 4.904-.249 4.8-5.362 2.302-6.783 2.391-.87.035-1.616.832-1.296 1.93.249.886.835 1.169 1.136 1.523.462.549.213 1.204-.319 1.452-1.048.531-2.362-.673-2.77.761-.32.992-.018 2.178.781 2.94-.888-.655-1.349-1.895-1.101-3.028.267-1.169 1.066-1.116 2.202-1.027.692.053.941-.283.888-.496-.054-.425-1.012-.584-1.421-1.93a2.083 2.083 0 01.941-2.515c2.344-1.345 7.564 3.506 7.351-3.63-.035-1.115-.213-2.195-.426-3.275z" fill="#606BF1"/><path d="M174.302 73.985s.071-1.841-.888-1.7c-.959.16-1.652 1.417-1.172 2.656.462 1.24 2.184.69 2.06-.956z" fill="#FFC8AF"/><path d="M84.672 44.594c-.23 2.427-1.125 4.323-2.688 5.687-1.562 1.354-3.64 2.032-6.234 2.032-1.813 0-3.412-.428-4.797-1.282-1.375-.864-2.437-2.088-3.187-3.672-.75-1.583-1.141-3.422-1.172-5.515v-2.125c0-2.146.38-4.037 1.14-5.672.76-1.636 1.85-2.896 3.266-3.781 1.427-.886 3.073-1.328 4.938-1.328 2.51 0 4.53.682 6.062 2.046 1.531 1.365 2.422 3.292 2.672 5.782h-3.938c-.187-1.636-.666-2.813-1.437-3.532-.76-.729-1.88-1.093-3.36-1.093-1.718 0-3.041.63-3.968 1.89-.917 1.25-1.386 3.089-1.406 5.516v2.016c0 2.458.437 4.333 1.312 5.624.885 1.292 2.177 1.938 3.875 1.938 1.552 0 2.719-.349 3.5-1.047.781-.698 1.276-1.86 1.484-3.484h3.938zm14.062 5.75c-1.115 1.312-2.698 1.968-4.75 1.968-1.834 0-3.224-.536-4.172-1.609-.938-1.073-1.406-2.625-1.406-4.656V35.094h3.796V46c0 2.146.891 3.219 2.672 3.219 1.844 0 3.089-.662 3.735-1.985v-12.14h3.797V52h-3.579l-.093-1.656zm17.655-2.938c0-.677-.281-1.192-.843-1.547-.552-.354-1.474-.666-2.766-.937s-2.37-.615-3.234-1.031c-1.896-.917-2.844-2.245-2.844-3.985 0-1.458.614-2.677 1.844-3.656 1.229-.98 2.791-1.469 4.687-1.469 2.021 0 3.651.5 4.891 1.5 1.25 1 1.875 2.297 1.875 3.89h-3.797c0-.728-.271-1.332-.813-1.812-.541-.49-1.26-.734-2.156-.734-.833 0-1.516.193-2.047.578-.521.386-.781.901-.781 1.547 0 .583.245 1.036.734 1.36.49.322 1.48.65 2.969.984 1.49.323 2.656.713 3.5 1.172.854.448 1.484.99 1.891 1.625.416.635.625 1.406.625 2.312 0 1.521-.63 2.755-1.891 3.703-1.26.938-2.911 1.407-4.953 1.407-1.385 0-2.62-.25-3.703-.75-1.083-.5-1.927-1.188-2.531-2.063-.605-.875-.907-1.818-.907-2.828h3.688c.052.896.39 1.588 1.015 2.078.625.48 1.454.719 2.485.719 1 0 1.76-.188 2.281-.563.521-.385.781-.885.781-1.5zm12.453-16.422v4.11h2.984v2.812h-2.984v9.438c0 .646.125 1.114.375 1.406.26.281.719.422 1.375.422.437 0 .88-.052 1.328-.156v2.937c-.865.24-1.698.36-2.5.36-2.917 0-4.375-1.61-4.375-4.829v-9.578h-2.781v-2.812h2.781v-4.11h3.797zM135.747 52V29.25h6.719c2.011 0 3.792.448 5.344 1.344 1.562.896 2.771 2.166 3.625 3.812.854 1.646 1.281 3.532 1.281 5.657v1.14c0 2.156-.432 4.052-1.297 5.688-.854 1.635-2.078 2.895-3.672 3.78-1.583.886-3.401 1.329-5.453 1.329h-6.547zm3.954-19.563v16.407h2.578c2.073 0 3.661-.646 4.765-1.938 1.115-1.302 1.683-3.166 1.703-5.593v-1.266c0-2.469-.536-4.354-1.609-5.656-1.073-1.302-2.63-1.953-4.672-1.953h-2.765zm24.671 19.876c-2.406 0-4.36-.756-5.86-2.266-1.489-1.521-2.234-3.542-2.234-6.063v-.468c0-1.688.323-3.193.969-4.516.656-1.333 1.573-2.37 2.75-3.11 1.177-.739 2.489-1.109 3.937-1.109 2.302 0 4.078.735 5.328 2.203 1.261 1.47 1.891 3.547 1.891 6.235v1.531h-11.047c.115 1.396.578 2.5 1.391 3.313.823.812 1.854 1.218 3.094 1.218 1.739 0 3.156-.703 4.25-2.11l2.046 1.954c-.677 1.01-1.583 1.797-2.718 2.36-1.125.551-2.391.828-3.797.828zm-.453-14.485c-1.042 0-1.886.365-2.532 1.094-.635.729-1.041 1.745-1.218 3.047h7.234v-.282c-.083-1.27-.422-2.229-1.016-2.874-.593-.657-1.416-.985-2.468-.985zm16.577 9.36l3.578-12.094h3.922L182.137 52h-3.297l-5.906-16.906h3.937l3.625 12.093z" fill="#F7707C"/><path d="M250.03 26.36v10.452c0 1.661-.533 2.979-1.6 3.953-1.06.966-2.475 1.45-4.243 1.45-1.791 0-3.212-.476-4.265-1.429-1.053-.96-1.579-2.288-1.579-3.985V26.359h2.707v10.463c0 1.046.265 1.844.795 2.396.53.551 1.31.827 2.342.827 2.091 0 3.136-1.103 3.136-3.309V26.36h2.707zM265.789 42h-2.718l-6.972-11.097V42h-2.718V26.36h2.718l6.993 11.139v-11.14h2.697V42zm6.52 0h-2.707V26.36h2.707V42zm14.759-13.45h-4.877V42h-2.696V28.55h-4.834v-2.19h12.407v2.19z" fill="#3362CC"/></svg>