<svg width="34" height="34" fill="none" xmlns="http://www.w3.org/2000/svg"><mask id="path-1-inside-1" fill="#fff"><path fill-rule="evenodd" clip-rule="evenodd" d="M19.59 26.917c-.413 0-.824-.18-1.105-.529l-6.84-8.5a1.417 1.417 0 01.016-1.795l7.083-8.5a1.416 1.416 0 112.176 1.813l-6.34 7.61 6.114 7.596a1.416 1.416 0 01-1.104 2.305z"/></mask><path fill-rule="evenodd" clip-rule="evenodd" d="M19.59 26.917c-.413 0-.824-.18-1.105-.529l-6.84-8.5a1.417 1.417 0 01.016-1.795l7.083-8.5a1.416 1.416 0 112.176 1.813l-6.34 7.61 6.114 7.596a1.416 1.416 0 01-1.104 2.305z" fill="#231F20"/><path d="M18.485 26.388l-3.895 3.135 3.895-3.135zm-6.84-8.5L7.748 21.02l.003.004 3.896-3.135zm.016-1.795l3.841 3.201-3.84-3.2zm7.083-8.5l3.842 3.201.001-.002-3.843-3.199zm1.997-.181l3.199-3.843-.005-.003-3.194 3.846zm.18 1.995l-3.839-3.205-.003.004 3.841 3.2zm-6.34 7.608l-3.841-3.2-2.621 3.146 2.567 3.19 3.895-3.136zm6.113 7.597l3.895-3.135-3.895 3.135zm-.217 1.992l-3.13-3.9-.008.007-.008.007 3.146 3.886zm-.887-4.687c1.03 0 2.079.452 2.79 1.336l-7.79 6.27a6.414 6.414 0 005 2.394v-10zm2.79 1.337l-6.839-8.5-7.79 6.269 6.839 8.5 7.79-6.27zm-6.836-8.497a3.583 3.583 0 01-.042 4.537L7.82 12.892a6.417 6.417 0 00-.073 8.127l7.797-6.262zm-.042 4.537l7.084-8.5-7.683-6.402-7.083 8.5 7.682 6.402zm7.085-8.502a3.581 3.581 0 01-5.041.466l6.39-7.692a6.419 6.419 0 00-9.034.828l7.685 6.398zm-5.046.463a3.584 3.584 0 01-.459-5.053l7.677 6.41a6.416 6.416 0 00-.82-9.043l-6.398 7.686zm-.462-5.049l-6.34 7.609 7.683 6.401 6.34-7.609-7.683-6.401zM10.686 20.15l6.113 7.596 7.79-6.269-6.113-7.596-7.79 6.27zm6.112 7.596a3.584 3.584 0 01.549-5.041l6.26 7.798a6.416 6.416 0 00.982-9.026l-7.79 6.27zm.533-5.028a3.595 3.595 0 012.26-.801v10c1.402 0 2.84-.462 4.033-1.428l-6.293-7.771z" fill="#fff" mask="url(#path-1-inside-1)"/><mask id="mask0" maskUnits="userSpaceOnUse" x="11" y="7" width="11" height="20"><mask id="path-3-inside-2" fill="#fff"><path fill-rule="evenodd" clip-rule="evenodd" d="M19.59 26.917c-.413 0-.824-.18-1.105-.529l-6.84-8.5a1.417 1.417 0 01.016-1.795l7.083-8.5a1.416 1.416 0 112.176 1.813l-6.34 7.61 6.114 7.596a1.416 1.416 0 01-1.104 2.305z"/></mask><path fill-rule="evenodd" clip-rule="evenodd" d="M19.59 26.917c-.413 0-.824-.18-1.105-.529l-6.84-8.5a1.417 1.417 0 01.016-1.795l7.083-8.5a1.416 1.416 0 112.176 1.813l-6.34 7.61 6.114 7.596a1.416 1.416 0 01-1.104 2.305z" fill="#fff"/><path d="M18.485 26.388l-3.895 3.135 3.895-3.135zm-6.84-8.5L7.748 21.02l.003.004 3.896-3.135zm.016-1.795l3.841 3.201-3.84-3.2zm7.083-8.5l3.842 3.201.001-.002-3.843-3.199zm1.997-.181l3.199-3.843-.005-.003-3.194 3.846zm.18 1.995l-3.839-3.205-.003.004 3.841 3.2zm-6.34 7.608l-3.841-3.2-2.621 3.146 2.567 3.19 3.895-3.136zm6.113 7.597l3.895-3.135-3.895 3.135zm-.217 1.992l-3.13-3.9-.008.007-.008.007 3.146 3.886zm-.887-4.687c1.03 0 2.079.452 2.79 1.336l-7.79 6.27a6.414 6.414 0 005 2.394v-10zm2.79 1.337l-6.839-8.5-7.79 6.269 6.839 8.5 7.79-6.27zm-6.836-8.497a3.583 3.583 0 01-.042 4.537L7.82 12.892a6.417 6.417 0 00-.073 8.127l7.797-6.262zm-.042 4.537l7.084-8.5-7.683-6.402-7.083 8.5 7.682 6.402zm7.085-8.502a3.581 3.581 0 01-5.041.466l6.39-7.692a6.419 6.419 0 00-9.034.828l7.685 6.398zm-5.046.463a3.584 3.584 0 01-.459-5.053l7.677 6.41a6.416 6.416 0 00-.82-9.043l-6.398 7.686zm-.462-5.049l-6.34 7.609 7.683 6.401 6.34-7.609-7.683-6.401zM10.686 20.15l6.113 7.596 7.79-6.269-6.113-7.596-7.79 6.27zm6.112 7.596a3.584 3.584 0 01.549-5.041l6.26 7.798a6.416 6.416 0 00.982-9.026l-7.79 6.27zm.533-5.028a3.595 3.595 0 012.26-.801v10c1.402 0 2.84-.462 4.033-1.428l-6.293-7.771z" fill="#fff" mask="url(#path-3-inside-2)"/></mask><g mask="url(#mask0)"><path fill="#0D1C2E" stroke="#979797" stroke-width="2" d="M1 1h32v32H1z"/></g></svg>