<svg width="34" height="34" fill="none" xmlns="http://www.w3.org/2000/svg"><mask id="path-1-inside-1" fill="#fff"><path fill-rule="evenodd" clip-rule="evenodd" d="M14.41 7.083c.413 0 .824.18 1.105.529l6.84 8.5a1.417 1.417 0 01-.016 1.795l-7.083 8.5a1.416 1.416 0 11-2.176-1.813l6.34-7.61-6.114-7.596a1.416 1.416 0 011.104-2.305z"/></mask><path fill-rule="evenodd" clip-rule="evenodd" d="M14.41 7.083c.413 0 .824.18 1.105.529l6.84 8.5a1.417 1.417 0 01-.016 1.795l-7.083 8.5a1.416 1.416 0 11-2.176-1.813l6.34-7.61-6.114-7.596a1.416 1.416 0 011.104-2.305z" fill="#231F20"/><path d="M15.515 7.612l3.895-3.135-3.895 3.135zm6.84 8.5l3.898-3.131-.003-.004-3.896 3.135zm-.016 1.795l-3.841-3.201 3.84 3.2zm-7.083 8.5l-3.842-3.201-.001.002 3.842 3.199zm-1.997.181l-3.199 3.843.005.003 3.194-3.846zm-.18-1.995l3.839 3.205.003-.004-3.841-3.2zm6.34-7.608l3.841 3.2 2.621-3.145-2.567-3.19-3.895 3.135zm-6.113-7.597l-3.895 3.135 3.895-3.135zm.217-1.992l3.13 3.9.008-.007.008-.007-3.146-3.886zm.887 4.687a3.586 3.586 0 01-2.79-1.336l7.79-6.27a6.414 6.414 0 00-5-2.394v10zm-2.79-1.337l6.839 8.5 7.79-6.269-6.839-8.5-7.79 6.27zm6.836 8.497a3.583 3.583 0 01.042-4.537l7.682 6.402a6.417 6.417 0 00.073-8.127l-7.797 6.262zm.042-4.537l-7.084 8.5 7.683 6.402 7.083-8.5-7.682-6.402zm-7.085 8.502a3.581 3.581 0 015.041-.466l-6.39 7.692a6.419 6.419 0 009.034-.828l-7.685-6.398zm5.046-.462a3.584 3.584 0 01.459 5.052l-7.677-6.41a6.416 6.416 0 00.82 9.043l6.398-7.686zm.462 5.048l6.34-7.609-7.683-6.401-6.34 7.609 7.683 6.401zm6.393-13.944l-6.113-7.596-7.79 6.269 6.113 7.596 7.79-6.27zm-6.112-7.596a3.584 3.584 0 01-.549 5.042l-6.26-7.799a6.416 6.416 0 00-.982 9.026l7.79-6.27zm-.533 5.028a3.595 3.595 0 01-2.26.801v-10c-1.402 0-2.84.462-4.033 1.428l6.293 7.771z" fill="#fff" mask="url(#path-1-inside-1)"/><mask id="mask0" maskUnits="userSpaceOnUse" x="12" y="7" width="11" height="20"><mask id="path-3-inside-2" fill="#fff"><path fill-rule="evenodd" clip-rule="evenodd" d="M14.41 7.083c.413 0 .824.18 1.105.529l6.84 8.5a1.417 1.417 0 01-.016 1.795l-7.083 8.5a1.416 1.416 0 11-2.176-1.813l6.34-7.61-6.114-7.596a1.416 1.416 0 011.104-2.305z"/></mask><path fill-rule="evenodd" clip-rule="evenodd" d="M14.41 7.083c.413 0 .824.18 1.105.529l6.84 8.5a1.417 1.417 0 01-.016 1.795l-7.083 8.5a1.416 1.416 0 11-2.176-1.813l6.34-7.61-6.114-7.596a1.416 1.416 0 011.104-2.305z" fill="#fff"/><path d="M15.515 7.612l3.895-3.135-3.895 3.135zm6.84 8.5l3.898-3.131-.003-.004-3.896 3.135zm-.016 1.795l-3.841-3.201 3.84 3.2zm-7.083 8.5l-3.842-3.201-.001.002 3.842 3.199zm-1.997.181l-3.199 3.843.005.003 3.194-3.846zm-.18-1.995l3.839 3.205.003-.004-3.841-3.2zm6.34-7.608l3.841 3.2 2.621-3.145-2.567-3.19-3.895 3.135zm-6.113-7.597l-3.895 3.135 3.895-3.135zm.217-1.992l3.13 3.9.008-.007.008-.007-3.146-3.886zm.887 4.687a3.586 3.586 0 01-2.79-1.336l7.79-6.27a6.414 6.414 0 00-5-2.394v10zm-2.79-1.337l6.839 8.5 7.79-6.269-6.839-8.5-7.79 6.27zm6.836 8.497a3.583 3.583 0 01.042-4.537l7.682 6.402a6.417 6.417 0 00.073-8.127l-7.797 6.262zm.042-4.537l-7.084 8.5 7.683 6.402 7.083-8.5-7.682-6.402zm-7.085 8.502a3.581 3.581 0 015.041-.466l-6.39 7.692a6.419 6.419 0 009.034-.828l-7.685-6.398zm5.046-.462a3.584 3.584 0 01.459 5.052l-7.677-6.41a6.416 6.416 0 00.82 9.043l6.398-7.686zm.462 5.048l6.34-7.609-7.683-6.401-6.34 7.609 7.683 6.401zm6.393-13.944l-6.113-7.596-7.79 6.269 6.113 7.596 7.79-6.27zm-6.112-7.596a3.584 3.584 0 01-.549 5.042l-6.26-7.799a6.416 6.416 0 00-.982 9.026l7.79-6.27zm-.533 5.028a3.595 3.595 0 01-2.26.801v-10c-1.402 0-2.84.462-4.033 1.428l6.293 7.771z" fill="#fff" mask="url(#path-3-inside-2)"/></mask><g mask="url(#mask0)"><path fill="#0D1C2E" stroke="#979797" stroke-width="2" d="M33 33H1V1h32z"/></g></svg>