<svg width="50" height="50" fill="none" xmlns="http://www.w3.org/2000/svg"><g id="Icon/Outline/arrow-ios-up"><path id="Mask" fill-rule="evenodd" clip-rule="evenodd" d="M12.5 18.75c.472 0 .944.158 1.334.483l11.19 9.325 11.17-8.99a2.083 2.083 0 112.61 3.246l-12.5 10.059a2.079 2.079 0 01-2.639-.023l-12.5-10.417a2.084 2.084 0 011.336-3.683z" fill="#231F20"/><mask id="mask0" maskUnits="userSpaceOnUse" x="10" y="18" width="30" height="16"><path id="Mask_2" fill-rule="evenodd" clip-rule="evenodd" d="M12.5 18.75c.472 0 .944.158 1.334.483l11.19 9.325 11.17-8.99a2.083 2.083 0 112.61 3.246l-12.5 10.059a2.079 2.079 0 01-2.639-.023l-12.5-10.417a2.084 2.084 0 011.336-3.683z" fill="#fff"/></mask><g mask="url(#mask0)"><g id="🎨 Color"><path id="Base" transform="rotate(-180 50 50)" fill="#405CE1" d="M50 50h50v50H50z"/></g></g></g></svg>