<svg width="38" height="38" fill="none" xmlns="http://www.w3.org/2000/svg"><path fill-rule="evenodd" clip-rule="evenodd" d="M11.083 25.335c0-.871.713-1.584 1.584-1.584.87 0 1.583.713 1.583 1.584 0 .87-.713 1.583-1.583 1.583a1.588 1.588 0 01-1.584-1.583zM19 23.75h6.333c.871 0 1.584.713 1.584 1.584 0 .87-.713 1.583-1.584 1.583H19c-.87 0-1.583-.712-1.583-1.583S18.129 23.75 19 23.75zm9.5 7.917h-19c-.872 0-1.583-.71-1.583-1.583v-9.5h22.166v9.5c0 .872-.71 1.583-1.583 1.583zM9.5 9.501h1.583v1.584c0 .87.713 1.583 1.584 1.583.87 0 1.583-.712 1.583-1.583V9.5h9.5v1.584c0 .87.712 1.583 1.583 1.583s1.584-.712 1.584-1.583V9.5H28.5c.872 0 1.583.711 1.583 1.584v6.333H7.917v-6.333c0-.873.71-1.584 1.583-1.584zm19-3.166h-1.583V4.75c0-.87-.713-1.583-1.584-1.583-.87 0-1.583.712-1.583 1.583v1.584h-9.5V4.75c0-.87-.713-1.583-1.583-1.583-.871 0-1.584.712-1.584 1.583v1.584H9.5a4.756 4.756 0 00-4.75 4.75v19a4.756 4.756 0 004.75 4.75h19a4.756 4.756 0 004.75-4.75v-19a4.756 4.756 0 00-4.75-4.75z" fill="#231F20"/><mask id="mask0" maskUnits="userSpaceOnUse" x="4" y="3" width="30" height="32"><path fill-rule="evenodd" clip-rule="evenodd" d="M11.083 25.335c0-.871.713-1.584 1.584-1.584.87 0 1.583.713 1.583 1.584 0 .87-.713 1.583-1.583 1.583a1.588 1.588 0 01-1.584-1.583zM19 23.75h6.333c.871 0 1.584.713 1.584 1.584 0 .87-.713 1.583-1.584 1.583H19c-.87 0-1.583-.712-1.583-1.583S18.129 23.75 19 23.75zm9.5 7.917h-19c-.872 0-1.583-.71-1.583-1.583v-9.5h22.166v9.5c0 .872-.71 1.583-1.583 1.583zM9.5 9.501h1.583v1.584c0 .87.713 1.583 1.584 1.583.87 0 1.583-.712 1.583-1.583V9.5h9.5v1.584c0 .87.712 1.583 1.583 1.583s1.584-.712 1.584-1.583V9.5H28.5c.872 0 1.583.711 1.583 1.584v6.333H7.917v-6.333c0-.873.71-1.584 1.583-1.584zm19-3.166h-1.583V4.75c0-.87-.713-1.583-1.584-1.583-.87 0-1.583.712-1.583 1.583v1.584h-9.5V4.75c0-.87-.713-1.583-1.583-1.583-.871 0-1.584.712-1.584 1.583v1.584H9.5a4.756 4.756 0 00-4.75 4.75v19a4.756 4.756 0 004.75 4.75h19a4.756 4.756 0 004.75-4.75v-19a4.756 4.756 0 00-4.75-4.75z" fill="#fff"/></mask><g mask="url(#mask0)"><path fill="#405CE1" d="M0 0h38v38H0z"/></g></svg>