<svg width="34" height="50" fill="none" xmlns="http://www.w3.org/2000/svg"><path d="M30.718 42.174L23.1 38.777a3.554 3.554 0 00-.628-.212v-3.977c6.483-2.162 11.17-8.288 11.17-15.489 0-6.83-4.285-12.963-10.68-15.319A4.056 4.056 0 0019.119 1h-3.595a4.056 4.056 0 00-3.845 2.78 16.276 16.276 0 00-7.654 5.853A16.213 16.213 0 001 19.1c0 7.2 4.687 13.327 11.17 15.489v3.977c-.215.05-.425.12-.629.212L8.597 40.09c-.829.37-.256 1.653.572 1.284l2.945-1.313c.279-.125.575-.188.88-.188h8.653c.306 0 .602.063.88.188l7.619 3.397c2.07.924 1.384 4.136-.88 4.136H5.375c-2.262 0-2.954-3.211-.88-4.136l1.205-.537c.828-.37.255-1.654-.573-1.284l-1.205.537C.493 43.704 1.629 49 5.376 49h23.89c3.742 0 4.887-5.294 1.453-6.826zm-6.244-22.812c0 3.945-3.209 7.155-7.153 7.155-3.945 0-7.154-3.21-7.154-7.155 0-3.945 3.21-7.154 7.154-7.154s7.153 3.21 7.153 7.154zM2.406 19.1c0-3.125.955-6.116 2.763-8.65a14.877 14.877 0 016.304-5.074v7.741a8.538 8.538 0 00-2.712 6.245c0 4.72 3.84 8.56 8.56 8.56 4.72 0 8.56-3.84 8.56-8.56a8.538 8.538 0 00-2.713-6.245v-1.898c0-.907-1.406-.907-1.406 0v.828a8.508 8.508 0 00-4.442-1.245 8.508 8.508 0 00-4.44 1.245V5.05a2.647 2.647 0 012.643-2.644h3.595A2.647 2.647 0 0121.76 5.05v2.325c0 .907 1.407.907 1.407 0V5.373A14.951 14.951 0 0132.235 19.1c0 8.225-6.69 14.917-14.915 14.917-8.223 0-14.914-6.692-14.914-14.916zm14.915 16.322c1.288 0 2.542-.151 3.745-.435v3.48h-7.49v-3.48c1.203.284 2.456.435 3.745.435z" fill="#fff" stroke="#fff" stroke-width=".4"/><path d="M12.69 19.632a4.637 4.637 0 004.63 4.631 4.637 4.637 0 004.632-4.631A4.637 4.637 0 0017.321 15a4.637 4.637 0 00-4.632 4.632zm7.856 0a3.229 3.229 0 01-3.225 3.225 3.229 3.229 0 01-3.225-3.225 3.229 3.229 0 013.225-3.226 3.229 3.229 0 013.225 3.226z" fill="#fff" stroke="#fff" stroke-width=".4"/></svg>