<svg width="138" height="150" fill="none" xmlns="http://www.w3.org/2000/svg"><path d="M83.967 55.715a2.303 2.303 0 00-.138-.457 2.395 2.395 0 00-.525-.794 2.4 2.4 0 00-1.244-.667 2.38 2.38 0 00-1.402.14 2.38 2.38 0 00-.42.224 2.318 2.318 0 00-.67.675 2.433 2.433 0 00-.363.879 2.416 2.416 0 00-.048.476c0 .642.26 1.273.712 1.727a2.442 2.442 0 001.717.715c.158 0 .319-.017.474-.049a2.27 2.27 0 00.454-.139c.149-.06.29-.136.42-.224.134-.088.258-.19.37-.303a2.468 2.468 0 00.712-1.727c0-.159-.017-.32-.049-.476z" fill="#fff" stroke="#405CE1"/><path d="M115.461 145.745l-14.577-41.52a2.43 2.43 0 00-2.291-1.629H67.008V68.404h46.162c.843 0 1.624-.438 2.067-1.159.443-.72.483-1.619.106-2.376l-9.175-18.446 9.175-18.446a2.451 2.451 0 00-.106-2.376 2.426 2.426 0 00-2.067-1.159H67.008A2.436 2.436 0 0064.58 22h-9.718a2.436 2.436 0 00-2.43 2.442v78.154H20.847a2.43 2.43 0 00-2.292 1.63L3.978 145.745a2.452 2.452 0 00.308 2.223A2.426 2.426 0 006.269 149h106.902c.788 0 1.527-.385 1.983-1.032.455-.647.57-1.476.307-2.223zm-48.453-87.11h7.29a2.436 2.436 0 002.429-2.443 2.436 2.436 0 00-2.43-2.442H67.01V29.327h42.23l-7.96 16.004a2.453 2.453 0 000 2.184l7.96 16.004H67.01v-4.885zm-9.718 46.403V26.884h4.86V127.02h-4.86v-21.981zM9.703 144.115l1.715-4.884h9.429a2.436 2.436 0 002.43-2.442 2.436 2.436 0 00-2.43-2.443h-7.714l9.433-26.865H52.43v21.981a2.436 2.436 0 002.43 2.442h9.718a2.436 2.436 0 002.43-2.442v-21.981h29.865l12.863 36.634H9.703z" fill="#fff" stroke="#405CE1"/><path d="M30.516 136.312a2.29 2.29 0 00-.138-.456 2.411 2.411 0 00-1.315-1.322 2.4 2.4 0 00-1.856 0 2.38 2.38 0 00-.42.225 2.346 2.346 0 00-.67.674 2.425 2.425 0 00-.224.423 2.428 2.428 0 00-.187.933 2.463 2.463 0 00.187.933 2.402 2.402 0 00.524.793 2.393 2.393 0 001.244.667 2.364 2.364 0 001.402-.139 2.38 2.38 0 00.42-.225 2.343 2.343 0 00.67-.674 2.452 2.452 0 00.363-.879 2.418 2.418 0 000-.953z" fill="#fff" stroke="#405CE1"/><path d="M23.848 34.033c0-1.75-3.282-3.282-8.095-3.938-.438-4.813-1.97-8.095-3.72-8.095-1.75 0-3.282 3.282-3.938 8.095C3.282 30.533 0 32.065 0 33.815c0 1.75 3.282 3.281 8.095 3.938.438 4.813 1.97 8.095 3.72 8.095 1.75 0 3.281-3.282 3.938-8.095 4.594-.657 8.095-1.97 8.095-3.72zM138 93.569c0-1.101-2.064-2.064-5.092-2.477-.275-3.028-1.238-5.092-2.339-5.092s-2.064 2.064-2.477 5.092c-3.028.275-5.092 1.238-5.092 2.34 0 1.1 2.064 2.063 5.092 2.476.275 3.028 1.238 5.092 2.339 5.092s2.064-2.064 2.477-5.092c2.89-.413 5.092-1.238 5.092-2.34z" fill="#FFE48F"/><path fill="#fff" fill-opacity=".6" d="M105 5.11L110.109 0l5.108 5.11-5.108 5.108z"/></svg>