<svg width="118" height="88" fill="none" xmlns="http://www.w3.org/2000/svg"><g filter="url(#filter0_d)"><rect x="20.75" y="19.75" width="76.5" height="46.5" rx="4.25" stroke="#fff" stroke-width="1.5"/></g><path d="M37.682 43.511v16.1h-4.554v-12.58h-2.99v-3.52h7.544zm9.988 16.422c-1.38 0-2.606-.33-3.68-.989-1.073-.659-1.916-1.617-2.53-2.875-.598-1.272-.897-2.775-.897-4.508 0-1.732.3-3.227.897-4.485.614-1.272 1.457-2.238 2.53-2.898 1.074-.659 2.3-.989 3.68-.989 1.365 0 2.584.33 3.657.99 1.074.659 1.91 1.625 2.507 2.897.614 1.258.92 2.753.92 4.485 0 1.733-.306 3.236-.92 4.508-.598 1.258-1.433 2.216-2.507 2.875-1.073.66-2.292.99-3.657.99zm0-3.726c.767 0 1.373-.368 1.817-1.104.46-.751.69-1.932.69-3.542 0-1.61-.23-2.783-.69-3.519-.444-.751-1.05-1.127-1.817-1.127-.782 0-1.403.376-1.863 1.127-.444.736-.667 1.91-.667 3.52s.223 2.79.667 3.541c.46.736 1.081 1.104 1.863 1.104zm20.69-5.083c.736.43 1.304.959 1.702 1.587.4.629.598 1.35.598 2.162 0 1.012-.29 1.902-.874 2.668-.582.767-1.403 1.357-2.46 1.771-1.059.414-2.278.621-3.658.621s-2.599-.207-3.657-.62c-1.058-.415-1.878-1.005-2.46-1.772-.583-.766-.875-1.656-.875-2.668 0-.812.2-1.533.598-2.162.4-.628.966-1.157 1.702-1.587a4.156 4.156 0 01-1.288-1.403 3.88 3.88 0 01-.437-1.84c0-.935.269-1.755.805-2.46.537-.721 1.288-1.273 2.254-1.657.982-.383 2.101-.575 3.358-.575 1.258 0 2.37.192 3.335.575.982.384 1.74.936 2.277 1.656.537.706.805 1.526.805 2.461a3.72 3.72 0 01-.46 1.84 3.936 3.936 0 01-1.265 1.403zm-4.692-4.738c-.567 0-1.027.154-1.38.46-.352.292-.529.706-.529 1.242 0 .522.17.936.506 1.242.353.292.82.437 1.403.437.583 0 1.05-.145 1.403-.437.353-.306.53-.72.53-1.242 0-.536-.177-.95-.53-1.242-.352-.306-.82-.46-1.403-.46zm0 10.35c.736 0 1.32-.176 1.748-.529.445-.368.667-.858.667-1.472 0-.613-.222-1.096-.667-1.449-.429-.368-1.012-.552-1.748-.552s-1.326.184-1.77.552c-.43.353-.645.836-.645 1.45 0 .613.215 1.103.644 1.471.445.353 1.035.53 1.771.53zm16.053 3.197c-1.38 0-2.606-.33-3.68-.989-1.073-.659-1.916-1.617-2.53-2.875-.598-1.272-.897-2.775-.897-4.508 0-1.732.3-3.227.897-4.485.614-1.272 1.457-2.238 2.53-2.898 1.074-.659 2.3-.989 3.68-.989 1.365 0 2.584.33 3.657.99 1.073.659 1.91 1.625 2.507 2.897.614 1.258.92 2.753.92 4.485 0 1.733-.306 3.236-.92 4.508-.598 1.258-1.434 2.216-2.507 2.875-1.073.66-2.292.99-3.657.99zm0-3.726c.767 0 1.373-.368 1.817-1.104.46-.751.69-1.932.69-3.542 0-1.61-.23-2.783-.69-3.519-.444-.751-1.05-1.127-1.817-1.127-.782 0-1.403.376-1.863 1.127-.445.736-.667 1.91-.667 3.52s.222 2.79.667 3.541c.46.736 1.081 1.104 1.863 1.104zM32.688 28.806v2.556h4.056v1.32h-4.056v3.216h-1.56v-8.4h6.132v1.308h-4.572zm9.933 7.212c-1.16 0-2.064-.324-2.712-.972-.648-.656-.972-1.592-.972-2.808v-4.74h1.56v4.68c0 1.648.712 2.472 2.136 2.472 1.416 0 2.124-.824 2.124-2.472v-4.68h1.536v4.74c0 1.216-.324 2.152-.972 2.808-.64.648-1.54.972-2.7.972zm6.096-8.52h1.56v7.08h4.392v1.32h-5.952v-8.4zm7.424 0h1.56v7.08h4.392v1.32h-5.952v-8.4zm18.86 0v8.4h-2.376v-3.276h-3.24v3.276h-2.376v-8.4h2.376v3.156h3.24v-3.156H75zm1.916 0h3.972c.92 0 1.736.172 2.448.516.712.344 1.264.832 1.656 1.464.392.632.588 1.372.588 2.22 0 .848-.196 1.588-.588 2.22-.392.632-.944 1.12-1.656 1.464-.712.344-1.528.516-2.448.516h-3.972v-8.4zm3.876 6.504c.72 0 1.296-.204 1.728-.612.44-.408.66-.972.66-1.692s-.22-1.284-.66-1.692c-.432-.408-1.008-.612-1.728-.612h-1.5v4.608h1.5z" fill="#fff"/><defs><filter id="filter0_d" x="0" y="0" width="118" height="88" filterUnits="userSpaceOnUse" color-interpolation-filters="sRGB"><feFlood flood-opacity="0" result="BackgroundImageFix"/><feColorMatrix in="SourceAlpha" values="0 0 0 0 0 0 0 0 0 0 0 0 0 0 0 0 0 0 127 0"/><feOffset dy="1"/><feGaussianBlur stdDeviation="10"/><feColorMatrix values="0 0 0 0 0.0904167 0 0 0 0 0.135562 0 0 0 0 0.35 0 0 0 0.2 0"/><feBlend in2="BackgroundImageFix" result="effect1_dropShadow"/><feBlend in="SourceGraphic" in2="effect1_dropShadow" result="shape"/></filter></defs></svg>