<svg version="1.1" id="Layer_1" xmlns="http://www.w3.org/2000/svg" x="0" y="0" viewBox="0 0 823.3 248" xml:space="preserve"><style>.st34{fill:#343560}.st36{fill:none;stroke:#fff;stroke-width:10;stroke-miterlimit:10}.st37{fill:#fff}.st39{fill:none;stroke:#2e2e2e;stroke-width:4;stroke-miterlimit:10}</style><g id="roz"><path d="M175.3 99l36.9 7.9 39.7-34.4-4.9-6s-9.2-9.7-13-12c-2.8-1.7-9.3-3.1-12-5-2.9-2-7.2-7.9-10-10-4-3-14-4-14-4s-6.8-2.4-9-3c-8.2-2.3-26-3-33-3-5.1 0-10 4-10 4-2.7.7-6.1-1.2-11 0-4 1-5.2 3.1-7 4-2 1-4 1-6 2-2.5 1.3-5 8-7 9-5.7 2.8-22 8-27 13-2.2 2.2-7.7 5-10 7-4.1 3.4-11 9-14 15-1.5 3-2.2 10.2-4 13-1.3 2.1-5.9 4.8-7 7-2 4-3 19-3 19s0 6.3-.7 9.3l44.8-12 38.3 7.7L175.3 99z" fill="#f32683"/><path fill="#5b1946" d="M87.2 79.4l17.7-8.8-.9 24.9z"/><path d="M81 66.5s5.5 3.9 6 6c2 9-6 44-6 44l-31 7s.7-15.4 3-20c1.9-3.7 6.5-5.5 7-7 1.3-18.6 21-30 21-30z" fill="#6c1a50"/><path d="M50 123.5l31-7s8-35 6-44l-37 51z" fill="#7a1c56"/><path d="M86.1 63.1l-.2 7.5 19.2 3.8L123 39.1c-1.2.4-3.1.5-6.9 8.4-17.4 6.2-26.3 12.1-30 15.6z" fill="#240a3b"/><path d="M85.9 70.6l.2-7.5c3.7-3.5 12.6-9.4 30-15.6L85.9 70.6z" fill="#601e48"/><path fill="#3d0f44" d="M104 95.5l18.8-8.1 27.2 21.1z"/><path fill="#901b62" d="M104 95.5l34 23 12-10z"/><path fill="#bd237c" d="M104 95.5l-16 24 48 4 2-5z"/><path d="M123.1 39l-.4 48.2c0 .1-.1.1-.1.1l-17.8-12.9v-.1L123 39.1s.1-.2.1-.1z" fill="#c52573"/><path d="M123.1 39l-.4 48.4L135 33.5c-1.9.3-3.4 1.2-6.7 3.8-1.2.7-3.6 1.2-5.2 1.7z" fill="#270a39"/><path fill="#641447" d="M134 37.5l30-2 8 18z"/><path d="M163 29.5l1 6 27-2.4s-3.1-2.1-28-3.6z" fill="#5b1845"/><path fill="#ce207f" d="M172 53.5l-22 55 39-10z"/><path d="M172 53.5l19-20.4s3.5 1 7 2.4c3.5.5 4.4.3 9.7 1.9 6.4 2.1 10.1 8 10.1 8L204 47.5l-14.2 54-17.8-48z" fill="#8f2166"/><path d="M135 33.5l-.9 4 29.9-2-1-6s-6.8-.3-9 0-4.6 1.2-8 4c-9.7-.9-11 0-11 0z" fill="#9b2163"/><path d="M191 33.1l-19 20.4 31.9-6 9.6-6.7s-3.9-4.4-15.6-5.3c-1.7-.7-6.9-2.4-6.9-2.4z" fill="#a61d6c"/><path d="M204 47.5l9.6-6.7s-3.9-4.4-15.6-5.3c-1.8-.6-7-2.4-7-2.4l13 14.4z" fill="#a11862"/></g><g id="blue"><path d="M250.8 73.4L261 84.3s8 9.2 9 13c1 3.9.6 12.2 2 16 .9 2.4 3.4 4 3 10-1 15-12.4 20.8-14 24-2 4-.6 13.7-2 18-2 5.9-10 16.2-15 20-3.6 2.7-16 5.8-16 8 0 2 3.2 5.9 3 8-.2 2.1-3 6.2-5 7-3 1.2-10.5 2-13 0-5-4-12.8-10.4-18-12-4.1-1.3-13 .4-17-1-4.5-1.5-10.4-10.5-15-12-3-1-8.6 4.2-13 5-2.2.4-8.7 1-11 1-2 0-3 6-19 6-3 0-9-5-11-5s-6.2.8-8 0c-3.7-1.6-7.5-9.9-11-12-5.6-3.3-18.3-6.9-23-12-2-2.2-4.2-8.5-6-11-2.4-3.3-9.6-8.5-10.9-12.3-2-6-1.3-13-1.3-13L94 118.3l38.3 9.2 41.2-29.6 38.7 9 38.6-33.5z" fill="#2fa0c0"/><path d="M271.9 113l-13.6 33.2 2.7 1.1s11.4-9.7 13-18.1c3.4-11.3-2.1-16.2-2.1-16.2z" fill="#322e5b"/><path fill="#3b99b9" d="M58 144l-5-10.7 25.9-6.2 16.3 18.6z"/><path d="M58 144l37.2 1.7 5.8 44.6s-2.2 0-9.7-10.9c-5.4-3.8-18.1-7.5-23.5-12.2C63.2 163 58 144 58 144z" fill="#378fb3"/><path fill="#3b86a8" d="M78.9 127.1l7.9-1.4 9.8-1.4-1.4 21.4z"/><path fill="#3d8eb1" d="M95.2 145.7l38.9 47-28.2-72.8-9.3 4.4z"/><path fill="#3986ac" d="M135.8 135.5l7.6 17.2V189l-4.4.3-4.9 3.4-25.4-65.6z"/><path fill="#394e74" d="M160 113l-16.6 39.7-7.6-17.2z"/><path fill="#39668e" d="M169 105.7l-9 7.3-16.6 39.7 73.4-23.5-12.1-21.8-23.3-5.1z"/><path fill="#3a799f" d="M143.4 152.7l62.5 12.9 10.9-36.4z"/><path d="M143.4 152.7V189c12.7.1 14.4-6.1 19.7-5.8 4.5 1.2 10.6 11.9 16.2 12.3 5.8.4 11.9.1 15.8.7 2.9.9 10.9 6.5 10.9 6.5v-37.1l-62.6-12.9z" fill="#397298"/><path d="M205.9 174.9l28.9 14.4s-6.5 2-6.8 3.9c.1 2.8 5.4 6.5 1.6 12.1-2.2 3-6.3 5.7-15.2 3.9-3.1-1.1-8.6-6.5-8.6-6.5v-27.8z" fill="#3f5a84"/><path fill="#3a567d" d="M216.8 129.2l32.4 44.1-43.3 1.6v-9.3z"/><path d="M216.8 129.2l44.2 18.1s-.5 10.5-1.4 13.9c.2 5.4-4.7 11.7-4.7 11.7l-5.8.4-32.3-44.1z" fill="#383f68"/><path d="M258.3 146.2l2.7 1.1s-.5 10.5-1.4 13.9c.2 5.4-4.7 11.7-4.7 11.7l-5.8.4 9.2-27.1z" fill="#2f3158"/><path fill="#333a61" d="M216.8 129.2l49.2-1.7-7.7 18.7z"/><path class="st34" d="M271.9 113l-55.1 16.2 49.2-1.7z"/><path fill="#303966" d="M253.4 75l15.2 19.3 3.3 18.7-55.1 16.2-8.9-16.2z"/><path class="st34" d="M255 172.9c0 6.5-10.7 14.9-20.1 16.5L206 175l49-2.1"/><path class="st36" d="M46.9 127.8l46.2-8.5 38.8 9 41.4-31.4 38.6 11.8 40.2-39"/></g><path class="st36" d="M46.9 127.8l46.2-8.5 38.8 9 41.4-31.4 38.6 11.8 40.2-39"/><circle class="st37" cx="94" cy="119.8" r="9"/><circle class="st37" cx="132.3" cy="127.5" r="9"/><circle class="st37" cx="173.5" cy="97.9" r="9"/><circle class="st37" cx="212.2" cy="106.9" r="9"/><path d="M312.7 113c5.7 3.5 15.2 11 24.7 11 5.6 0 12.6.6 16-1.1 3.3-1.7 7.6-5.7 8.2-9 1-5.6-4.5-7.9-7.2-9.6-2.7-1.7-14.2-5.1-31-9.9-13-3.2-18.9-16.5-20.6-24.6 0 0-5.6-32.1 31.1-38.8 27.4-5.1 50 10.2 50 10.2l-11 20.6s-5.6-6.8-30.7-7c0 0-9.3-.2-12.1 5.1-4.8 9 6 13 21.9 16.3 11.4 2.4 19.8 6.7 25.4 12.1 5.6 5.4 13 12.9 11.5 26.7-1.1 10.7-6.1 16.7-14.1 23.5-8 6.8-22.1 9-38.9 9-17.1 0-30-8.1-38.2-15.3l15-19.2zM469 97.2c.3-13.4-.1-65.3-.1-65.3h26.2s.6 66.5-.6 86.3c-1.9 9.6-7.3 17.4-18.3 23.3-9 4.8-24.4 5.7-31.4 5.6-16-.3-29.8-8-35.4-19.5-3.1-6.4-4.6-16.3-4.6-28.7l.4-66.9h25.9l.1 64.5c0 6.2-.1 13.9 1.3 17 2.6 5.5 10.5 10.7 17 10.4 5.7-.4 20.3-1.2 19.5-26.7zm185.7 49h-23.5v-113h23.5v113zm104.1-113v20H725v93h-23.8v-93h-34v-20h91.6zM330.4 176.8h7.8v25.9h-5V181l-4.9 21.7H323l-4.9-21.7v21.7h-5v-25.9h7.9l4.7 20.4 4.7-20.4zm20.2 4.5h-5.1v-4.6h5.1v4.6zm-5 2.3h5.1v19.2h-5.1v-19.2zm28 1.1c1.3 1 1.9 2.8 1.9 5.2v12.9h-5.1v-11.7c0-1-.1-1.8-.4-2.3-.5-1-1.4-1.5-2.8-1.5-1.7 0-2.8.7-3.5 2.2-.3.8-.5 1.7-.5 2.9v10.4h-5v-19.1h4.9v2.8c.6-1 1.2-1.7 1.8-2.1 1-.8 2.3-1.2 3.9-1.2 2-.1 3.6.4 4.8 1.5zm13.2 11.9c.1.9.3 1.5.7 1.9.6.7 1.8 1 3.5 1 1 0 1.8-.1 2.4-.4s.9-.7.9-1.3c0-.6-.2-1-.7-1.3s-2.2-.8-5.2-1.5c-2.2-.5-3.7-1.2-4.6-2-.9-.8-1.3-1.9-1.3-3.4 0-1.8.7-3.3 2.1-4.6 1.4-1.3 3.3-1.9 5.9-1.9 2.4 0 4.3.5 5.9 1.4s2.4 2.6 2.6 4.9h-5c-.1-.6-.3-1.2-.5-1.5-.6-.7-1.5-1-2.8-1-1.1 0-1.9.2-2.3.5s-.7.7-.7 1.2c0 .6.2 1 .7 1.2.5.3 2.2.7 5.2 1.4 2 .5 3.5 1.2 4.5 2.1 1 1 1.5 2.2 1.5 3.6 0 1.9-.7 3.4-2.1 4.6-1.4 1.2-3.6 1.8-6.6 1.8-3 0-5.2-.6-6.7-1.9-1.4-1.3-2.2-2.9-2.2-4.9h4.8zm18.8-19.7h4.9v14l6.3-7.2h6.2l-6.9 7.1 7.1 11.9h-6.1l-4.6-8.2-2.1 2.2v6h-4.9v-25.8zm39.7 17.8c.2 1.2.5 2.1 1 2.7.9 1.1 2.4 1.6 4.6 1.6 1.3 0 2.4-.1 3.2-.4 1.5-.5 2.3-1.5 2.3-3 0-.9-.4-1.5-1.1-2-.8-.5-2-.9-3.6-1.2l-2.8-.6c-2.8-.6-4.7-1.3-5.7-2-1.7-1.2-2.6-3.1-2.6-5.6 0-2.3.9-4.2 2.6-5.8 1.7-1.5 4.2-2.3 7.5-2.3 2.8 0 5.1.7 7.1 2.2 2 1.4 3 3.5 3.1 6.3h-5.2c-.1-1.6-.8-2.7-2.1-3.3-.9-.4-1.9-.7-3.2-.7-1.4 0-2.6.3-3.4.8s-1.3 1.3-1.3 2.4c0 .9.4 1.6 1.3 2.1.5.3 1.7.7 3.4 1.1l4.5 1.1c2 .5 3.5 1.1 4.5 1.9 1.5 1.2 2.3 3 2.3 5.3 0 2.4-.9 4.3-2.7 5.9s-4.4 2.3-7.8 2.3c-3.4 0-6.1-.8-8-2.3-2-1.5-2.9-3.7-2.9-6.4h5zm20.5-7.4v-3.6h2.7v-5.3h5v5.3h3.1v3.6h-3.1v10.1c0 .8.1 1.3.3 1.5s.8.3 1.8.3h1v3.7l-2.4.1c-2.4.1-4-.3-4.9-1.2-.6-.6-.8-1.5-.8-2.7v-11.8h-2.7zm24.2 3.8c.9-.1 1.6-.3 2-.4.7-.3 1.1-.8 1.1-1.4 0-.8-.3-1.3-.8-1.6-.6-.3-1.4-.4-2.4-.4-1.2 0-2 .3-2.5.9-.4.4-.6 1-.7 1.8h-4.8c.1-1.7.6-3.1 1.4-4.1 1.3-1.7 3.6-2.5 6.9-2.5 2.1 0 4 .4 5.6 1.2s2.5 2.4 2.5 4.7v11c0 .7.1 1.1.3 1.3s.4.4.7.6v.7h-5.4c-.2-.4-.3-.8-.3-1.1s-.1-.7-.1-1.2c-.7.8-1.5 1.4-2.4 1.9-1.1.6-2.3.9-3.7.9-1.7 0-3.2-.5-4.3-1.5s-1.7-2.4-1.7-4.2c0-2.4.9-4.1 2.7-5.1 1-.6 2.5-1 4.4-1.2l1.5-.3zm3.1 2.3c-.3.2-.6.4-1 .5-.3.1-.8.2-1.3.3l-1.1.2c-1.1.2-1.8.4-2.3.7-.8.5-1.2 1.2-1.2 2.1 0 .9.2 1.5.7 1.9.5.4 1.1.6 1.8.6 1.1 0 2.1-.3 3-.9.9-.6 1.4-1.8 1.4-3.5v-1.9zm22.7-10.3h.4v5.1c-.3 0-.6-.1-.8-.1h-.6c-2 0-3.4.7-4.1 2-.4.7-.6 1.9-.6 3.4v9.2h-5v-19.2h4.8v3.3c.8-1.3 1.4-2.2 2-2.6.9-.8 2.2-1.2 3.7-1.2 0 .1.1.1.2.1zm4.1 4.2v-3.6h2.7v-5.3h5v5.3h3.1v3.6h-3.1v10.1c0 .8.1 1.3.3 1.5s.8.3 1.8.3h1v3.7l-2.4.1c-2.4.1-4-.3-4.9-1.2-.6-.6-.8-1.5-.8-2.7v-11.8h-2.7zm21.6-3.7v11.5c0 1.1.1 1.9.4 2.5.5 1 1.3 1.5 2.7 1.5 1.7 0 2.9-.7 3.5-2.1.3-.8.5-1.7.5-3v-10.4h5.1v19.2h-4.9V200c0 .1-.2.2-.4.5s-.4.6-.7.8c-.8.7-1.5 1.2-2.3 1.4-.7.3-1.6.4-2.6.4-2.8 0-4.7-1-5.7-3.1-.5-1.1-.8-2.8-.8-5v-11.5h5.2zm35.9 2c1.6 1.7 2.3 4.1 2.3 7.3 0 3.4-.8 5.9-2.3 7.7s-3.5 2.7-5.9 2.7c-1.5 0-2.8-.4-3.8-1.1-.6-.4-1.1-1-1.6-1.8v10h-5v-26.7h4.8v2.8c.5-.8 1.1-1.5 1.7-2 1.1-.9 2.5-1.3 4-1.3 2.3-.1 4.2.8 5.8 2.4zm-3.9 3.6c-.7-1.1-1.8-1.7-3.3-1.7-1.8 0-3.1.9-3.8 2.6-.4.9-.5 2.1-.5 3.5 0 2.2.6 3.8 1.8 4.7.7.5 1.6.8 2.5.8 1.4 0 2.5-.5 3.2-1.6s1.1-2.5 1.1-4.3c0-1.5-.3-2.8-1-4zm28-9.7c2.1-2.1 4.7-3.2 8-3.2 4.3 0 7.5 1.4 9.5 4.3 1.1 1.6 1.7 3.2 1.8 4.8h-5.4c-.3-1.2-.8-2.2-1.3-2.8-1-1.1-2.4-1.7-4.3-1.7s-3.5.8-4.6 2.4-1.7 3.8-1.7 6.7.6 5.1 1.8 6.5 2.7 2.2 4.5 2.2c1.9 0 3.3-.6 4.2-1.9.5-.7 1-1.7 1.3-3h5.4c-.5 2.8-1.6 5.1-3.6 6.9s-4.3 2.7-7.3 2.7c-3.7 0-6.6-1.2-8.7-3.6-2.1-2.4-3.2-5.7-3.2-9.9 0-4.4 1.2-7.9 3.6-10.4zm41.8 20.9c-1.6 2-4.1 3-7.4 3s-5.7-1-7.4-3c-1.6-2-2.4-4.4-2.4-7.2s.8-5.2 2.4-7.2 4.1-3 7.4-3 5.7 1 7.4 3 2.4 4.4 2.4 7.2-.8 5.2-2.4 7.2zm-4-2.8c.8-1 1.2-2.5 1.2-4.4s-.4-3.4-1.2-4.4c-.8-1-1.9-1.6-3.4-1.6s-2.6.5-3.4 1.6c-.8 1-1.2 2.5-1.2 4.4s.4 3.4 1.2 4.4c.8 1 1.9 1.6 3.4 1.6s2.6-.5 3.4-1.6zm28.2-12.9c1.3 1 1.9 2.8 1.9 5.2v12.9h-5.1v-11.7c0-1-.1-1.8-.4-2.3-.5-1-1.4-1.5-2.8-1.5-1.7 0-2.8.7-3.5 2.2-.3.8-.5 1.7-.5 2.9v10.4h-5v-19.1h4.9v2.8c.6-1 1.2-1.7 1.8-2.1 1-.8 2.3-1.2 3.9-1.2 1.9-.1 3.5.4 4.8 1.5zm7.2 2.6v-3.6h2.7v-5.3h5v5.3h3.1v3.6h-3.1v10.1c0 .8.1 1.3.3 1.5s.8.3 1.8.3h1v3.7l-2.4.1c-2.4.1-4-.3-4.9-1.2-.6-.6-.8-1.5-.8-2.7v-11.8h-2.7zm29.2-3.4c1.3.6 2.4 1.5 3.3 2.8.8 1.1 1.3 2.5 1.5 4 .1.9.2 2.1.2 3.8h-14c.1 1.9.7 3.3 2 4 .8.5 1.7.7 2.8.7 1.1 0 2.1-.3 2.8-.9.4-.3.7-.8 1-1.3h5.1c-.1 1.1-.8 2.3-1.9 3.5-1.7 1.9-4.1 2.8-7.2 2.8-2.5 0-4.8-.8-6.7-2.4-1.9-1.6-2.9-4.1-2.9-7.7 0-3.3.9-5.9 2.6-7.6 1.8-1.8 4-2.7 6.9-2.7 1.6.2 3.1.5 4.5 1zm-7.5 4.4c-.7.7-1.2 1.7-1.3 3h8.6c-.1-1.3-.5-2.3-1.3-3-.8-.7-1.8-1-3-1-1.3-.1-2.3.2-3 1zm21.6 8.3c.1.9.3 1.5.7 1.9.6.7 1.8 1 3.5 1 1 0 1.8-.1 2.4-.4s.9-.7.9-1.3c0-.6-.2-1-.7-1.3s-2.2-.8-5.2-1.5c-2.2-.5-3.7-1.2-4.6-2-.9-.8-1.3-1.9-1.3-3.4 0-1.8.7-3.3 2.1-4.6 1.4-1.3 3.3-1.9 5.9-1.9 2.4 0 4.3.5 5.9 1.4s2.4 2.6 2.6 4.9h-5c-.1-.6-.3-1.2-.5-1.5-.6-.7-1.5-1-2.8-1-1.1 0-1.9.2-2.3.5s-.7.7-.7 1.2c0 .6.2 1 .7 1.2.5.3 2.2.7 5.2 1.4 2 .5 3.5 1.2 4.5 2.1 1 1 1.5 2.2 1.5 3.6 0 1.9-.7 3.4-2.1 4.6-1.4 1.2-3.6 1.8-6.6 1.8-3 0-5.2-.6-6.7-1.9-1.4-1.3-2.2-2.9-2.2-4.9h4.8zm16.9-9.3v-3.6h2.7v-5.3h5v5.3h3.1v3.6h-3.1v10.1c0 .8.1 1.3.3 1.5s.8.3 1.8.3h1v3.7l-2.4.1c-2.4.1-4-.3-4.9-1.2-.6-.6-.8-1.5-.8-2.7v-11.8h-2.7zM553 48.1c2.5 0 4.7 1 6.2 2.7 1.6 1.8 2.2 4.4 1.7 7.1-.7 3.8-4.9 8.6-8.5 11.9-2.6-2.8-6.1-7.1-7.2-11.2-.7-2.6-.1-5.2 1.6-7.4 1.6-2 3.8-3.1 6.2-3.1m0-4c-7.8 0-13.7 7.8-11.7 15.6 2 8 10.8 15.6 10.8 15.6s11.3-8.5 12.7-16.6c1.4-8.2-4.1-14.6-11.8-14.6zm-6.3 48.1l23.5 27.7-9.9 8.4c-3.3 2.8-7.5 4.3-11.8 4.3-5.4 0-10.4-2.3-13.9-6.4-6.5-7.7-5.5-19.2 2.1-25.6l10-8.4m.4-5.6l-13 11c-9.3 7.9-10.5 21.9-2.6 31.3 4.4 5.2 10.6 7.8 16.9 7.8 5.1 0 10.2-1.7 14.3-5.3l13-11-28.6-33.8z" fill="#2e2e2e"/><path class="st39" d="M611.7 94.5L589.8 120l21.1 26.2"/><path class="st39" d="M593.7 94.5l-12.1 13.1-21.5-25.8s18.9-14.1 18.6-24.5c-.3-10-7.2-24.8-23.8-24.8-18.2 0-26.3 12.4-26.5 23.8-.1 10.4 11.1 23.1 11.1 23.1s-26.2 11.9-24.9 36.8c1.1 22.6 17.9 31 31.9 31.6 19.7.8 33.5-16.5 33.5-16.5l12.5 14.8"/></svg>