<svg width="166" height="166" fill="none" xmlns="http://www.w3.org/2000/svg"><circle opacity=".5" cx="82.5" cy="82.5" r="71" transform="rotate(-180 82.5 82.5)" stroke="url(#paint0_linear)"/><circle opacity=".5" cx="83" cy="83" r="82.5" transform="rotate(-180 83 83)" stroke="url(#paint1_linear)"/><path d="M80.616 46.645a4.727 4.727 0 014.768 0l27.232 15.878a4.824 4.824 0 012.384 4.17V98.45c0 1.72-.909 3.309-2.384 4.17l-27.232 15.878a4.728 4.728 0 01-4.768 0L53.384 102.62A4.825 4.825 0 0151 98.45V66.693c0-1.72.909-3.31 2.384-4.17l27.232-15.878z" fill="#5A00B4"/><path fill-rule="evenodd" clip-rule="evenodd" d="M80.853 97.81h4.294l11.567-28.953h-5.287L83.08 90.95l-2.226 6.858zM69.286 68.856l9.727 24.345 2.325-6.838-6.646-17.507h-5.406z" fill="#fff"/><path d="M55.07 63.773h0L80.96 48.58a4.022 4.022 0 014.08 0l25.89 15.193.253-.431-.253.43a4.175 4.175 0 012.046 3.607v30.386c0 1.49-.782 2.864-2.046 3.605l.253.432-.253-.432-25.89 15.193a4.022 4.022 0 01-4.08 0L55.07 101.37l-.253.432.253-.432a4.175 4.175 0 01-2.046-3.606V67.38c0-1.491.782-2.865 2.046-3.606z" stroke="#fff"/><defs><linearGradient id="paint0_linear" x1="48" y1="23" x2="121" y2="143" gradientUnits="userSpaceOnUse"><stop stop-color="#5C04B8"/><stop offset="1" stop-color="#80BAFF" stop-opacity="0"/></linearGradient><linearGradient id="paint1_linear" x1="133" y1="145" x2="24" y2="20" gradientUnits="userSpaceOnUse"><stop stop-color="#5C04B8"/><stop offset="0" stop-color="#5C04B8"/><stop offset="1" stop-color="#7731E6" stop-opacity="0"/></linearGradient></defs></svg>