<svg width="24" height="19" fill="none" xmlns="http://www.w3.org/2000/svg"><mask id="path-1-inside-1" fill="#fff"><path fill-rule="evenodd" clip-rule="evenodd" d="M19.833 16.333H3.5a1.168 1.168 0 01-1.167-1.166V3.792l8.634 6.475a1.16 1.16 0 001.4 0L21 3.792v11.375c0 .644-.524 1.166-1.167 1.166zm-.778-14l-7.388 5.542-7.389-5.542h14.777zM19.833 0H3.5C1.57 0 0 1.57 0 3.5v11.667c0 1.93 1.57 3.5 3.5 3.5h16.333c1.93 0 3.5-1.57 3.5-3.5V3.5c0-1.93-1.57-3.5-3.5-3.5z"/></mask><path fill-rule="evenodd" clip-rule="evenodd" d="M19.833 16.333H3.5a1.168 1.168 0 01-1.167-1.166V3.792l8.634 6.475a1.16 1.16 0 001.4 0L21 3.792v11.375c0 .644-.524 1.166-1.167 1.166zm-.778-14l-7.388 5.542-7.389-5.542h14.777zM19.833 0H3.5C1.57 0 0 1.57 0 3.5v11.667c0 1.93 1.57 3.5 3.5 3.5h16.333c1.93 0 3.5-1.57 3.5-3.5V3.5c0-1.93-1.57-3.5-3.5-3.5z" fill="#CFCFCF"/><path d="M2.333 3.792l.18-.24-.48-.36v.6h.3zm8.634 6.475l.18-.24-.18.24zm1.4 0l-.18-.24.18.24zM21 3.792h.3v-.6l-.48.36.18.24zm-1.945-1.459l.18.24.72-.54h-.9v.3zm-7.388 5.542l-.18.24.18.135.18-.135-.18-.24zM4.278 2.333v-.3h-.9l.72.54.18-.24zm15.555 13.7H3.5v.6h16.333v-.6zm-16.333 0a.868.868 0 01-.867-.866h-.6c0 .81.659 1.466 1.467 1.466v-.6zm-.867-.866V3.792h-.6v11.375h.6zm-.48-11.135l8.634 6.475.36-.48-8.634-6.475-.36.48zm8.633 6.474c.262.197.572.294.88.294v-.6a.861.861 0 01-.519-.173l-.36.48zm.88.294c.31 0 .62-.097.881-.294l-.36-.479a.86.86 0 01-.52.173v.6zm.88-.293l8.634-6.475-.36-.48-8.633 6.475.36.48zM20.7 3.792v11.375h.6V3.792h-.6zm0 11.375c0 .478-.39.866-.867.866v.6c.809 0 1.467-.656 1.467-1.466h-.6zM18.875 2.093l-7.388 5.542.36.48 7.388-5.542-.36-.48zm-7.028 5.542L4.458 2.093l-.36.48 7.389 5.542.36-.48zM4.278 2.633h14.777v-.6H4.278v.6zM19.833-.3H3.5v.6h16.333v-.6zM3.5-.3A3.804 3.804 0 00-.3 3.5h.6C.3 1.736 1.736.3 3.5.3v-.6zM-.3 3.5v11.667h.6V3.5h-.6zm0 11.667c0 2.095 1.705 3.8 3.8 3.8v-.6a3.204 3.204 0 01-3.2-3.2h-.6zm3.8 3.8h16.333v-.6H3.5v.6zm16.333 0c2.096 0 3.8-1.705 3.8-3.8h-.6c0 1.764-1.436 3.2-3.2 3.2v.6zm3.8-3.8V3.5h-.6v11.667h.6zm0-11.667c0-2.095-1.704-3.8-3.8-3.8v.6c1.764 0 3.2 1.436 3.2 3.2h.6z" fill="#242A34" mask="url(#path-1-inside-1)"/></svg>