<svg width="19" height="24" fill="none" xmlns="http://www.w3.org/2000/svg"><mask id="path-1-inside-1" fill="#fff"><path fill-rule="evenodd" clip-rule="evenodd" d="M9.333 10.5c-.965 0-1.75-.786-1.75-1.75 0-.965.785-1.75 1.75-1.75s1.75.785 1.75 1.75c0 .964-.785 1.75-1.75 1.75zm0-5.834A4.088 4.088 0 005.25 8.749a4.088 4.088 0 004.083 4.084 4.088 4.088 0 004.084-4.084 4.088 4.088 0 00-4.084-4.083zm0 15.921c-1.954-1.848-7-7.036-7-11.345 0-3.809 3.14-6.909 7-6.909s7 3.1 7 6.91c0 4.308-5.045 9.496-7 11.344zM9.333 0C4.187 0 0 4.145 0 9.242c0 6.388 8.224 13.51 8.574 13.809a1.165 1.165 0 001.519 0c.35-.3 8.574-7.421 8.574-13.809C18.667 4.145 14.479 0 9.333 0z"/></mask><path fill-rule="evenodd" clip-rule="evenodd" d="M9.333 10.5c-.965 0-1.75-.786-1.75-1.75 0-.965.785-1.75 1.75-1.75s1.75.785 1.75 1.75c0 .964-.785 1.75-1.75 1.75zm0-5.834A4.088 4.088 0 005.25 8.749a4.088 4.088 0 004.083 4.084 4.088 4.088 0 004.084-4.084 4.088 4.088 0 00-4.084-4.083zm0 15.921c-1.954-1.848-7-7.036-7-11.345 0-3.809 3.14-6.909 7-6.909s7 3.1 7 6.91c0 4.308-5.045 9.496-7 11.344zM9.333 0C4.187 0 0 4.145 0 9.242c0 6.388 8.224 13.51 8.574 13.809a1.165 1.165 0 001.519 0c.35-.3 8.574-7.421 8.574-13.809C18.667 4.145 14.479 0 9.333 0z" fill="#CFCFCF"/><path d="M8.574 23.051l-.195.228.195-.228zm1.519 0l.195.228-.195-.228zm-.76-12.852c-.799 0-1.45-.65-1.45-1.45h-.6c0 1.13.92 2.05 2.05 2.05v-.6zm-1.45-1.45c0-.799.651-1.45 1.45-1.45v-.6c-1.13 0-2.05.92-2.05 2.05h.6zm1.45-1.45c.8 0 1.45.651 1.45 1.45h.6c0-1.13-.92-2.05-2.05-2.05v.6zm1.45 1.45c0 .8-.65 1.45-1.45 1.45v.6c1.13 0 2.05-.92 2.05-2.05h-.6zm-1.45-4.383A4.388 4.388 0 004.95 8.749h.6a3.788 3.788 0 013.783-3.783v-.6zM4.95 8.749a4.388 4.388 0 004.383 4.384v-.6A3.788 3.788 0 015.55 8.749h-.6zm4.383 4.384a4.388 4.388 0 004.384-4.384h-.6a3.788 3.788 0 01-3.784 3.784v.6zm4.384-4.384a4.388 4.388 0 00-4.384-4.383v.6a3.788 3.788 0 013.784 3.783h.6zM9.539 20.37c-.97-.918-2.706-2.663-4.196-4.708-1.5-2.058-2.71-4.365-2.71-6.419h-.6c0 2.256 1.313 4.696 2.825 6.772 1.521 2.088 3.286 3.861 4.27 4.791l.411-.436zM2.633 9.242c0-3.64 3.002-6.609 6.7-6.609v-.6c-4.022 0-7.3 3.23-7.3 7.21h.6zm6.7-6.609c3.699 0 6.7 2.97 6.7 6.61h.6c0-3.98-3.277-7.21-7.3-7.21v.6zm6.7 6.61c0 2.053-1.21 4.36-2.71 6.418-1.49 2.045-3.225 3.79-4.196 4.708l.412.436c.984-.93 2.748-2.703 4.27-4.791 1.512-2.075 2.824-4.516 2.824-6.772h-.6zM9.333-.3C4.024-.3-.3 3.977-.3 9.242h.6C.3 4.314 4.35.3 9.333.3v-.6zM-.3 9.242c0 3.305 2.117 6.753 4.222 9.375 2.116 2.637 4.275 4.506 4.457 4.662l.39-.456c-.169-.144-2.296-1.986-4.38-4.581C2.296 15.632.3 12.325.3 9.242h-.6zM8.379 23.28c.274.235.613.354.954.354v-.6c-.2 0-.4-.07-.564-.21l-.39.456zm.954.354c.341 0 .68-.119.955-.354l-.39-.456a.864.864 0 01-.565.21v.6zm.955-.354a38.252 38.252 0 004.457-4.662c2.105-2.622 4.222-6.07 4.222-9.375h-.6c0 3.083-1.995 6.39-4.09 9-2.083 2.595-4.21 4.437-4.38 4.581l.391.456zm8.679-14.037c0-5.265-4.325-9.542-9.634-9.542v.6c4.984 0 9.034 4.014 9.034 8.942h.6z" fill="#242A34" mask="url(#path-1-inside-1)"/></svg>