<svg width="150" height="150" fill="none" xmlns="http://www.w3.org/2000/svg"><path d="M44.5 76.5L4 73.5l12.5-14 15-11.5 16-5 24 1-27 32.5zm30.5 69L72.5 104 106 79.5 105 95l-1 13.5-7.5 15.5L75 145.5zm-39.5-23l-9-9-6.5 3-5 4.5-1.5 6v7.5l4.5 2 8.5-2 9-12z" fill="#FFB800"/><path d="M5.495 147.035a2.556 2.556 0 01-2.548 2.564A2.556 2.556 0 01.4 147.035a2.556 2.556 0 012.547-2.565 2.556 2.556 0 012.548 2.565zM80.766 71.85a2.55 2.55 0 01-2.541 2.558 2.55 2.55 0 01-2.542-2.559 2.55 2.55 0 012.542-2.558 2.55 2.55 0 012.541 2.558z" fill="#314ED8" stroke="#fff" stroke-width=".8"/><circle cx="107.5" cy="43.5" r="8.5" fill="#FFB800"/><path d="M116.459 34.627h0a12 12 0 00-8.569-3.57 12.001 12.001 0 00-8.569 3.57h17.138zm0 0c4.726 4.753 4.726 12.49 0 17.244a12.046 12.046 0 01-8.569 3.564 12.041 12.041 0 01-8.569-3.564l17.138-17.244zm-3.592 13.624h0c2.743-2.758 2.743-7.246 0-10.005a6.975 6.975 0 00-4.977-2.073 6.973 6.973 0 00-4.976 2.073c-2.743 2.76-2.743 7.246 0 10.005a7.017 7.017 0 009.953 0zm-76.305 72.916a2.566 2.566 0 011.142 3.432l.359.177-.359-.177-3.503 7.076h0c-2.387 4.823-7.19 8.046-12.53 8.414l-4.075.28h0a7.201 7.201 0 01-5.602-2.112 7.291 7.291 0 01-2.1-5.638l-.399-.027.4.027.278-4.098s0 0 0 0c.366-5.375 3.573-10.206 8.365-12.606l7.035-3.524-.179-.357.18.357a2.533 2.533 0 013.406 1.15h0a2.567 2.567 0 01-1.143 3.432l-7.035 3.523h0c-3.186 1.597-5.315 4.805-5.558 8.375l.4.027-.4-.027-.279 4.098h0c-.057.85.368 1.413.622 1.669.255.255.814.683 1.662.626h0l4.075-.28a10.106 10.106 0 008.328-5.591h0l3.504-7.077s0 0 0 0a2.533 2.533 0 013.406-1.149zm0 0l.179-.358-.18.358z" fill="#314ED8" stroke="#fff" stroke-width=".8"/><mask id="path-7-inside-1" fill="#fff"><path d="M147.971 1.97a6.79 6.79 0 00-5.213-1.956l-2.739.176c-24.556 1.577-47.538 13.5-63.052 32.712l-6.446 7.982-16.87-.498-.086-.001c-13.38 0-25.958 5.24-35.42 14.757L.868 72.522a2.971 2.971 0 00-.666 3.154 2.942 2.942 0 002.595 1.892l36.575 1.89-1.49 1.847a2.972 2.972 0 00-.301 3.28 69.091 69.091 0 001.8 3.128L30.706 98.07a2.973 2.973 0 00-.41 3.172 38.766 38.766 0 007.476 10.754 38.507 38.507 0 0010.913 7.742 2.93 2.93 0 003.111-.377 593.764 593.764 0 006.106-5.082 920.089 920.089 0 014.425-3.697c.847.513 1.705 1.01 2.576 1.487a2.924 2.924 0 003.209-.261l2.005-1.565 1.887 36.945a2.96 2.96 0 001.882 2.61 2.93 2.93 0 003.135-.67l17.279-17.38c9.461-9.517 14.671-22.169 14.671-35.627V79.915l6.816-5.32c20.429-15.946 32.87-39.991 34.135-65.97l.07-1.44a6.88 6.88 0 00-2.021-5.214zM9.704 72l12.601-12.674c8.34-8.389 19.425-13.013 31.217-13.024l12.33.364-21.888 27.105-34.26-1.77zm44.43 37.736a876.35 876.35 0 01-4.57 3.819 32.505 32.505 0 01-7.616-5.726 32.686 32.686 0 01-5.49-7.443l6.351-7.584a68.442 68.442 0 006.302 7.355 68.347 68.347 0 008.098 7.002 1730.52 1730.52 0 00-3.076 2.577zm48.955-13.615c0 11.877-4.598 23.044-12.948 31.443L77.54 140.239l-1.759-34.417 27.308-21.315V96.12zm40.958-87.785c-1.18 24.252-12.795 46.698-31.865 61.584l-46.131 36.007a62.27 62.27 0 01-10.655-7.911l15.552-15.644a2.972 2.972 0 000-4.184 2.93 2.93 0 00-4.16 0L51.252 93.817a62.62 62.62 0 01-7.541-10.345l37.824-46.84c14.482-17.934 35.936-29.065 58.86-30.536l2.738-.176a.921.921 0 01.71.266c.111.11.293.347.276.71l-.071 1.44z"/></mask><path d="M147.971 1.97a6.79 6.79 0 00-5.213-1.956l-2.739.176c-24.556 1.577-47.538 13.5-63.052 32.712l-6.446 7.982-16.87-.498-.086-.001c-13.38 0-25.958 5.24-35.42 14.757L.868 72.522a2.971 2.971 0 00-.666 3.154 2.942 2.942 0 002.595 1.892l36.575 1.89-1.49 1.847a2.972 2.972 0 00-.301 3.28 69.091 69.091 0 001.8 3.128L30.706 98.07a2.973 2.973 0 00-.41 3.172 38.766 38.766 0 007.476 10.754 38.507 38.507 0 0010.913 7.742 2.93 2.93 0 003.111-.377 593.764 593.764 0 006.106-5.082 920.089 920.089 0 014.425-3.697c.847.513 1.705 1.01 2.576 1.487a2.924 2.924 0 003.209-.261l2.005-1.565 1.887 36.945a2.96 2.96 0 001.882 2.61 2.93 2.93 0 003.135-.67l17.279-17.38c9.461-9.517 14.671-22.169 14.671-35.627V79.915l6.816-5.32c20.429-15.946 32.87-39.991 34.135-65.97l.07-1.44a6.88 6.88 0 00-2.021-5.214zM9.704 72l12.601-12.674c8.34-8.389 19.425-13.013 31.217-13.024l12.33.364-21.888 27.105-34.26-1.77zm44.43 37.736a876.35 876.35 0 01-4.57 3.819 32.505 32.505 0 01-7.616-5.726 32.686 32.686 0 01-5.49-7.443l6.351-7.584a68.442 68.442 0 006.302 7.355 68.347 68.347 0 008.098 7.002 1730.52 1730.52 0 00-3.076 2.577zm48.955-13.615c0 11.877-4.598 23.044-12.948 31.443L77.54 140.239l-1.759-34.417 27.308-21.315V96.12zm40.958-87.785c-1.18 24.252-12.795 46.698-31.865 61.584l-46.131 36.007a62.27 62.27 0 01-10.655-7.911l15.552-15.644a2.972 2.972 0 000-4.184 2.93 2.93 0 00-4.16 0L51.252 93.817a62.62 62.62 0 01-7.541-10.345l37.824-46.84c14.482-17.934 35.936-29.065 58.86-30.536l2.738-.176a.921.921 0 01.71.266c.111.11.293.347.276.71l-.071 1.44z" fill="#314ED8"/><path d="M147.971 1.97l.563-.567-.563.568zM142.758.015l.051.799h.001l-.052-.799zm-2.739.176l-.051-.798.051.798zM76.967 32.902l.623.502-.623-.503zm-6.446 7.982l-.024.8.397.012.25-.31-.623-.502zm-16.87-.498l-.025.8h.001l.024-.8zM18.146 55.14l-.568-.563.568.563zM.867 72.522l.567.565-.567-.564zm-.666 3.155l.748-.286-.748.286zm2.595 1.892l.041-.799-.041.8zm36.575 1.89l.623.503.986-1.22-1.567-.081-.041.799zm-1.49 1.847l-.623-.502.622.502zm-.301 3.28l.703-.381-.703.38zm1.8 3.128l.613.514.369-.44-.3-.49-.682.416zM30.706 98.07l-.613-.513.613.513zm-.41 3.172l-.723.34v.001l.724-.341zm7.476 10.754l.57-.561v-.001l-.57.562zm10.913 7.742l.344-.722-.345.722zm3.11-.377l.506.62-.505-.62zm6.107-5.082l.514.613-.514-.613zm4.425-3.697l.414-.684-.487-.295-.438.363.51.616zm2.576 1.487l-.384.702.384-.702zm3.209-.261l-.492-.631.492.631zm2.005-1.565l.799-.041-.079-1.536-1.213.946.493.631zm1.887 36.945l-.799.041.799-.041zm1.882 2.61l-.289.746.289-.746zm3.135-.67l-.567-.564.567.564zm31.95-69.213l-.492-.63-.308.24v.39h.8zm6.816-5.32l.493.63-.493-.63zm34.135-65.97l.799.039-.799-.04zm.07-1.44l-.799-.04v.001l.799.039zM9.704 72.001l-.567-.564-1.263 1.27 1.789.093.041-.8zm12.601-12.675l-.567-.564.567.564zm31.217-13.024l.024-.8h-.024v.8zm12.33.364l.622.503 1.013-1.255-1.611-.048-.024.8zM43.964 73.771l-.041.8.407.02.257-.317-.623-.503zm10.17 35.965l.514.613-.515-.613zm-4.57 3.819l-.384.702.476.259.417-.345-.51-.616zm-7.616-5.726l.57-.561-.57.561zm-5.49-7.443l-.612-.514-.349.416.258.477.704-.379zm6.351-7.584l.643-.476-.604-.816-.652.779.613.513zm6.293 7.345l-.57.562.002.002.568-.564zm.005.005l.567-.564-.567.564zm.002.002l-.568.565.568-.565zm.002.003l.57-.562-.002-.002-.568.564zm8.098 7.002l.513.614.783-.654-.821-.604-.475.644zm45.88-11.038h.8v-.8h-.8v.8zm-25.55 44.118l-.798.041.092 1.804 1.274-1.281-.567-.564zm-1.758-34.417l-.492-.631-.328.256.021.415.8-.04zm27.308-21.315h.8v-1.64l-1.292 1.01.492.63zm0 11.614h-.8v.8h.8v-.8zm40.958-87.785l-.799-.04.799.04zM112.182 69.92l.492.63-.492-.63zm-46.131 36.007l-.406.69.47.275.428-.334-.492-.631zm-10.655-7.911l-.568-.564-.585.59.61.562.543-.588zm15.552-15.644l.568.564-.568-.564zm0-4.184l.568-.564-.568.564zm-4.16 0l-.567-.564.568.564zM51.252 93.817l-.596.534.566.63.597-.6-.567-.564zM43.71 83.472l-.623-.502-.346.428.277.477.691-.403zm37.824-46.84l.622.503-.622-.503zm58.86-30.536l-.052-.799.052.799zm2.738-.176l-.05-.799h-.001l.051.799zm.71.266l-.563.569.563-.569zm.276.71l.799.04v-.001l-.799-.039zm4.416-5.494a7.589 7.589 0 00-5.828-2.186l.104 1.597a5.99 5.99 0 014.598 1.726l1.126-1.137zm-5.827-2.186l-2.739.176.102 1.596 2.739-.175-.102-1.597zm-2.739.176c-24.781 1.59-47.97 13.621-63.623 33.007l1.245 1.005C92.963 14.366 115.738 2.551 140.07.988l-.102-1.596zM76.345 32.399L69.9 40.382l1.244 1.005 6.447-7.983-1.245-1.005zm-5.8 7.686l-16.87-.499-.048 1.6 16.87.498.048-1.6zm-16.87-.499a3.638 3.638 0 00-.11-.001v1.6h.061l.05-1.599zm-.11-.001c-13.593 0-26.376 5.326-35.986 14.992l1.134 1.129C28.024 46.34 40.4 41.185 53.565 41.185v-1.6zM17.579 54.577L.298 71.957l1.135 1.129 17.28-17.38-1.136-1.129zM.298 71.957a3.771 3.771 0 00-.845 4.004L.95 75.39a2.171 2.171 0 01.485-2.304L.3 71.958zm-.845 4.004a3.742 3.742 0 003.301 2.406l.082-1.598A2.142 2.142 0 01.949 75.39l-1.495.571zm3.3 2.406l36.576 1.89.083-1.597-36.576-1.89-.082 1.597zm35.995.589l-1.491 1.847 1.245 1.005 1.491-1.847-1.245-1.005zm-1.491 1.847a3.772 3.772 0 00-.382 4.162l1.407-.761a2.172 2.172 0 01.22-2.396l-1.245-1.005zm-.382 4.162a69.875 69.875 0 001.82 3.165l1.367-.834a68.119 68.119 0 01-1.78-3.092l-1.407.76zm1.89 2.234l-8.673 10.358 1.226 1.027 8.674-10.357-1.227-1.028zm-8.673 10.358a3.774 3.774 0 00-.52 4.025l1.448-.68a2.174 2.174 0 01.298-2.318l-1.226-1.027zm-.52 4.026a39.572 39.572 0 007.629 10.975l1.14-1.124a37.965 37.965 0 01-7.321-10.532l-1.448.681zm7.629 10.975a39.304 39.304 0 0011.139 7.902l.687-1.444a37.724 37.724 0 01-10.687-7.581l-1.14 1.123zm11.138 7.902c.51.243 1.058.362 1.602.362v-1.6a2.13 2.13 0 01-.913-.206l-.689 1.444zm1.602.362c.844 0 1.68-.286 2.36-.841l-1.012-1.24a2.128 2.128 0 01-1.348.481v1.6zm2.36-.841a605.226 605.226 0 006.114-5.089l-1.028-1.225c-2.085 1.749-4.235 3.554-6.098 5.074l1.012 1.24zm6.114-5.089a886.608 886.608 0 014.42-3.694l-1.02-1.232a850.149 850.149 0 00-4.428 3.701l1.029 1.225zm3.496-3.626a68.146 68.146 0 002.607 1.505l.768-1.404a68.04 68.04 0 01-2.546-1.469l-.829 1.368zm2.607 1.505a3.73 3.73 0 001.79.458v-1.6c-.35 0-.7-.086-1.022-.262l-.768 1.404zm1.79.458c.815 0 1.625-.267 2.295-.791l-.984-1.261a2.129 2.129 0 01-1.312.452v1.6zm2.295-.791l2.005-1.565-.984-1.261-2.005 1.565.984 1.261zm.714-2.154l1.887 36.945 1.598-.082-1.887-36.945-1.598.082zm1.887 36.945a3.76 3.76 0 002.392 3.315l.578-1.493a2.157 2.157 0 01-1.372-1.904l-1.598.082zm2.393 3.315c.435.168.89.251 1.343.251v-1.6c-.257 0-.516-.047-.767-.144l-.576 1.493zm1.343.251a3.73 3.73 0 002.647-1.103l-1.135-1.128a2.13 2.13 0 01-1.513.631v1.6zm2.647-1.103l17.28-17.38-1.135-1.128-17.28 17.38 1.135 1.128zm17.28-17.38c9.61-9.667 14.903-22.522 14.903-36.19h-1.6c0 13.247-5.127 25.696-14.438 35.062l1.134 1.128zm14.903-36.19V79.914h-1.6V96.12h1.6zm-.308-15.577l6.817-5.32-.985-1.261-6.816 5.32.984 1.261zm6.817-5.32c20.612-16.09 33.165-40.35 34.441-66.561l-1.598-.078c-1.253 25.748-13.584 49.576-33.828 65.377l.985 1.262zM150.72 8.664l.07-1.44-1.598-.078-.07 1.44 1.598.078zm.07-1.44a7.676 7.676 0 00-2.257-5.821l-1.127 1.136a6.079 6.079 0 011.786 4.607l1.598.078zM10.27 72.564L22.874 59.89l-1.135-1.128L9.137 71.437l1.134 1.128zM22.874 59.89c8.19-8.238 19.071-12.777 30.65-12.788l-.002-1.6c-12.005.011-23.294 4.721-31.783 13.26l1.135 1.128zM53.499 47.1l12.33.365.047-1.6-12.33-.364-.047 1.6zm11.73-.938L43.343 73.27l1.245 1.005L66.475 47.17l-1.245-1.006zm-21.224 26.81l-34.26-1.771-.082 1.598 34.26 1.77.082-1.597zm9.614 36.15c-1.536 1.289-3.108 2.609-4.566 3.815l1.02 1.233a915.896 915.896 0 004.575-3.822l-1.029-1.226zm-3.673 3.729a31.68 31.68 0 01-7.428-5.584l-1.14 1.123a33.293 33.293 0 007.802 5.866l.766-1.405zm-7.428-5.584a31.875 31.875 0 01-5.355-7.262l-1.408.759a33.461 33.461 0 005.624 7.626l1.139-1.123zm-5.446-6.369l6.35-7.583-1.226-1.027-6.35 7.583 1.226 1.027zm5.094-7.62a69.228 69.228 0 006.366 7.43l1.139-1.124a67.676 67.676 0 01-6.219-7.259l-1.285.953zm6.368 7.432l.02.02.006.005.002.002-.005-.005a.182.182 0 01-.017-.017l1.134-1.128a.866.866 0 00-.025-.024l-.003-.002.006.005.017.016-1.135 1.128zm.006.005l-.03-.03a.23.23 0 01-.017-.021l-.01-.011-.002-.004v.001a.51.51 0 00.06.068l1.135-1.129a.786.786 0 01.047.051c.004.006.007.01.01.012a.18.18 0 00.002.004v-.001l-.003-.003a.468.468 0 00-.01-.013c-.005-.005-.01-.012-.019-.02a.746.746 0 00-.029-.032l-1.134 1.128zm.001.003l.04.037.011.01.003.002.001.001-.003-.003-.01-.009a.592.592 0 01-.039-.036l1.135-1.128a.848.848 0 00-.051-.047l-.003-.003h-.001l.003.002.01.01c.01.007.023.02.039.035l-1.135 1.129zm.001 0a69.09 69.09 0 008.193 7.084l.949-1.288a67.57 67.57 0 01-8.003-6.92l-1.139 1.124zm8.155 5.826c-1.016.848-2.056 1.72-3.078 2.578l1.029 1.226c1.022-.858 2.06-1.73 3.074-2.576l-1.025-1.228zm45.592-10.424c0 11.667-4.515 22.63-12.715 30.879l1.134 1.128c8.5-8.55 13.181-19.919 13.181-32.007h-1.6zM89.574 127l-12.602 12.675 1.135 1.128 12.601-12.675L89.574 127zm-11.235 13.198l-1.759-34.417-1.598.081 1.759 34.418 1.598-.082zm-2.066-33.746l27.308-21.314-.984-1.262-27.308 21.315.984 1.261zm26.016-21.945V96.12h1.6V84.507h-1.6zm.8 12.414v-1.6 1.6zm40.159-88.624c-1.169 24.02-12.672 46.25-31.559 60.992l.985 1.261c19.255-15.03 30.981-37.692 32.172-62.175l-1.598-.078zm-31.559 60.992l-46.13 36.007.984 1.262 46.131-36.008-.985-1.261zm-45.233 35.948a61.483 61.483 0 01-10.518-7.81l-1.084 1.177a63.113 63.113 0 0010.791 8.013l.81-1.38zM55.963 98.58l15.553-15.644-1.135-1.128-15.553 15.644 1.135 1.128zm15.553-15.644a3.772 3.772 0 000-5.312l-1.135 1.128a2.172 2.172 0 010 3.056l1.135 1.128zm0-5.312a3.73 3.73 0 00-5.295 0l1.135 1.128a2.13 2.13 0 013.025 0l1.135-1.128zm-5.295 0L50.683 93.253l1.135 1.128 15.538-15.63-1.135-1.127zM51.846 93.282A61.823 61.823 0 0144.4 83.07l-1.383.805a63.414 63.414 0 007.637 10.476l1.19-1.069zm-7.514-9.307l37.824-46.84-1.245-1.006-37.824 46.84 1.245 1.006zm37.824-46.84C96.498 19.374 117.745 8.35 140.445 6.894l-.103-1.597c-23.148 1.486-44.809 12.725-59.43 30.832l1.244 1.006zm58.289-30.241l2.738-.176-.102-1.596-2.739.175.103 1.597zm2.737-.176a.108.108 0 01.059.01c.017.008.031.02.038.027l1.126-1.137a1.722 1.722 0 00-1.323-.497l.1 1.597zm.097.037a.143.143 0 01.037.063c.002.008.003.02.002.04l1.599.077a1.73 1.73 0 00-.512-1.317l-1.126 1.137zm.039.102l-.07 1.44 1.598.078.071-1.44-1.599-.078z" fill="#fff" mask="url(#path-7-inside-1)"/></svg>