<svg width="24" height="24" fill="none" xmlns="http://www.w3.org/2000/svg"><mask id="path-1-inside-1" fill="#fff"><path fill-rule="evenodd" clip-rule="evenodd" d="M0 5.367c0 9.907 8.06 17.966 17.967 17.966a5.373 5.373 0 005.292-6.254 5.104 5.104 0 00-.216-.853c-.13-.38-.45-.664-.84-.754l-6.96-1.597a1.178 1.178 0 00-1.068.295c-.166.159-.17.164-.929 1.611-2.485-1.131-4.52-3.16-5.692-5.696 1.447-.758 1.45-.761 1.609-.927.273-.284.384-.686.295-1.068L7.861 1.132a1.169 1.169 0 00-.755-.843A5.076 5.076 0 006.26.076 5.372 5.372 0 000 5.366zm2 0a3.036 3.036 0 013.416-3.009L6.653 7.75l-.627.327c-1.005.525-1.799.94-1.382 1.857 1.37 3.903 4.52 7.053 8.376 8.407.982.395 1.367-.34 1.898-1.353l.002-.004c.07-.137.146-.28.22-.421l.112-.215 5.39 1.237A3.037 3.037 0 0117.633 21C9.013 21 2 13.987 2 5.367z"/></mask><path fill-rule="evenodd" clip-rule="evenodd" d="M0 5.367c0 9.907 8.06 17.966 17.967 17.966a5.373 5.373 0 005.292-6.254 5.104 5.104 0 00-.216-.853c-.13-.38-.45-.664-.84-.754l-6.96-1.597a1.178 1.178 0 00-1.068.295c-.166.159-.17.164-.929 1.611-2.485-1.131-4.52-3.16-5.692-5.696 1.447-.758 1.45-.761 1.609-.927.273-.284.384-.686.295-1.068L7.861 1.132a1.169 1.169 0 00-.755-.843A5.076 5.076 0 006.26.076 5.372 5.372 0 000 5.366zm2 0a3.036 3.036 0 013.416-3.009L6.653 7.75l-.627.327c-1.005.525-1.799.94-1.382 1.857 1.37 3.903 4.52 7.053 8.376 8.407.982.395 1.367-.34 1.898-1.353l.002-.004c.07-.137.146-.28.22-.421l.112-.215 5.39 1.237A3.037 3.037 0 0117.633 21C9.013 21 2 13.987 2 5.367z" fill="#CFCFCF"/><path d="M23.259 17.079l-.296.048v.002l.296-.05zm-.216-.853l-.284.098.284-.098zm-.84-.754l.067-.292-.067.292zm-6.96-1.597l.068-.292h-.003l-.064.292zm-1.068.295l.207.217-.207-.217zm-.929 1.611l-.124.274.258.117.132-.251-.266-.14zm-5.692-5.696l-.139-.266-.253.132.12.26.272-.126zm1.609-.927l-.217-.207.217.207zm.295-1.068l-.292.067.292-.067zM7.861 1.132l-.292.067.292-.067zM7.106.289l.099-.283h-.001l-.098.283zM6.26.076L6.21.37l.003.001.047-.296zm-.844 2.282l.292-.067-.046-.204-.208-.026-.038.297zM6.653 7.75l.138.266.206-.107-.052-.226-.292.067zm-.627.327l.139.266-.139-.266zM4.644 9.934l.283-.1-.005-.012-.005-.013-.273.125zm8.376 8.407l.113-.279-.013-.004-.1.283zm1.898-1.353l-.266-.14.266.14zm.002-.004l.265.14.001-.002-.266-.138zm.22-.421l-.266-.14.265.14zm.112-.215l.067-.292-.225-.052-.108.205.266.139zm5.39 1.237l.298-.039-.027-.207-.204-.047-.067.293zm-2.675 5.448C8.225 23.033.3 15.108.3 5.367h-.6c0 10.073 8.194 18.266 18.267 18.266v-.6zm5.066-5.066a5.073 5.073 0 01-5.066 5.066v.6a5.673 5.673 0 005.666-5.666h-.6zm-.07-.838c.046.272.07.554.07.838h.6c0-.318-.027-.634-.079-.938l-.591.1zm-.204-.805c.09.26.159.527.204.803l.592-.096a5.394 5.394 0 00-.229-.903l-.567.197zm-.623-.56c.29.068.527.28.623.56l.567-.196a1.464 1.464 0 00-1.056-.948l-.134.585zm-6.96-1.596l6.96 1.597.134-.585-6.96-1.597-.133.585zm-.793.219a.878.878 0 01.796-.219l.13-.586a1.478 1.478 0 00-1.342.372l.416.433zm-.87 1.534c.38-.728.567-1.083.68-1.278a1.37 1.37 0 01.11-.173.751.751 0 01.08-.083l-.415-.433c-.041.039-.087.082-.137.146a2.059 2.059 0 00-.158.242c-.12.21-.315.58-.692 1.3l.531.279zm-6.231-5.71c1.2 2.6 3.289 4.682 5.84 5.844l.249-.546c-2.419-1.102-4.403-3.078-5.544-5.55l-.545.251zm1.664-1.26a.735.735 0 01-.083.08 1.494 1.494 0 01-.171.109c-.195.112-.55.298-1.277.679l.278.531c.72-.376 1.09-.57 1.298-.69.106-.061.18-.109.242-.157.064-.05.107-.096.147-.137l-.434-.415zm.22-.794a.864.864 0 01-.22.794l.434.415c.342-.357.482-.862.37-1.344l-.584.135zM7.569 1.2l1.597 6.958.585-.134-1.598-6.958-.584.134zM7.008.573a.869.869 0 01.56.626l.585-.134A1.469 1.469 0 007.205.006l-.197.567zM6.213.372c.265.043.533.11.795.201l.196-.567a5.376 5.376 0 00-.896-.226l-.095.592zM5.367.3c.286 0 .569.024.842.071l.102-.59A5.56 5.56 0 005.367-.3v.6zM.3 5.367A5.072 5.072 0 015.367.3v-.6A5.672 5.672 0 00-.3 5.367h.6zm4.733-3.333A3.336 3.336 0 001.7 5.367h.6a2.736 2.736 0 012.733-2.733v-.6zm.42.027a3.338 3.338 0 00-.42-.027v.6c.114 0 .228.007.345.022l.076-.595zm1.492 5.622L5.708 2.29l-.584.135 1.236 5.39.585-.133zm-.78.66l.626-.327-.277-.532c-.202.105-.423.22-.627.328l.279.531zM4.918 9.809c-.086-.188-.097-.323-.08-.425a.619.619 0 01.181-.317c.23-.24.627-.452 1.147-.724l-.278-.531c-.486.253-.988.512-1.302.84a1.213 1.213 0 00-.338.626c-.045.25 0 .51.124.78l.546-.249zm8.203 8.249c-3.77-1.323-6.852-4.405-8.193-8.224l-.566.199c1.4 3.989 4.616 7.207 8.56 8.59l.199-.565zm1.532-1.21c-.275.525-.479.905-.717 1.123a.623.623 0 01-.326.171c-.115.018-.267.005-.477-.08l-.224.557c.281.113.546.156.796.116.252-.04.46-.16.636-.322.333-.304.588-.798.843-1.286l-.531-.279zm.002-.003l-.002.003.531.279.002-.004-.531-.279zm.22-.421c-.074.14-.15.284-.22.422l.532.276c.07-.136.145-.279.22-.42l-.532-.279zm.112-.215l-.112.215.531.278.113-.215-.532-.278zm5.723 1.083l-5.39-1.236-.134.584 5.39 1.237.134-.585zm.258.675c0-.142-.01-.282-.027-.42l-.595.076c.014.113.022.227.022.344h.6zm-3.334 3.334a3.337 3.337 0 003.334-3.334h-.6a2.737 2.737 0 01-2.734 2.734v.6zM1.7 5.367c0 8.785 7.147 15.934 15.933 15.934v-.6C9.18 20.7 2.3 13.82 2.3 5.367h-.6z" fill="#242A34" mask="url(#path-1-inside-1)"/></svg>