<svg width="48" height="46" fill="none" xmlns="http://www.w3.org/2000/svg"><path d="M38.52 12.634l.035.178.18.021a10.263 10.263 0 01-1.183 20.45s0 0 0 0h-7.508a1.252 1.252 0 010-2.505h7.509a7.759 7.759 0 100-15.517h-.002a1.342 1.342 0 01-1.332-1.122A12.264 12.264 0 0025.446 3.372c-6.728-.779-12.814 4.045-13.592 10.773v.001a1.252 1.252 0 01-1.244 1.115 7.759 7.759 0 00-.09 15.518h7.51a1.252 1.252 0 010 2.503h-7.51 0A10.263 10.263 0 01.319 24.194c-.648-5.63 3.39-10.72 9.02-11.37l.182-.02.035-.179A14.768 14.768 0 0121.15 1.038c7.999-1.594 15.776 3.597 17.37 11.596z" fill="#fff" stroke="#5263E3" stroke-width=".5"/><path d="M29.522 36.787h0l-3.807 3.809-.427.426V21.518a1.252 1.252 0 10-2.503 0v19.503l-.427-.426-3.807-3.809-.003-.003h0a1.251 1.251 0 00-1.77-.03h0a1.252 1.252 0 000 1.8l.003.003h0l6.369 6.37c.116.116.253.208.404.271h.002c.307.13.654.13.961 0h.002c.15-.063.288-.155.404-.27l6.369-6.371.003-.003h0c.497-.48.511-1.273.031-1.77l-1.804.003zm0 0l.005-.005m-.005.005l.005-.005m0 0l.03-.03m-.03.03l.03-.03m0 0a1.252 1.252 0 011.769.032l-1.77-.031z" fill="#fff" stroke="#5263E3" stroke-width=".5"/></svg>